<svg width="233" height="283" viewBox="0 0 233 283" fill="none" xmlns="http://www.w3.org/2000/svg">
<g filter="url(#filter0_d)">
<path d="M100.523 33.4925V187.52H37.5921C40.7034 172.616 48.2388 158.923 59.5638 147.939C70.8824 136.951 84.9845 129.647 100.315 126.651C100.233 126.137 100.152 125.624 100.075 125.109H37.8807C37.8823 125.109 37.8823 125.107 37.884 125.107H37.8807C37.5807 125.388 37.2855 125.675 36.9854 125.96C26.6828 135.964 18.5766 147.616 12.9133 160.593C7.03954 174.037 4.05543 188.31 4.02771 203.023L4 218.571H131.997H132.204V125.107H132.232L132.227 124.03L132.204 109.584V33.2437H132.269H132.478V33.1946H195.41C192.303 48.0984 184.766 61.7916 173.443 72.7766C165.322 80.6572 155.776 86.6409 145.369 90.5012V94.054H196.724C206.695 84.2116 214.554 72.8035 220.093 60.1214C225.96 46.677 228.946 32.4054 228.972 17.6933L229 2.14286H100.523V33.4925Z" fill="#E5E5E5"/>
</g>
<g filter="url(#filter1_d)">
<path d="M100.429 126.369V124.286H38.289C38.2873 124.286 38.2873 124.288 38.2857 124.288H99.9837C100.06 125.002 100.141 125.714 100.221 126.426C100.221 126.426 100.222 126.429 100.223 126.429C100.293 126.407 100.357 126.391 100.429 126.369Z" fill="#E5E5E5"/>
</g>
<g filter="url(#filter2_d)">
<path d="M35.9326 93.289V32.4946C51.3335 35.4636 65.5024 42.7636 76.8685 53.7807C88.1792 64.7504 95.7159 78.4186 98.8202 93.289H35.9326ZM99.9804 124.286H100.429V32.8379C100.096 32.5041 99.7637 32.1751 99.4248 31.8477C89.1276 21.8635 77.1293 14.0225 63.7784 8.54955C49.9419 2.8741 35.2547 -2.10751e-05 20.1276 -2.10751e-05H4V124.286H37.8295H37.8327H99.9804Z" fill="#0636AC"/>
</g>
<g filter="url(#filter3_d)">
<path d="M145.429 125.281H195.134V186.073C179.824 183.109 165.75 175.805 154.457 164.788C151.107 161.522 148.089 158.012 145.429 154.301V197.884C152.25 202.723 159.621 206.783 167.463 210.017C181.212 215.693 195.805 218.571 210.838 218.571H226.857V94.2857H196.422H145.429V125.281Z" fill="#0636AC"/>
</g>
<path d="M58.55 266H54.3C53.6 266 53.25 265.65 53.25 264.95V234.9C53.25 234.2 53.6 233.85 54.3 233.85H70.25C70.9167 233.85 71.25 234.2 71.25 234.9V238.3C71.25 239 70.9167 239.35 70.25 239.35H60.2C59.8 239.35 59.6 239.533 59.6 239.9V247.65C59.6 248.05 59.8 248.25 60.2 248.25H68.75C69.45 248.25 69.8 248.6 69.8 249.3V252.65C69.8 253.383 69.45 253.75 68.75 253.75H60.2C59.8 253.75 59.6 253.933 59.6 254.3V264.95C59.6 265.65 59.25 266 58.55 266ZM80.8098 266H76.5598C75.8598 266 75.5098 265.65 75.5098 264.95V231.9C75.5098 231.2 75.8598 230.85 76.5598 230.85H80.8098C81.5098 230.85 81.8598 231.2 81.8598 231.9V264.95C81.8598 265.65 81.5098 266 80.8098 266ZM99.8133 266H95.3633C92.7299 266 90.6966 265.3 89.2633 263.9C87.8299 262.5 87.1133 260.483 87.1133 257.85V248.65C87.1133 246.017 87.8299 244 89.2633 242.6C90.6966 241.2 92.7299 240.5 95.3633 240.5H99.8133C102.413 240.5 104.43 241.217 105.863 242.65C107.33 244.05 108.063 246.05 108.063 248.65V257.85C108.063 260.45 107.33 262.467 105.863 263.9C104.43 265.3 102.413 266 99.8133 266ZM96.3133 260.55H98.8633C99.9299 260.55 100.68 260.333 101.113 259.9C101.58 259.467 101.813 258.717 101.813 257.65V248.85C101.813 247.783 101.58 247.033 101.113 246.6C100.68 246.167 99.9299 245.95 98.8633 245.95H96.3133C95.2466 245.95 94.4966 246.167 94.0633 246.6C93.6299 247.033 93.4133 247.783 93.4133 248.85V257.65C93.4133 258.717 93.6299 259.467 94.0633 259.9C94.4966 260.333 95.2466 260.55 96.3133 260.55ZM123.253 266H117.553C116.919 266 116.519 265.65 116.353 264.95L111.353 241.55C111.219 240.85 111.469 240.5 112.103 240.5H116.903C117.636 240.5 118.036 240.85 118.103 241.55L120.353 258.65H120.753L124.303 241.55C124.403 240.85 124.786 240.5 125.453 240.5H129.853C130.553 240.5 130.969 240.85 131.103 241.55L134.553 258.65H134.953L137.253 241.55C137.353 240.85 137.753 240.5 138.453 240.5H143.253C143.919 240.5 144.169 240.85 144.003 241.55L139.003 264.95C138.869 265.65 138.469 266 137.803 266H132.103C131.436 266 131.036 265.65 130.903 264.95L127.853 248.05H127.453L124.453 264.95C124.353 265.65 123.953 266 123.253 266ZM166.667 266H155.617C152.984 266 150.951 265.3 149.517 263.9C148.084 262.5 147.367 260.483 147.367 257.85V248.65C147.367 246.017 148.084 244 149.517 242.6C150.951 241.2 152.984 240.5 155.617 240.5H159.567C162.201 240.5 164.234 241.2 165.667 242.6C167.101 244 167.817 246.017 167.817 248.65V255C167.817 255.7 167.467 256.05 166.767 256.05H154.217C153.817 256.05 153.617 256.233 153.617 256.6V257.7C153.617 258.733 153.834 259.483 154.267 259.95C154.734 260.383 155.501 260.6 156.567 260.6H166.667C167.367 260.6 167.717 260.967 167.717 261.7V265C167.717 265.367 167.634 265.633 167.467 265.8C167.334 265.933 167.067 266 166.667 266ZM154.217 251.8H161.017C161.384 251.8 161.567 251.617 161.567 251.25V248.85C161.567 247.783 161.351 247.033 160.917 246.6C160.484 246.167 159.734 245.95 158.667 245.95H156.567C155.501 245.95 154.751 246.167 154.317 246.6C153.884 247.033 153.667 247.783 153.667 248.85V251.25C153.667 251.617 153.851 251.8 154.217 251.8ZM177.874 266H173.624C172.924 266 172.574 265.65 172.574 264.95V241.55C172.574 240.85 172.924 240.5 173.624 240.5H177.874C178.574 240.5 178.924 240.85 178.924 241.55V243.25H179.124C179.491 242.35 180.141 241.667 181.074 241.2C182.008 240.733 182.991 240.5 184.024 240.5H185.824C186.491 240.5 186.824 240.85 186.824 241.55V245C186.824 245.4 186.741 245.683 186.574 245.85C186.441 245.983 186.191 246.033 185.824 246H182.374C180.074 246 178.924 247.3 178.924 249.9V264.95C178.924 265.65 178.574 266 177.874 266Z" fill="#E5E5E5"/>
<defs>
<filter id="filter0_d" x="0" y="2.14285" width="233" height="224.429" filterUnits="userSpaceOnUse" color-interpolation-filters="sRGB">
<feFlood flood-opacity="0" result="BackgroundImageFix"/>
<feColorMatrix in="SourceAlpha" type="matrix" values="0 0 0 0 0 0 0 0 0 0 0 0 0 0 0 0 0 0 127 0"/>
<feOffset dy="4"/>
<feGaussianBlur stdDeviation="2"/>
<feColorMatrix type="matrix" values="0 0 0 0 0 0 0 0 0 0 0 0 0 0 0 0 0 0 0.25 0"/>
<feBlend mode="normal" in2="BackgroundImageFix" result="effect1_dropShadow"/>
<feBlend mode="normal" in="SourceGraphic" in2="effect1_dropShadow" result="shape"/>
</filter>
<filter id="filter1_d" x="34.2857" y="124.286" width="70.1429" height="10.1429" filterUnits="userSpaceOnUse" color-interpolation-filters="sRGB">
<feFlood flood-opacity="0" result="BackgroundImageFix"/>
<feColorMatrix in="SourceAlpha" type="matrix" values="0 0 0 0 0 0 0 0 0 0 0 0 0 0 0 0 0 0 127 0"/>
<feOffset dy="4"/>
<feGaussianBlur stdDeviation="2"/>
<feColorMatrix type="matrix" values="0 0 0 0 0 0 0 0 0 0 0 0 0 0 0 0 0 0 0.25 0"/>
<feBlend mode="normal" in2="BackgroundImageFix" result="effect1_dropShadow"/>
<feBlend mode="normal" in="SourceGraphic" in2="effect1_dropShadow" result="shape"/>
</filter>
<filter id="filter2_d" x="0" y="-3.05176e-05" width="104.429" height="132.286" filterUnits="userSpaceOnUse" color-interpolation-filters="sRGB">
<feFlood flood-opacity="0" result="BackgroundImageFix"/>
<feColorMatrix in="SourceAlpha" type="matrix" values="0 0 0 0 0 0 0 0 0 0 0 0 0 0 0 0 0 0 127 0"/>
<feOffset dy="4"/>
<feGaussianBlur stdDeviation="2"/>
<feColorMatrix type="matrix" values="0 0 0 0 0 0 0 0 0 0 0 0 0 0 0 0 0 0 0.25 0"/>
<feBlend mode="normal" in2="BackgroundImageFix" result="effect1_dropShadow"/>
<feBlend mode="normal" in="SourceGraphic" in2="effect1_dropShadow" result="shape"/>
</filter>
<filter id="filter3_d" x="141.429" y="94.2857" width="89.4286" height="132.286" filterUnits="userSpaceOnUse" color-interpolation-filters="sRGB">
<feFlood flood-opacity="0" result="BackgroundImageFix"/>
<feColorMatrix in="SourceAlpha" type="matrix" values="0 0 0 0 0 0 0 0 0 0 0 0 0 0 0 0 0 0 127 0"/>
<feOffset dy="4"/>
<feGaussianBlur stdDeviation="2"/>
<feColorMatrix type="matrix" values="0 0 0 0 0 0 0 0 0 0 0 0 0 0 0 0 0 0 0.25 0"/>
<feBlend mode="normal" in2="BackgroundImageFix" result="effect1_dropShadow"/>
<feBlend mode="normal" in="SourceGraphic" in2="effect1_dropShadow" result="shape"/>
</filter>
</defs>
</svg>
