<svg width="96" height="96" viewBox="0 0 96 96" fill="none" xmlns="http://www.w3.org/2000/svg">
<path d="M94.2622 1.83376C93.7473 1.57972 93.1837 1.48091 92.6327 1.52549C92.6392 1.52112 92.6451 1.51645 92.6517 1.51208H32.3914C31.7275 1.51208 31.081 1.72404 30.5461 2.1171L1.32599 23.5836C1.32848 23.5826 1.33098 23.5823 1.33316 23.5817C0.527716 24.1453 0 25.0782 0 26.1355V91.3712C0 93.0927 1.3955 94.4882 3.11704 94.4882H64.8314C65.6175 94.4882 66.3338 94.1949 66.8821 93.7149C66.912 93.689 66.9429 93.6647 66.9719 93.6373L95.0234 67.1424C95.6468 66.5536 96 65.7338 96 64.8763V4.62913C96 3.44247 95.3264 2.35867 94.2622 1.83376ZM33.4132 7.74617H53.5421L34.9396 23.0188H12.6247L33.4132 7.74617ZM46.1064 44.3038H23.6637C21.0856 44.3038 18.9881 42.2064 18.9881 39.6282C18.9881 37.0501 21.0856 34.9527 23.6637 34.9527H46.1064C48.6845 34.9527 50.782 37.0501 50.782 39.6282C50.782 42.2064 48.6845 44.3038 46.1064 44.3038ZM63.7741 23.0184H44.2814L62.8842 7.74586H83.6945L63.7741 23.0184Z" fill="black"/>
</svg>
