<svg width="346" height="584" viewBox="0 0 346 584" fill="none" xmlns="http://www.w3.org/2000/svg">
<g clip-path="url(#clip0)">
<path d="M122.123 266.88L104.123 248.88C103.265 248.022 101.975 247.764 100.853 248.232C99.7312 248.7 98.9993 249.786 98.9993 250.998V259.998H60.0005C41.773 259.998 27.0015 274.77 27.0015 292.997C27.0015 294.653 28.3455 295.997 30.0014 295.997H42.001C43.657 295.997 45.0009 294.653 45.0009 292.997C45.0009 284.711 51.7147 277.997 60.0005 277.997H98.9993V286.997C98.9993 288.209 99.7312 289.307 100.853 289.769C101.975 290.237 103.265 289.979 104.123 289.121L122.123 271.122C123.293 269.952 123.293 268.05 122.123 266.88Z" fill="black"/>
<path d="M119.999 295.997H107.999C106.343 295.997 104.999 297.341 104.999 298.997C104.999 307.283 98.2853 313.997 89.9995 313.997H51.0008V304.997C51.0008 303.785 50.2688 302.687 49.1468 302.225C48.0248 301.763 46.7409 302.021 45.8769 302.879L27.8775 320.878C26.7075 322.048 26.7075 323.95 27.8775 325.12L45.8769 343.12C46.7349 343.978 48.0248 344.236 49.1468 343.768C50.2688 343.3 51.0008 342.208 51.0008 340.996V331.996H89.9995C108.227 331.996 122.999 317.224 122.999 298.997C122.999 297.341 121.655 295.997 119.999 295.997Z" fill="black"/>
</g>
<g clip-path="url(#clip1)">
<path d="M325.362 27.4761L305.791 10.1029C305.443 9.79457 304.995 9.62427 304.531 9.62427H292.646C292.093 9.62427 291.567 9.86589 291.207 10.2854C290.846 10.7052 290.687 11.2614 290.77 11.8084C290.868 12.4538 290.918 13.1139 290.918 13.771C290.918 20.8937 285.124 26.6884 278.001 26.6884C270.878 26.6884 265.083 20.8937 265.083 13.771C265.083 13.1139 265.133 12.4535 265.232 11.8084C265.315 11.2611 265.155 10.7052 264.795 10.2854C264.434 9.86562 263.908 9.62427 263.355 9.62427H251.471C251.006 9.62427 250.558 9.79457 250.211 10.1029L230.639 27.4761C230.026 28.0201 229.832 28.8961 230.157 29.6483L237.274 46.1321C237.516 46.6924 238.013 47.1024 238.609 47.2334C239.205 47.3649 239.828 47.2011 240.283 46.7941L249.572 38.4803V84.4772C249.572 85.5256 250.422 86.3755 251.471 86.3755H304.531C305.579 86.3755 306.429 85.5256 306.429 84.4772V38.4803L315.719 46.7941C316.174 47.2011 316.797 47.3646 317.393 47.2334C317.989 47.1021 318.486 46.6924 318.728 46.1321L325.845 29.6483C326.17 28.8961 325.975 28.0201 325.362 27.4761Z" fill="black"/>
</g>
<path d="M110.447 92.002C100.194 67.5995 106.43 23.4613 106.494 23.0181C106.614 22.1905 106.368 21.3514 105.821 20.7189C105.274 20.0866 104.478 19.723 103.642 19.723H91.6049V29.6612C91.6049 31.2528 90.3147 32.5429 88.7232 32.5429C88.5278 32.5429 88.3373 32.523 88.1529 32.4859V13.1522C88.1526 5.89992 82.2518 0 74.9993 0C67.747 0 61.8471 5.89992 61.8471 13.1522V32.4861C61.6626 32.523 61.4722 32.5432 61.2768 32.5432C59.6855 32.5432 58.3951 31.2531 58.3951 29.6615V19.723H46.3573C45.521 19.723 44.7257 20.0866 44.1782 20.7189C43.6309 21.3514 43.3854 22.1905 43.5053 23.0181C43.5696 23.4611 49.8058 67.5995 39.5525 92.002C39.1788 92.8916 39.2753 93.9094 39.8093 94.7131C40.3435 95.5167 41.2443 95.9997 42.2094 95.9997H107.791C108.756 95.9997 109.657 95.5167 110.191 94.7131C110.725 93.9094 110.821 92.8916 110.447 92.002ZM74.9993 5.76333C79.0742 5.76333 82.3893 9.07781 82.3893 13.1522V19.723H67.6107V13.1522C67.6107 9.07781 70.9252 5.76333 74.9993 5.76333Z" fill="black"/>
<path d="M235.001 514.939C235.001 514.921 235.002 514.904 235.003 514.886C235.029 513.692 235.995 512.741 237.213 512.741H237.793L246.755 495.548C247.133 494.822 247.887 494.37 248.719 494.37L264.02 494.367L263.436 489.776C263.269 487.941 263.841 486.209 265.046 484.898C266.249 483.589 267.928 482.868 269.774 482.868H317.261C318.455 482.868 319.469 483.785 319.583 484.967L320.059 488.75H293.003C291.247 488.75 289.86 490.163 289.906 491.906C289.952 493.649 291.413 495.062 293.17 495.062H302.194C302.193 495.067 302.191 495.071 302.19 495.075H328.691C329.933 495.075 330.967 496.075 330.999 497.307C331.032 498.54 330.051 499.539 328.809 499.539H293.724C292.095 499.788 290.879 501.186 290.923 502.878C290.973 504.736 292.523 506.243 294.392 506.258H318.58C319.835 506.258 320.879 507.268 320.912 508.513C320.945 509.758 319.954 510.767 318.699 510.767H294.796C293.144 510.996 291.903 512.404 291.948 514.113C291.997 515.98 293.563 517.495 295.445 517.495H322.868V517.497H325.172C326.427 517.497 327.47 518.506 327.503 519.752C327.536 520.997 326.546 522.006 325.291 522.006H323.302L324.08 530.081C324.247 531.916 323.675 533.648 322.47 534.959C321.268 536.268 319.588 536.989 317.742 536.989H316.026C315.209 541.627 311.165 545.132 306.218 545.132C301.271 545.132 297.041 541.627 295.98 536.989H274.572C272.841 536.989 271.203 536.332 269.918 535.257C268.742 536.376 267.185 536.989 265.484 536.989H265.132C264.314 541.627 260.27 545.132 255.323 545.132C250.376 545.132 246.146 541.627 245.085 536.989H243.672C239.991 536.989 236.726 534.019 236.394 530.37L235.01 515.15C235.008 515.13 235.009 515.11 235.008 515.089C235.005 515.057 235.001 515.027 235 514.995C235 514.976 235.001 514.958 235.001 514.939ZM306.098 540.623C309.231 540.623 311.712 538.094 311.63 534.987C311.548 531.879 308.933 529.35 305.801 529.35C302.669 529.35 300.188 531.879 300.27 534.987C300.352 538.094 302.966 540.623 306.098 540.623ZM255.204 540.623C258.336 540.623 260.817 538.094 260.735 534.987C260.653 531.879 258.038 529.35 254.906 529.35C251.774 529.35 249.293 531.879 249.375 534.987C249.457 538.094 252.072 540.623 255.204 540.623ZM240.921 530.081C241.04 531.381 242.244 532.48 243.552 532.48H245.081C246.093 528.094 250.021 524.841 254.787 524.841C259.554 524.841 263.654 528.094 264.897 532.48H265.365C265.942 532.48 266.458 532.265 266.816 531.874C267.177 531.482 267.347 530.947 267.295 530.369L264.43 498.876L257.85 498.877L258.893 510.342C259.06 512.176 258.489 513.909 257.284 515.22C256.081 516.529 254.402 517.25 252.555 517.25H239.754L240.921 530.081Z" fill="black"/>
<g clip-path="url(#clip2)">
<path d="M120.056 523.88C118.756 521.524 116.302 520.061 113.65 520.061C112.398 520.061 111.154 520.395 110.054 521.027L88.6501 533.332C88.3707 533.493 88.1691 533.764 88.0925 534.082C87.7192 535.638 86.8403 537.81 84.7758 539.322C82.4906 540.996 79.3993 541.345 75.6324 540.359C75.6098 540.353 75.5873 540.347 75.5675 540.34L63.2201 536.427C62.4735 536.19 62.0548 535.377 62.2866 534.615C62.4722 534.006 63.0162 533.596 63.6403 533.596C63.7821 533.596 63.9241 533.618 64.0616 533.662L76.3448 537.555C76.3644 537.561 76.3845 537.567 76.4046 537.572C79.3013 538.319 81.5635 538.111 83.122 536.97C85.0909 535.528 85.4376 532.993 85.4786 532.62C85.4801 532.609 85.4814 532.597 85.4822 532.585C85.483 532.579 85.4832 532.575 85.4835 532.574C85.4837 532.57 85.484 532.566 85.4843 532.563C85.4845 532.56 85.4845 532.558 85.4848 532.555C85.7191 529.429 83.743 526.543 80.7824 525.689L80.728 525.672C80.6378 525.642 71.5511 522.613 65.7615 520.926C65.1183 520.739 63.3459 520.303 60.7825 520.303C57.1975 520.303 51.8493 521.171 46.7194 525.31L25.4303 542.89C24.9433 543.292 24.8569 544.016 25.2348 544.526L36.7619 560.069C36.9488 560.32 37.2262 560.486 37.5327 560.528C37.584 560.535 37.6353 560.538 37.6869 560.538C37.9414 560.538 38.1907 560.453 38.3946 560.292L53.2422 548.622C53.5758 548.36 54.0231 548.261 54.433 548.36L78.4142 554.145C80.1925 554.574 82.1145 554.297 83.7051 553.382L117.261 534.09C120.789 532.061 122.043 527.481 120.056 523.88Z" fill="black"/>
<path d="M106.72 469.462H62.8927C61.4691 469.462 60.3146 470.64 60.3146 472.094V484.07C60.3146 485.523 61.4691 486.701 62.8927 486.701H63.8556V512.13C63.8556 513.584 65.0098 514.762 66.4336 514.762H103.178C104.602 514.762 105.756 513.584 105.756 512.13V486.701H106.72C108.143 486.701 109.298 485.523 109.298 484.069V472.094C109.298 470.64 108.143 469.462 106.72 469.462ZM90.2292 492.954H79.3828C78.2456 492.954 77.3203 492.009 77.3203 490.849C77.3203 489.688 78.2456 488.743 79.3828 488.743H90.2292C91.3664 488.743 92.2916 489.688 92.2916 490.849C92.2916 492.009 91.3664 492.954 90.2292 492.954ZM104.142 481.438H103.178H66.4336H65.4707V474.726H104.142V481.438Z" fill="black"/>
</g>
<path d="M315.506 260.429C314.815 260.429 314.134 260.465 313.458 260.521V254.472C313.458 250.352 310.106 247 305.986 247H259.807C255.687 247 252.335 250.352 252.335 254.472V335.528C252.335 339.648 255.687 343 259.807 343H305.986C310.106 343 313.458 339.648 313.458 335.528V308.656C314.138 308.714 314.82 308.747 315.506 308.747C328.827 308.747 339.665 297.909 339.665 284.588C339.664 271.266 328.827 260.429 315.506 260.429ZM276.679 254.147H287.486C288.815 254.147 289.892 255.225 289.892 256.554C289.892 257.882 288.815 258.96 287.486 258.96H276.679C275.35 258.96 274.273 257.882 274.273 256.554C274.273 255.225 275.35 254.147 276.679 254.147ZM285.303 333.248C285.303 334.577 284.226 335.654 282.897 335.654C281.568 335.654 280.491 334.577 280.491 333.248V330.842H285.303V333.248ZM308.646 326.03H257.148V265.749C257.148 264.282 258.341 263.089 259.807 263.089H304.513C296.705 267.096 291.347 275.224 291.347 284.588C291.347 287.45 291.843 290.244 292.823 292.909L288.864 308.517C288.619 309.484 288.901 310.509 289.606 311.214C290.144 311.752 290.867 312.044 291.608 312.044C291.84 312.044 292.074 312.015 292.304 311.957L308.646 307.812V326.03H308.646ZM315.506 303.085C313.538 303.085 311.59 302.773 309.718 302.156C309.207 301.988 308.659 301.969 308.137 302.101L295.521 305.3L298.533 293.421C298.683 292.831 298.638 292.207 298.405 291.644C297.478 289.401 297.008 287.027 297.008 284.588C297.008 274.388 305.306 266.09 315.506 266.09C325.705 266.09 334.003 274.388 334.003 284.588C334.003 294.787 325.705 303.085 315.506 303.085Z" fill="black"/>
<path d="M315.954 281.871C313.058 280.994 312.511 280.604 312.511 279.419C312.511 278.258 314.422 277.948 315.553 277.948C316.642 277.948 317.936 278.293 318.702 278.788C318.864 278.892 319.06 278.928 319.248 278.888C319.436 278.847 319.601 278.734 319.705 278.572L321.202 276.255C321.306 276.093 321.342 275.897 321.302 275.708C321.261 275.52 321.148 275.355 320.986 275.251C320.065 274.656 318.901 274.205 317.657 273.955V271.665C317.657 271.264 317.333 270.939 316.931 270.939L314.173 270.938C313.98 270.938 313.796 271.015 313.66 271.151C313.523 271.287 313.447 271.472 313.447 271.664L313.446 273.938C310.299 274.57 308.3 276.671 308.3 279.419C308.301 283.952 312.172 285.124 314.734 285.9C317.555 286.755 317.954 287.125 317.947 288.05C317.947 288.283 317.892 288.56 317.492 288.837C316.971 289.197 316.082 289.405 315.052 289.406C315.047 289.406 315.041 289.406 315.036 289.406C313.697 289.404 312.196 288.802 311.381 287.941C311.106 287.65 310.647 287.637 310.355 287.913L308.352 289.809C308.061 290.085 308.048 290.544 308.323 290.835C309.59 292.173 311.469 293.135 313.446 293.477V295.689C313.446 296.09 313.771 296.415 314.172 296.415H316.931C317.332 296.415 317.657 296.09 317.657 295.689V293.298C318.5 293.076 319.249 292.741 319.888 292.299C321.35 291.286 322.156 289.781 322.156 288.067C322.193 283.76 318.439 282.623 315.954 281.871Z" fill="black"/>
<path d="M9.72438 115.76H13.0044C14.151 115.76 14.7244 115.193 14.7244 114.06V112.76C14.7244 111.627 14.111 111.06 12.8844 111.06H9.72438C9.59104 111.06 9.52438 111.12 9.52438 111.24V115.56C9.52438 115.693 9.59104 115.76 9.72438 115.76ZM9.72438 109.84H12.8044C13.9777 109.84 14.5644 109.273 14.5644 108.14V107.08C14.5644 105.947 13.9977 105.38 12.8644 105.38H9.72438C9.59104 105.38 9.52438 105.447 9.52438 105.58V109.66C9.52438 109.78 9.59104 109.84 9.72438 109.84ZM8.06438 116.72V104.42C8.06438 104.233 8.15771 104.14 8.34438 104.14H13.0444C13.9644 104.14 14.6844 104.4 15.2044 104.92C15.7244 105.427 15.9844 106.14 15.9844 107.06V108.16C15.9844 109.347 15.4244 110.113 14.3044 110.46C14.811 110.5 15.2444 110.727 15.6044 111.14C15.9644 111.54 16.1444 112.073 16.1444 112.74V114.08C16.1444 115 15.8777 115.72 15.3444 116.24C14.8244 116.747 14.1044 117 13.1844 117H8.34438C8.15771 117 8.06438 116.907 8.06438 116.72ZM20.0209 117H19.1209C18.9343 117 18.8409 116.907 18.8409 116.72V107.08C18.8409 106.893 18.9343 106.8 19.1209 106.8H20.0209C20.2076 106.8 20.3009 106.893 20.3009 107.08V107.88H20.3809C20.5143 107.587 20.7676 107.333 21.1409 107.12C21.5143 106.907 21.9543 106.8 22.4609 106.8H23.2409C23.4143 106.8 23.5009 106.893 23.5009 107.08V107.82C23.5009 107.913 23.4809 107.987 23.4409 108.04C23.4009 108.08 23.3343 108.093 23.2409 108.08H22.1609C21.5609 108.08 21.1009 108.26 20.7809 108.62C20.4609 108.98 20.3009 109.473 20.3009 110.1V116.72C20.3009 116.907 20.2076 117 20.0209 117ZM29.7858 117H28.0658C27.1458 117 26.4191 116.74 25.8858 116.22C25.3658 115.7 25.1058 114.973 25.1058 114.04V109.76C25.1058 108.827 25.3658 108.1 25.8858 107.58C26.4191 107.06 27.1458 106.8 28.0658 106.8H29.7858C30.7058 106.8 31.4258 107.06 31.9458 107.58C32.4791 108.1 32.7458 108.827 32.7458 109.76V114.04C32.7458 114.973 32.4791 115.7 31.9458 116.22C31.4258 116.74 30.7058 117 29.7858 117ZM28.2258 115.72H29.6258C30.7458 115.72 31.3058 115.147 31.3058 114V109.8C31.3058 108.653 30.7458 108.08 29.6258 108.08H28.2258C27.1058 108.08 26.5458 108.653 26.5458 109.8V114C26.5458 115.147 27.1058 115.72 28.2258 115.72ZM38.4658 117H37.2458C37.0591 117 36.9458 116.907 36.9058 116.72L34.3458 107.08C34.3058 106.893 34.3724 106.8 34.5458 106.8H35.5658C35.7391 106.8 35.8458 106.893 35.8858 107.08L37.8258 115.24H37.9458L40.0058 107.08C40.0458 106.893 40.1524 106.8 40.3258 106.8H41.2458C41.4324 106.8 41.5524 106.893 41.6058 107.08L43.6058 115.24H43.7258L45.6858 107.08C45.7258 106.893 45.8324 106.8 46.0058 106.8H47.0258C47.1991 106.8 47.2658 106.893 47.2258 107.08L44.6658 116.72C44.6258 116.907 44.5124 117 44.3258 117H43.0858C42.9124 117 42.8058 116.907 42.7658 116.72L40.8258 108.76H40.7258L38.8058 116.72C38.7658 116.907 38.6524 117 38.4658 117ZM52.4767 117H48.9167C48.7301 117 48.6367 116.907 48.6367 116.72V116.02C48.6367 115.847 48.7301 115.76 48.9167 115.76H52.2767C53.3167 115.76 53.8367 115.373 53.8367 114.6V114.22C53.8367 113.513 53.4967 113.027 52.8167 112.76L50.4567 111.76C49.7767 111.48 49.2901 111.153 48.9967 110.78C48.7034 110.393 48.5567 109.887 48.5567 109.26C48.5567 107.62 49.4567 106.8 51.2567 106.8H54.5367C54.7234 106.8 54.8167 106.893 54.8167 107.08V107.78C54.8167 107.953 54.7234 108.04 54.5367 108.04H51.5167C51.0367 108.04 50.6701 108.14 50.4167 108.34C50.1767 108.54 50.0567 108.773 50.0567 109.04V109.38C50.0567 109.94 50.4367 110.367 51.1967 110.66L53.5567 111.72C54.2501 111.987 54.7167 112.34 54.9567 112.78C55.2101 113.22 55.3367 113.827 55.3367 114.6C55.3367 116.2 54.3834 117 52.4767 117ZM64.6691 117H60.4291C59.5091 117 58.7824 116.74 58.2491 116.22C57.7291 115.7 57.4691 114.973 57.4691 114.04V109.76C57.4691 108.827 57.7291 108.1 58.2491 107.58C58.7824 107.06 59.5091 106.8 60.4291 106.8H62.1091C63.0291 106.8 63.7491 107.06 64.2691 107.58C64.7891 108.1 65.0491 108.827 65.0491 109.76V112.3C65.0491 112.5 64.9557 112.6 64.7691 112.6H59.1091C58.9757 112.6 58.9091 112.66 58.9091 112.78V114C58.9091 115.16 59.4691 115.74 60.5891 115.74H64.6691C64.8557 115.74 64.9491 115.833 64.9491 116.02V116.74C64.9491 116.913 64.8557 117 64.6691 117ZM59.1091 111.54H63.4291C63.5624 111.54 63.6291 111.473 63.6291 111.34V109.8C63.6291 108.653 63.0691 108.08 61.9491 108.08H60.5891C59.4691 108.08 58.9091 108.653 58.9091 109.8V111.34C58.9091 111.473 58.9757 111.54 59.1091 111.54ZM76.3909 117H75.3509C74.4309 117 73.7043 116.74 73.1709 116.22C72.6509 115.7 72.3909 114.973 72.3909 114.04V109.76C72.3909 108.827 72.6509 108.1 73.1709 107.58C73.7043 107.06 74.4309 106.8 75.3509 106.8H79.6909C79.8776 106.8 79.9709 106.893 79.9709 107.08V116.72C79.9709 116.907 79.8776 117 79.6909 117H78.7909C78.6043 117 78.5109 116.907 78.5109 116.72V115.94H78.4309C78.0976 116.647 77.4176 117 76.3909 117ZM78.5109 113.88V108.26C78.5109 108.14 78.4443 108.08 78.3109 108.08H75.5109C74.4043 108.08 73.8509 108.66 73.8509 109.82V113.98C73.8509 115.14 74.4043 115.72 75.5109 115.72H76.6509C77.2509 115.72 77.7109 115.56 78.0309 115.24C78.3509 114.92 78.5109 114.467 78.5109 113.88ZM81.9477 106.8H82.8877C83.061 106.8 83.1677 106.893 83.2077 107.08L85.6077 115.54H85.7077L88.0877 107.08C88.141 106.893 88.2543 106.8 88.4277 106.8H89.3677C89.5543 106.8 89.621 106.893 89.5677 107.08L86.6877 116.7C86.6477 116.9 86.5277 117 86.3277 117H84.9677C84.781 117 84.661 116.9 84.6077 116.7L81.7477 107.08C81.6943 106.893 81.761 106.8 81.9477 106.8ZM95.1409 117H94.1009C93.1809 117 92.4543 116.74 91.9209 116.22C91.4009 115.7 91.1409 114.973 91.1409 114.04V109.76C91.1409 108.827 91.4009 108.1 91.9209 107.58C92.4543 107.06 93.1809 106.8 94.1009 106.8H98.4409C98.6276 106.8 98.7209 106.893 98.7209 107.08V116.72C98.7209 116.907 98.6276 117 98.4409 117H97.5409C97.3543 117 97.2609 116.907 97.2609 116.72V115.94H97.1809C96.8476 116.647 96.1676 117 95.1409 117ZM97.2609 113.88V108.26C97.2609 108.14 97.1943 108.08 97.0609 108.08H94.2609C93.1543 108.08 92.6009 108.66 92.6009 109.82V113.98C92.6009 115.14 93.1543 115.72 94.2609 115.72H95.4009C96.0009 115.72 96.4609 115.56 96.7809 115.24C97.1009 114.92 97.2609 114.467 97.2609 113.88ZM101.578 105.12V103.24C101.578 103.053 101.664 102.96 101.838 102.96H102.758C102.944 102.96 103.038 103.053 103.038 103.24V105.12C103.038 105.307 102.944 105.4 102.758 105.4H101.838C101.664 105.4 101.578 105.307 101.578 105.12ZM101.578 116.72V107.08C101.578 106.893 101.664 106.8 101.838 106.8H102.758C102.944 106.8 103.038 106.893 103.038 107.08V116.72C103.038 116.907 102.944 117 102.758 117H101.858C101.671 117 101.578 116.907 101.578 116.72ZM107.172 117H106.272C106.085 117 105.992 116.907 105.992 116.72V103.22C105.992 103.033 106.085 102.94 106.272 102.94H107.172C107.358 102.94 107.452 103.033 107.452 103.22V116.72C107.452 116.907 107.358 117 107.172 117ZM114.106 117H113.066C112.146 117 111.419 116.74 110.886 116.22C110.366 115.7 110.106 114.973 110.106 114.04V109.76C110.106 108.827 110.366 108.1 110.886 107.58C111.419 107.06 112.146 106.8 113.066 106.8H117.406C117.592 106.8 117.686 106.893 117.686 107.08V116.72C117.686 116.907 117.592 117 117.406 117H116.506C116.319 117 116.226 116.907 116.226 116.72V115.94H116.146C115.812 116.647 115.132 117 114.106 117ZM116.226 113.88V108.26C116.226 108.14 116.159 108.08 116.026 108.08H113.226C112.119 108.08 111.566 108.66 111.566 109.82V113.98C111.566 115.14 112.119 115.72 113.226 115.72H114.366C114.966 115.72 115.426 115.56 115.746 115.24C116.066 114.92 116.226 114.467 116.226 113.88ZM122.103 115.72H124.942C126.076 115.72 126.643 115.14 126.643 113.98V109.7C126.643 108.54 126.076 107.96 124.942 107.96H123.763C123.163 107.96 122.703 108.12 122.383 108.44C122.063 108.76 121.903 109.207 121.903 109.78V115.54C121.903 115.66 121.969 115.72 122.103 115.72ZM120.443 116.72V103.22C120.443 103.033 120.536 102.94 120.723 102.94H121.623C121.809 102.94 121.903 103.033 121.903 103.22V107.74H121.983C122.316 107.033 122.996 106.68 124.023 106.68H125.143C126.049 106.68 126.763 106.94 127.283 107.46C127.816 107.98 128.083 108.7 128.083 109.62V114.04C128.083 114.973 127.816 115.7 127.283 116.22C126.763 116.74 126.049 117 125.143 117H120.723C120.536 117 120.443 116.907 120.443 116.72ZM131.918 117H131.018C130.831 117 130.738 116.907 130.738 116.72V103.22C130.738 103.033 130.831 102.94 131.018 102.94H131.918C132.104 102.94 132.198 103.033 132.198 103.22V116.72C132.198 116.907 132.104 117 131.918 117ZM142.052 117H137.812C136.892 117 136.165 116.74 135.632 116.22C135.112 115.7 134.852 114.973 134.852 114.04V109.76C134.852 108.827 135.112 108.1 135.632 107.58C136.165 107.06 136.892 106.8 137.812 106.8H139.492C140.412 106.8 141.132 107.06 141.652 107.58C142.172 108.1 142.432 108.827 142.432 109.76V112.3C142.432 112.5 142.339 112.6 142.152 112.6H136.492C136.359 112.6 136.292 112.66 136.292 112.78V114C136.292 115.16 136.852 115.74 137.972 115.74H142.052C142.239 115.74 142.332 115.833 142.332 116.02V116.74C142.332 116.913 142.239 117 142.052 117ZM136.492 111.54H140.812C140.945 111.54 141.012 111.473 141.012 111.34V109.8C141.012 108.653 140.452 108.08 139.332 108.08H137.972C136.852 108.08 136.292 108.653 136.292 109.8V111.34C136.292 111.473 136.359 111.54 136.492 111.54ZM42.2084 139.92H41.3084C41.1218 139.92 41.0284 139.827 41.0284 139.64V127.08C41.0284 126.893 41.1218 126.8 41.3084 126.8H42.2084C42.3951 126.8 42.4884 126.893 42.4884 127.08V127.86H42.5684C42.9018 127.153 43.5818 126.8 44.6084 126.8H45.8084C46.7151 126.8 47.4151 127.06 47.9084 127.58C48.4151 128.1 48.6684 128.827 48.6684 129.76V134.04C48.6684 134.973 48.4151 135.7 47.9084 136.22C47.4151 136.74 46.7151 137 45.8084 137H44.6084C43.5818 137 42.9018 136.647 42.5684 135.94H42.4884V139.64C42.4884 139.827 42.3951 139.92 42.2084 139.92ZM44.3484 135.72H45.5284C46.6618 135.72 47.2284 135.14 47.2284 133.98V129.82C47.2284 128.66 46.6618 128.08 45.5284 128.08H44.3484C43.7484 128.08 43.2884 128.24 42.9684 128.56C42.6484 128.88 42.4884 129.333 42.4884 129.92V133.88C42.4884 134.467 42.6484 134.92 42.9684 135.24C43.2884 135.56 43.7484 135.72 44.3484 135.72ZM52.4038 137H51.5038C51.3171 137 51.2238 136.907 51.2238 136.72V127.08C51.2238 126.893 51.3171 126.8 51.5038 126.8H52.4038C52.5904 126.8 52.6838 126.893 52.6838 127.08V127.88H52.7638C52.8971 127.587 53.1504 127.333 53.5238 127.12C53.8971 126.907 54.3371 126.8 54.8438 126.8H55.6238C55.7971 126.8 55.8838 126.893 55.8838 127.08V127.82C55.8838 127.913 55.8638 127.987 55.8238 128.04C55.7838 128.08 55.7171 128.093 55.6238 128.08H54.5438C53.9438 128.08 53.4838 128.26 53.1638 128.62C52.8438 128.98 52.6838 129.473 52.6838 130.1V136.72C52.6838 136.907 52.5904 137 52.4038 137ZM62.1686 137H60.4486C59.5286 137 58.8019 136.74 58.2686 136.22C57.7486 135.7 57.4886 134.973 57.4886 134.04V129.76C57.4886 128.827 57.7486 128.1 58.2686 127.58C58.8019 127.06 59.5286 126.8 60.4486 126.8H62.1686C63.0886 126.8 63.8086 127.06 64.3286 127.58C64.8619 128.1 65.1286 128.827 65.1286 129.76V134.04C65.1286 134.973 64.8619 135.7 64.3286 136.22C63.8086 136.74 63.0886 137 62.1686 137ZM60.6086 135.72H62.0086C63.1286 135.72 63.6886 135.147 63.6886 134V129.8C63.6886 128.653 63.1286 128.08 62.0086 128.08H60.6086C59.4886 128.08 58.9286 128.653 58.9286 129.8V134C58.9286 135.147 59.4886 135.72 60.6086 135.72ZM71.5486 137H70.3686C69.4619 137 68.7553 136.74 68.2486 136.22C67.7419 135.7 67.4886 134.973 67.4886 134.04V129.76C67.4886 128.827 67.7419 128.1 68.2486 127.58C68.7553 127.06 69.4619 126.8 70.3686 126.8H71.5486C72.5886 126.8 73.2753 127.153 73.6086 127.86H73.6886V123.22C73.6886 123.033 73.7753 122.94 73.9486 122.94H74.8686C75.0419 122.94 75.1286 123.033 75.1286 123.22V136.72C75.1286 136.907 75.0419 137 74.8686 137H73.9486C73.7753 137 73.6886 136.907 73.6886 136.72V135.94H73.6086C73.2753 136.647 72.5886 137 71.5486 137ZM73.6886 133.88V129.92C73.6886 129.333 73.5286 128.88 73.2086 128.56C72.8886 128.24 72.4286 128.08 71.8286 128.08H70.6086C69.5019 128.08 68.9486 128.66 68.9486 129.82V133.98C68.9486 135.14 69.5019 135.72 70.6086 135.72H71.8286C72.4286 135.72 72.8886 135.56 73.2086 135.24C73.5286 134.92 73.6886 134.467 73.6886 133.88ZM81.7839 137H80.6639C79.7572 137 79.0506 136.74 78.5439 136.22C78.0372 135.7 77.7839 134.973 77.7839 134.04V127.08C77.7839 126.893 77.8772 126.8 78.0639 126.8H78.9639C79.1506 126.8 79.2439 126.893 79.2439 127.08V133.98C79.2439 135.14 79.7972 135.72 80.9039 135.72H82.0439C82.6439 135.72 83.1039 135.56 83.4239 135.24C83.7439 134.92 83.9039 134.467 83.9039 133.88V127.08C83.9039 126.893 83.9972 126.8 84.1839 126.8H85.0839C85.2706 126.8 85.3639 126.893 85.3639 127.08V136.72C85.3639 136.907 85.2706 137 85.0839 137H84.1839C83.9972 137 83.9039 136.907 83.9039 136.72V135.94H83.8239C83.4906 136.647 82.8106 137 81.7839 137ZM94.0583 136V136.74C94.0583 136.913 93.9649 137 93.7783 137H90.8783C89.9583 137 89.2316 136.74 88.6983 136.22C88.1783 135.7 87.9183 134.973 87.9183 134.04V129.76C87.9183 128.827 88.1783 128.1 88.6983 127.58C89.2316 127.06 89.9583 126.8 90.8783 126.8H93.7783C93.9649 126.8 94.0583 126.893 94.0583 127.08V127.82C94.0583 127.993 93.9649 128.08 93.7783 128.08H91.0383C89.9316 128.08 89.3783 128.66 89.3783 129.82V133.98C89.3783 135.14 89.9316 135.72 91.0383 135.72H93.7783C93.9649 135.72 94.0583 135.813 94.0583 136ZM96.4866 128.08H95.3866C95.1999 128.08 95.1066 127.993 95.1066 127.82V127.08C95.1066 126.893 95.1999 126.8 95.3866 126.8H96.4866C96.6199 126.8 96.6866 126.74 96.6866 126.62V124.9C96.6866 124.713 96.7799 124.62 96.9666 124.62H97.8666C98.0399 124.62 98.1266 124.713 98.1266 124.9V126.62C98.1266 126.74 98.1999 126.8 98.3466 126.8H100.467C100.667 126.8 100.767 126.893 100.767 127.08V127.82C100.767 127.993 100.667 128.08 100.467 128.08H98.3466C98.1999 128.08 98.1266 128.14 98.1266 128.26V134.02C98.1266 135.153 98.7132 135.72 99.8866 135.72H100.667C100.867 135.72 100.967 135.813 100.967 136V136.74C100.967 136.913 100.867 137 100.667 137H99.7066C98.7866 137 98.0532 136.747 97.5066 136.24C96.9599 135.72 96.6866 135 96.6866 134.08V128.26C96.6866 128.14 96.6199 128.08 96.4866 128.08ZM106.539 137H102.979C102.793 137 102.699 136.907 102.699 136.72V136.02C102.699 135.847 102.793 135.76 102.979 135.76H106.339C107.379 135.76 107.899 135.373 107.899 134.6V134.22C107.899 133.513 107.559 133.027 106.879 132.76L104.519 131.76C103.839 131.48 103.353 131.153 103.059 130.78C102.766 130.393 102.619 129.887 102.619 129.26C102.619 127.62 103.519 126.8 105.319 126.8H108.599C108.786 126.8 108.879 126.893 108.879 127.08V127.78C108.879 127.953 108.786 128.04 108.599 128.04H105.579C105.099 128.04 104.733 128.14 104.479 128.34C104.239 128.54 104.119 128.773 104.119 129.04V129.38C104.119 129.94 104.499 130.367 105.259 130.66L107.619 131.72C108.313 131.987 108.779 132.34 109.019 132.78C109.273 133.22 109.399 133.827 109.399 134.6C109.399 136.2 108.446 137 106.539 137Z" fill="black"/>
<path d="M201.497 114.04V113.4C201.497 113.213 201.59 113.12 201.777 113.12H202.677C202.863 113.12 202.957 113.213 202.957 113.4V113.92C202.957 115.12 203.55 115.72 204.737 115.72H206.497C207.683 115.72 208.277 115.107 208.277 113.88V113.2C208.277 112.24 207.483 111.613 205.897 111.32C205.23 111.2 204.563 111.06 203.897 110.9C203.23 110.74 202.663 110.433 202.197 109.98C201.73 109.513 201.497 108.88 201.497 108.08V107.1C201.497 106.18 201.757 105.46 202.277 104.94C202.81 104.407 203.537 104.14 204.457 104.14H206.677C207.583 104.14 208.303 104.407 208.837 104.94C209.37 105.46 209.637 106.18 209.637 107.1V107.6C209.637 107.8 209.55 107.9 209.377 107.9H208.457C208.283 107.9 208.197 107.8 208.197 107.6V107.24C208.197 106.027 207.603 105.42 206.417 105.42H204.717C203.53 105.42 202.937 106.053 202.937 107.32V108.12C202.937 108.8 203.383 109.267 204.277 109.52C204.677 109.627 205.117 109.727 205.597 109.82C206.077 109.9 206.557 110.013 207.037 110.16C207.53 110.293 207.977 110.467 208.377 110.68C208.777 110.88 209.097 111.193 209.337 111.62C209.59 112.033 209.717 112.54 209.717 113.14V114.04C209.717 114.96 209.45 115.687 208.917 116.22C208.383 116.74 207.663 117 206.757 117H204.457C203.55 117 202.83 116.74 202.297 116.22C201.763 115.687 201.497 114.96 201.497 114.04ZM219.53 117H215.29C214.37 117 213.644 116.74 213.11 116.22C212.59 115.7 212.33 114.973 212.33 114.04V109.76C212.33 108.827 212.59 108.1 213.11 107.58C213.644 107.06 214.37 106.8 215.29 106.8H216.97C217.89 106.8 218.61 107.06 219.13 107.58C219.65 108.1 219.91 108.827 219.91 109.76V112.3C219.91 112.5 219.817 112.6 219.63 112.6H213.97C213.837 112.6 213.77 112.66 213.77 112.78V114C213.77 115.16 214.33 115.74 215.45 115.74H219.53C219.717 115.74 219.81 115.833 219.81 116.02V116.74C219.81 116.913 219.717 117 219.53 117ZM213.97 111.54H218.29C218.424 111.54 218.49 111.473 218.49 111.34V109.8C218.49 108.653 217.93 108.08 216.81 108.08H215.45C214.33 108.08 213.77 108.653 213.77 109.8V111.34C213.77 111.473 213.837 111.54 213.97 111.54ZM223.654 117H222.754C222.567 117 222.474 116.907 222.474 116.72V103.22C222.474 103.033 222.567 102.94 222.754 102.94H223.654C223.841 102.94 223.934 103.033 223.934 103.22V116.72C223.934 116.907 223.841 117 223.654 117ZM233.788 117H229.548C228.628 117 227.902 116.74 227.368 116.22C226.848 115.7 226.588 114.973 226.588 114.04V109.76C226.588 108.827 226.848 108.1 227.368 107.58C227.902 107.06 228.628 106.8 229.548 106.8H231.228C232.148 106.8 232.868 107.06 233.388 107.58C233.908 108.1 234.168 108.827 234.168 109.76V112.3C234.168 112.5 234.075 112.6 233.888 112.6H228.228C228.095 112.6 228.028 112.66 228.028 112.78V114C228.028 115.16 228.588 115.74 229.708 115.74H233.788C233.975 115.74 234.068 115.833 234.068 116.02V116.74C234.068 116.913 233.975 117 233.788 117ZM228.228 111.54H232.548C232.682 111.54 232.748 111.473 232.748 111.34V109.8C232.748 108.653 232.188 108.08 231.068 108.08H229.708C228.588 108.08 228.028 108.653 228.028 109.8V111.34C228.028 111.473 228.095 111.54 228.228 111.54ZM242.572 116V116.74C242.572 116.913 242.479 117 242.292 117H239.392C238.472 117 237.745 116.74 237.212 116.22C236.692 115.7 236.432 114.973 236.432 114.04V109.76C236.432 108.827 236.692 108.1 237.212 107.58C237.745 107.06 238.472 106.8 239.392 106.8H242.292C242.479 106.8 242.572 106.893 242.572 107.08V107.82C242.572 107.993 242.479 108.08 242.292 108.08H239.552C238.445 108.08 237.892 108.66 237.892 109.82V113.98C237.892 115.14 238.445 115.72 239.552 115.72H242.292C242.479 115.72 242.572 115.813 242.572 116ZM245 108.08H243.9C243.714 108.08 243.62 107.993 243.62 107.82V107.08C243.62 106.893 243.714 106.8 243.9 106.8H245C245.134 106.8 245.2 106.74 245.2 106.62V104.9C245.2 104.713 245.294 104.62 245.48 104.62H246.38C246.554 104.62 246.64 104.713 246.64 104.9V106.62C246.64 106.74 246.714 106.8 246.86 106.8H248.98C249.18 106.8 249.28 106.893 249.28 107.08V107.82C249.28 107.993 249.18 108.08 248.98 108.08H246.86C246.714 108.08 246.64 108.14 246.64 108.26V114.02C246.64 115.153 247.227 115.72 248.4 115.72H249.18C249.38 115.72 249.48 115.813 249.48 116V116.74C249.48 116.913 249.38 117 249.18 117H248.22C247.3 117 246.567 116.747 246.02 116.24C245.474 115.72 245.2 115 245.2 114.08V108.26C245.2 108.14 245.134 108.08 245 108.08ZM258.431 104.42V116.72C258.431 116.907 258.338 117 258.151 117H257.251C257.064 117 256.971 116.907 256.971 116.72V104.42C256.971 104.233 257.064 104.14 257.251 104.14H258.151C258.338 104.14 258.431 104.233 258.431 104.42ZM262.675 117H261.775C261.589 117 261.495 116.907 261.495 116.72V107.08C261.495 106.893 261.589 106.8 261.775 106.8H262.675C262.862 106.8 262.955 106.893 262.955 107.08V107.86H263.035C263.369 107.153 264.049 106.8 265.075 106.8H266.195C267.102 106.8 267.809 107.06 268.315 107.58C268.822 108.1 269.075 108.827 269.075 109.76V116.72C269.075 116.907 268.982 117 268.795 117H267.895C267.709 117 267.615 116.907 267.615 116.72V109.82C267.615 108.66 267.055 108.08 265.935 108.08H264.815C264.215 108.08 263.755 108.24 263.435 108.56C263.115 108.88 262.955 109.333 262.955 109.92V116.72C262.955 116.907 262.862 117 262.675 117ZM272.11 108.08H271.01C270.823 108.08 270.73 107.993 270.73 107.82V107.08C270.73 106.893 270.823 106.8 271.01 106.8H272.11C272.243 106.8 272.31 106.74 272.31 106.62V104.9C272.31 104.713 272.403 104.62 272.59 104.62H273.49C273.663 104.62 273.75 104.713 273.75 104.9V106.62C273.75 106.74 273.823 106.8 273.97 106.8H276.09C276.29 106.8 276.39 106.893 276.39 107.08V107.82C276.39 107.993 276.29 108.08 276.09 108.08H273.97C273.823 108.08 273.75 108.14 273.75 108.26V114.02C273.75 115.153 274.336 115.72 275.51 115.72H276.29C276.49 115.72 276.59 115.813 276.59 116V116.74C276.59 116.913 276.49 117 276.29 117H275.33C274.41 117 273.676 116.747 273.13 116.24C272.583 115.72 272.31 115 272.31 114.08V108.26C272.31 108.14 272.243 108.08 272.11 108.08ZM285.702 117H281.462C280.542 117 279.816 116.74 279.282 116.22C278.762 115.7 278.502 114.973 278.502 114.04V109.76C278.502 108.827 278.762 108.1 279.282 107.58C279.816 107.06 280.542 106.8 281.462 106.8H283.142C284.062 106.8 284.782 107.06 285.302 107.58C285.822 108.1 286.082 108.827 286.082 109.76V112.3C286.082 112.5 285.989 112.6 285.802 112.6H280.142C280.009 112.6 279.942 112.66 279.942 112.78V114C279.942 115.16 280.502 115.74 281.622 115.74H285.702C285.889 115.74 285.982 115.833 285.982 116.02V116.74C285.982 116.913 285.889 117 285.702 117ZM280.142 111.54H284.462C284.596 111.54 284.662 111.473 284.662 111.34V109.8C284.662 108.653 284.102 108.08 282.982 108.08H281.622C280.502 108.08 279.942 108.653 279.942 109.8V111.34C279.942 111.473 280.009 111.54 280.142 111.54ZM289.726 117H288.826C288.639 117 288.546 116.907 288.546 116.72V107.08C288.546 106.893 288.639 106.8 288.826 106.8H289.726C289.913 106.8 290.006 106.893 290.006 107.08V107.88H290.086C290.219 107.587 290.473 107.333 290.846 107.12C291.219 106.907 291.659 106.8 292.166 106.8H292.946C293.119 106.8 293.206 106.893 293.206 107.08V107.82C293.206 107.913 293.186 107.987 293.146 108.04C293.106 108.08 293.039 108.093 292.946 108.08H291.866C291.266 108.08 290.806 108.26 290.486 108.62C290.166 108.98 290.006 109.473 290.006 110.1V116.72C290.006 116.907 289.913 117 289.726 117ZM302.011 117H297.771C296.851 117 296.124 116.74 295.591 116.22C295.071 115.7 294.811 114.973 294.811 114.04V109.76C294.811 108.827 295.071 108.1 295.591 107.58C296.124 107.06 296.851 106.8 297.771 106.8H299.451C300.371 106.8 301.091 107.06 301.611 107.58C302.131 108.1 302.391 108.827 302.391 109.76V112.3C302.391 112.5 302.298 112.6 302.111 112.6H296.451C296.318 112.6 296.251 112.66 296.251 112.78V114C296.251 115.16 296.811 115.74 297.931 115.74H302.011C302.198 115.74 302.291 115.833 302.291 116.02V116.74C302.291 116.913 302.198 117 302.011 117ZM296.451 111.54H300.771C300.904 111.54 300.971 111.473 300.971 111.34V109.8C300.971 108.653 300.411 108.08 299.291 108.08H297.931C296.811 108.08 296.251 108.653 296.251 109.8V111.34C296.251 111.473 296.318 111.54 296.451 111.54ZM308.315 117H304.755C304.568 117 304.475 116.907 304.475 116.72V116.02C304.475 115.847 304.568 115.76 304.755 115.76H308.115C309.155 115.76 309.675 115.373 309.675 114.6V114.22C309.675 113.513 309.335 113.027 308.655 112.76L306.295 111.76C305.615 111.48 305.128 111.153 304.835 110.78C304.541 110.393 304.395 109.887 304.395 109.26C304.395 107.62 305.295 106.8 307.095 106.8H310.375C310.561 106.8 310.655 106.893 310.655 107.08V107.78C310.655 107.953 310.561 108.04 310.375 108.04H307.355C306.875 108.04 306.508 108.14 306.255 108.34C306.015 108.54 305.895 108.773 305.895 109.04V109.38C305.895 109.94 306.275 110.367 307.035 110.66L309.395 111.72C310.088 111.987 310.555 112.34 310.795 112.78C311.048 113.22 311.175 113.827 311.175 114.6C311.175 116.2 310.221 117 308.315 117ZM313.887 108.08H312.787C312.6 108.08 312.507 107.993 312.507 107.82V107.08C312.507 106.893 312.6 106.8 312.787 106.8H313.887C314.02 106.8 314.087 106.74 314.087 106.62V104.9C314.087 104.713 314.18 104.62 314.367 104.62H315.267C315.44 104.62 315.527 104.713 315.527 104.9V106.62C315.527 106.74 315.6 106.8 315.747 106.8H317.867C318.067 106.8 318.167 106.893 318.167 107.08V107.82C318.167 107.993 318.067 108.08 317.867 108.08H315.747C315.6 108.08 315.527 108.14 315.527 108.26V114.02C315.527 115.153 316.114 115.72 317.287 115.72H318.067C318.267 115.72 318.367 115.813 318.367 116V116.74C318.367 116.913 318.267 117 318.067 117H317.107C316.187 117 315.454 116.747 314.907 116.24C314.36 115.72 314.087 115 314.087 114.08V108.26C314.087 108.14 314.02 108.08 313.887 108.08ZM320.58 105.12V103.24C320.58 103.053 320.666 102.96 320.84 102.96H321.76C321.946 102.96 322.04 103.053 322.04 103.24V105.12C322.04 105.307 321.946 105.4 321.76 105.4H320.84C320.666 105.4 320.58 105.307 320.58 105.12ZM320.58 116.72V107.08C320.58 106.893 320.666 106.8 320.84 106.8H321.76C321.946 106.8 322.04 106.893 322.04 107.08V116.72C322.04 116.907 321.946 117 321.76 117H320.86C320.673 117 320.58 116.907 320.58 116.72ZM326.074 117H325.174C324.987 117 324.894 116.907 324.894 116.72V107.08C324.894 106.893 324.987 106.8 325.174 106.8H326.074C326.26 106.8 326.354 106.893 326.354 107.08V107.86H326.434C326.767 107.153 327.447 106.8 328.474 106.8H329.594C330.5 106.8 331.207 107.06 331.714 107.58C332.22 108.1 332.474 108.827 332.474 109.76V116.72C332.474 116.907 332.38 117 332.194 117H331.294C331.107 117 331.014 116.907 331.014 116.72V109.82C331.014 108.66 330.454 108.08 329.334 108.08H328.214C327.614 108.08 327.154 108.24 326.834 108.56C326.514 108.88 326.354 109.333 326.354 109.92V116.72C326.354 116.907 326.26 117 326.074 117ZM338.988 116.46H337.868C336.961 116.46 336.255 116.2 335.748 115.68C335.241 115.16 334.988 114.433 334.988 113.5V109.76C334.988 108.827 335.248 108.1 335.768 107.58C336.301 107.06 337.028 106.8 337.948 106.8H342.288C342.475 106.8 342.568 106.893 342.568 107.08V117C342.568 117.92 342.301 118.64 341.768 119.16C341.248 119.693 340.528 119.96 339.608 119.96H335.928C335.728 119.96 335.628 119.867 335.628 119.68V118.94C335.628 118.753 335.728 118.66 335.928 118.66H339.428C340.548 118.66 341.108 118.087 341.108 116.94V115.4H341.028C340.681 116.107 340.001 116.46 338.988 116.46ZM341.108 113.34V108.26C341.108 108.14 341.041 108.08 340.908 108.08H338.128C337.008 108.08 336.448 108.66 336.448 109.82V113.44C336.448 114.6 337.008 115.18 338.128 115.18H339.248C339.848 115.18 340.308 115.02 340.628 114.7C340.948 114.38 341.108 113.927 341.108 113.34ZM247.989 128.08H246.889C246.702 128.08 246.609 127.993 246.609 127.82V127.08C246.609 126.893 246.702 126.8 246.889 126.8H247.989C248.122 126.8 248.189 126.74 248.189 126.62V124.9C248.189 124.713 248.282 124.62 248.469 124.62H249.369C249.542 124.62 249.629 124.713 249.629 124.9V126.62C249.629 126.74 249.702 126.8 249.849 126.8H251.969C252.169 126.8 252.269 126.893 252.269 127.08V127.82C252.269 127.993 252.169 128.08 251.969 128.08H249.849C249.702 128.08 249.629 128.14 249.629 128.26V134.02C249.629 135.153 250.215 135.72 251.389 135.72H252.169C252.369 135.72 252.469 135.813 252.469 136V136.74C252.469 136.913 252.369 137 252.169 137H251.209C250.289 137 249.555 136.747 249.009 136.24C248.462 135.72 248.189 135 248.189 134.08V128.26C248.189 128.14 248.122 128.08 247.989 128.08ZM259.061 137H257.341C256.421 137 255.695 136.74 255.161 136.22C254.641 135.7 254.381 134.973 254.381 134.04V129.76C254.381 128.827 254.641 128.1 255.161 127.58C255.695 127.06 256.421 126.8 257.341 126.8H259.061C259.981 126.8 260.701 127.06 261.221 127.58C261.755 128.1 262.021 128.827 262.021 129.76V134.04C262.021 134.973 261.755 135.7 261.221 136.22C260.701 136.74 259.981 137 259.061 137ZM257.501 135.72H258.901C260.021 135.72 260.581 135.147 260.581 134V129.8C260.581 128.653 260.021 128.08 258.901 128.08H257.501C256.381 128.08 255.821 128.653 255.821 129.8V134C255.821 135.147 256.381 135.72 257.501 135.72ZM270.479 140.14H269.599C269.413 140.14 269.319 140.047 269.319 139.86V139.12C269.319 138.933 269.413 138.84 269.599 138.84H270.099C270.953 138.84 271.553 138.6 271.899 138.12C272.179 137.733 272.433 137.18 272.659 136.46H272.079C271.919 136.46 271.806 136.367 271.739 136.18L268.799 127.08C268.746 126.893 268.813 126.8 268.999 126.8H269.959C270.133 126.8 270.246 126.893 270.299 127.08L272.879 135.32H272.959L275.539 127.08C275.579 126.893 275.686 126.8 275.859 126.8H276.779C277.006 126.8 277.086 126.9 277.019 127.1L274.039 136.6C273.706 137.733 273.279 138.607 272.759 139.22C272.253 139.833 271.493 140.14 270.479 140.14ZM283.397 137H281.677C280.757 137 280.03 136.74 279.497 136.22C278.977 135.7 278.717 134.973 278.717 134.04V129.76C278.717 128.827 278.977 128.1 279.497 127.58C280.03 127.06 280.757 126.8 281.677 126.8H283.397C284.317 126.8 285.037 127.06 285.557 127.58C286.09 128.1 286.357 128.827 286.357 129.76V134.04C286.357 134.973 286.09 135.7 285.557 136.22C285.037 136.74 284.317 137 283.397 137ZM281.837 135.72H283.237C284.357 135.72 284.917 135.147 284.917 134V129.8C284.917 128.653 284.357 128.08 283.237 128.08H281.837C280.717 128.08 280.157 128.653 280.157 129.8V134C280.157 135.147 280.717 135.72 281.837 135.72ZM292.817 137H291.697C290.79 137 290.084 136.74 289.577 136.22C289.07 135.7 288.817 134.973 288.817 134.04V127.08C288.817 126.893 288.91 126.8 289.097 126.8H289.997C290.184 126.8 290.277 126.893 290.277 127.08V133.98C290.277 135.14 290.83 135.72 291.937 135.72H293.077C293.677 135.72 294.137 135.56 294.457 135.24C294.777 134.92 294.937 134.467 294.937 133.88V127.08C294.937 126.893 295.03 126.8 295.217 126.8H296.117C296.304 126.8 296.397 126.893 296.397 127.08V136.72C296.397 136.907 296.304 137 296.117 137H295.217C295.03 137 294.937 136.907 294.937 136.72V135.94H294.857C294.524 136.647 293.844 137 292.817 137Z" fill="black"/>
<path d="M220.11 372H219.21C219.023 372 218.93 371.907 218.93 371.72V359.42C218.93 359.233 219.023 359.14 219.21 359.14H223.89C224.81 359.14 225.53 359.407 226.05 359.94C226.57 360.46 226.83 361.18 226.83 362.1V364.32C226.83 365.253 226.57 365.98 226.05 366.5C225.53 367.02 224.81 367.28 223.89 367.28H220.59C220.456 367.28 220.39 367.34 220.39 367.46V371.72C220.39 371.907 220.296 372 220.11 372ZM220.59 365.98H223.69C224.81 365.98 225.37 365.407 225.37 364.26V362.16C225.37 361 224.81 360.42 223.69 360.42H220.59C220.456 360.42 220.39 360.48 220.39 360.6V365.8C220.39 365.92 220.456 365.98 220.59 365.98ZM233.157 372H232.037C231.13 372 230.424 371.74 229.917 371.22C229.41 370.7 229.157 369.973 229.157 369.04V362.08C229.157 361.893 229.25 361.8 229.437 361.8H230.337C230.524 361.8 230.617 361.893 230.617 362.08V368.98C230.617 370.14 231.17 370.72 232.277 370.72H233.417C234.017 370.72 234.477 370.56 234.797 370.24C235.117 369.92 235.277 369.467 235.277 368.88V362.08C235.277 361.893 235.37 361.8 235.557 361.8H236.457C236.644 361.8 236.737 361.893 236.737 362.08V371.72C236.737 371.907 236.644 372 236.457 372H235.557C235.37 372 235.277 371.907 235.277 371.72V370.94H235.197C234.864 371.647 234.184 372 233.157 372ZM240.671 372H239.771C239.585 372 239.491 371.907 239.491 371.72V362.08C239.491 361.893 239.585 361.8 239.771 361.8H240.671C240.858 361.8 240.951 361.893 240.951 362.08V362.88H241.031C241.165 362.587 241.418 362.333 241.791 362.12C242.165 361.907 242.605 361.8 243.111 361.8H243.891C244.065 361.8 244.151 361.893 244.151 362.08V362.82C244.151 362.913 244.131 362.987 244.091 363.04C244.051 363.08 243.985 363.093 243.891 363.08H242.811C242.211 363.08 241.751 363.26 241.431 363.62C241.111 363.98 240.951 364.473 240.951 365.1V371.72C240.951 371.907 240.858 372 240.671 372ZM251.896 371V371.74C251.896 371.913 251.803 372 251.616 372H248.716C247.796 372 247.07 371.74 246.536 371.22C246.016 370.7 245.756 369.973 245.756 369.04V364.76C245.756 363.827 246.016 363.1 246.536 362.58C247.07 362.06 247.796 361.8 248.716 361.8H251.616C251.803 361.8 251.896 361.893 251.896 362.08V362.82C251.896 362.993 251.803 363.08 251.616 363.08H248.876C247.77 363.08 247.216 363.66 247.216 364.82V368.98C247.216 370.14 247.77 370.72 248.876 370.72H251.616C251.803 370.72 251.896 370.813 251.896 371ZM255.124 372H254.224C254.038 372 253.944 371.907 253.944 371.72V358.22C253.944 358.033 254.038 357.94 254.224 357.94H255.124C255.311 357.94 255.404 358.033 255.404 358.22V362.86H255.484C255.818 362.153 256.498 361.8 257.524 361.8H258.644C259.551 361.8 260.258 362.06 260.764 362.58C261.271 363.1 261.524 363.827 261.524 364.76V371.72C261.524 371.907 261.431 372 261.244 372H260.344C260.158 372 260.064 371.907 260.064 371.72V364.82C260.064 363.66 259.504 363.08 258.384 363.08H257.264C256.664 363.08 256.204 363.24 255.884 363.56C255.564 363.88 255.404 364.333 255.404 364.92V371.72C255.404 371.907 255.311 372 255.124 372ZM267.979 372H266.939C266.019 372 265.292 371.74 264.759 371.22C264.239 370.7 263.979 369.973 263.979 369.04V364.76C263.979 363.827 264.239 363.1 264.759 362.58C265.292 362.06 266.019 361.8 266.939 361.8H271.279C271.465 361.8 271.559 361.893 271.559 362.08V371.72C271.559 371.907 271.465 372 271.279 372H270.379C270.192 372 270.099 371.907 270.099 371.72V370.94H270.019C269.685 371.647 269.005 372 267.979 372ZM270.099 368.88V363.26C270.099 363.14 270.032 363.08 269.899 363.08H267.099C265.992 363.08 265.439 363.66 265.439 364.82V368.98C265.439 370.14 265.992 370.72 267.099 370.72H268.239C268.839 370.72 269.299 370.56 269.619 370.24C269.939 369.92 270.099 369.467 270.099 368.88ZM277.776 372H274.216C274.029 372 273.936 371.907 273.936 371.72V371.02C273.936 370.847 274.029 370.76 274.216 370.76H277.576C278.616 370.76 279.136 370.373 279.136 369.6V369.22C279.136 368.513 278.796 368.027 278.116 367.76L275.756 366.76C275.076 366.48 274.589 366.153 274.296 365.78C274.002 365.393 273.856 364.887 273.856 364.26C273.856 362.62 274.756 361.8 276.556 361.8H279.836C280.022 361.8 280.116 361.893 280.116 362.08V362.78C280.116 362.953 280.022 363.04 279.836 363.04H276.816C276.336 363.04 275.969 363.14 275.716 363.34C275.476 363.54 275.356 363.773 275.356 364.04V364.38C275.356 364.94 275.736 365.367 276.496 365.66L278.856 366.72C279.549 366.987 280.016 367.34 280.256 367.78C280.509 368.22 280.636 368.827 280.636 369.6C280.636 371.2 279.682 372 277.776 372ZM289.968 372H285.728C284.808 372 284.081 371.74 283.548 371.22C283.028 370.7 282.768 369.973 282.768 369.04V364.76C282.768 363.827 283.028 363.1 283.548 362.58C284.081 362.06 284.808 361.8 285.728 361.8H287.408C288.328 361.8 289.048 362.06 289.568 362.58C290.088 363.1 290.348 363.827 290.348 364.76V367.3C290.348 367.5 290.255 367.6 290.068 367.6H284.408C284.275 367.6 284.208 367.66 284.208 367.78V369C284.208 370.16 284.768 370.74 285.888 370.74H289.968C290.155 370.74 290.248 370.833 290.248 371.02V371.74C290.248 371.913 290.155 372 289.968 372ZM284.408 366.54H288.728C288.861 366.54 288.928 366.473 288.928 366.34V364.8C288.928 363.653 288.368 363.08 287.248 363.08H285.888C284.768 363.08 284.208 363.653 284.208 364.8V366.34C284.208 366.473 284.275 366.54 284.408 366.54ZM302.37 372H300.65C299.73 372 299.003 371.74 298.47 371.22C297.95 370.7 297.69 369.973 297.69 369.04V364.76C297.69 363.827 297.95 363.1 298.47 362.58C299.003 362.06 299.73 361.8 300.65 361.8H302.37C303.29 361.8 304.01 362.06 304.53 362.58C305.063 363.1 305.33 363.827 305.33 364.76V369.04C305.33 369.973 305.063 370.7 304.53 371.22C304.01 371.74 303.29 372 302.37 372ZM300.81 370.72H302.21C303.33 370.72 303.89 370.147 303.89 369V364.8C303.89 363.653 303.33 363.08 302.21 363.08H300.81C299.69 363.08 299.13 363.653 299.13 364.8V369C299.13 370.147 299.69 370.72 300.81 370.72ZM309.07 372H308.17C307.983 372 307.89 371.907 307.89 371.72V362.08C307.89 361.893 307.983 361.8 308.17 361.8H309.07C309.256 361.8 309.35 361.893 309.35 362.08V362.86H309.43C309.763 362.153 310.443 361.8 311.47 361.8H312.59C313.496 361.8 314.203 362.06 314.71 362.58C315.216 363.1 315.47 363.827 315.47 364.76V371.72C315.47 371.907 315.376 372 315.19 372H314.29C314.103 372 314.01 371.907 314.01 371.72V364.82C314.01 363.66 313.45 363.08 312.33 363.08H311.21C310.61 363.08 310.15 363.24 309.83 363.56C309.51 363.88 309.35 364.333 309.35 364.92V371.72C309.35 371.907 309.256 372 309.07 372ZM319.404 372H318.504C318.317 372 318.224 371.907 318.224 371.72V358.22C318.224 358.033 318.317 357.94 318.504 357.94H319.404C319.591 357.94 319.684 358.033 319.684 358.22V371.72C319.684 371.907 319.591 372 319.404 372ZM322.638 360.12V358.24C322.638 358.053 322.725 357.96 322.898 357.96H323.818C324.005 357.96 324.098 358.053 324.098 358.24V360.12C324.098 360.307 324.005 360.4 323.818 360.4H322.898C322.725 360.4 322.638 360.307 322.638 360.12ZM322.638 371.72V362.08C322.638 361.893 322.725 361.8 322.898 361.8H323.818C324.005 361.8 324.098 361.893 324.098 362.08V371.72C324.098 371.907 324.005 372 323.818 372H322.918C322.732 372 322.638 371.907 322.638 371.72ZM328.132 372H327.232C327.046 372 326.952 371.907 326.952 371.72V362.08C326.952 361.893 327.046 361.8 327.232 361.8H328.132C328.319 361.8 328.412 361.893 328.412 362.08V362.86H328.492C328.826 362.153 329.506 361.8 330.532 361.8H331.652C332.559 361.8 333.266 362.06 333.772 362.58C334.279 363.1 334.532 363.827 334.532 364.76V371.72C334.532 371.907 334.439 372 334.252 372H333.352C333.166 372 333.072 371.907 333.072 371.72V364.82C333.072 363.66 332.512 363.08 331.392 363.08H330.272C329.672 363.08 329.212 363.24 328.892 363.56C328.572 363.88 328.412 364.333 328.412 364.92V371.72C328.412 371.907 328.319 372 328.132 372ZM344.187 372H339.947C339.027 372 338.3 371.74 337.767 371.22C337.247 370.7 336.987 369.973 336.987 369.04V364.76C336.987 363.827 337.247 363.1 337.767 362.58C338.3 362.06 339.027 361.8 339.947 361.8H341.627C342.547 361.8 343.267 362.06 343.787 362.58C344.307 363.1 344.567 363.827 344.567 364.76V367.3C344.567 367.5 344.473 367.6 344.287 367.6H338.627C338.493 367.6 338.427 367.66 338.427 367.78V369C338.427 370.16 338.987 370.74 340.107 370.74H344.187C344.373 370.74 344.467 370.833 344.467 371.02V371.74C344.467 371.913 344.373 372 344.187 372ZM338.627 366.54H342.947C343.08 366.54 343.147 366.473 343.147 366.34V364.8C343.147 363.653 342.587 363.08 341.467 363.08H340.107C338.987 363.08 338.427 363.653 338.427 364.8V366.34C338.427 366.473 338.493 366.54 338.627 366.54Z" fill="black"/>
<path d="M202.125 576H200.585C200.398 576 200.285 575.907 200.245 575.72L197.685 563.42C197.645 563.233 197.731 563.14 197.945 563.14H199.025C199.225 563.14 199.331 563.233 199.345 563.42L201.365 574.44H201.485L204.185 563.4C204.225 563.227 204.331 563.14 204.505 563.14H205.705C205.878 563.14 205.985 563.227 206.025 563.4L208.765 574.44H208.885L210.885 563.44C210.925 563.24 211.038 563.14 211.225 563.14H212.305C212.518 563.14 212.605 563.24 212.565 563.44L209.985 575.72C209.945 575.907 209.838 576 209.665 576H208.125C207.938 576 207.825 575.907 207.785 575.72L205.165 564.98H205.085L202.445 575.72C202.405 575.907 202.298 576 202.125 576ZM218.262 576H217.222C216.302 576 215.575 575.74 215.042 575.22C214.522 574.7 214.262 573.973 214.262 573.04V568.76C214.262 567.827 214.522 567.1 215.042 566.58C215.575 566.06 216.302 565.8 217.222 565.8H221.562C221.749 565.8 221.842 565.893 221.842 566.08V575.72C221.842 575.907 221.749 576 221.562 576H220.662C220.475 576 220.382 575.907 220.382 575.72V574.94H220.302C219.969 575.647 219.289 576 218.262 576ZM220.382 572.88V567.26C220.382 567.14 220.315 567.08 220.182 567.08H217.382C216.275 567.08 215.722 567.66 215.722 568.82V572.98C215.722 574.14 216.275 574.72 217.382 574.72H218.522C219.122 574.72 219.582 574.56 219.902 574.24C220.222 573.92 220.382 573.467 220.382 572.88ZM224.699 564.12V562.24C224.699 562.053 224.785 561.96 224.959 561.96H225.879C226.065 561.96 226.159 562.053 226.159 562.24V564.12C226.159 564.307 226.065 564.4 225.879 564.4H224.959C224.785 564.4 224.699 564.307 224.699 564.12ZM224.699 575.72V566.08C224.699 565.893 224.785 565.8 224.959 565.8H225.879C226.065 565.8 226.159 565.893 226.159 566.08V575.72C226.159 575.907 226.065 576 225.879 576H224.979C224.792 576 224.699 575.907 224.699 575.72ZM229.393 567.08H228.293C228.106 567.08 228.013 566.993 228.013 566.82V566.08C228.013 565.893 228.106 565.8 228.293 565.8H229.393C229.526 565.8 229.593 565.74 229.593 565.62V563.9C229.593 563.713 229.686 563.62 229.873 563.62H230.773C230.946 563.62 231.033 563.713 231.033 563.9V565.62C231.033 565.74 231.106 565.8 231.253 565.8H233.373C233.573 565.8 233.673 565.893 233.673 566.08V566.82C233.673 566.993 233.573 567.08 233.373 567.08H231.253C231.106 567.08 231.033 567.14 231.033 567.26V573.02C231.033 574.153 231.619 574.72 232.793 574.72H233.573C233.773 574.72 233.873 574.813 233.873 575V575.74C233.873 575.913 233.773 576 233.573 576H232.613C231.693 576 230.959 575.747 230.413 575.24C229.866 574.72 229.593 574 229.593 573.08V567.26C229.593 567.14 229.526 567.08 229.393 567.08ZM243.624 565.8H245.384C245.584 565.8 245.684 565.887 245.684 566.06V566.8C245.684 566.987 245.584 567.08 245.384 567.08H243.624C243.504 567.08 243.444 567.14 243.444 567.26V575.72C243.444 575.907 243.344 576 243.144 576H242.264C242.077 576 241.984 575.907 241.984 575.72V567.26C241.984 567.14 241.917 567.08 241.784 567.08H240.604C240.417 567.08 240.324 566.987 240.324 566.8V566.06C240.324 565.887 240.417 565.8 240.604 565.8H241.784C241.917 565.8 241.984 565.74 241.984 565.62V564.88C241.984 563.933 242.217 563.207 242.684 562.7C243.15 562.193 243.83 561.94 244.724 561.94H245.404C245.59 561.94 245.684 562.027 245.684 562.2V562.94C245.684 563.127 245.59 563.22 245.404 563.22H244.904C244.357 563.22 243.977 563.36 243.764 563.64C243.55 563.907 243.444 564.34 243.444 564.94V565.62C243.444 565.74 243.504 565.8 243.624 565.8ZM251.911 576H250.191C249.271 576 248.544 575.74 248.011 575.22C247.491 574.7 247.231 573.973 247.231 573.04V568.76C247.231 567.827 247.491 567.1 248.011 566.58C248.544 566.06 249.271 565.8 250.191 565.8H251.911C252.831 565.8 253.551 566.06 254.071 566.58C254.604 567.1 254.871 567.827 254.871 568.76V573.04C254.871 573.973 254.604 574.7 254.071 575.22C253.551 575.74 252.831 576 251.911 576ZM250.351 574.72H251.751C252.871 574.72 253.431 574.147 253.431 573V568.8C253.431 567.653 252.871 567.08 251.751 567.08H250.351C249.231 567.08 248.671 567.653 248.671 568.8V573C248.671 574.147 249.231 574.72 250.351 574.72ZM258.611 576H257.711C257.524 576 257.431 575.907 257.431 575.72V566.08C257.431 565.893 257.524 565.8 257.711 565.8H258.611C258.797 565.8 258.891 565.893 258.891 566.08V566.88H258.971C259.104 566.587 259.357 566.333 259.731 566.12C260.104 565.907 260.544 565.8 261.051 565.8H261.831C262.004 565.8 262.091 565.893 262.091 566.08V566.82C262.091 566.913 262.071 566.987 262.031 567.04C261.991 567.08 261.924 567.093 261.831 567.08H260.751C260.151 567.08 259.691 567.26 259.371 567.62C259.051 567.98 258.891 568.473 258.891 569.1V575.72C258.891 575.907 258.797 576 258.611 576ZM272.774 576H271.734C270.814 576 270.087 575.74 269.554 575.22C269.034 574.7 268.774 573.973 268.774 573.04V568.76C268.774 567.827 269.034 567.1 269.554 566.58C270.087 566.06 270.814 565.8 271.734 565.8H276.074C276.26 565.8 276.354 565.893 276.354 566.08V575.72C276.354 575.907 276.26 576 276.074 576H275.174C274.987 576 274.894 575.907 274.894 575.72V574.94H274.814C274.48 575.647 273.8 576 272.774 576ZM274.894 572.88V567.26C274.894 567.14 274.827 567.08 274.694 567.08H271.894C270.787 567.08 270.234 567.66 270.234 568.82V572.98C270.234 574.14 270.787 574.72 271.894 574.72H273.034C273.634 574.72 274.094 574.56 274.414 574.24C274.734 573.92 274.894 573.467 274.894 572.88ZM288.049 576H286.869C285.962 576 285.255 575.74 284.749 575.22C284.242 574.7 283.989 573.973 283.989 573.04V568.76C283.989 567.827 284.242 567.1 284.749 566.58C285.255 566.06 285.962 565.8 286.869 565.8H288.049C289.089 565.8 289.775 566.153 290.109 566.86H290.189V562.22C290.189 562.033 290.275 561.94 290.449 561.94H291.369C291.542 561.94 291.629 562.033 291.629 562.22V575.72C291.629 575.907 291.542 576 291.369 576H290.449C290.275 576 290.189 575.907 290.189 575.72V574.94H290.109C289.775 575.647 289.089 576 288.049 576ZM290.189 572.88V568.92C290.189 568.333 290.029 567.88 289.709 567.56C289.389 567.24 288.929 567.08 288.329 567.08H287.109C286.002 567.08 285.449 567.66 285.449 568.82V572.98C285.449 574.14 286.002 574.72 287.109 574.72H288.329C288.929 574.72 289.389 574.56 289.709 574.24C290.029 573.92 290.189 573.467 290.189 572.88ZM301.384 576H297.144C296.224 576 295.497 575.74 294.964 575.22C294.444 574.7 294.184 573.973 294.184 573.04V568.76C294.184 567.827 294.444 567.1 294.964 566.58C295.497 566.06 296.224 565.8 297.144 565.8H298.824C299.744 565.8 300.464 566.06 300.984 566.58C301.504 567.1 301.764 567.827 301.764 568.76V571.3C301.764 571.5 301.671 571.6 301.484 571.6H295.824C295.691 571.6 295.624 571.66 295.624 571.78V573C295.624 574.16 296.184 574.74 297.304 574.74H301.384C301.571 574.74 301.664 574.833 301.664 575.02V575.74C301.664 575.913 301.571 576 301.384 576ZM295.824 570.54H300.144C300.277 570.54 300.344 570.473 300.344 570.34V568.8C300.344 567.653 299.784 567.08 298.664 567.08H297.304C296.184 567.08 295.624 567.653 295.624 568.8V570.34C295.624 570.473 295.691 570.54 295.824 570.54ZM305.508 576H304.608C304.421 576 304.328 575.907 304.328 575.72V562.22C304.328 562.033 304.421 561.94 304.608 561.94H305.508C305.694 561.94 305.788 562.033 305.788 562.22V575.72C305.788 575.907 305.694 576 305.508 576ZM308.742 564.12V562.24C308.742 562.053 308.828 561.96 309.002 561.96H309.922C310.108 561.96 310.202 562.053 310.202 562.24V564.12C310.202 564.307 310.108 564.4 309.922 564.4H309.002C308.828 564.4 308.742 564.307 308.742 564.12ZM308.742 575.72V566.08C308.742 565.893 308.828 565.8 309.002 565.8H309.922C310.108 565.8 310.202 565.893 310.202 566.08V575.72C310.202 575.907 310.108 576 309.922 576H309.022C308.835 576 308.742 575.907 308.742 575.72ZM312.276 565.8H313.216C313.389 565.8 313.496 565.893 313.536 566.08L315.936 574.54H316.036L318.416 566.08C318.469 565.893 318.582 565.8 318.756 565.8H319.696C319.882 565.8 319.949 565.893 319.896 566.08L317.016 575.7C316.976 575.9 316.856 576 316.656 576H315.296C315.109 576 314.989 575.9 314.936 575.7L312.076 566.08C312.022 565.893 312.089 565.8 312.276 565.8ZM328.669 576H324.429C323.509 576 322.782 575.74 322.249 575.22C321.729 574.7 321.469 573.973 321.469 573.04V568.76C321.469 567.827 321.729 567.1 322.249 566.58C322.782 566.06 323.509 565.8 324.429 565.8H326.109C327.029 565.8 327.749 566.06 328.269 566.58C328.789 567.1 329.049 567.827 329.049 568.76V571.3C329.049 571.5 328.956 571.6 328.769 571.6H323.109C322.976 571.6 322.909 571.66 322.909 571.78V573C322.909 574.16 323.469 574.74 324.589 574.74H328.669C328.856 574.74 328.949 574.833 328.949 575.02V575.74C328.949 575.913 328.856 576 328.669 576ZM323.109 570.54H327.429C327.562 570.54 327.629 570.473 327.629 570.34V568.8C327.629 567.653 327.069 567.08 325.949 567.08H324.589C323.469 567.08 322.909 567.653 322.909 568.8V570.34C322.909 570.473 322.976 570.54 323.109 570.54ZM332.693 576H331.793C331.606 576 331.513 575.907 331.513 575.72V566.08C331.513 565.893 331.606 565.8 331.793 565.8H332.693C332.879 565.8 332.973 565.893 332.973 566.08V566.88H333.053C333.186 566.587 333.439 566.333 333.813 566.12C334.186 565.907 334.626 565.8 335.133 565.8H335.913C336.086 565.8 336.173 565.893 336.173 566.08V566.82C336.173 566.913 336.153 566.987 336.113 567.04C336.073 567.08 336.006 567.093 335.913 567.08H334.833C334.233 567.08 333.773 567.26 333.453 567.62C333.133 567.98 332.973 568.473 332.973 569.1V575.72C332.973 575.907 332.879 576 332.693 576ZM338.798 579.14H337.918C337.731 579.14 337.638 579.047 337.638 578.86V578.12C337.638 577.933 337.731 577.84 337.918 577.84H338.418C339.271 577.84 339.871 577.6 340.218 577.12C340.498 576.733 340.751 576.18 340.978 575.46H340.398C340.238 575.46 340.124 575.367 340.058 575.18L337.118 566.08C337.064 565.893 337.131 565.8 337.318 565.8H338.278C338.451 565.8 338.564 565.893 338.618 566.08L341.198 574.32H341.278L343.858 566.08C343.898 565.893 344.004 565.8 344.178 565.8H345.098C345.324 565.8 345.404 565.9 345.338 566.1L342.358 575.6C342.024 576.733 341.598 577.607 341.078 578.22C340.571 578.833 339.811 579.14 338.798 579.14Z" fill="black"/>
<path d="M6.77344 578H4.61344C3.69344 578 2.96677 577.74 2.43344 577.22C1.91344 576.7 1.65344 575.973 1.65344 575.04V568.1C1.65344 567.167 1.91344 566.44 2.43344 565.92C2.96677 565.4 3.69344 565.14 4.61344 565.14H6.77344C7.69344 565.14 8.41344 565.407 8.93344 565.94C9.45344 566.46 9.71344 567.18 9.71344 568.1V568.92C9.71344 569.12 9.6201 569.22 9.43344 569.22H8.53344C8.34677 569.22 8.25344 569.12 8.25344 568.92V568.16C8.25344 567 7.7001 566.42 6.59344 566.42H4.77344C3.66677 566.42 3.11344 567 3.11344 568.16V574.98C3.11344 576.14 3.66677 576.72 4.77344 576.72H6.59344C7.7001 576.72 8.25344 576.14 8.25344 574.98V572.74C8.25344 572.607 8.19344 572.54 8.07344 572.54H6.09344C5.90677 572.54 5.81344 572.453 5.81344 572.28V571.54C5.81344 571.353 5.90677 571.26 6.09344 571.26H9.31344C9.5801 571.26 9.71344 571.4 9.71344 571.68V575.04C9.71344 575.973 9.45344 576.7 8.93344 577.22C8.41344 577.74 7.69344 578 6.77344 578ZM19.4738 578H15.2338C14.3138 578 13.5871 577.74 13.0538 577.22C12.5338 576.7 12.2738 575.973 12.2738 575.04V570.76C12.2738 569.827 12.5338 569.1 13.0538 568.58C13.5871 568.06 14.3138 567.8 15.2338 567.8H16.9138C17.8338 567.8 18.5538 568.06 19.0738 568.58C19.5938 569.1 19.8538 569.827 19.8538 570.76V573.3C19.8538 573.5 19.7604 573.6 19.5738 573.6H13.9138C13.7804 573.6 13.7138 573.66 13.7138 573.78V575C13.7138 576.16 14.2738 576.74 15.3938 576.74H19.4738C19.6604 576.74 19.7538 576.833 19.7538 577.02V577.74C19.7538 577.913 19.6604 578 19.4738 578ZM13.9138 572.54H18.2338C18.3671 572.54 18.4338 572.473 18.4338 572.34V570.8C18.4338 569.653 17.8738 569.08 16.7538 569.08H15.3938C14.2738 569.08 13.7138 569.653 13.7138 570.8V572.34C13.7138 572.473 13.7804 572.54 13.9138 572.54ZM22.6975 569.08H21.5975C21.4108 569.08 21.3175 568.993 21.3175 568.82V568.08C21.3175 567.893 21.4108 567.8 21.5975 567.8H22.6975C22.8308 567.8 22.8975 567.74 22.8975 567.62V565.9C22.8975 565.713 22.9908 565.62 23.1775 565.62H24.0775C24.2508 565.62 24.3375 565.713 24.3375 565.9V567.62C24.3375 567.74 24.4108 567.8 24.5575 567.8H26.6775C26.8775 567.8 26.9775 567.893 26.9775 568.08V568.82C26.9775 568.993 26.8775 569.08 26.6775 569.08H24.5575C24.4108 569.08 24.3375 569.14 24.3375 569.26V575.02C24.3375 576.153 24.9242 576.72 26.0975 576.72H26.8775C27.0775 576.72 27.1775 576.813 27.1775 577V577.74C27.1775 577.913 27.0775 578 26.8775 578H25.9175C24.9975 578 24.2642 577.747 23.7175 577.24C23.1708 576.72 22.8975 576 22.8975 575.08V569.26C22.8975 569.14 22.8308 569.08 22.6975 569.08ZM35.1883 581.14H34.3083C34.1216 581.14 34.0283 581.047 34.0283 580.86V580.12C34.0283 579.933 34.1216 579.84 34.3083 579.84H34.8083C35.6616 579.84 36.2616 579.6 36.6083 579.12C36.8883 578.733 37.1416 578.18 37.3683 577.46H36.7883C36.6283 577.46 36.5149 577.367 36.4483 577.18L33.5083 568.08C33.4549 567.893 33.5216 567.8 33.7083 567.8H34.6683C34.8416 567.8 34.9549 567.893 35.0083 568.08L37.5883 576.32H37.6683L40.2483 568.08C40.2883 567.893 40.3949 567.8 40.5683 567.8H41.4883C41.7149 567.8 41.7949 567.9 41.7283 568.1L38.7483 577.6C38.4149 578.733 37.9883 579.607 37.4683 580.22C36.9616 580.833 36.2016 581.14 35.1883 581.14ZM48.1061 578H46.3861C45.4661 578 44.7394 577.74 44.2061 577.22C43.6861 576.7 43.4261 575.973 43.4261 575.04V570.76C43.4261 569.827 43.6861 569.1 44.2061 568.58C44.7394 568.06 45.4661 567.8 46.3861 567.8H48.1061C49.0261 567.8 49.7461 568.06 50.2661 568.58C50.7994 569.1 51.0661 569.827 51.0661 570.76V575.04C51.0661 575.973 50.7994 576.7 50.2661 577.22C49.7461 577.74 49.0261 578 48.1061 578ZM46.5461 576.72H47.9461C49.0661 576.72 49.6261 576.147 49.6261 575V570.8C49.6261 569.653 49.0661 569.08 47.9461 569.08H46.5461C45.4261 569.08 44.8661 569.653 44.8661 570.8V575C44.8661 576.147 45.4261 576.72 46.5461 576.72ZM57.5261 578H56.4061C55.4994 578 54.7928 577.74 54.2861 577.22C53.7794 576.7 53.5261 575.973 53.5261 575.04V568.08C53.5261 567.893 53.6194 567.8 53.8061 567.8H54.7061C54.8928 567.8 54.9861 567.893 54.9861 568.08V574.98C54.9861 576.14 55.5394 576.72 56.6461 576.72H57.7861C58.3861 576.72 58.8461 576.56 59.1661 576.24C59.4861 575.92 59.6461 575.467 59.6461 574.88V568.08C59.6461 567.893 59.7394 567.8 59.9261 567.8H60.8261C61.0128 567.8 61.1061 567.893 61.1061 568.08V577.72C61.1061 577.907 61.0128 578 60.8261 578H59.9261C59.7394 578 59.6461 577.907 59.6461 577.72V576.94H59.5661C59.2328 577.647 58.5528 578 57.5261 578ZM65.0405 578H64.1405C63.9538 578 63.8605 577.907 63.8605 577.72V568.08C63.8605 567.893 63.9538 567.8 64.1405 567.8H65.0405C65.2271 567.8 65.3205 567.893 65.3205 568.08V568.88H65.4005C65.5338 568.587 65.7871 568.333 66.1605 568.12C66.5338 567.907 66.9738 567.8 67.4805 567.8H68.2605C68.4338 567.8 68.5205 567.893 68.5205 568.08V568.82C68.5205 568.913 68.5005 568.987 68.4605 569.04C68.4205 569.08 68.3538 569.093 68.2605 569.08H67.1805C66.5805 569.08 66.1205 569.26 65.8005 569.62C65.4805 569.98 65.3205 570.473 65.3205 571.1V577.72C65.3205 577.907 65.2271 578 65.0405 578ZM76.5834 580.92H75.6834C75.4968 580.92 75.4034 580.827 75.4034 580.64V568.08C75.4034 567.893 75.4968 567.8 75.6834 567.8H76.5834C76.7701 567.8 76.8634 567.893 76.8634 568.08V568.86H76.9434C77.2768 568.153 77.9568 567.8 78.9834 567.8H80.1834C81.0901 567.8 81.7901 568.06 82.2834 568.58C82.7901 569.1 83.0434 569.827 83.0434 570.76V575.04C83.0434 575.973 82.7901 576.7 82.2834 577.22C81.7901 577.74 81.0901 578 80.1834 578H78.9834C77.9568 578 77.2768 577.647 76.9434 576.94H76.8634V580.64C76.8634 580.827 76.7701 580.92 76.5834 580.92ZM78.7234 576.72H79.9034C81.0368 576.72 81.6034 576.14 81.6034 574.98V570.82C81.6034 569.66 81.0368 569.08 79.9034 569.08H78.7234C78.1234 569.08 77.6634 569.24 77.3434 569.56C77.0234 569.88 76.8634 570.333 76.8634 570.92V574.88C76.8634 575.467 77.0234 575.92 77.3434 576.24C77.6634 576.56 78.1234 576.72 78.7234 576.72ZM86.7788 578H85.8788C85.6921 578 85.5988 577.907 85.5988 577.72V568.08C85.5988 567.893 85.6921 567.8 85.8788 567.8H86.7788C86.9654 567.8 87.0588 567.893 87.0588 568.08V568.88H87.1388C87.2721 568.587 87.5254 568.333 87.8988 568.12C88.2721 567.907 88.7121 567.8 89.2188 567.8H89.9988C90.1721 567.8 90.2588 567.893 90.2588 568.08V568.82C90.2588 568.913 90.2388 568.987 90.1988 569.04C90.1588 569.08 90.0921 569.093 89.9988 569.08H88.9188C88.3188 569.08 87.8588 569.26 87.5388 569.62C87.2188 569.98 87.0588 570.473 87.0588 571.1V577.72C87.0588 577.907 86.9654 578 86.7788 578ZM96.5436 578H94.8236C93.9036 578 93.1769 577.74 92.6436 577.22C92.1236 576.7 91.8636 575.973 91.8636 575.04V570.76C91.8636 569.827 92.1236 569.1 92.6436 568.58C93.1769 568.06 93.9036 567.8 94.8236 567.8H96.5436C97.4636 567.8 98.1836 568.06 98.7036 568.58C99.2369 569.1 99.5036 569.827 99.5036 570.76V575.04C99.5036 575.973 99.2369 576.7 98.7036 577.22C98.1836 577.74 97.4636 578 96.5436 578ZM94.9836 576.72H96.3836C97.5036 576.72 98.0636 576.147 98.0636 575V570.8C98.0636 569.653 97.5036 569.08 96.3836 569.08H94.9836C93.8636 569.08 93.3036 569.653 93.3036 570.8V575C93.3036 576.147 93.8636 576.72 94.9836 576.72ZM105.924 578H104.744C103.837 578 103.13 577.74 102.624 577.22C102.117 576.7 101.864 575.973 101.864 575.04V570.76C101.864 569.827 102.117 569.1 102.624 568.58C103.13 568.06 103.837 567.8 104.744 567.8H105.924C106.964 567.8 107.65 568.153 107.984 568.86H108.064V564.22C108.064 564.033 108.15 563.94 108.324 563.94H109.244C109.417 563.94 109.504 564.033 109.504 564.22V577.72C109.504 577.907 109.417 578 109.244 578H108.324C108.15 578 108.064 577.907 108.064 577.72V576.94H107.984C107.65 577.647 106.964 578 105.924 578ZM108.064 574.88V570.92C108.064 570.333 107.904 569.88 107.584 569.56C107.264 569.24 106.804 569.08 106.204 569.08H104.984C103.877 569.08 103.324 569.66 103.324 570.82V574.98C103.324 576.14 103.877 576.72 104.984 576.72H106.204C106.804 576.72 107.264 576.56 107.584 576.24C107.904 575.92 108.064 575.467 108.064 574.88ZM116.159 578H115.039C114.132 578 113.426 577.74 112.919 577.22C112.412 576.7 112.159 575.973 112.159 575.04V568.08C112.159 567.893 112.252 567.8 112.439 567.8H113.339C113.526 567.8 113.619 567.893 113.619 568.08V574.98C113.619 576.14 114.172 576.72 115.279 576.72H116.419C117.019 576.72 117.479 576.56 117.799 576.24C118.119 575.92 118.279 575.467 118.279 574.88V568.08C118.279 567.893 118.372 567.8 118.559 567.8H119.459C119.646 567.8 119.739 567.893 119.739 568.08V577.72C119.739 577.907 119.646 578 119.459 578H118.559C118.372 578 118.279 577.907 118.279 577.72V576.94H118.199C117.866 577.647 117.186 578 116.159 578ZM128.433 577V577.74C128.433 577.913 128.34 578 128.153 578H125.253C124.333 578 123.607 577.74 123.073 577.22C122.553 576.7 122.293 575.973 122.293 575.04V570.76C122.293 569.827 122.553 569.1 123.073 568.58C123.607 568.06 124.333 567.8 125.253 567.8H128.153C128.34 567.8 128.433 567.893 128.433 568.08V568.82C128.433 568.993 128.34 569.08 128.153 569.08H125.413C124.307 569.08 123.753 569.66 123.753 570.82V574.98C123.753 576.14 124.307 576.72 125.413 576.72H128.153C128.34 576.72 128.433 576.813 128.433 577ZM130.862 569.08H129.762C129.575 569.08 129.482 568.993 129.482 568.82V568.08C129.482 567.893 129.575 567.8 129.762 567.8H130.862C130.995 567.8 131.062 567.74 131.062 567.62V565.9C131.062 565.713 131.155 565.62 131.342 565.62H132.242C132.415 565.62 132.502 565.713 132.502 565.9V567.62C132.502 567.74 132.575 567.8 132.722 567.8H134.842C135.042 567.8 135.142 567.893 135.142 568.08V568.82C135.142 568.993 135.042 569.08 134.842 569.08H132.722C132.575 569.08 132.502 569.14 132.502 569.26V575.02C132.502 576.153 133.088 576.72 134.262 576.72H135.042C135.242 576.72 135.342 576.813 135.342 577V577.74C135.342 577.913 135.242 578 135.042 578H134.082C133.162 578 132.428 577.747 131.882 577.24C131.335 576.72 131.062 576 131.062 575.08V569.26C131.062 569.14 130.995 569.08 130.862 569.08ZM140.914 578H137.354C137.168 578 137.074 577.907 137.074 577.72V577.02C137.074 576.847 137.168 576.76 137.354 576.76H140.714C141.754 576.76 142.274 576.373 142.274 575.6V575.22C142.274 574.513 141.934 574.027 141.254 573.76L138.894 572.76C138.214 572.48 137.728 572.153 137.434 571.78C137.141 571.393 136.994 570.887 136.994 570.26C136.994 568.62 137.894 567.8 139.694 567.8H142.974C143.161 567.8 143.254 567.893 143.254 568.08V568.78C143.254 568.953 143.161 569.04 142.974 569.04H139.954C139.474 569.04 139.108 569.14 138.854 569.34C138.614 569.54 138.494 569.773 138.494 570.04V570.38C138.494 570.94 138.874 571.367 139.634 571.66L141.994 572.72C142.688 572.987 143.154 573.34 143.394 573.78C143.648 574.22 143.774 574.827 143.774 575.6C143.774 577.2 142.821 578 140.914 578Z" fill="black"/>
<path d="M54.8928 372H53.9928C53.8061 372 53.7128 371.907 53.7128 371.72V359.42C53.7128 359.233 53.8061 359.14 53.9928 359.14H58.5928C59.5128 359.14 60.2395 359.407 60.7728 359.94C61.3061 360.46 61.5728 361.18 61.5728 362.1V363.92C61.5728 364.667 61.3928 365.287 61.0328 365.78C60.6728 366.26 60.1728 366.58 59.5328 366.74V366.82L61.8528 371.68C61.9728 371.893 61.9061 372 61.6528 372H60.7528C60.5261 372 60.3595 371.907 60.2528 371.72L58.0128 366.88H55.3728C55.2395 366.88 55.1728 366.94 55.1728 367.06V371.72C55.1728 371.907 55.0795 372 54.8928 372ZM55.3728 365.66H58.3928C59.5395 365.66 60.1128 365.087 60.1128 363.94V362.16C60.1128 361 59.5395 360.42 58.3928 360.42H55.3728C55.2395 360.42 55.1728 360.48 55.1728 360.6V365.48C55.1728 365.6 55.2395 365.66 55.3728 365.66ZM71.255 372H67.015C66.095 372 65.3683 371.74 64.835 371.22C64.315 370.7 64.055 369.973 64.055 369.04V364.76C64.055 363.827 64.315 363.1 64.835 362.58C65.3683 362.06 66.095 361.8 67.015 361.8H68.695C69.615 361.8 70.335 362.06 70.855 362.58C71.375 363.1 71.635 363.827 71.635 364.76V367.3C71.635 367.5 71.5417 367.6 71.355 367.6H65.695C65.5617 367.6 65.495 367.66 65.495 367.78V369C65.495 370.16 66.055 370.74 67.175 370.74H71.255C71.4417 370.74 71.535 370.833 71.535 371.02V371.74C71.535 371.913 71.4417 372 71.255 372ZM65.695 366.54H70.015C70.1483 366.54 70.215 366.473 70.215 366.34V364.8C70.215 363.653 69.655 363.08 68.535 363.08H67.175C66.055 363.08 65.495 363.653 65.495 364.8V366.34C65.495 366.473 65.5617 366.54 65.695 366.54ZM75.2788 374.92H74.3788C74.1921 374.92 74.0988 374.827 74.0988 374.64V362.08C74.0988 361.893 74.1921 361.8 74.3788 361.8H75.2788C75.4654 361.8 75.5588 361.893 75.5588 362.08V362.86H75.6388C75.9721 362.153 76.6521 361.8 77.6788 361.8H78.8788C79.7854 361.8 80.4854 362.06 80.9788 362.58C81.4854 363.1 81.7388 363.827 81.7388 364.76V369.04C81.7388 369.973 81.4854 370.7 80.9788 371.22C80.4854 371.74 79.7854 372 78.8788 372H77.6788C76.6521 372 75.9721 371.647 75.6388 370.94H75.5588V374.64C75.5588 374.827 75.4654 374.92 75.2788 374.92ZM77.4188 370.72H78.5987C79.7321 370.72 80.2988 370.14 80.2988 368.98V364.82C80.2988 363.66 79.7321 363.08 78.5987 363.08H77.4188C76.8188 363.08 76.3588 363.24 76.0388 363.56C75.7188 363.88 75.5588 364.333 75.5588 364.92V368.88C75.5588 369.467 75.7188 369.92 76.0388 370.24C76.3588 370.56 76.8188 370.72 77.4188 370.72ZM91.2941 372H87.0541C86.1341 372 85.4074 371.74 84.8741 371.22C84.3541 370.7 84.0941 369.973 84.0941 369.04V364.76C84.0941 363.827 84.3541 363.1 84.8741 362.58C85.4074 362.06 86.1341 361.8 87.0541 361.8H88.7341C89.6541 361.8 90.3741 362.06 90.8941 362.58C91.4141 363.1 91.6741 363.827 91.6741 364.76V367.3C91.6741 367.5 91.5807 367.6 91.3941 367.6H85.7341C85.6007 367.6 85.5341 367.66 85.5341 367.78V369C85.5341 370.16 86.0941 370.74 87.2141 370.74H91.2941C91.4807 370.74 91.5741 370.833 91.5741 371.02V371.74C91.5741 371.913 91.4807 372 91.2941 372ZM85.7341 366.54H90.0541C90.1874 366.54 90.2541 366.473 90.2541 366.34V364.8C90.2541 363.653 89.6941 363.08 88.5741 363.08H87.2141C86.0941 363.08 85.5341 363.653 85.5341 364.8V366.34C85.5341 366.473 85.6007 366.54 85.7341 366.54ZM97.9378 372H96.8978C95.9778 372 95.2511 371.74 94.7178 371.22C94.1978 370.7 93.9378 369.973 93.9378 369.04V364.76C93.9378 363.827 94.1978 363.1 94.7178 362.58C95.2511 362.06 95.9778 361.8 96.8978 361.8H101.238C101.424 361.8 101.518 361.893 101.518 362.08V371.72C101.518 371.907 101.424 372 101.238 372H100.338C100.151 372 100.058 371.907 100.058 371.72V370.94H99.9778C99.6445 371.647 98.9645 372 97.9378 372ZM100.058 368.88V363.26C100.058 363.14 99.9911 363.08 99.8578 363.08H97.0578C95.9511 363.08 95.3978 363.66 95.3978 364.82V368.98C95.3978 370.14 95.9511 370.72 97.0578 370.72H98.1978C98.7978 370.72 99.2578 370.56 99.5778 370.24C99.8978 369.92 100.058 369.467 100.058 368.88ZM104.655 363.08H103.555C103.368 363.08 103.275 362.993 103.275 362.82V362.08C103.275 361.893 103.368 361.8 103.555 361.8H104.655C104.788 361.8 104.855 361.74 104.855 361.62V359.9C104.855 359.713 104.948 359.62 105.135 359.62H106.035C106.208 359.62 106.295 359.713 106.295 359.9V361.62C106.295 361.74 106.368 361.8 106.515 361.8H108.635C108.835 361.8 108.935 361.893 108.935 362.08V362.82C108.935 362.993 108.835 363.08 108.635 363.08H106.515C106.368 363.08 106.295 363.14 106.295 363.26V369.02C106.295 370.153 106.881 370.72 108.055 370.72H108.835C109.035 370.72 109.135 370.813 109.135 371V371.74C109.135 371.913 109.035 372 108.835 372H107.875C106.955 372 106.221 371.747 105.675 371.24C105.128 370.72 104.855 370 104.855 369.08V363.26C104.855 363.14 104.788 363.08 104.655 363.08Z" fill="black"/>
<path d="M211.414 58.4142C212.195 57.6332 212.195 56.3668 211.414 55.5858L198.686 42.8579C197.905 42.0768 196.639 42.0768 195.858 42.8579C195.077 43.6389 195.077 44.9052 195.858 45.6863L207.172 57L195.858 68.3137C195.077 69.0948 195.077 70.3611 195.858 71.1421C196.639 71.9232 197.905 71.9232 198.686 71.1421L211.414 58.4142ZM136 59H210V55H136V59Z" fill="black"/>
<path d="M144.586 502.586C143.805 503.367 143.805 504.633 144.586 505.414L157.314 518.142C158.095 518.923 159.361 518.923 160.142 518.142C160.923 517.361 160.923 516.095 160.142 515.314L148.828 504L160.142 492.686C160.923 491.905 160.923 490.639 160.142 489.858C159.361 489.077 158.095 489.077 157.314 489.858L144.586 502.586ZM220 502H146V506H220V502Z" fill="black"/>
<path d="M277.586 225.414C278.367 226.195 279.633 226.195 280.414 225.414L293.142 212.686C293.923 211.905 293.923 210.639 293.142 209.858C292.361 209.077 291.095 209.077 290.314 209.858L279 221.172L267.686 209.858C266.905 209.077 265.639 209.077 264.858 209.858C264.077 210.639 264.077 211.905 264.858 212.686L277.586 225.414ZM277 150V224H281V150H277Z" fill="black"/>
<path d="M277.586 465.414C278.367 466.195 279.633 466.195 280.414 465.414L293.142 452.686C293.923 451.905 293.923 450.639 293.142 449.858C292.361 449.077 291.095 449.077 290.314 449.858L279 461.172L267.686 449.858C266.905 449.077 265.639 449.077 264.858 449.858C264.077 450.639 264.077 451.905 264.858 452.686L277.586 465.414ZM277 390V464H281V390H277Z" fill="black"/>
<path d="M80.4142 383.586C79.6332 382.805 78.3668 382.805 77.5858 383.586L64.8579 396.314C64.0768 397.095 64.0768 398.361 64.8579 399.142C65.6389 399.923 66.9052 399.923 67.6863 399.142L79 387.828L90.3137 399.142C91.0948 399.923 92.3611 399.923 93.1421 399.142C93.9232 398.361 93.9232 397.095 93.1421 396.314L80.4142 383.586ZM81 459V385H77V459H81Z" fill="black"/>
<path d="M80.4142 153.586C79.6332 152.805 78.3668 152.805 77.5858 153.586L64.8579 166.314C64.0768 167.095 64.0768 168.361 64.8579 169.142C65.6389 169.923 66.9052 169.923 67.6863 169.142L79 157.828L90.3137 169.142C91.0948 169.923 92.3611 169.923 93.1421 169.142C93.9232 168.361 93.9232 167.095 93.1421 166.314L80.4142 153.586ZM81 229V155H77V229H81Z" fill="black"/>
<defs>
<clipPath id="clip0">
<rect x="27" y="248" width="96" height="96" fill="white"/>
</clipPath>
<clipPath id="clip1">
<rect x="230" width="96" height="96" fill="white"/>
</clipPath>
<clipPath id="clip2">
<rect x="25" y="466" width="96" height="98" fill="white"/>
</clipPath>
</defs>
</svg>
