<svg width="842" height="410" viewBox="0 0 842 410" fill="none" xmlns="http://www.w3.org/2000/svg">
<path d="M764.506 13.4286C763.815 13.4286 763.134 13.4645 762.458 13.5214V7.47209C762.458 3.35191 759.106 0 754.986 0H708.807C704.687 0 701.335 3.35191 701.335 7.47209V88.5276C701.335 92.6478 704.687 95.9997 708.807 95.9997H754.986C759.106 95.9997 762.458 92.6478 762.458 88.5276V61.6563C763.138 61.7141 763.82 61.7466 764.506 61.7466C777.827 61.7466 788.665 50.909 788.665 37.5877C788.664 24.2664 777.827 13.4286 764.506 13.4286ZM725.679 7.1474H736.486C737.815 7.1474 738.892 8.22479 738.892 9.55355C738.892 10.8823 737.815 11.9597 736.486 11.9597H725.679C724.35 11.9597 723.273 10.8823 723.273 9.55355C723.273 8.22479 724.35 7.1474 725.679 7.1474ZM734.303 86.2483C734.303 87.5771 733.226 88.6544 731.897 88.6544C730.568 88.6544 729.491 87.5771 729.491 86.2483V83.8419H734.303V86.2483ZM757.646 79.0296H706.148V18.7487C706.148 17.2821 707.341 16.0889 708.807 16.0889H753.513C745.705 20.0962 740.347 28.2244 740.347 37.5877C740.347 40.4496 740.843 43.2442 741.823 45.9088L737.864 61.517C737.619 62.4843 737.901 63.509 738.606 64.2145C739.144 64.752 739.867 65.0436 740.608 65.0436C740.84 65.0436 741.074 65.015 741.304 64.9567L757.646 60.8125V79.0296H757.646ZM764.506 56.0851C762.538 56.0851 760.59 55.7726 758.718 55.156C758.207 54.9876 757.659 54.9686 757.137 55.1008L744.521 58.3002L747.533 46.4214C747.683 45.8306 747.638 45.2073 747.405 44.6443C746.478 42.4015 746.008 40.0273 746.008 37.5877C746.008 27.3882 754.306 19.0901 764.506 19.0901C774.705 19.0901 783.003 27.3879 783.003 37.5877C783.003 47.7873 774.705 56.0851 764.506 56.0851Z" fill="black"/>
<path d="M764.954 34.871C762.058 33.9935 761.511 33.604 761.511 32.4193C761.511 31.2576 763.422 30.9479 764.553 30.9479C765.642 30.9479 766.936 31.2932 767.702 31.7875C767.864 31.892 768.06 31.9279 768.248 31.8874C768.436 31.8469 768.601 31.7334 768.705 31.5718L770.202 29.2548C770.306 29.0932 770.342 28.8964 770.302 28.7082C770.261 28.5199 770.148 28.3552 769.986 28.2507C769.065 27.656 767.901 27.2048 766.657 26.9545V24.6644C766.657 24.2636 766.333 23.9386 765.931 23.9386L763.173 23.9384C762.98 23.9384 762.796 24.0151 762.66 24.1509C762.523 24.2871 762.447 24.4717 762.447 24.6642L762.446 26.9375C759.299 27.5702 757.3 29.6712 757.3 32.4193C757.301 36.9519 761.172 38.1242 763.734 38.9004C766.555 39.7547 766.954 40.1247 766.947 41.0498C766.947 41.2833 766.892 41.5596 766.492 41.8364C765.971 42.1971 765.082 42.4046 764.052 42.4054C764.047 42.4054 764.041 42.4054 764.036 42.4054C762.697 42.4034 761.196 41.8016 760.381 40.9413C760.106 40.6501 759.647 40.6373 759.355 40.913L757.352 42.8088C757.061 43.0845 757.048 43.5439 757.323 43.8349C758.59 45.1733 760.469 46.1349 762.446 46.4772V48.6889C762.446 49.0897 762.771 49.4147 763.172 49.4147H765.931C766.332 49.4147 766.657 49.0897 766.657 48.6889V46.2977C767.5 46.0755 768.249 45.7406 768.888 45.2985C770.35 44.2862 771.156 42.7813 771.156 41.067C771.193 36.76 767.439 35.6232 764.954 34.871Z" fill="black"/>
<path d="M4.61413 120.264H9.20613C10.8115 120.264 11.6141 119.471 11.6141 117.884V116.064C11.6141 114.477 10.7555 113.684 9.03813 113.684H4.61413C4.42746 113.684 4.33413 113.768 4.33413 113.936V119.984C4.33413 120.171 4.42746 120.264 4.61413 120.264ZM4.61413 111.976H8.92613C10.5688 111.976 11.3901 111.183 11.3901 109.596V108.112C11.3901 106.525 10.5968 105.732 9.01013 105.732H4.61413C4.42746 105.732 4.33413 105.825 4.33413 106.012V111.724C4.33413 111.892 4.42746 111.976 4.61413 111.976ZM2.29013 121.608V104.388C2.29013 104.127 2.42079 103.996 2.68213 103.996H9.26213C10.5501 103.996 11.5581 104.36 12.2861 105.088C13.0141 105.797 13.3781 106.796 13.3781 108.084V109.624C13.3781 111.285 12.5941 112.359 11.0261 112.844C11.7355 112.9 12.3421 113.217 12.8461 113.796C13.3501 114.356 13.6021 115.103 13.6021 116.036V117.912C13.6021 119.2 13.2288 120.208 12.4821 120.936C11.7541 121.645 10.7461 122 9.45813 122H2.68213C2.42079 122 2.29013 121.869 2.29013 121.608ZM19.0293 122H17.7693C17.508 122 17.3773 121.869 17.3773 121.608V108.112C17.3773 107.851 17.508 107.72 17.7693 107.72H19.0293C19.2906 107.72 19.4213 107.851 19.4213 108.112V109.232H19.5333C19.72 108.821 20.0746 108.467 20.5973 108.168C21.12 107.869 21.736 107.72 22.4453 107.72H23.5373C23.78 107.72 23.9013 107.851 23.9013 108.112V109.148C23.9013 109.279 23.8733 109.381 23.8173 109.456C23.7613 109.512 23.668 109.531 23.5373 109.512H22.0253C21.1853 109.512 20.5413 109.764 20.0933 110.268C19.6453 110.772 19.4213 111.463 19.4213 112.34V121.608C19.4213 121.869 19.2906 122 19.0293 122ZM32.7001 122H30.2921C29.0041 122 27.9868 121.636 27.2401 120.908C26.5121 120.18 26.1481 119.163 26.1481 117.856V111.864C26.1481 110.557 26.5121 109.54 27.2401 108.812C27.9868 108.084 29.0041 107.72 30.2921 107.72H32.7001C33.9881 107.72 34.9961 108.084 35.7241 108.812C36.4708 109.54 36.8441 110.557 36.8441 111.864V117.856C36.8441 119.163 36.4708 120.18 35.7241 120.908C34.9961 121.636 33.9881 122 32.7001 122ZM30.5161 120.208H32.4761C34.0441 120.208 34.8281 119.405 34.8281 117.8V111.92C34.8281 110.315 34.0441 109.512 32.4761 109.512H30.5161C28.9481 109.512 28.1641 110.315 28.1641 111.92V117.8C28.1641 119.405 28.9481 120.208 30.5161 120.208ZM44.8521 122H43.1441C42.8828 122 42.7241 121.869 42.6681 121.608L39.0841 108.112C39.0281 107.851 39.1214 107.72 39.3641 107.72H40.7921C41.0348 107.72 41.1841 107.851 41.2401 108.112L43.9561 119.536H44.1241L47.0081 108.112C47.0641 107.851 47.2134 107.72 47.4561 107.72H48.7441C49.0054 107.72 49.1734 107.851 49.2481 108.112L52.0481 119.536H52.2161L54.9601 108.112C55.0161 107.851 55.1654 107.72 55.4081 107.72H56.8361C57.0788 107.72 57.1721 107.851 57.1161 108.112L53.5321 121.608C53.4761 121.869 53.3174 122 53.0561 122H51.3201C51.0774 122 50.9281 121.869 50.8721 121.608L48.1561 110.464H48.0161L45.3281 121.608C45.2721 121.869 45.1134 122 44.8521 122ZM64.4674 122H59.4834C59.2221 122 59.0914 121.869 59.0914 121.608V120.628C59.0914 120.385 59.2221 120.264 59.4834 120.264H64.1874C65.6434 120.264 66.3714 119.723 66.3714 118.64V118.108C66.3714 117.119 65.8954 116.437 64.9434 116.064L61.6394 114.664C60.6874 114.272 60.0061 113.815 59.5954 113.292C59.1847 112.751 58.9794 112.041 58.9794 111.164C58.9794 108.868 60.2394 107.72 62.7594 107.72H67.3514C67.6127 107.72 67.7434 107.851 67.7434 108.112V109.092C67.7434 109.335 67.6127 109.456 67.3514 109.456H63.1234C62.4514 109.456 61.9381 109.596 61.5834 109.876C61.2474 110.156 61.0794 110.483 61.0794 110.856V111.332C61.0794 112.116 61.6114 112.713 62.6754 113.124L65.9794 114.608C66.9501 114.981 67.6034 115.476 67.9394 116.092C68.2941 116.708 68.4714 117.557 68.4714 118.64C68.4714 120.88 67.1367 122 64.4674 122ZM81.5367 122H75.6007C74.3127 122 73.2954 121.636 72.5487 120.908C71.8207 120.18 71.4567 119.163 71.4567 117.856V111.864C71.4567 110.557 71.8207 109.54 72.5487 108.812C73.2954 108.084 74.3127 107.72 75.6007 107.72H77.9527C79.2407 107.72 80.2487 108.084 80.9767 108.812C81.7047 109.54 82.0687 110.557 82.0687 111.864V115.42C82.0687 115.7 81.938 115.84 81.6767 115.84H73.7527C73.566 115.84 73.4727 115.924 73.4727 116.092V117.8C73.4727 119.424 74.2567 120.236 75.8247 120.236H81.5367C81.798 120.236 81.9287 120.367 81.9287 120.628V121.636C81.9287 121.879 81.798 122 81.5367 122ZM73.7527 114.356H79.8007C79.9874 114.356 80.0807 114.263 80.0807 114.076V111.92C80.0807 110.315 79.2967 109.512 77.7287 109.512H75.8247C74.2567 109.512 73.4727 110.315 73.4727 111.92V114.076C73.4727 114.263 73.566 114.356 73.7527 114.356ZM97.9473 122H96.4913C95.2033 122 94.186 121.636 93.4393 120.908C92.7113 120.18 92.3473 119.163 92.3473 117.856V111.864C92.3473 110.557 92.7113 109.54 93.4393 108.812C94.186 108.084 95.2033 107.72 96.4913 107.72H102.567C102.829 107.72 102.959 107.851 102.959 108.112V121.608C102.959 121.869 102.829 122 102.567 122H101.307C101.046 122 100.915 121.869 100.915 121.608V120.516H100.803C100.337 121.505 99.3846 122 97.9473 122ZM100.915 117.632V109.764C100.915 109.596 100.822 109.512 100.635 109.512H96.7153C95.166 109.512 94.3913 110.324 94.3913 111.948V117.772C94.3913 119.396 95.166 120.208 96.7153 120.208H98.3113C99.1513 120.208 99.7953 119.984 100.243 119.536C100.691 119.088 100.915 118.453 100.915 117.632ZM105.727 107.72H107.043C107.285 107.72 107.435 107.851 107.491 108.112L110.851 119.956H110.991L114.323 108.112C114.397 107.851 114.556 107.72 114.799 107.72H116.115C116.376 107.72 116.469 107.851 116.395 108.112L112.363 121.58C112.307 121.86 112.139 122 111.859 122H109.955C109.693 122 109.525 121.86 109.451 121.58L105.447 108.112C105.372 107.851 105.465 107.72 105.727 107.72ZM124.197 122H122.741C121.453 122 120.436 121.636 119.689 120.908C118.961 120.18 118.597 119.163 118.597 117.856V111.864C118.597 110.557 118.961 109.54 119.689 108.812C120.436 108.084 121.453 107.72 122.741 107.72H128.817C129.079 107.72 129.209 107.851 129.209 108.112V121.608C129.209 121.869 129.079 122 128.817 122H127.557C127.296 122 127.165 121.869 127.165 121.608V120.516H127.053C126.587 121.505 125.635 122 124.197 122ZM127.165 117.632V109.764C127.165 109.596 127.072 109.512 126.885 109.512H122.965C121.416 109.512 120.641 110.324 120.641 111.948V117.772C120.641 119.396 121.416 120.208 122.965 120.208H124.561C125.401 120.208 126.045 119.984 126.493 119.536C126.941 119.088 127.165 118.453 127.165 117.632ZM133.209 105.368V102.736C133.209 102.475 133.33 102.344 133.573 102.344H134.861C135.122 102.344 135.253 102.475 135.253 102.736V105.368C135.253 105.629 135.122 105.76 134.861 105.76H133.573C133.33 105.76 133.209 105.629 133.209 105.368ZM133.209 121.608V108.112C133.209 107.851 133.33 107.72 133.573 107.72H134.861C135.122 107.72 135.253 107.851 135.253 108.112V121.608C135.253 121.869 135.122 122 134.861 122H133.601C133.339 122 133.209 121.869 133.209 121.608ZM141.04 122H139.78C139.519 122 139.388 121.869 139.388 121.608V102.708C139.388 102.447 139.519 102.316 139.78 102.316H141.04C141.302 102.316 141.432 102.447 141.432 102.708V121.608C141.432 121.869 141.302 122 141.04 122ZM150.748 122H149.292C148.004 122 146.987 121.636 146.24 120.908C145.512 120.18 145.148 119.163 145.148 117.856V111.864C145.148 110.557 145.512 109.54 146.24 108.812C146.987 108.084 148.004 107.72 149.292 107.72H155.368C155.629 107.72 155.76 107.851 155.76 108.112V121.608C155.76 121.869 155.629 122 155.368 122H154.108C153.847 122 153.716 121.869 153.716 121.608V120.516H153.604C153.137 121.505 152.185 122 150.748 122ZM153.716 117.632V109.764C153.716 109.596 153.623 109.512 153.436 109.512H149.516C147.967 109.512 147.192 110.324 147.192 111.948V117.772C147.192 119.396 147.967 120.208 149.516 120.208H151.112C151.952 120.208 152.596 119.984 153.044 119.536C153.492 119.088 153.716 118.453 153.716 117.632ZM161.944 120.208H165.919C167.506 120.208 168.3 119.396 168.3 117.772V111.78C168.3 110.156 167.506 109.344 165.919 109.344H164.268C163.428 109.344 162.784 109.568 162.336 110.016C161.888 110.464 161.664 111.089 161.664 111.892V119.956C161.664 120.124 161.757 120.208 161.944 120.208ZM159.62 121.608V102.708C159.62 102.447 159.75 102.316 160.012 102.316H161.272C161.533 102.316 161.664 102.447 161.664 102.708V109.036H161.776C162.242 108.047 163.194 107.552 164.632 107.552H166.2C167.469 107.552 168.468 107.916 169.196 108.644C169.942 109.372 170.316 110.38 170.316 111.668V117.856C170.316 119.163 169.942 120.18 169.196 120.908C168.468 121.636 167.469 122 166.2 122H160.012C159.75 122 159.62 121.869 159.62 121.608ZM175.685 122H174.425C174.164 122 174.033 121.869 174.033 121.608V102.708C174.033 102.447 174.164 102.316 174.425 102.316H175.685C175.946 102.316 176.077 102.447 176.077 102.708V121.608C176.077 121.869 175.946 122 175.685 122ZM189.873 122H183.937C182.649 122 181.631 121.636 180.885 120.908C180.157 120.18 179.793 119.163 179.793 117.856V111.864C179.793 110.557 180.157 109.54 180.885 108.812C181.631 108.084 182.649 107.72 183.937 107.72H186.289C187.577 107.72 188.585 108.084 189.313 108.812C190.041 109.54 190.405 110.557 190.405 111.864V115.42C190.405 115.7 190.274 115.84 190.013 115.84H182.089C181.902 115.84 181.809 115.924 181.809 116.092V117.8C181.809 119.424 182.593 120.236 184.161 120.236H189.873C190.134 120.236 190.265 120.367 190.265 120.628V121.636C190.265 121.879 190.134 122 189.873 122ZM182.089 114.356H188.137C188.323 114.356 188.417 114.263 188.417 114.076V111.92C188.417 110.315 187.633 109.512 186.065 109.512H184.161C182.593 109.512 181.809 110.315 181.809 111.92V114.076C181.809 114.263 181.902 114.356 182.089 114.356ZM50.0918 154.088H48.8318C48.5705 154.088 48.4398 153.957 48.4398 153.696V136.112C48.4398 135.851 48.5705 135.72 48.8318 135.72H50.0918C50.3531 135.72 50.4838 135.851 50.4838 136.112V137.204H50.5958C51.0625 136.215 52.0145 135.72 53.4518 135.72H55.1318C56.4011 135.72 57.3811 136.084 58.0718 136.812C58.7811 137.54 59.1358 138.557 59.1358 139.864V145.856C59.1358 147.163 58.7811 148.18 58.0718 148.908C57.3811 149.636 56.4011 150 55.1318 150H53.4518C52.0145 150 51.0625 149.505 50.5958 148.516H50.4838V153.696C50.4838 153.957 50.3531 154.088 50.0918 154.088ZM53.0878 148.208H54.7398C56.3265 148.208 57.1198 147.396 57.1198 145.772V139.948C57.1198 138.324 56.3265 137.512 54.7398 137.512H53.0878C52.2478 137.512 51.6038 137.736 51.1558 138.184C50.7078 138.632 50.4838 139.267 50.4838 140.088V145.632C50.4838 146.453 50.7078 147.088 51.1558 147.536C51.6038 147.984 52.2478 148.208 53.0878 148.208ZM64.3653 150H63.1053C62.8439 150 62.7133 149.869 62.7133 149.608V136.112C62.7133 135.851 62.8439 135.72 63.1053 135.72H64.3653C64.6266 135.72 64.7573 135.851 64.7573 136.112V137.232H64.8693C65.0559 136.821 65.4106 136.467 65.9333 136.168C66.4559 135.869 67.0719 135.72 67.7812 135.72H68.8733C69.1159 135.72 69.2373 135.851 69.2373 136.112V137.148C69.2373 137.279 69.2093 137.381 69.1533 137.456C69.0973 137.512 69.0039 137.531 68.8733 137.512H67.3613C66.5213 137.512 65.8773 137.764 65.4293 138.268C64.9813 138.772 64.7573 139.463 64.7573 140.34V149.608C64.7573 149.869 64.6266 150 64.3653 150ZM78.036 150H75.628C74.34 150 73.3227 149.636 72.576 148.908C71.848 148.18 71.484 147.163 71.484 145.856V139.864C71.484 138.557 71.848 137.54 72.576 136.812C73.3227 136.084 74.34 135.72 75.628 135.72H78.036C79.324 135.72 80.332 136.084 81.06 136.812C81.8067 137.54 82.18 138.557 82.18 139.864V145.856C82.18 147.163 81.8067 148.18 81.06 148.908C80.332 149.636 79.324 150 78.036 150ZM75.852 148.208H77.812C79.38 148.208 80.164 147.405 80.164 145.8V139.92C80.164 138.315 79.38 137.512 77.812 137.512H75.852C74.284 137.512 73.5 138.315 73.5 139.92V145.8C73.5 147.405 74.284 148.208 75.852 148.208ZM91.168 150H89.516C88.2467 150 87.2574 149.636 86.548 148.908C85.8387 148.18 85.484 147.163 85.484 145.856V139.864C85.484 138.557 85.8387 137.54 86.548 136.812C87.2574 136.084 88.2467 135.72 89.516 135.72H91.168C92.624 135.72 93.5854 136.215 94.052 137.204H94.164V130.708C94.164 130.447 94.2854 130.316 94.528 130.316H95.816C96.0587 130.316 96.18 130.447 96.18 130.708V149.608C96.18 149.869 96.0587 150 95.816 150H94.528C94.2854 150 94.164 149.869 94.164 149.608V148.516H94.052C93.5854 149.505 92.624 150 91.168 150ZM94.164 145.632V140.088C94.164 139.267 93.94 138.632 93.492 138.184C93.044 137.736 92.4 137.512 91.56 137.512H89.852C88.3027 137.512 87.528 138.324 87.528 139.948V145.772C87.528 147.396 88.3027 148.208 89.852 148.208H91.56C92.4 148.208 93.044 147.984 93.492 147.536C93.94 147.088 94.164 146.453 94.164 145.632ZM105.497 150H103.929C102.66 150 101.671 149.636 100.961 148.908C100.252 148.18 99.8975 147.163 99.8975 145.856V136.112C99.8975 135.851 100.028 135.72 100.289 135.72H101.549C101.811 135.72 101.941 135.851 101.941 136.112V145.772C101.941 147.396 102.716 148.208 104.265 148.208H105.861C106.701 148.208 107.345 147.984 107.793 147.536C108.241 147.088 108.465 146.453 108.465 145.632V136.112C108.465 135.851 108.596 135.72 108.857 135.72H110.117C110.379 135.72 110.509 135.851 110.509 136.112V149.608C110.509 149.869 110.379 150 110.117 150H108.857C108.596 150 108.465 149.869 108.465 149.608V148.516H108.353C107.887 149.505 106.935 150 105.497 150ZM122.682 148.6V149.636C122.682 149.879 122.551 150 122.29 150H118.23C116.942 150 115.924 149.636 115.178 148.908C114.45 148.18 114.086 147.163 114.086 145.856V139.864C114.086 138.557 114.45 137.54 115.178 136.812C115.924 136.084 116.942 135.72 118.23 135.72H122.29C122.551 135.72 122.682 135.851 122.682 136.112V137.148C122.682 137.391 122.551 137.512 122.29 137.512H118.454C116.904 137.512 116.13 138.324 116.13 139.948V145.772C116.13 147.396 116.904 148.208 118.454 148.208H122.29C122.551 148.208 122.682 148.339 122.682 148.6ZM126.081 137.512H124.541C124.28 137.512 124.149 137.391 124.149 137.148V136.112C124.149 135.851 124.28 135.72 124.541 135.72H126.081C126.268 135.72 126.361 135.636 126.361 135.468V133.06C126.361 132.799 126.492 132.668 126.753 132.668H128.013C128.256 132.668 128.377 132.799 128.377 133.06V135.468C128.377 135.636 128.48 135.72 128.685 135.72H131.653C131.933 135.72 132.073 135.851 132.073 136.112V137.148C132.073 137.391 131.933 137.512 131.653 137.512H128.685C128.48 137.512 128.377 137.596 128.377 137.764V145.828C128.377 147.415 129.199 148.208 130.841 148.208H131.933C132.213 148.208 132.353 148.339 132.353 148.6V149.636C132.353 149.879 132.213 150 131.933 150H130.589C129.301 150 128.275 149.645 127.509 148.936C126.744 148.208 126.361 147.2 126.361 145.912V137.764C126.361 137.596 126.268 137.512 126.081 137.512ZM140.155 150H135.171C134.91 150 134.779 149.869 134.779 149.608V148.628C134.779 148.385 134.91 148.264 135.171 148.264H139.875C141.331 148.264 142.059 147.723 142.059 146.64V146.108C142.059 145.119 141.583 144.437 140.631 144.064L137.327 142.664C136.375 142.272 135.694 141.815 135.283 141.292C134.872 140.751 134.667 140.041 134.667 139.164C134.667 136.868 135.927 135.72 138.447 135.72H143.039C143.3 135.72 143.431 135.851 143.431 136.112V137.092C143.431 137.335 143.3 137.456 143.039 137.456H138.811C138.139 137.456 137.626 137.596 137.271 137.876C136.935 138.156 136.767 138.483 136.767 138.856V139.332C136.767 140.116 137.299 140.713 138.363 141.124L141.667 142.608C142.638 142.981 143.291 143.476 143.627 144.092C143.982 144.708 144.159 145.557 144.159 146.64C144.159 148.88 142.824 150 140.155 150Z" fill="black"/>
<path d="M651.053 130H649.793C649.532 130 649.401 129.869 649.401 129.608V112.388C649.401 112.127 649.532 111.996 649.793 111.996H656.345C657.633 111.996 658.641 112.369 659.369 113.116C660.097 113.844 660.461 114.852 660.461 116.14V119.248C660.461 120.555 660.097 121.572 659.369 122.3C658.641 123.028 657.633 123.392 656.345 123.392H651.725C651.539 123.392 651.445 123.476 651.445 123.644V129.608C651.445 129.869 651.315 130 651.053 130ZM651.725 121.572H656.065C657.633 121.572 658.417 120.769 658.417 119.164V116.224C658.417 114.6 657.633 113.788 656.065 113.788H651.725C651.539 113.788 651.445 113.872 651.445 114.04V121.32C651.445 121.488 651.539 121.572 651.725 121.572ZM669.32 130H667.752C666.482 130 665.493 129.636 664.784 128.908C664.074 128.18 663.72 127.163 663.72 125.856V116.112C663.72 115.851 663.85 115.72 664.112 115.72H665.372C665.633 115.72 665.764 115.851 665.764 116.112V125.772C665.764 127.396 666.538 128.208 668.088 128.208H669.684C670.524 128.208 671.168 127.984 671.616 127.536C672.064 127.088 672.288 126.453 672.288 125.632V116.112C672.288 115.851 672.418 115.72 672.68 115.72H673.94C674.201 115.72 674.332 115.851 674.332 116.112V129.608C674.332 129.869 674.201 130 673.94 130H672.68C672.418 130 672.288 129.869 672.288 129.608V128.516H672.176C671.709 129.505 670.757 130 669.32 130ZM679.84 130H678.58C678.319 130 678.188 129.869 678.188 129.608V116.112C678.188 115.851 678.319 115.72 678.58 115.72H679.84C680.101 115.72 680.232 115.851 680.232 116.112V117.232H680.344C680.531 116.821 680.885 116.467 681.408 116.168C681.931 115.869 682.547 115.72 683.256 115.72H684.348C684.591 115.72 684.712 115.851 684.712 116.112V117.148C684.712 117.279 684.684 117.381 684.628 117.456C684.572 117.512 684.479 117.531 684.348 117.512H682.836C681.996 117.512 681.352 117.764 680.904 118.268C680.456 118.772 680.232 119.463 680.232 120.34V129.608C680.232 129.869 680.101 130 679.84 130ZM695.555 128.6V129.636C695.555 129.879 695.424 130 695.163 130H691.103C689.815 130 688.797 129.636 688.051 128.908C687.323 128.18 686.959 127.163 686.959 125.856V119.864C686.959 118.557 687.323 117.54 688.051 116.812C688.797 116.084 689.815 115.72 691.103 115.72H695.163C695.424 115.72 695.555 115.851 695.555 116.112V117.148C695.555 117.391 695.424 117.512 695.163 117.512H691.327C689.777 117.512 689.003 118.324 689.003 119.948V125.772C689.003 127.396 689.777 128.208 691.327 128.208H695.163C695.424 128.208 695.555 128.339 695.555 128.6ZM700.074 130H698.814C698.553 130 698.422 129.869 698.422 129.608V110.708C698.422 110.447 698.553 110.316 698.814 110.316H700.074C700.336 110.316 700.466 110.447 700.466 110.708V117.204H700.578C701.045 116.215 701.997 115.72 703.434 115.72H705.002C706.272 115.72 707.261 116.084 707.97 116.812C708.68 117.54 709.034 118.557 709.034 119.864V129.608C709.034 129.869 708.904 130 708.642 130H707.382C707.121 130 706.99 129.869 706.99 129.608V119.948C706.99 118.324 706.206 117.512 704.638 117.512H703.07C702.23 117.512 701.586 117.736 701.138 118.184C700.69 118.632 700.466 119.267 700.466 120.088V129.608C700.466 129.869 700.336 130 700.074 130ZM718.07 130H716.614C715.326 130 714.309 129.636 713.562 128.908C712.834 128.18 712.47 127.163 712.47 125.856V119.864C712.47 118.557 712.834 117.54 713.562 116.812C714.309 116.084 715.326 115.72 716.614 115.72H722.69C722.952 115.72 723.082 115.851 723.082 116.112V129.608C723.082 129.869 722.952 130 722.69 130H721.43C721.169 130 721.038 129.869 721.038 129.608V128.516H720.926C720.46 129.505 719.508 130 718.07 130ZM721.038 125.632V117.764C721.038 117.596 720.945 117.512 720.758 117.512H716.838C715.289 117.512 714.514 118.324 714.514 119.948V125.772C714.514 127.396 715.289 128.208 716.838 128.208H718.434C719.274 128.208 719.918 127.984 720.366 127.536C720.814 127.088 721.038 126.453 721.038 125.632ZM731.786 130H726.802C726.54 130 726.41 129.869 726.41 129.608V128.628C726.41 128.385 726.54 128.264 726.802 128.264H731.506C732.962 128.264 733.69 127.723 733.69 126.64V126.108C733.69 125.119 733.214 124.437 732.262 124.064L728.958 122.664C728.006 122.272 727.324 121.815 726.914 121.292C726.503 120.751 726.298 120.041 726.298 119.164C726.298 116.868 727.558 115.72 730.078 115.72H734.67C734.931 115.72 735.062 115.851 735.062 116.112V117.092C735.062 117.335 734.931 117.456 734.67 117.456H730.442C729.77 117.456 729.256 117.596 728.902 117.876C728.566 118.156 728.398 118.483 728.398 118.856V119.332C728.398 120.116 728.93 120.713 729.994 121.124L733.298 122.608C734.268 122.981 734.922 123.476 735.258 124.092C735.612 124.708 735.79 125.557 735.79 126.64C735.79 128.88 734.455 130 731.786 130ZM748.855 130H742.919C741.631 130 740.614 129.636 739.867 128.908C739.139 128.18 738.775 127.163 738.775 125.856V119.864C738.775 118.557 739.139 117.54 739.867 116.812C740.614 116.084 741.631 115.72 742.919 115.72H745.271C746.559 115.72 747.567 116.084 748.295 116.812C749.023 117.54 749.387 118.557 749.387 119.864V123.42C749.387 123.7 749.256 123.84 748.995 123.84H741.071C740.884 123.84 740.791 123.924 740.791 124.092V125.8C740.791 127.424 741.575 128.236 743.143 128.236H748.855C749.116 128.236 749.247 128.367 749.247 128.628V129.636C749.247 129.879 749.116 130 748.855 130ZM741.071 122.356H747.119C747.306 122.356 747.399 122.263 747.399 122.076V119.92C747.399 118.315 746.615 117.512 745.047 117.512H743.143C741.575 117.512 740.791 118.315 740.791 119.92V122.076C740.791 122.263 740.884 122.356 741.071 122.356ZM766.218 130H763.81C762.522 130 761.504 129.636 760.758 128.908C760.03 128.18 759.666 127.163 759.666 125.856V119.864C759.666 118.557 760.03 117.54 760.758 116.812C761.504 116.084 762.522 115.72 763.81 115.72H766.218C767.506 115.72 768.514 116.084 769.242 116.812C769.988 117.54 770.362 118.557 770.362 119.864V125.856C770.362 127.163 769.988 128.18 769.242 128.908C768.514 129.636 767.506 130 766.218 130ZM764.034 128.208H765.994C767.562 128.208 768.346 127.405 768.346 125.8V119.92C768.346 118.315 767.562 117.512 765.994 117.512H764.034C762.466 117.512 761.682 118.315 761.682 119.92V125.8C761.682 127.405 762.466 128.208 764.034 128.208ZM775.598 130H774.338C774.076 130 773.946 129.869 773.946 129.608V116.112C773.946 115.851 774.076 115.72 774.338 115.72H775.598C775.859 115.72 775.99 115.851 775.99 116.112V117.204H776.102C776.568 116.215 777.52 115.72 778.958 115.72H780.526C781.795 115.72 782.784 116.084 783.494 116.812C784.203 117.54 784.558 118.557 784.558 119.864V129.608C784.558 129.869 784.427 130 784.166 130H782.906C782.644 130 782.514 129.869 782.514 129.608V119.948C782.514 118.324 781.73 117.512 780.162 117.512H778.594C777.754 117.512 777.11 117.736 776.662 118.184C776.214 118.632 775.99 119.267 775.99 120.088V129.608C775.99 129.869 775.859 130 775.598 130ZM790.066 130H788.806C788.544 130 788.414 129.869 788.414 129.608V110.708C788.414 110.447 788.544 110.316 788.806 110.316H790.066C790.327 110.316 790.458 110.447 790.458 110.708V129.608C790.458 129.869 790.327 130 790.066 130ZM794.593 113.368V110.736C794.593 110.475 794.715 110.344 794.957 110.344H796.245C796.507 110.344 796.637 110.475 796.637 110.736V113.368C796.637 113.629 796.507 113.76 796.245 113.76H794.957C794.715 113.76 794.593 113.629 794.593 113.368ZM794.593 129.608V116.112C794.593 115.851 794.715 115.72 794.957 115.72H796.245C796.507 115.72 796.637 115.851 796.637 116.112V129.608C796.637 129.869 796.507 130 796.245 130H794.985C794.724 130 794.593 129.869 794.593 129.608ZM802.285 130H801.025C800.764 130 800.633 129.869 800.633 129.608V116.112C800.633 115.851 800.764 115.72 801.025 115.72H802.285C802.547 115.72 802.677 115.851 802.677 116.112V117.204H802.789C803.256 116.215 804.208 115.72 805.645 115.72H807.213C808.483 115.72 809.472 116.084 810.181 116.812C810.891 117.54 811.245 118.557 811.245 119.864V129.608C811.245 129.869 811.115 130 810.853 130H809.593C809.332 130 809.201 129.869 809.201 129.608V119.948C809.201 118.324 808.417 117.512 806.849 117.512H805.281C804.441 117.512 803.797 117.736 803.349 118.184C802.901 118.632 802.677 119.267 802.677 120.088V129.608C802.677 129.869 802.547 130 802.285 130ZM824.761 130H818.825C817.537 130 816.52 129.636 815.773 128.908C815.045 128.18 814.681 127.163 814.681 125.856V119.864C814.681 118.557 815.045 117.54 815.773 116.812C816.52 116.084 817.537 115.72 818.825 115.72H821.177C822.465 115.72 823.473 116.084 824.201 116.812C824.929 117.54 825.293 118.557 825.293 119.864V123.42C825.293 123.7 825.163 123.84 824.901 123.84H816.977C816.791 123.84 816.697 123.924 816.697 124.092V125.8C816.697 127.424 817.481 128.236 819.049 128.236H824.761C825.023 128.236 825.153 128.367 825.153 128.628V129.636C825.153 129.879 825.023 130 824.761 130ZM816.977 122.356H823.025C823.212 122.356 823.305 122.263 823.305 122.076V119.92C823.305 118.315 822.521 117.512 820.953 117.512H819.049C817.481 117.512 816.697 118.315 816.697 119.92V122.076C816.697 122.263 816.791 122.356 816.977 122.356Z" fill="black"/>
<path d="M640.374 404H638.218C637.957 404 637.798 403.869 637.742 403.608L634.158 386.388C634.102 386.127 634.224 385.996 634.522 385.996H636.034C636.314 385.996 636.464 386.127 636.482 386.388L639.31 401.816H639.478L643.258 386.36C643.314 386.117 643.464 385.996 643.706 385.996H645.386C645.629 385.996 645.778 386.117 645.834 386.36L649.67 401.816H649.838L652.638 386.416C652.694 386.136 652.853 385.996 653.114 385.996H654.626C654.925 385.996 655.046 386.136 654.99 386.416L651.378 403.608C651.322 403.869 651.173 404 650.93 404H648.774C648.513 404 648.354 403.869 648.298 403.608L644.63 388.572H644.518L640.822 403.608C640.766 403.869 640.617 404 640.374 404ZM662.967 404H661.511C660.223 404 659.206 403.636 658.459 402.908C657.731 402.18 657.367 401.163 657.367 399.856V393.864C657.367 392.557 657.731 391.54 658.459 390.812C659.206 390.084 660.223 389.72 661.511 389.72H667.587C667.848 389.72 667.979 389.851 667.979 390.112V403.608C667.979 403.869 667.848 404 667.587 404H666.327C666.066 404 665.935 403.869 665.935 403.608V402.516H665.823C665.356 403.505 664.404 404 662.967 404ZM665.935 399.632V391.764C665.935 391.596 665.842 391.512 665.655 391.512H661.735C660.186 391.512 659.411 392.324 659.411 393.948V399.772C659.411 401.396 660.186 402.208 661.735 402.208H663.331C664.171 402.208 664.815 401.984 665.263 401.536C665.711 401.088 665.935 400.453 665.935 399.632ZM671.978 387.368V384.736C671.978 384.475 672.1 384.344 672.342 384.344H673.63C673.892 384.344 674.022 384.475 674.022 384.736V387.368C674.022 387.629 673.892 387.76 673.63 387.76H672.342C672.1 387.76 671.978 387.629 671.978 387.368ZM671.978 403.608V390.112C671.978 389.851 672.1 389.72 672.342 389.72H673.63C673.892 389.72 674.022 389.851 674.022 390.112V403.608C674.022 403.869 673.892 404 673.63 404H672.37C672.109 404 671.978 403.869 671.978 403.608ZM678.55 391.512H677.01C676.749 391.512 676.618 391.391 676.618 391.148V390.112C676.618 389.851 676.749 389.72 677.01 389.72H678.55C678.737 389.72 678.83 389.636 678.83 389.468V387.06C678.83 386.799 678.961 386.668 679.222 386.668H680.482C680.725 386.668 680.846 386.799 680.846 387.06V389.468C680.846 389.636 680.949 389.72 681.154 389.72H684.122C684.402 389.72 684.542 389.851 684.542 390.112V391.148C684.542 391.391 684.402 391.512 684.122 391.512H681.154C680.949 391.512 680.846 391.596 680.846 391.764V399.828C680.846 401.415 681.667 402.208 683.31 402.208H684.402C684.682 402.208 684.822 402.339 684.822 402.6V403.636C684.822 403.879 684.682 404 684.402 404H683.058C681.77 404 680.743 403.645 679.978 402.936C679.213 402.208 678.83 401.2 678.83 399.912V391.764C678.83 391.596 678.737 391.512 678.55 391.512ZM698.473 389.72H700.937C701.217 389.72 701.357 389.841 701.357 390.084V391.12C701.357 391.381 701.217 391.512 700.937 391.512H698.473C698.305 391.512 698.221 391.596 698.221 391.764V403.608C698.221 403.869 698.081 404 697.801 404H696.569C696.308 404 696.177 403.869 696.177 403.608V391.764C696.177 391.596 696.084 391.512 695.897 391.512H694.245C693.984 391.512 693.853 391.381 693.853 391.12V390.084C693.853 389.841 693.984 389.72 694.245 389.72H695.897C696.084 389.72 696.177 389.636 696.177 389.468V388.432C696.177 387.107 696.504 386.089 697.157 385.38C697.81 384.671 698.762 384.316 700.013 384.316H700.965C701.226 384.316 701.357 384.437 701.357 384.68V385.716C701.357 385.977 701.226 386.108 700.965 386.108H700.265C699.5 386.108 698.968 386.304 698.669 386.696C698.37 387.069 698.221 387.676 698.221 388.516V389.468C698.221 389.636 698.305 389.72 698.473 389.72ZM710.075 404H707.667C706.379 404 705.362 403.636 704.615 402.908C703.887 402.18 703.523 401.163 703.523 399.856V393.864C703.523 392.557 703.887 391.54 704.615 390.812C705.362 390.084 706.379 389.72 707.667 389.72H710.075C711.363 389.72 712.371 390.084 713.099 390.812C713.846 391.54 714.219 392.557 714.219 393.864V399.856C714.219 401.163 713.846 402.18 713.099 402.908C712.371 403.636 711.363 404 710.075 404ZM707.891 402.208H709.851C711.419 402.208 712.203 401.405 712.203 399.8V393.92C712.203 392.315 711.419 391.512 709.851 391.512H707.891C706.323 391.512 705.539 392.315 705.539 393.92V399.8C705.539 401.405 706.323 402.208 707.891 402.208ZM719.455 404H718.195C717.934 404 717.803 403.869 717.803 403.608V390.112C717.803 389.851 717.934 389.72 718.195 389.72H719.455C719.716 389.72 719.847 389.851 719.847 390.112V391.232H719.959C720.146 390.821 720.5 390.467 721.023 390.168C721.546 389.869 722.162 389.72 722.871 389.72H723.963C724.206 389.72 724.327 389.851 724.327 390.112V391.148C724.327 391.279 724.299 391.381 724.243 391.456C724.187 391.512 724.094 391.531 723.963 391.512H722.451C721.611 391.512 720.967 391.764 720.519 392.268C720.071 392.772 719.847 393.463 719.847 394.34V403.608C719.847 403.869 719.716 404 719.455 404ZM739.283 404H737.827C736.539 404 735.522 403.636 734.775 402.908C734.047 402.18 733.683 401.163 733.683 399.856V393.864C733.683 392.557 734.047 391.54 734.775 390.812C735.522 390.084 736.539 389.72 737.827 389.72H743.903C744.165 389.72 744.295 389.851 744.295 390.112V403.608C744.295 403.869 744.165 404 743.903 404H742.643C742.382 404 742.251 403.869 742.251 403.608V402.516H742.139C741.673 403.505 740.721 404 739.283 404ZM742.251 399.632V391.764C742.251 391.596 742.158 391.512 741.971 391.512H738.051C736.502 391.512 735.727 392.324 735.727 393.948V399.772C735.727 401.396 736.502 402.208 738.051 402.208H739.647C740.487 402.208 741.131 401.984 741.579 401.536C742.027 401.088 742.251 400.453 742.251 399.632ZM760.668 404H759.016C757.747 404 756.757 403.636 756.048 402.908C755.339 402.18 754.984 401.163 754.984 399.856V393.864C754.984 392.557 755.339 391.54 756.048 390.812C756.757 390.084 757.747 389.72 759.016 389.72H760.668C762.124 389.72 763.085 390.215 763.552 391.204H763.664V384.708C763.664 384.447 763.785 384.316 764.028 384.316H765.316C765.559 384.316 765.68 384.447 765.68 384.708V403.608C765.68 403.869 765.559 404 765.316 404H764.028C763.785 404 763.664 403.869 763.664 403.608V402.516H763.552C763.085 403.505 762.124 404 760.668 404ZM763.664 399.632V394.088C763.664 393.267 763.44 392.632 762.992 392.184C762.544 391.736 761.9 391.512 761.06 391.512H759.352C757.803 391.512 757.028 392.324 757.028 393.948V399.772C757.028 401.396 757.803 402.208 759.352 402.208H761.06C761.9 402.208 762.544 401.984 762.992 401.536C763.44 401.088 763.664 400.453 763.664 399.632ZM779.337 404H773.401C772.113 404 771.096 403.636 770.349 402.908C769.621 402.18 769.257 401.163 769.257 399.856V393.864C769.257 392.557 769.621 391.54 770.349 390.812C771.096 390.084 772.113 389.72 773.401 389.72H775.753C777.041 389.72 778.049 390.084 778.777 390.812C779.505 391.54 779.869 392.557 779.869 393.864V397.42C779.869 397.7 779.739 397.84 779.477 397.84H771.553C771.367 397.84 771.273 397.924 771.273 398.092V399.8C771.273 401.424 772.057 402.236 773.625 402.236H779.337C779.599 402.236 779.729 402.367 779.729 402.628V403.636C779.729 403.879 779.599 404 779.337 404ZM771.553 396.356H777.601C777.788 396.356 777.881 396.263 777.881 396.076V393.92C777.881 392.315 777.097 391.512 775.529 391.512H773.625C772.057 391.512 771.273 392.315 771.273 393.92V396.076C771.273 396.263 771.367 396.356 771.553 396.356ZM785.111 404H783.851C783.589 404 783.459 403.869 783.459 403.608V384.708C783.459 384.447 783.589 384.316 783.851 384.316H785.111C785.372 384.316 785.503 384.447 785.503 384.708V403.608C785.503 403.869 785.372 404 785.111 404ZM789.638 387.368V384.736C789.638 384.475 789.76 384.344 790.002 384.344H791.29C791.552 384.344 791.682 384.475 791.682 384.736V387.368C791.682 387.629 791.552 387.76 791.29 387.76H790.002C789.76 387.76 789.638 387.629 789.638 387.368ZM789.638 403.608V390.112C789.638 389.851 789.76 389.72 790.002 389.72H791.29C791.552 389.72 791.682 389.851 791.682 390.112V403.608C791.682 403.869 791.552 404 791.29 404H790.03C789.769 404 789.638 403.869 789.638 403.608ZM794.586 389.72H795.902C796.145 389.72 796.294 389.851 796.35 390.112L799.71 401.956H799.85L803.182 390.112C803.257 389.851 803.415 389.72 803.658 389.72H804.974C805.235 389.72 805.329 389.851 805.254 390.112L801.222 403.58C801.166 403.86 800.998 404 800.718 404H798.814C798.553 404 798.385 403.86 798.31 403.58L794.306 390.112C794.231 389.851 794.325 389.72 794.586 389.72ZM817.537 404H811.601C810.313 404 809.295 403.636 808.549 402.908C807.821 402.18 807.457 401.163 807.457 399.856V393.864C807.457 392.557 807.821 391.54 808.549 390.812C809.295 390.084 810.313 389.72 811.601 389.72H813.953C815.241 389.72 816.249 390.084 816.977 390.812C817.705 391.54 818.069 392.557 818.069 393.864V397.42C818.069 397.7 817.938 397.84 817.677 397.84H809.753C809.566 397.84 809.473 397.924 809.473 398.092V399.8C809.473 401.424 810.257 402.236 811.825 402.236H817.537C817.798 402.236 817.929 402.367 817.929 402.628V403.636C817.929 403.879 817.798 404 817.537 404ZM809.753 396.356H815.801C815.987 396.356 816.081 396.263 816.081 396.076V393.92C816.081 392.315 815.297 391.512 813.729 391.512H811.825C810.257 391.512 809.473 392.315 809.473 393.92V396.076C809.473 396.263 809.566 396.356 809.753 396.356ZM823.17 404H821.91C821.649 404 821.518 403.869 821.518 403.608V390.112C821.518 389.851 821.649 389.72 821.91 389.72H823.17C823.431 389.72 823.562 389.851 823.562 390.112V391.232H823.674C823.861 390.821 824.215 390.467 824.738 390.168C825.261 389.869 825.877 389.72 826.586 389.72H827.678C827.921 389.72 828.042 389.851 828.042 390.112V391.148C828.042 391.279 828.014 391.381 827.958 391.456C827.902 391.512 827.809 391.531 827.678 391.512H826.166C825.326 391.512 824.682 391.764 824.234 392.268C823.786 392.772 823.562 393.463 823.562 394.34V403.608C823.562 403.869 823.431 404 823.17 404ZM831.717 408.396H830.485C830.223 408.396 830.093 408.265 830.093 408.004V406.968C830.093 406.707 830.223 406.576 830.485 406.576H831.185C832.379 406.576 833.219 406.24 833.705 405.568C834.097 405.027 834.451 404.252 834.769 403.244H833.957C833.733 403.244 833.574 403.113 833.481 402.852L829.365 390.112C829.29 389.851 829.383 389.72 829.645 389.72H830.989C831.231 389.72 831.39 389.851 831.465 390.112L835.077 401.648H835.189L838.801 390.112C838.857 389.851 839.006 389.72 839.249 389.72H840.537C840.854 389.72 840.966 389.86 840.873 390.14L836.701 403.44C836.234 405.027 835.637 406.249 834.909 407.108C834.199 407.967 833.135 408.396 831.717 408.396Z" fill="black"/>
<path d="M310.483 404H307.459C306.171 404 305.153 403.636 304.407 402.908C303.679 402.18 303.315 401.163 303.315 399.856V390.14C303.315 388.833 303.679 387.816 304.407 387.088C305.153 386.36 306.171 385.996 307.459 385.996H310.483C311.771 385.996 312.779 386.369 313.507 387.116C314.235 387.844 314.599 388.852 314.599 390.14V391.288C314.599 391.568 314.468 391.708 314.207 391.708H312.947C312.685 391.708 312.555 391.568 312.555 391.288V390.224C312.555 388.6 311.78 387.788 310.231 387.788H307.683C306.133 387.788 305.359 388.6 305.359 390.224V399.772C305.359 401.396 306.133 402.208 307.683 402.208H310.231C311.78 402.208 312.555 401.396 312.555 399.772V396.636C312.555 396.449 312.471 396.356 312.303 396.356H309.531C309.269 396.356 309.139 396.235 309.139 395.992V394.956C309.139 394.695 309.269 394.564 309.531 394.564H314.039C314.412 394.564 314.599 394.76 314.599 395.152V399.856C314.599 401.163 314.235 402.18 313.507 402.908C312.779 403.636 311.771 404 310.483 404ZM328.263 404H322.327C321.039 404 320.022 403.636 319.275 402.908C318.547 402.18 318.183 401.163 318.183 399.856V393.864C318.183 392.557 318.547 391.54 319.275 390.812C320.022 390.084 321.039 389.72 322.327 389.72H324.679C325.967 389.72 326.975 390.084 327.703 390.812C328.431 391.54 328.795 392.557 328.795 393.864V397.42C328.795 397.7 328.665 397.84 328.403 397.84H320.479C320.293 397.84 320.199 397.924 320.199 398.092V399.8C320.199 401.424 320.983 402.236 322.551 402.236H328.263C328.525 402.236 328.655 402.367 328.655 402.628V403.636C328.655 403.879 328.525 404 328.263 404ZM320.479 396.356H326.527C326.714 396.356 326.807 396.263 326.807 396.076V393.92C326.807 392.315 326.023 391.512 324.455 391.512H322.551C320.983 391.512 320.199 392.315 320.199 393.92V396.076C320.199 396.263 320.293 396.356 320.479 396.356ZM332.777 391.512H331.236C330.975 391.512 330.845 391.391 330.845 391.148V390.112C330.845 389.851 330.975 389.72 331.236 389.72H332.777C332.963 389.72 333.057 389.636 333.057 389.468V387.06C333.057 386.799 333.187 386.668 333.449 386.668H334.709C334.951 386.668 335.073 386.799 335.073 387.06V389.468C335.073 389.636 335.175 389.72 335.381 389.72H338.349C338.629 389.72 338.769 389.851 338.769 390.112V391.148C338.769 391.391 338.629 391.512 338.349 391.512H335.381C335.175 391.512 335.073 391.596 335.073 391.764V399.828C335.073 401.415 335.894 402.208 337.537 402.208H338.629C338.909 402.208 339.049 402.339 339.049 402.6V403.636C339.049 403.879 338.909 404 338.629 404H337.285C335.997 404 334.97 403.645 334.205 402.936C333.439 402.208 333.057 401.2 333.057 399.912V391.764C333.057 391.596 332.963 391.512 332.777 391.512ZM350.264 408.396H349.032C348.77 408.396 348.64 408.265 348.64 408.004V406.968C348.64 406.707 348.77 406.576 349.032 406.576H349.732C350.926 406.576 351.766 406.24 352.252 405.568C352.644 405.027 352.998 404.252 353.316 403.244H352.504C352.28 403.244 352.121 403.113 352.028 402.852L347.912 390.112C347.837 389.851 347.93 389.72 348.192 389.72H349.536C349.778 389.72 349.937 389.851 350.012 390.112L353.624 401.648H353.736L357.348 390.112C357.404 389.851 357.553 389.72 357.796 389.72H359.084C359.401 389.72 359.513 389.86 359.42 390.14L355.248 403.44C354.781 405.027 354.184 406.249 353.456 407.108C352.746 407.967 351.682 408.396 350.264 408.396ZM368.349 404H365.941C364.653 404 363.635 403.636 362.889 402.908C362.161 402.18 361.797 401.163 361.797 399.856V393.864C361.797 392.557 362.161 391.54 362.889 390.812C363.635 390.084 364.653 389.72 365.941 389.72H368.349C369.637 389.72 370.645 390.084 371.373 390.812C372.119 391.54 372.493 392.557 372.493 393.864V399.856C372.493 401.163 372.119 402.18 371.373 402.908C370.645 403.636 369.637 404 368.349 404ZM366.165 402.208H368.125C369.693 402.208 370.477 401.405 370.477 399.8V393.92C370.477 392.315 369.693 391.512 368.125 391.512H366.165C364.597 391.512 363.813 392.315 363.813 393.92V399.8C363.813 401.405 364.597 402.208 366.165 402.208ZM381.537 404H379.969C378.699 404 377.71 403.636 377.001 402.908C376.291 402.18 375.937 401.163 375.937 399.856V390.112C375.937 389.851 376.067 389.72 376.329 389.72H377.589C377.85 389.72 377.981 389.851 377.981 390.112V399.772C377.981 401.396 378.755 402.208 380.305 402.208H381.901C382.741 402.208 383.385 401.984 383.833 401.536C384.281 401.088 384.505 400.453 384.505 399.632V390.112C384.505 389.851 384.635 389.72 384.897 389.72H386.157C386.418 389.72 386.549 389.851 386.549 390.112V403.608C386.549 403.869 386.418 404 386.157 404H384.897C384.635 404 384.505 403.869 384.505 403.608V402.516H384.393C383.926 403.505 382.974 404 381.537 404ZM392.057 404H390.797C390.535 404 390.405 403.869 390.405 403.608V390.112C390.405 389.851 390.535 389.72 390.797 389.72H392.057C392.318 389.72 392.449 389.851 392.449 390.112V391.232H392.561C392.747 390.821 393.102 390.467 393.625 390.168C394.147 389.869 394.763 389.72 395.473 389.72H396.565C396.807 389.72 396.929 389.851 396.929 390.112V391.148C396.929 391.279 396.901 391.381 396.845 391.456C396.789 391.512 396.695 391.531 396.565 391.512H395.053C394.213 391.512 393.569 391.764 393.121 392.268C392.673 392.772 392.449 393.463 392.449 394.34V403.608C392.449 403.869 392.318 404 392.057 404ZM408.217 408.088H406.957C406.695 408.088 406.565 407.957 406.565 407.696V390.112C406.565 389.851 406.695 389.72 406.957 389.72H408.217C408.478 389.72 408.609 389.851 408.609 390.112V391.204H408.721C409.187 390.215 410.139 389.72 411.577 389.72H413.257C414.526 389.72 415.506 390.084 416.197 390.812C416.906 391.54 417.261 392.557 417.261 393.864V399.856C417.261 401.163 416.906 402.18 416.197 402.908C415.506 403.636 414.526 404 413.257 404H411.577C410.139 404 409.187 403.505 408.721 402.516H408.609V407.696C408.609 407.957 408.478 408.088 408.217 408.088ZM411.213 402.208H412.865C414.451 402.208 415.245 401.396 415.245 399.772V393.948C415.245 392.324 414.451 391.512 412.865 391.512H411.213C410.373 391.512 409.729 391.736 409.281 392.184C408.833 392.632 408.609 393.267 408.609 394.088V399.632C408.609 400.453 408.833 401.088 409.281 401.536C409.729 401.984 410.373 402.208 411.213 402.208ZM422.49 404H421.23C420.969 404 420.838 403.869 420.838 403.608V390.112C420.838 389.851 420.969 389.72 421.23 389.72H422.49C422.752 389.72 422.882 389.851 422.882 390.112V391.232H422.994C423.181 390.821 423.536 390.467 424.058 390.168C424.581 389.869 425.197 389.72 425.906 389.72H426.998C427.241 389.72 427.362 389.851 427.362 390.112V391.148C427.362 391.279 427.334 391.381 427.278 391.456C427.222 391.512 427.129 391.531 426.998 391.512H425.486C424.646 391.512 424.002 391.764 423.554 392.268C423.106 392.772 422.882 393.463 422.882 394.34V403.608C422.882 403.869 422.752 404 422.49 404ZM436.161 404H433.753C432.465 404 431.448 403.636 430.701 402.908C429.973 402.18 429.609 401.163 429.609 399.856V393.864C429.609 392.557 429.973 391.54 430.701 390.812C431.448 390.084 432.465 389.72 433.753 389.72H436.161C437.449 389.72 438.457 390.084 439.185 390.812C439.932 391.54 440.305 392.557 440.305 393.864V399.856C440.305 401.163 439.932 402.18 439.185 402.908C438.457 403.636 437.449 404 436.161 404ZM433.977 402.208H435.937C437.505 402.208 438.289 401.405 438.289 399.8V393.92C438.289 392.315 437.505 391.512 435.937 391.512H433.977C432.409 391.512 431.625 392.315 431.625 393.92V399.8C431.625 401.405 432.409 402.208 433.977 402.208ZM449.293 404H447.641C446.372 404 445.382 403.636 444.673 402.908C443.964 402.18 443.609 401.163 443.609 399.856V393.864C443.609 392.557 443.964 391.54 444.673 390.812C445.382 390.084 446.372 389.72 447.641 389.72H449.293C450.749 389.72 451.71 390.215 452.177 391.204H452.289V384.708C452.289 384.447 452.41 384.316 452.653 384.316H453.941C454.184 384.316 454.305 384.447 454.305 384.708V403.608C454.305 403.869 454.184 404 453.941 404H452.653C452.41 404 452.289 403.869 452.289 403.608V402.516H452.177C451.71 403.505 450.749 404 449.293 404ZM452.289 399.632V394.088C452.289 393.267 452.065 392.632 451.617 392.184C451.169 391.736 450.525 391.512 449.685 391.512H447.977C446.428 391.512 445.653 392.324 445.653 393.948V399.772C445.653 401.396 446.428 402.208 447.977 402.208H449.685C450.525 402.208 451.169 401.984 451.617 401.536C452.065 401.088 452.289 400.453 452.289 399.632ZM463.622 404H462.054C460.785 404 459.796 403.636 459.086 402.908C458.377 402.18 458.022 401.163 458.022 399.856V390.112C458.022 389.851 458.153 389.72 458.414 389.72H459.674C459.936 389.72 460.066 389.851 460.066 390.112V399.772C460.066 401.396 460.841 402.208 462.39 402.208H463.986C464.826 402.208 465.47 401.984 465.918 401.536C466.366 401.088 466.59 400.453 466.59 399.632V390.112C466.59 389.851 466.721 389.72 466.982 389.72H468.242C468.504 389.72 468.634 389.851 468.634 390.112V403.608C468.634 403.869 468.504 404 468.242 404H466.982C466.721 404 466.59 403.869 466.59 403.608V402.516H466.478C466.012 403.505 465.06 404 463.622 404ZM480.807 402.6V403.636C480.807 403.879 480.676 404 480.415 404H476.355C475.067 404 474.049 403.636 473.303 402.908C472.575 402.18 472.211 401.163 472.211 399.856V393.864C472.211 392.557 472.575 391.54 473.303 390.812C474.049 390.084 475.067 389.72 476.355 389.72H480.415C480.676 389.72 480.807 389.851 480.807 390.112V391.148C480.807 391.391 480.676 391.512 480.415 391.512H476.579C475.029 391.512 474.255 392.324 474.255 393.948V399.772C474.255 401.396 475.029 402.208 476.579 402.208H480.415C480.676 402.208 480.807 402.339 480.807 402.6ZM484.206 391.512H482.666C482.405 391.512 482.274 391.391 482.274 391.148V390.112C482.274 389.851 482.405 389.72 482.666 389.72H484.206C484.393 389.72 484.486 389.636 484.486 389.468V387.06C484.486 386.799 484.617 386.668 484.878 386.668H486.138C486.381 386.668 486.502 386.799 486.502 387.06V389.468C486.502 389.636 486.605 389.72 486.81 389.72H489.778C490.058 389.72 490.198 389.851 490.198 390.112V391.148C490.198 391.391 490.058 391.512 489.778 391.512H486.81C486.605 391.512 486.502 391.596 486.502 391.764V399.828C486.502 401.415 487.324 402.208 488.966 402.208H490.058C490.338 402.208 490.478 402.339 490.478 402.6V403.636C490.478 403.879 490.338 404 490.058 404H488.714C487.426 404 486.4 403.645 485.634 402.936C484.869 402.208 484.486 401.2 484.486 399.912V391.764C484.486 391.596 484.393 391.512 484.206 391.512ZM498.28 404H493.296C493.035 404 492.904 403.869 492.904 403.608V402.628C492.904 402.385 493.035 402.264 493.296 402.264H498C499.456 402.264 500.184 401.723 500.184 400.64V400.108C500.184 399.119 499.708 398.437 498.756 398.064L495.452 396.664C494.5 396.272 493.819 395.815 493.408 395.292C492.997 394.751 492.792 394.041 492.792 393.164C492.792 390.868 494.052 389.72 496.572 389.72H501.164C501.425 389.72 501.556 389.851 501.556 390.112V391.092C501.556 391.335 501.425 391.456 501.164 391.456H496.936C496.264 391.456 495.751 391.596 495.396 391.876C495.06 392.156 494.892 392.483 494.892 392.856V393.332C494.892 394.116 495.424 394.713 496.488 395.124L499.792 396.608C500.763 396.981 501.416 397.476 501.752 398.092C502.107 398.708 502.284 399.557 502.284 400.64C502.284 402.88 500.949 404 498.28 404Z" fill="black"/>
<path d="M51.9499 404H50.6899C50.4286 404 50.2979 403.869 50.2979 403.608V386.388C50.2979 386.127 50.4286 385.996 50.6899 385.996H57.1299C58.4179 385.996 59.4353 386.369 60.1819 387.116C60.9286 387.844 61.3019 388.852 61.3019 390.14V392.688C61.3019 393.733 61.0499 394.601 60.5459 395.292C60.0419 395.964 59.3419 396.412 58.4459 396.636V396.748L61.6939 403.552C61.8619 403.851 61.7686 404 61.4139 404H60.1539C59.8366 404 59.6033 403.869 59.4539 403.608L56.3179 396.832H52.6219C52.4353 396.832 52.3419 396.916 52.3419 397.084V403.608C52.3419 403.869 52.2113 404 51.9499 404ZM52.6219 395.124H56.8499C58.4553 395.124 59.2579 394.321 59.2579 392.716V390.224C59.2579 388.6 58.4553 387.788 56.8499 387.788H52.6219C52.4353 387.788 52.3419 387.872 52.3419 388.04V394.872C52.3419 395.04 52.4353 395.124 52.6219 395.124ZM74.857 404H68.921C67.633 404 66.6157 403.636 65.869 402.908C65.141 402.18 64.777 401.163 64.777 399.856V393.864C64.777 392.557 65.141 391.54 65.869 390.812C66.6157 390.084 67.633 389.72 68.921 389.72H71.273C72.561 389.72 73.569 390.084 74.297 390.812C75.025 391.54 75.389 392.557 75.389 393.864V397.42C75.389 397.7 75.2583 397.84 74.997 397.84H67.073C66.8863 397.84 66.793 397.924 66.793 398.092V399.8C66.793 401.424 67.577 402.236 69.145 402.236H74.857C75.1183 402.236 75.249 402.367 75.249 402.628V403.636C75.249 403.879 75.1183 404 74.857 404ZM67.073 396.356H73.121C73.3077 396.356 73.401 396.263 73.401 396.076V393.92C73.401 392.315 72.617 391.512 71.049 391.512H69.145C67.577 391.512 66.793 392.315 66.793 393.92V396.076C66.793 396.263 66.8863 396.356 67.073 396.356ZM80.4903 408.088H79.2303C78.9689 408.088 78.8383 407.957 78.8383 407.696V390.112C78.8383 389.851 78.9689 389.72 79.2303 389.72H80.4903C80.7516 389.72 80.8823 389.851 80.8823 390.112V391.204H80.9943C81.4609 390.215 82.4129 389.72 83.8503 389.72H85.5303C86.7996 389.72 87.7796 390.084 88.4703 390.812C89.1796 391.54 89.5343 392.557 89.5343 393.864V399.856C89.5343 401.163 89.1796 402.18 88.4703 402.908C87.7796 403.636 86.7996 404 85.5303 404H83.8503C82.4129 404 81.4609 403.505 80.9943 402.516H80.8823V407.696C80.8823 407.957 80.7516 408.088 80.4903 408.088ZM83.4863 402.208H85.1382C86.7249 402.208 87.5183 401.396 87.5183 399.772V393.948C87.5183 392.324 86.7249 391.512 85.1382 391.512H83.4863C82.6463 391.512 82.0023 391.736 81.5543 392.184C81.1063 392.632 80.8823 393.267 80.8823 394.088V399.632C80.8823 400.453 81.1063 401.088 81.5543 401.536C82.0023 401.984 82.6463 402.208 83.4863 402.208ZM102.912 404H96.9757C95.6877 404 94.6704 403.636 93.9237 402.908C93.1957 402.18 92.8317 401.163 92.8317 399.856V393.864C92.8317 392.557 93.1957 391.54 93.9237 390.812C94.6704 390.084 95.6877 389.72 96.9757 389.72H99.3277C100.616 389.72 101.624 390.084 102.352 390.812C103.08 391.54 103.444 392.557 103.444 393.864V397.42C103.444 397.7 103.313 397.84 103.052 397.84H95.1277C94.941 397.84 94.8477 397.924 94.8477 398.092V399.8C94.8477 401.424 95.6317 402.236 97.1997 402.236H102.912C103.173 402.236 103.304 402.367 103.304 402.628V403.636C103.304 403.879 103.173 404 102.912 404ZM95.1277 396.356H101.176C101.362 396.356 101.456 396.263 101.456 396.076V393.92C101.456 392.315 100.672 391.512 99.1037 391.512H97.1997C95.6317 391.512 94.8477 392.315 94.8477 393.92V396.076C94.8477 396.263 94.941 396.356 95.1277 396.356ZM112.213 404H110.757C109.469 404 108.452 403.636 107.705 402.908C106.977 402.18 106.613 401.163 106.613 399.856V393.864C106.613 392.557 106.977 391.54 107.705 390.812C108.452 390.084 109.469 389.72 110.757 389.72H116.833C117.094 389.72 117.225 389.851 117.225 390.112V403.608C117.225 403.869 117.094 404 116.833 404H115.573C115.312 404 115.181 403.869 115.181 403.608V402.516H115.069C114.602 403.505 113.65 404 112.213 404ZM115.181 399.632V391.764C115.181 391.596 115.088 391.512 114.901 391.512H110.981C109.432 391.512 108.657 392.324 108.657 393.948V399.772C108.657 401.396 109.432 402.208 110.981 402.208H112.577C113.417 402.208 114.061 401.984 114.509 401.536C114.957 401.088 115.181 400.453 115.181 399.632ZM121.616 391.512H120.076C119.815 391.512 119.684 391.391 119.684 391.148V390.112C119.684 389.851 119.815 389.72 120.076 389.72H121.616C121.803 389.72 121.896 389.636 121.896 389.468V387.06C121.896 386.799 122.027 386.668 122.288 386.668H123.548C123.791 386.668 123.912 386.799 123.912 387.06V389.468C123.912 389.636 124.015 389.72 124.22 389.72H127.188C127.468 389.72 127.608 389.851 127.608 390.112V391.148C127.608 391.391 127.468 391.512 127.188 391.512H124.22C124.015 391.512 123.912 391.596 123.912 391.764V399.828C123.912 401.415 124.734 402.208 126.376 402.208H127.468C127.748 402.208 127.888 402.339 127.888 402.6V403.636C127.888 403.879 127.748 404 127.468 404H126.124C124.836 404 123.81 403.645 123.044 402.936C122.279 402.208 121.896 401.2 121.896 399.912V391.764C121.896 391.596 121.803 391.512 121.616 391.512Z" fill="black"/>
<g clip-path="url(#clip0)">
<path d="M138.123 292.88L120.123 274.88C119.265 274.023 117.975 273.765 116.853 274.232C115.731 274.7 114.999 275.786 114.999 276.998V285.998H76.0005C57.773 285.998 43.0015 300.77 43.0015 318.997C43.0015 320.653 44.3455 321.997 46.0014 321.997H58.001C59.657 321.997 61.0009 320.653 61.0009 318.997C61.0009 310.711 67.7147 303.998 76.0005 303.998H114.999V312.997C114.999 314.209 115.731 315.307 116.853 315.769C117.975 316.237 119.265 315.979 120.123 315.121L138.123 297.122C139.293 295.952 139.293 294.05 138.123 292.88Z" fill="black"/>
<path d="M135.999 321.997H123.999C122.343 321.997 120.999 323.341 120.999 324.997C120.999 333.283 114.285 339.996 106 339.996H67.0008V330.997C67.0008 329.785 66.2688 328.687 65.1468 328.225C64.0248 327.763 62.7409 328.021 61.8769 328.879L43.8775 346.878C42.7075 348.048 42.7075 349.95 43.8775 351.12L61.8769 369.12C62.7349 369.978 64.0248 370.235 65.1468 369.768C66.2688 369.3 67.0008 368.208 67.0008 366.996V357.996H106C124.227 357.996 138.999 343.224 138.999 324.997C138.999 323.341 137.655 321.997 135.999 321.997Z" fill="black"/>
</g>
<path d="M299.082 123.856V122.96C299.082 122.699 299.213 122.568 299.474 122.568H300.734C300.996 122.568 301.126 122.699 301.126 122.96V123.688C301.126 125.368 301.957 126.208 303.618 126.208H306.082C307.744 126.208 308.574 125.349 308.574 123.632V122.68C308.574 121.336 307.464 120.459 305.242 120.048C304.309 119.88 303.376 119.684 302.442 119.46C301.509 119.236 300.716 118.807 300.062 118.172C299.409 117.519 299.082 116.632 299.082 115.512V114.14C299.082 112.852 299.446 111.844 300.174 111.116C300.921 110.369 301.938 109.996 303.226 109.996H306.334C307.604 109.996 308.612 110.369 309.358 111.116C310.105 111.844 310.478 112.852 310.478 114.14V114.84C310.478 115.12 310.357 115.26 310.114 115.26H308.826C308.584 115.26 308.462 115.12 308.462 114.84V114.336C308.462 112.637 307.632 111.788 305.97 111.788H303.59C301.929 111.788 301.098 112.675 301.098 114.448V115.568C301.098 116.52 301.724 117.173 302.974 117.528C303.534 117.677 304.15 117.817 304.822 117.948C305.494 118.06 306.166 118.219 306.838 118.424C307.529 118.611 308.154 118.853 308.714 119.152C309.274 119.432 309.722 119.871 310.058 120.468C310.413 121.047 310.59 121.756 310.59 122.596V123.856C310.59 125.144 310.217 126.161 309.47 126.908C308.724 127.636 307.716 128 306.446 128H303.226C301.957 128 300.949 127.636 300.202 126.908C299.456 126.161 299.082 125.144 299.082 123.856ZM324.33 128H318.394C317.106 128 316.088 127.636 315.342 126.908C314.614 126.18 314.25 125.163 314.25 123.856V117.864C314.25 116.557 314.614 115.54 315.342 114.812C316.088 114.084 317.106 113.72 318.394 113.72H320.746C322.034 113.72 323.042 114.084 323.77 114.812C324.498 115.54 324.862 116.557 324.862 117.864V121.42C324.862 121.7 324.731 121.84 324.47 121.84H316.546C316.359 121.84 316.266 121.924 316.266 122.092V123.8C316.266 125.424 317.05 126.236 318.618 126.236H324.33C324.591 126.236 324.722 126.367 324.722 126.628V127.636C324.722 127.879 324.591 128 324.33 128ZM316.546 120.356H322.594C322.78 120.356 322.874 120.263 322.874 120.076V117.92C322.874 116.315 322.09 115.512 320.522 115.512H318.618C317.05 115.512 316.266 116.315 316.266 117.92V120.076C316.266 120.263 316.359 120.356 316.546 120.356ZM330.103 128H328.843C328.582 128 328.451 127.869 328.451 127.608V108.708C328.451 108.447 328.582 108.316 328.843 108.316H330.103C330.364 108.316 330.495 108.447 330.495 108.708V127.608C330.495 127.869 330.364 128 330.103 128ZM344.291 128H338.355C337.067 128 336.049 127.636 335.303 126.908C334.575 126.18 334.211 125.163 334.211 123.856V117.864C334.211 116.557 334.575 115.54 335.303 114.812C336.049 114.084 337.067 113.72 338.355 113.72H340.707C341.995 113.72 343.003 114.084 343.731 114.812C344.459 115.54 344.823 116.557 344.823 117.864V121.42C344.823 121.7 344.692 121.84 344.431 121.84H336.507C336.32 121.84 336.227 121.924 336.227 122.092V123.8C336.227 125.424 337.011 126.236 338.579 126.236H344.291C344.552 126.236 344.683 126.367 344.683 126.628V127.636C344.683 127.879 344.552 128 344.291 128ZM336.507 120.356H342.555C342.741 120.356 342.835 120.263 342.835 120.076V117.92C342.835 116.315 342.051 115.512 340.483 115.512H338.579C337.011 115.512 336.227 116.315 336.227 117.92V120.076C336.227 120.263 336.32 120.356 336.507 120.356ZM356.588 126.6V127.636C356.588 127.879 356.457 128 356.196 128H352.136C350.848 128 349.831 127.636 349.084 126.908C348.356 126.18 347.992 125.163 347.992 123.856V117.864C347.992 116.557 348.356 115.54 349.084 114.812C349.831 114.084 350.848 113.72 352.136 113.72H356.196C356.457 113.72 356.588 113.851 356.588 114.112V115.148C356.588 115.391 356.457 115.512 356.196 115.512H352.36C350.811 115.512 350.036 116.324 350.036 117.948V123.772C350.036 125.396 350.811 126.208 352.36 126.208H356.196C356.457 126.208 356.588 126.339 356.588 126.6ZM359.987 115.512H358.447C358.186 115.512 358.055 115.391 358.055 115.148V114.112C358.055 113.851 358.186 113.72 358.447 113.72H359.987C360.174 113.72 360.267 113.636 360.267 113.468V111.06C360.267 110.799 360.398 110.668 360.659 110.668H361.919C362.162 110.668 362.283 110.799 362.283 111.06V113.468C362.283 113.636 362.386 113.72 362.591 113.72H365.559C365.839 113.72 365.979 113.851 365.979 114.112V115.148C365.979 115.391 365.839 115.512 365.559 115.512H362.591C362.386 115.512 362.283 115.596 362.283 115.764V123.828C362.283 125.415 363.105 126.208 364.747 126.208H365.839C366.119 126.208 366.259 126.339 366.259 126.6V127.636C366.259 127.879 366.119 128 365.839 128H364.495C363.207 128 362.181 127.645 361.415 126.936C360.65 126.208 360.267 125.2 360.267 123.912V115.764C360.267 115.596 360.174 115.512 359.987 115.512ZM376.467 111.368V108.736C376.467 108.475 376.588 108.344 376.831 108.344H378.119C378.38 108.344 378.511 108.475 378.511 108.736V111.368C378.511 111.629 378.38 111.76 378.119 111.76H376.831C376.588 111.76 376.467 111.629 376.467 111.368ZM376.467 127.608V114.112C376.467 113.851 376.588 113.72 376.831 113.72H378.119C378.38 113.72 378.511 113.851 378.511 114.112V127.608C378.511 127.869 378.38 128 378.119 128H376.859C376.597 128 376.467 127.869 376.467 127.608ZM384.158 128H382.898C382.637 128 382.506 127.869 382.506 127.608V114.112C382.506 113.851 382.637 113.72 382.898 113.72H384.158C384.42 113.72 384.55 113.851 384.55 114.112V115.204H384.662C385.129 114.215 386.081 113.72 387.518 113.72H389.086C390.356 113.72 391.345 114.084 392.054 114.812C392.764 115.54 393.118 116.557 393.118 117.864V127.608C393.118 127.869 392.988 128 392.726 128H391.466C391.205 128 391.074 127.869 391.074 127.608V117.948C391.074 116.324 390.29 115.512 388.722 115.512H387.154C386.314 115.512 385.67 115.736 385.222 116.184C384.774 116.632 384.55 117.267 384.55 118.088V127.608C384.55 127.869 384.42 128 384.158 128ZM397.366 115.512H395.826C395.565 115.512 395.434 115.391 395.434 115.148V114.112C395.434 113.851 395.565 113.72 395.826 113.72H397.366C397.553 113.72 397.646 113.636 397.646 113.468V111.06C397.646 110.799 397.777 110.668 398.038 110.668H399.298C399.541 110.668 399.662 110.799 399.662 111.06V113.468C399.662 113.636 399.765 113.72 399.97 113.72H402.938C403.218 113.72 403.358 113.851 403.358 114.112V115.148C403.358 115.391 403.218 115.512 402.938 115.512H399.97C399.765 115.512 399.662 115.596 399.662 115.764V123.828C399.662 125.415 400.484 126.208 402.126 126.208H403.218C403.498 126.208 403.638 126.339 403.638 126.6V127.636C403.638 127.879 403.498 128 403.218 128H401.874C400.586 128 399.56 127.645 398.794 126.936C398.029 126.208 397.646 125.2 397.646 123.912V115.764C397.646 115.596 397.553 115.512 397.366 115.512ZM416.396 128H410.46C409.172 128 408.155 127.636 407.408 126.908C406.68 126.18 406.316 125.163 406.316 123.856V117.864C406.316 116.557 406.68 115.54 407.408 114.812C408.155 114.084 409.172 113.72 410.46 113.72H412.812C414.1 113.72 415.108 114.084 415.836 114.812C416.564 115.54 416.928 116.557 416.928 117.864V121.42C416.928 121.7 416.797 121.84 416.536 121.84H408.612C408.425 121.84 408.332 121.924 408.332 122.092V123.8C408.332 125.424 409.116 126.236 410.684 126.236H416.396C416.657 126.236 416.788 126.367 416.788 126.628V127.636C416.788 127.879 416.657 128 416.396 128ZM408.612 120.356H414.66C414.847 120.356 414.94 120.263 414.94 120.076V117.92C414.94 116.315 414.156 115.512 412.588 115.512H410.684C409.116 115.512 408.332 116.315 408.332 117.92V120.076C408.332 120.263 408.425 120.356 408.612 120.356ZM422.029 128H420.769C420.508 128 420.377 127.869 420.377 127.608V114.112C420.377 113.851 420.508 113.72 420.769 113.72H422.029C422.291 113.72 422.421 113.851 422.421 114.112V115.232H422.533C422.72 114.821 423.075 114.467 423.597 114.168C424.12 113.869 424.736 113.72 425.445 113.72H426.537C426.78 113.72 426.901 113.851 426.901 114.112V115.148C426.901 115.279 426.873 115.381 426.817 115.456C426.761 115.512 426.668 115.531 426.537 115.512H425.025C424.185 115.512 423.541 115.764 423.093 116.268C422.645 116.772 422.421 117.463 422.421 118.34V127.608C422.421 127.869 422.291 128 422.029 128ZM439.228 128H433.292C432.004 128 430.987 127.636 430.24 126.908C429.512 126.18 429.148 125.163 429.148 123.856V117.864C429.148 116.557 429.512 115.54 430.24 114.812C430.987 114.084 432.004 113.72 433.292 113.72H435.644C436.932 113.72 437.94 114.084 438.668 114.812C439.396 115.54 439.76 116.557 439.76 117.864V121.42C439.76 121.7 439.629 121.84 439.368 121.84H431.444C431.257 121.84 431.164 121.924 431.164 122.092V123.8C431.164 125.424 431.948 126.236 433.516 126.236H439.228C439.489 126.236 439.62 126.367 439.62 126.628V127.636C439.62 127.879 439.489 128 439.228 128ZM431.444 120.356H437.492C437.679 120.356 437.772 120.263 437.772 120.076V117.92C437.772 116.315 436.988 115.512 435.42 115.512H433.516C431.948 115.512 431.164 116.315 431.164 117.92V120.076C431.164 120.263 431.257 120.356 431.444 120.356ZM448.053 128H443.069C442.808 128 442.677 127.869 442.677 127.608V126.628C442.677 126.385 442.808 126.264 443.069 126.264H447.773C449.229 126.264 449.957 125.723 449.957 124.64V124.108C449.957 123.119 449.481 122.437 448.529 122.064L445.225 120.664C444.273 120.272 443.592 119.815 443.181 119.292C442.771 118.751 442.565 118.041 442.565 117.164C442.565 114.868 443.825 113.72 446.345 113.72H450.937C451.199 113.72 451.329 113.851 451.329 114.112V115.092C451.329 115.335 451.199 115.456 450.937 115.456H446.709C446.037 115.456 445.524 115.596 445.169 115.876C444.833 116.156 444.665 116.483 444.665 116.856V117.332C444.665 118.116 445.197 118.713 446.261 119.124L449.565 120.608C450.536 120.981 451.189 121.476 451.525 122.092C451.88 122.708 452.057 123.557 452.057 124.64C452.057 126.88 450.723 128 448.053 128ZM455.855 115.512H454.315C454.053 115.512 453.923 115.391 453.923 115.148V114.112C453.923 113.851 454.053 113.72 454.315 113.72H455.855C456.041 113.72 456.135 113.636 456.135 113.468V111.06C456.135 110.799 456.265 110.668 456.527 110.668H457.787C458.029 110.668 458.151 110.799 458.151 111.06V113.468C458.151 113.636 458.253 113.72 458.459 113.72H461.427C461.707 113.72 461.847 113.851 461.847 114.112V115.148C461.847 115.391 461.707 115.512 461.427 115.512H458.459C458.253 115.512 458.151 115.596 458.151 115.764V123.828C458.151 125.415 458.972 126.208 460.615 126.208H461.707C461.987 126.208 462.127 126.339 462.127 126.6V127.636C462.127 127.879 461.987 128 461.707 128H460.363C459.075 128 458.048 127.645 457.283 126.936C456.517 126.208 456.135 125.2 456.135 123.912V115.764C456.135 115.596 456.041 115.512 455.855 115.512ZM465.224 111.368V108.736C465.224 108.475 465.346 108.344 465.588 108.344H466.876C467.138 108.344 467.268 108.475 467.268 108.736V111.368C467.268 111.629 467.138 111.76 466.876 111.76H465.588C465.346 111.76 465.224 111.629 465.224 111.368ZM465.224 127.608V114.112C465.224 113.851 465.346 113.72 465.588 113.72H466.876C467.138 113.72 467.268 113.851 467.268 114.112V127.608C467.268 127.869 467.138 128 466.876 128H465.616C465.355 128 465.224 127.869 465.224 127.608ZM472.916 128H471.656C471.395 128 471.264 127.869 471.264 127.608V114.112C471.264 113.851 471.395 113.72 471.656 113.72H472.916C473.177 113.72 473.308 113.851 473.308 114.112V115.204H473.42C473.887 114.215 474.839 113.72 476.276 113.72H477.844C479.113 113.72 480.103 114.084 480.812 114.812C481.521 115.54 481.876 116.557 481.876 117.864V127.608C481.876 127.869 481.745 128 481.484 128H480.224C479.963 128 479.832 127.869 479.832 127.608V117.948C479.832 116.324 479.048 115.512 477.48 115.512H475.912C475.072 115.512 474.428 115.736 473.98 116.184C473.532 116.632 473.308 117.267 473.308 118.088V127.608C473.308 127.869 473.177 128 472.916 128ZM490.996 127.244H489.428C488.159 127.244 487.169 126.88 486.46 126.152C485.751 125.424 485.396 124.407 485.396 123.1V117.864C485.396 116.557 485.76 115.54 486.488 114.812C487.235 114.084 488.252 113.72 489.54 113.72H495.616C495.877 113.72 496.008 113.851 496.008 114.112V128C496.008 129.288 495.635 130.296 494.888 131.024C494.16 131.771 493.152 132.144 491.864 132.144H486.712C486.432 132.144 486.292 132.013 486.292 131.752V130.716C486.292 130.455 486.432 130.324 486.712 130.324H491.612C493.18 130.324 493.964 129.521 493.964 127.916V125.76H493.852C493.367 126.749 492.415 127.244 490.996 127.244ZM493.964 122.876V115.764C493.964 115.596 493.871 115.512 493.684 115.512H489.792C488.224 115.512 487.44 116.324 487.44 117.948V123.016C487.44 124.64 488.224 125.452 489.792 125.452H491.36C492.2 125.452 492.844 125.228 493.292 124.78C493.74 124.332 493.964 123.697 493.964 122.876ZM363.884 143.512H362.344C362.083 143.512 361.952 143.391 361.952 143.148V142.112C361.952 141.851 362.083 141.72 362.344 141.72H363.884C364.071 141.72 364.164 141.636 364.164 141.468V139.06C364.164 138.799 364.295 138.668 364.556 138.668H365.816C366.059 138.668 366.18 138.799 366.18 139.06V141.468C366.18 141.636 366.283 141.72 366.488 141.72H369.456C369.736 141.72 369.876 141.851 369.876 142.112V143.148C369.876 143.391 369.736 143.512 369.456 143.512H366.488C366.283 143.512 366.18 143.596 366.18 143.764V151.828C366.18 153.415 367.001 154.208 368.644 154.208H369.736C370.016 154.208 370.156 154.339 370.156 154.6V155.636C370.156 155.879 370.016 156 369.736 156H368.392C367.104 156 366.077 155.645 365.312 154.936C364.547 154.208 364.164 153.2 364.164 151.912V143.764C364.164 143.596 364.071 143.512 363.884 143.512ZM379.386 156H376.978C375.69 156 374.672 155.636 373.926 154.908C373.198 154.18 372.834 153.163 372.834 151.856V145.864C372.834 144.557 373.198 143.54 373.926 142.812C374.672 142.084 375.69 141.72 376.978 141.72H379.386C380.674 141.72 381.682 142.084 382.41 142.812C383.156 143.54 383.53 144.557 383.53 145.864V151.856C383.53 153.163 383.156 154.18 382.41 154.908C381.682 155.636 380.674 156 379.386 156ZM377.202 154.208H379.162C380.73 154.208 381.514 153.405 381.514 151.8V145.92C381.514 144.315 380.73 143.512 379.162 143.512H377.202C375.634 143.512 374.85 144.315 374.85 145.92V151.8C374.85 153.405 375.634 154.208 377.202 154.208ZM395.371 160.396H394.139C393.878 160.396 393.747 160.265 393.747 160.004V158.968C393.747 158.707 393.878 158.576 394.139 158.576H394.839C396.034 158.576 396.874 158.24 397.359 157.568C397.751 157.027 398.106 156.252 398.423 155.244H397.611C397.387 155.244 397.228 155.113 397.135 154.852L393.019 142.112C392.944 141.851 393.038 141.72 393.299 141.72H394.643C394.886 141.72 395.044 141.851 395.119 142.112L398.731 153.648H398.843L402.455 142.112C402.511 141.851 402.66 141.72 402.903 141.72H404.191C404.508 141.72 404.62 141.86 404.527 142.14L400.355 155.44C399.888 157.027 399.291 158.249 398.563 159.108C397.854 159.967 396.79 160.396 395.371 160.396ZM413.456 156H411.048C409.76 156 408.743 155.636 407.996 154.908C407.268 154.18 406.904 153.163 406.904 151.856V145.864C406.904 144.557 407.268 143.54 407.996 142.812C408.743 142.084 409.76 141.72 411.048 141.72H413.456C414.744 141.72 415.752 142.084 416.48 142.812C417.227 143.54 417.6 144.557 417.6 145.864V151.856C417.6 153.163 417.227 154.18 416.48 154.908C415.752 155.636 414.744 156 413.456 156ZM411.272 154.208H413.232C414.8 154.208 415.584 153.405 415.584 151.8V145.92C415.584 144.315 414.8 143.512 413.232 143.512H411.272C409.704 143.512 408.92 144.315 408.92 145.92V151.8C408.92 153.405 409.704 154.208 411.272 154.208ZM426.644 156H425.076C423.807 156 422.817 155.636 422.108 154.908C421.399 154.18 421.044 153.163 421.044 151.856V142.112C421.044 141.851 421.175 141.72 421.436 141.72H422.696C422.957 141.72 423.088 141.851 423.088 142.112V151.772C423.088 153.396 423.863 154.208 425.412 154.208H427.008C427.848 154.208 428.492 153.984 428.94 153.536C429.388 153.088 429.612 152.453 429.612 151.632V142.112C429.612 141.851 429.743 141.72 430.004 141.72H431.264C431.525 141.72 431.656 141.851 431.656 142.112V155.608C431.656 155.869 431.525 156 431.264 156H430.004C429.743 156 429.612 155.869 429.612 155.608V154.516H429.5C429.033 155.505 428.081 156 426.644 156Z" fill="black"/>
<g clip-path="url(#clip1)">
<path d="M447.362 27.4763L427.791 10.103C427.443 9.79469 426.995 9.62439 426.531 9.62439H414.646C414.093 9.62439 413.567 9.86602 413.207 10.2855C412.846 10.7053 412.687 11.2615 412.77 11.8085C412.868 12.4539 412.918 13.114 412.918 13.7711C412.918 20.8938 407.124 26.6885 400.001 26.6885C392.878 26.6885 387.083 20.8938 387.083 13.7711C387.083 13.114 387.133 12.4537 387.232 11.8085C387.315 11.2613 387.155 10.7053 386.795 10.2855C386.434 9.86574 385.908 9.62439 385.355 9.62439H373.471C373.006 9.62439 372.558 9.79469 372.211 10.103L352.639 27.4763C352.026 28.0203 351.832 28.8962 352.157 29.6485L359.274 46.1322C359.516 46.6925 360.013 47.1025 360.609 47.2335C361.205 47.365 361.828 47.2012 362.283 46.7942L371.572 38.4804V84.4773C371.572 85.5257 372.422 86.3756 373.471 86.3756H426.531C427.579 86.3756 428.429 85.5257 428.429 84.4773V38.4804L437.719 46.7942C438.174 47.2012 438.797 47.3648 439.393 47.2335C439.989 47.1022 440.486 46.6925 440.728 46.1322L447.845 29.6485C448.17 28.8962 447.975 28.0203 447.362 27.4763Z" fill="black"/>
</g>
<path d="M124.447 92.002C114.194 67.5995 120.43 23.4613 120.494 23.0181C120.614 22.1905 120.368 21.3514 119.821 20.7189C119.274 20.0866 118.478 19.723 117.642 19.723H105.605V29.6612C105.605 31.2528 104.315 32.5429 102.723 32.5429C102.528 32.5429 102.337 32.523 102.153 32.4859V13.1522C102.153 5.89992 96.2518 0 88.9993 0C81.747 0 75.8471 5.89992 75.8471 13.1522V32.4861C75.6626 32.523 75.4722 32.5432 75.2768 32.5432C73.6855 32.5432 72.3951 31.2531 72.3951 29.6615V19.723H60.3573C59.521 19.723 58.7257 20.0866 58.1782 20.7189C57.6309 21.3514 57.3854 22.1905 57.5053 23.0181C57.5696 23.4611 63.8058 67.5995 53.5525 92.002C53.1788 92.8916 53.2753 93.9094 53.8093 94.7131C54.3435 95.5167 55.2443 95.9997 56.2094 95.9997H121.791C122.756 95.9997 123.657 95.5167 124.191 94.7131C124.725 93.9094 124.821 92.8916 124.447 92.002ZM88.9993 5.76333C93.0742 5.76333 96.3893 9.07781 96.3893 13.1522V19.723H81.6107V13.1522C81.6107 9.07781 84.9252 5.76333 88.9993 5.76333Z" fill="black"/>
<path d="M322.104 55.2837C323.284 54.1212 323.299 52.2218 322.137 51.0412L303.192 31.803C302.03 30.6225 300.13 30.6079 298.95 31.7704C297.769 32.9329 297.754 34.8324 298.917 36.0129L315.756 53.1135L298.656 69.953C297.475 71.1156 297.461 73.015 298.623 74.1955C299.786 75.3761 301.685 75.3907 302.866 74.2282L322.104 55.2837ZM170.977 54.9999L319.976 56.1461L320.022 50.1462L171.023 49.0001L170.977 54.9999Z" fill="black"/>
<path d="M649.104 51.2837C650.284 50.1212 650.299 48.2218 649.137 47.0412L630.192 27.803C629.03 26.6225 627.13 26.6079 625.95 27.7704C624.769 28.9329 624.754 30.8324 625.917 32.0129L642.756 49.1135L625.656 65.953C624.475 67.1156 624.461 69.015 625.623 70.1955C626.786 71.3761 628.685 71.3907 629.866 70.2282L649.104 51.2837ZM497.977 50.9999L646.976 52.1461L647.022 46.1462L498.023 45.0001L497.977 50.9999Z" fill="black"/>
<path d="M501.879 322.879C500.707 324.05 500.707 325.95 501.879 327.121L520.971 346.213C522.142 347.385 524.042 347.385 525.213 346.213C526.385 345.042 526.385 343.142 525.213 341.971L508.243 325L525.213 308.029C526.385 306.858 526.385 304.958 525.213 303.787C524.042 302.615 522.142 302.615 520.971 303.787L501.879 322.879ZM653.003 322H504V328H653.003V322Z" fill="black"/>
<path d="M173.879 322.879C172.707 324.05 172.707 325.95 173.879 327.121L192.971 346.213C194.142 347.385 196.042 347.385 197.213 346.213C198.385 345.042 198.385 343.142 197.213 341.971L180.243 325L197.213 308.029C198.385 306.858 198.385 304.958 197.213 303.787C196.042 302.615 194.142 302.615 192.971 303.787L173.879 322.879ZM325.003 322H176V328H325.003V322Z" fill="black"/>
<path d="M734.879 238.121C736.05 239.293 737.95 239.293 739.121 238.121L758.213 219.029C759.385 217.858 759.385 215.958 758.213 214.787C757.042 213.615 755.142 213.615 753.971 214.787L737 231.757L720.029 214.787C718.858 213.615 716.958 213.615 715.787 214.787C714.615 215.958 714.615 217.858 715.787 219.029L734.879 238.121ZM734 174V236H740V174H734Z" fill="black"/>
<path d="M82.1213 171.879C80.9497 170.707 79.0503 170.707 77.8787 171.879L58.7868 190.971C57.6152 192.142 57.6152 194.042 58.7868 195.213C59.9584 196.385 61.8579 196.385 63.0294 195.213L80 178.243L96.9706 195.213C98.1421 196.385 100.042 196.385 101.213 195.213C102.385 194.042 102.385 192.142 101.213 190.971L82.1213 171.879ZM83 236V174H77V236H83Z" fill="black"/>
<path d="M690.001 322.939C690.001 322.921 690.002 322.904 690.003 322.886C690.029 321.692 690.995 320.741 692.213 320.741H692.793L701.755 303.548C702.133 302.822 702.887 302.37 703.719 302.37L719.02 302.367L718.436 297.776C718.269 295.941 718.841 294.209 720.046 292.898C721.249 291.589 722.928 290.868 724.774 290.868H772.261C773.455 290.868 774.469 291.785 774.583 292.967L775.059 296.75H748.003C746.247 296.75 744.86 298.163 744.906 299.906C744.952 301.649 746.413 303.062 748.17 303.062H757.194C757.193 303.067 757.191 303.071 757.19 303.075H783.691C784.933 303.075 785.967 304.075 785.999 305.307C786.032 306.54 785.051 307.539 783.809 307.539H748.724C747.095 307.788 745.879 309.186 745.923 310.878C745.973 312.736 747.523 314.243 749.392 314.258H773.58C774.835 314.258 775.879 315.268 775.912 316.513C775.945 317.758 774.954 318.767 773.699 318.767H749.796C748.144 318.996 746.903 320.404 746.948 322.113C746.997 323.98 748.563 325.495 750.445 325.495H777.868V325.497H780.172C781.427 325.497 782.47 326.506 782.503 327.752C782.536 328.997 781.546 330.006 780.291 330.006H778.302L779.08 338.081C779.247 339.916 778.675 341.648 777.47 342.959C776.268 344.268 774.588 344.989 772.742 344.989H771.026C770.209 349.627 766.165 353.132 761.218 353.132C756.271 353.132 752.041 349.627 750.98 344.989H729.572C727.841 344.989 726.203 344.332 724.918 343.257C723.742 344.376 722.185 344.989 720.484 344.989H720.132C719.314 349.627 715.27 353.132 710.323 353.132C705.376 353.132 701.146 349.627 700.085 344.989H698.672C694.991 344.989 691.726 342.019 691.394 338.37L690.01 323.15C690.008 323.13 690.009 323.11 690.008 323.089C690.005 323.057 690.001 323.027 690 322.995C690 322.976 690.001 322.958 690.001 322.939ZM761.098 348.623C764.231 348.623 766.712 346.094 766.63 342.987C766.548 339.879 763.933 337.35 760.801 337.35C757.669 337.35 755.188 339.879 755.27 342.987C755.352 346.094 757.966 348.623 761.098 348.623ZM710.204 348.623C713.336 348.623 715.817 346.094 715.735 342.987C715.653 339.879 713.038 337.35 709.906 337.35C706.774 337.35 704.293 339.879 704.375 342.987C704.457 346.094 707.072 348.623 710.204 348.623ZM695.921 338.081C696.04 339.381 697.244 340.48 698.552 340.48H700.081C701.093 336.094 705.021 332.841 709.787 332.841C714.554 332.841 718.654 336.094 719.897 340.48H720.365C720.942 340.48 721.458 340.265 721.816 339.874C722.177 339.482 722.347 338.947 722.295 338.369L719.43 306.876L712.85 306.877L713.893 318.342C714.06 320.176 713.489 321.909 712.284 323.22C711.081 324.529 709.402 325.25 707.555 325.25H694.754L695.921 338.081Z" fill="black"/>
<g clip-path="url(#clip2)">
<path d="M447.056 330.698C445.756 328.39 443.302 326.957 440.65 326.957C439.398 326.957 438.154 327.285 437.054 327.904L415.65 339.958C415.371 340.115 415.169 340.381 415.093 340.693C414.719 342.216 413.84 344.344 411.776 345.826C409.491 347.466 406.399 347.807 402.632 346.841C402.61 346.836 402.587 346.829 402.567 346.823L390.22 342.989C389.473 342.757 389.055 341.961 389.287 341.215C389.472 340.618 390.016 340.217 390.64 340.217C390.782 340.217 390.924 340.238 391.062 340.281L403.345 344.095C403.364 344.101 403.384 344.106 403.405 344.112C406.301 344.843 408.564 344.639 410.122 343.522C412.091 342.109 412.438 339.625 412.479 339.261C412.48 339.249 412.481 339.237 412.482 339.226C412.483 339.22 412.483 339.216 412.484 339.216C412.484 339.212 412.484 339.208 412.484 339.204C412.485 339.202 412.485 339.199 412.485 339.197C412.719 336.134 410.743 333.307 407.782 332.471L407.728 332.454C407.638 332.425 398.551 329.457 392.762 327.805C392.118 327.622 390.346 327.195 387.783 327.195C384.197 327.195 378.849 328.045 373.719 332.1L352.43 349.321C351.943 349.714 351.857 350.423 352.235 350.923L363.762 366.149C363.949 366.395 364.226 366.557 364.533 366.598C364.584 366.605 364.635 366.609 364.687 366.609C364.941 366.609 365.191 366.525 365.395 366.368L380.242 354.935C380.576 354.679 381.023 354.582 381.433 354.679L405.414 360.346C407.193 360.766 409.114 360.495 410.705 359.598L444.261 340.7C447.789 338.713 449.043 334.226 447.056 330.698Z" fill="black"/>
<path d="M433.72 277.391H389.893C388.469 277.391 387.315 278.546 387.315 279.969V291.701C387.315 293.125 388.469 294.279 389.893 294.279H390.856V319.189C390.856 320.613 392.01 321.767 393.434 321.767H430.178C431.602 321.767 432.756 320.613 432.756 319.189V294.279H433.72C435.143 294.279 436.298 293.124 436.298 291.7V279.969C436.298 278.546 435.143 277.391 433.72 277.391ZM417.229 300.404H406.383C405.246 300.404 404.32 299.478 404.32 298.341C404.32 297.204 405.246 296.279 406.383 296.279H417.229C418.366 296.279 419.292 297.204 419.292 298.341C419.292 299.478 418.366 300.404 417.229 300.404ZM431.142 289.122H430.178H393.434H392.471V282.548H431.142V289.122Z" fill="black"/>
</g>
<defs>
<clipPath id="clip0">
<rect x="43" y="274" width="96" height="96" fill="white"/>
</clipPath>
<clipPath id="clip1">
<rect x="352" width="96" height="96" fill="white"/>
</clipPath>
<clipPath id="clip2">
<rect x="352" y="274" width="96" height="96" fill="white"/>
</clipPath>
</defs>
</svg>
