<svg width="96" height="96" viewBox="0 0 96 96" fill="none" xmlns="http://www.w3.org/2000/svg">
<path d="M81.9411 14.0589C72.8753 4.99294 60.8213 0 48 0C35.1787 0 23.1248 4.99294 14.0589 14.0589C4.99275 23.1248 0 35.1787 0 48C0 60.8213 4.99275 72.8753 14.0589 81.9411C23.1248 91.0071 35.1787 96 48 96C60.8213 96 72.8753 91.0071 81.9411 81.9411C91.0073 72.8753 96 60.8213 96 48C96 35.1787 91.0073 23.1248 81.9411 14.0589ZM48 90.2858C24.6836 90.2858 5.71425 71.3164 5.71425 48C5.71425 24.6836 24.6836 5.71425 48 5.71425C71.3164 5.71425 90.2858 24.6836 90.2858 48C90.2858 71.3164 71.3164 90.2858 48 90.2858Z" fill="black"/>
<path d="M37.6166 35.3242C32.9379 30.6452 25.3248 30.6455 20.6462 35.3242C19.5303 36.4398 19.5303 38.249 20.6462 39.3648C21.7622 40.4805 23.5713 40.4805 24.687 39.3648C27.138 36.914 31.1257 36.9142 33.5763 39.3648C34.1343 39.9228 34.8654 40.2018 35.5965 40.2018C36.3275 40.2018 37.059 39.9228 37.6166 39.3648C38.7324 38.249 38.7324 36.44 37.6166 35.3242Z" fill="black"/>
<path d="M75.3533 35.3242C70.6746 30.6455 63.0615 30.6452 58.3828 35.3242C57.267 36.4398 57.267 38.249 58.3828 39.3648C59.4988 40.4805 61.308 40.4805 62.4236 39.3648C64.8743 36.914 68.862 36.9138 71.313 39.3648C71.871 39.9228 72.6021 40.2018 73.3331 40.2018C74.0642 40.2018 74.7956 39.9228 75.3533 39.3648C76.4691 38.249 76.4691 36.44 75.3533 35.3242Z" fill="black"/>
<path d="M73.3333 50.0953H22.6667C21.0887 50.0953 19.8096 51.3747 19.8096 52.9525C19.8096 68.4966 32.4559 81.1429 48 81.1429C63.5441 81.1429 76.1904 68.4966 76.1904 52.9525C76.1904 51.3745 74.9113 50.0953 73.3333 50.0953ZM48 75.4287C36.5741 75.4287 27.1121 66.8593 25.7046 55.8096H70.2956C68.8879 66.8593 59.4259 75.4287 48 75.4287Z" fill="black"/>
</svg>
