<svg width="32" height="32" viewBox="0 0 32 32" fill="none" xmlns="http://www.w3.org/2000/svg">
<g clip-path="url(#clip0)">
<path d="M27.5994 19.9583L24.7913 18.337L27.5994 16.7156C27.7928 16.604 27.9119 16.3975 27.9119 16.1743C27.9119 15.951 27.7928 15.7447 27.5994 15.6331L20.1079 11.3079C19.9146 11.1961 19.6763 11.1961 19.4829 11.3079L16.0498 13.2901L12.6165 11.3079C12.4231 11.1961 12.1848 11.1961 11.9915 11.3079L11.117 11.8128C10.8179 11.9854 10.7156 12.3675 10.8882 12.6665C11.0608 12.9654 11.4429 13.0679 11.742 12.8953L12.304 12.5708L14.7996 14.0117L8.55811 17.6153L6.0625 16.1743L6.87037 15.7078C7.16944 15.5352 7.27173 15.1531 7.09913 14.854C6.92652 14.5552 6.54419 14.4527 6.24537 14.6253L4.5 15.6331C4.30664 15.7447 4.1875 15.951 4.1875 16.1743C4.1875 16.3975 4.30664 16.604 4.5 16.7156L7.30811 18.337L4.5 19.9583C4.30664 20.0699 4.1875 20.2762 4.1875 20.4996C4.1875 20.7227 4.30664 20.929 4.5 21.0408L7.93311 23.023V26.9874C7.93311 27.2105 8.05225 27.417 8.24561 27.5286L15.7371 31.8538C15.834 31.9097 15.9417 31.9376 16.0498 31.9376C16.1577 31.9376 16.2654 31.9097 16.3623 31.8538L18.303 30.7332C18.6018 30.5606 18.7044 30.1785 18.5318 29.8795C18.3592 29.5806 17.9768 29.4781 17.6778 29.6507L16.6748 30.2298V23.7447L19.4829 25.366C19.5796 25.4219 19.6875 25.4498 19.7954 25.4498C19.9034 25.4498 20.0113 25.4219 20.1079 25.366L22.9163 23.7447V26.6265L22.5494 26.8382C22.2505 27.0108 22.148 27.3931 22.3206 27.6919C22.4363 27.8926 22.6465 28.0047 22.8626 28.0047C22.9685 28.0047 23.076 27.9776 23.1744 27.9207L23.8538 27.5286C24.0472 27.417 24.1663 27.2107 24.1663 26.9874V23.023L27.5994 21.0408C27.7928 20.9292 27.9119 20.7227 27.9119 20.4996C27.9119 20.2762 27.7928 20.0699 27.5994 19.9583ZM19.7954 12.5708L26.0369 16.1743L23.5413 17.6153L17.2998 14.0117L19.7954 12.5708ZM22.2913 18.337L16.6748 21.5796V15.0943L22.2913 18.337ZM15.4246 15.0943V21.5796L9.80812 18.337L15.4246 15.0943ZM8.55811 19.0586L14.7998 22.6622L12.304 24.1031L6.0625 20.4996L8.55811 19.0586ZM9.18312 23.7447L11.9915 25.366C12.0882 25.4219 12.1961 25.4498 12.304 25.4498C12.4119 25.4498 12.5198 25.4219 12.6165 25.366L15.4246 23.7447V30.23L9.18312 26.6265V23.7447ZM19.7954 24.1031L17.2998 22.6622L23.5413 19.0586L26.0369 20.4993L19.7954 24.1031Z" fill="black"/>
<path d="M12.9983 6.73781C13.4316 6.73781 13.8425 6.59181 14.1746 6.32326V9.54567C14.1746 10.5796 15.0159 11.4207 16.0498 11.4207C17.0835 11.4207 17.9248 10.5796 17.9248 9.54567V6.32326C18.2569 6.59205 18.6678 6.73805 19.1011 6.73805C19.6021 6.73805 20.0728 6.54298 20.427 6.18873C21.158 5.45778 21.158 4.26832 20.427 3.53736L17.3755 0.485841C16.6443 -0.245362 15.4548 -0.245362 14.7239 0.485841L11.6724 3.53712C10.9414 4.26832 10.9414 5.45778 11.6724 6.18873C12.0266 6.54298 12.4973 6.73781 12.9983 6.73781ZM12.5564 4.42115L15.6079 1.36963C15.7258 1.25171 15.8828 1.18677 16.0498 1.18677C16.2166 1.18677 16.3736 1.25171 16.4915 1.36963L19.543 4.42115C19.6612 4.53907 19.7261 4.69605 19.7261 4.86305C19.7261 5.03004 19.6612 5.18678 19.543 5.30494C19.4251 5.42286 19.2681 5.4878 19.1011 5.4878C18.9341 5.4878 18.7774 5.42286 18.6595 5.30494L17.7417 4.38722C17.563 4.2085 17.2942 4.15504 17.0606 4.25172C16.8269 4.3484 16.6748 4.57643 16.6748 4.82911V9.54567C16.6748 9.89016 16.3943 10.1707 16.0498 10.1707C15.7051 10.1707 15.4246 9.89016 15.4246 9.54567V4.82911C15.4246 4.57643 15.2725 4.3484 15.0388 4.25172C14.9614 4.21974 14.8804 4.20411 14.7998 4.20411C14.6372 4.20411 14.4773 4.26759 14.3577 4.38722L13.4399 5.30494C13.322 5.42286 13.1653 5.48805 12.9983 5.48805C12.8313 5.48805 12.6743 5.42286 12.5564 5.30494C12.4382 5.18678 12.3733 5.03004 12.3733 4.86305C12.3733 4.69605 12.4382 4.53907 12.5564 4.42115Z" fill="black"/>
<path d="M8.99408 14.3855C9.10565 14.3855 9.21893 14.3555 9.32099 14.2928L9.32123 14.2925C9.61542 14.1116 9.70673 13.7268 9.52582 13.4329C9.34491 13.1389 8.95966 13.0474 8.66571 13.2283C8.37176 13.4092 8.28021 13.7942 8.46112 14.0882C8.57928 14.2798 8.78412 14.3855 8.99408 14.3855Z" fill="black"/>
<path d="M20.116 28.2435C19.8162 28.4146 19.7119 28.7964 19.8833 29.096C19.9985 29.2979 20.2095 29.4112 20.4265 29.4112C20.5317 29.4112 20.6382 29.3846 20.7361 29.3287L20.7363 29.3284C21.0361 29.1573 21.1401 28.7754 20.9688 28.4759C20.7976 28.1761 20.4158 28.0721 20.116 28.2435Z" fill="black"/>
</g>
<defs>
<clipPath id="clip0">
<rect width="32" height="32" fill="white"/>
</clipPath>
</defs>
</svg>
