<svg width="24" height="24" viewBox="0 0 24 24" fill="none" xmlns="http://www.w3.org/2000/svg">
<path d="M13.9999 1.2H9.99996C9.77918 1.2 9.59998 1.3792 9.59998 1.59998C9.59998 1.82076 9.77918 1.99996 9.99996 1.99996H13.9999C14.2207 1.99996 14.3999 1.82076 14.3999 1.59998C14.3999 1.3792 14.2207 1.2 13.9999 1.2Z" fill="black"/>
<path d="M16.8 1.2H16.4C16.1792 1.2 16 1.3792 16 1.59998C16 1.82076 16.1792 1.99996 16.4 1.99996H16.8C17.0207 1.99996 17.2 1.82076 17.2 1.59998C17.2 1.3792 17.0207 1.2 16.8 1.2Z" fill="black"/>
<path d="M12.4968 20.4H11.5036C10.8952 20.4 10.4 20.8952 10.4 21.5036V21.6968C10.4 22.3052 10.8952 22.8 11.5032 22.8H12.4964C13.1048 22.8 13.6 22.3052 13.6 21.6968V21.5036C13.6 20.8952 13.1048 20.4 12.4968 20.4ZM12.8 21.6968C12.8 21.864 12.664 22 12.4968 22H11.5036C11.336 22 11.2 21.864 11.2 21.6968V21.5036C11.2 21.336 11.336 21.2 11.5036 21.2H12.4964C12.664 21.2 12.8 21.336 12.8 21.5036V21.6968Z" fill="black"/>
<path d="M17.3544 0H6.64595C5.84875 0 5.19995 0.648797 5.19995 1.446V22.554C5.19995 23.3512 5.84875 24 6.64595 24H17.3539C18.1511 24 18.7999 23.3512 18.7999 22.5544V1.446C18.8 0.648797 18.1512 0 17.3544 0ZM18 22.554C18 22.91 17.7104 23.2 17.3544 23.2H6.64595C6.28956 23.2 5.99997 22.91 5.99997 22.5544V1.446C5.99997 1.08998 6.28956 0.800016 6.64595 0.800016H17.3539C17.7103 0.800016 17.9999 1.09003 17.9999 1.446V22.554H18Z" fill="black"/>
<path d="M18.4 2.4H5.60006C5.37928 2.4 5.20007 2.5792 5.20007 2.79999V19.6C5.20007 19.8208 5.37928 20 5.60006 20H18.4001C18.6209 20 18.8001 19.8208 18.8001 19.6V2.79999C18.8001 2.5792 18.6209 2.4 18.4 2.4ZM18 19.2H6.00004V3.20002H18V19.2Z" fill="black"/>
</svg>
