<svg width="24" height="24" viewBox="0 0 24 24" fill="none" xmlns="http://www.w3.org/2000/svg">
<path d="M23.6129 0H4.25806C4.04391 0 3.87097 0.173513 3.87097 0.387097V14.7499C3.74509 14.7244 3.6158 14.7097 3.48387 14.7097C2.41671 14.7097 1.54839 15.578 1.54839 16.6452V16.6533C1.1698 16.9381 0.911983 17.35 0.816721 17.8065H0.387097C0.172946 17.8065 0 17.98 0 18.1935V19.7419C0 19.9555 0.172946 20.129 0.387097 20.129H0.774194V21.2903C0.774194 22.7845 1.99011 24 3.48387 24H23.6129C23.8271 24 24 23.8265 24 23.6129V0.387097C24 0.173513 23.8271 0 23.6129 0ZM23.2258 0.774194V4.64516H4.64516V0.774194H23.2258ZM2.14567 17.1859C2.28308 17.1084 2.36019 16.9555 2.33997 16.7988L2.33373 16.7538C2.32882 16.7183 2.32258 16.6828 2.32258 16.6452C2.32258 16.005 2.84369 15.4839 3.48387 15.4839C3.8927 15.4839 4.26392 15.6971 4.47713 16.0549C4.53516 16.1524 4.63363 16.2197 4.74572 16.2384C4.85837 16.2577 4.9731 16.2256 5.06004 16.1516C5.21106 16.0235 5.46264 15.871 5.80645 15.871C6.22058 15.871 6.60654 16.0997 6.8137 16.4679C6.89422 16.6119 7.05828 16.6884 7.21932 16.6595C7.62342 16.5875 8.03736 16.865 8.11429 17.2761C8.14188 17.4231 8.2517 17.5416 8.39686 17.5796C8.54278 17.6184 8.69531 17.5683 8.79209 17.4534C9.0155 17.1859 9.33833 17.0323 9.67742 17.0323C10.1813 17.0323 10.6072 17.357 10.7675 17.8065H1.62588C1.71982 17.5501 1.89711 17.3256 2.14567 17.1859ZM7.35484 13.5484C7.35484 9.91973 10.3068 6.96774 13.9355 6.96774C17.5641 6.96774 20.5161 9.91973 20.5161 13.5484C20.5161 17.177 17.5641 20.129 13.9355 20.129C13.3892 20.129 12.8551 20.0555 12.3349 19.9251C12.3654 19.8697 12.3871 19.8092 12.3871 19.7419V19.145C12.8887 19.2836 13.407 19.3548 13.9355 19.3548C17.1372 19.3548 19.7419 16.7501 19.7419 13.5484C19.7419 10.3467 17.1372 7.74194 13.9355 7.74194C10.7338 7.74194 8.12903 10.3467 8.12903 13.5484C8.12903 14.5689 8.39422 15.5532 8.89472 16.4276C8.80796 16.4667 8.72366 16.5112 8.64352 16.5631C8.44714 16.2673 8.15228 16.0486 7.81092 15.9426C7.51247 15.1799 7.35484 14.3768 7.35484 13.5484ZM9.69991 16.2603C9.39182 15.7808 9.16765 15.2586 9.03799 14.7097H9.29032C9.64302 14.7097 9.97511 14.5723 10.2248 14.3226L10.4516 14.0961C10.6588 13.889 11.0186 13.889 11.2258 14.0961L11.4526 14.3226C11.9524 14.8216 12.8218 14.8219 13.3216 14.3226L13.5484 14.0961C13.7555 13.889 14.1154 13.889 14.3226 14.0961L14.5494 14.3226C15.0491 14.8216 15.9186 14.8219 16.4183 14.3226L16.6452 14.0961C16.8523 13.889 17.2122 13.889 17.4194 14.0961L17.6462 14.3226C17.8962 14.5723 18.2279 14.7097 18.5806 14.7097H18.8273C18.3007 16.9255 16.3099 18.5806 13.9355 18.5806C13.4044 18.5806 12.8857 18.4939 12.3871 18.3325V18.1935C12.3871 17.98 12.2142 17.8065 12 17.8065H11.5738C11.3953 16.9311 10.6242 16.2713 9.69991 16.2603ZM8.90323 13.5484C8.90323 10.7737 11.1608 8.51613 13.9355 8.51613C16.7102 8.51613 18.9677 10.7737 18.9677 13.5484C18.9677 13.6792 18.9581 13.8073 18.9481 13.9355H18.5806C18.4343 13.9355 18.2973 13.8786 18.1935 13.7752L17.9667 13.5484C17.467 13.0494 16.5975 13.049 16.0978 13.5484L15.871 13.7748C15.6638 13.982 15.3039 13.982 15.0968 13.7748L14.87 13.5484C14.3702 13.0494 13.5008 13.049 13.001 13.5484L12.7742 13.7748C12.567 13.982 12.2072 13.982 12 13.7748L11.7732 13.5484C11.2734 13.0494 10.404 13.049 9.90423 13.5484L9.67742 13.7748C9.57365 13.8786 9.43662 13.9355 9.29032 13.9355H8.91797C8.90833 13.8073 8.90323 13.678 8.90323 13.5484ZM0.774194 18.5806H11.6129V19.3548H0.774194V18.5806ZM8.51613 23.2258H3.48387C2.41671 23.2258 1.54839 22.3575 1.54839 21.2903V20.129H10.8387V21.2903C10.8387 22.3575 9.97039 23.2258 8.90323 23.2258H8.51613ZM10.7958 23.2258C11.2993 22.7334 11.6129 22.0483 11.6129 21.2903V20.5224C12.3593 20.7713 13.1373 20.9032 13.9355 20.9032C17.9911 20.9032 21.2903 17.604 21.2903 13.5484C21.2903 9.49275 17.9911 6.19355 13.9355 6.19355C9.87985 6.19355 6.58065 9.49275 6.58065 13.5484C6.58065 14.1782 6.66778 14.7936 6.82296 15.3926C6.52186 15.2036 6.17143 15.0968 5.80645 15.0968C5.49023 15.0968 5.17742 15.1777 4.89749 15.3298C4.82056 15.2463 4.73419 15.1743 4.64516 15.106V5.41935H23.2258V23.2258H10.7958Z" fill="black"/>
<path d="M6.5806 3.87097C7.22079 3.87097 7.74189 3.34986 7.74189 2.70968C7.74189 2.06949 7.22079 1.54839 6.5806 1.54839C5.94042 1.54839 5.41931 2.06949 5.41931 2.70968C5.41931 3.34986 5.94042 3.87097 6.5806 3.87097ZM6.5806 2.32258C6.79419 2.32258 6.9677 2.49647 6.9677 2.70968C6.9677 2.92288 6.79419 3.09677 6.5806 3.09677C6.36702 3.09677 6.19351 2.92288 6.19351 2.70968C6.19351 2.49647 6.36702 2.32258 6.5806 2.32258Z" fill="black"/>
<path d="M9.6774 3.87097C10.3176 3.87097 10.8387 3.34986 10.8387 2.70968C10.8387 2.06949 10.3176 1.54839 9.6774 1.54839C9.03722 1.54839 8.51611 2.06949 8.51611 2.70968C8.51611 3.34986 9.03722 3.87097 9.6774 3.87097ZM9.6774 2.32258C9.89099 2.32258 10.0645 2.49647 10.0645 2.70968C10.0645 2.92288 9.89099 3.09677 9.6774 3.09677C9.46382 3.09677 9.29031 2.92288 9.29031 2.70968C9.29031 2.49647 9.46382 2.32258 9.6774 2.32258Z" fill="black"/>
<path d="M12.7742 3.87097C13.4144 3.87097 13.9355 3.34986 13.9355 2.70968C13.9355 2.06949 13.4144 1.54839 12.7742 1.54839C12.134 1.54839 11.6129 2.06949 11.6129 2.70968C11.6129 3.34986 12.134 3.87097 12.7742 3.87097ZM12.7742 2.32258C12.9878 2.32258 13.1613 2.49647 13.1613 2.70968C13.1613 2.92288 12.9878 3.09677 12.7742 3.09677C12.5606 3.09677 12.3871 2.92288 12.3871 2.70968C12.3871 2.49647 12.5606 2.32258 12.7742 2.32258Z" fill="black"/>
<path d="M21.6774 3.09677H22.4516V3.87096H21.6774V3.09677Z" fill="black"/>
<path d="M21.6774 1.54839H22.4516V2.32258H21.6774V1.54839Z" fill="black"/>
<path d="M20.129 3.09677H20.9032V3.87096H20.129V3.09677Z" fill="black"/>
<path d="M20.129 1.54839H20.9032V2.32258H20.129V1.54839Z" fill="black"/>
<path d="M18.5807 3.09677H19.3549V3.87096H18.5807V3.09677Z" fill="black"/>
<path d="M18.5807 1.54839H19.3549V2.32258H18.5807V1.54839Z" fill="black"/>
<path d="M17.0322 3.09677H17.8064V3.87096H17.0322V3.09677Z" fill="black"/>
<path d="M17.0322 1.54839H17.8064V2.32258H17.0322V1.54839Z" fill="black"/>
</svg>
