<svg width="24" height="24" viewBox="0 0 24 24" fill="none" xmlns="http://www.w3.org/2000/svg">
<g clip-path="url(#clip0)">
<path d="M12.0515 2.39959C11.8306 2.39959 11.6515 2.57869 11.6515 2.7996V4.11153L9.54951 4.81193L5.57131 5.60765C5.52307 5.61722 5.47678 5.63558 5.43498 5.66195L1.0349 8.462C0.848376 8.58055 0.793492 8.82802 0.912049 9.01455L3.7121 13.4146C3.77577 13.514 3.87988 13.5803 3.99687 13.5957C4.11406 13.6111 4.23183 13.5742 4.31895 13.4945L5.25138 12.6494V23.6C5.25138 23.8209 5.43049 24 5.65139 24H18.4516C18.6725 24 18.8516 23.8209 18.8516 23.6V12.7349L19.7985 13.5094C19.8843 13.5806 19.9962 13.6121 20.1065 13.5957C20.2167 13.5808 20.3157 13.5203 20.3792 13.4289L23.1792 9.42881C23.3044 9.25029 23.2632 9.00439 23.0869 8.87607L18.6868 5.67601C18.6401 5.64203 18.5866 5.61878 18.5301 5.60765L14.5535 4.81193L12.4515 4.11153V3.14277C13.2547 2.93339 13.7636 2.14411 13.6228 1.32613C13.482 0.508345 12.7384 -0.0654936 11.9117 0.00579677C11.0847 0.0770871 10.4503 0.769677 10.4515 1.59957C10.4515 1.82048 10.6306 1.99958 10.8515 1.99958C11.0724 1.99958 11.2515 1.82048 11.2515 1.59957C11.2515 1.15777 11.6097 0.799561 12.0515 0.799561C12.4933 0.799561 12.8515 1.15777 12.8515 1.59957C12.8515 2.04138 12.4933 2.39959 12.0515 2.39959ZM12.0515 4.82112L14.0236 5.47952C13.8886 6.46528 13.0464 7.20006 12.0515 7.20006C11.0566 7.20006 10.2146 6.46528 10.0794 5.47952L12.0515 4.82112ZM22.299 9.29209L19.9716 12.6173L18.7053 11.581C18.5856 11.4828 18.42 11.4624 18.2801 11.5288C18.1405 11.5951 18.0514 11.7361 18.0516 11.891V23.2H6.0514V11.7449C6.0514 11.5865 5.95804 11.4431 5.81331 11.379C5.66838 11.315 5.49944 11.3423 5.38225 11.449L4.13379 12.5841L1.80328 8.92255L5.80335 6.3772L9.2915 5.67953C9.52431 7.02135 10.6886 8.00105 12.0503 8.00105C13.4121 8.00105 14.5764 7.02135 14.8092 5.67953L18.286 6.37524L22.299 9.29209Z" fill="black"/>
</g>
<defs>
<clipPath id="clip0">
<rect width="24" height="24" fill="white"/>
</clipPath>
</defs>
</svg>
