<svg width="24" height="24" viewBox="0 0 24 24" fill="none" xmlns="http://www.w3.org/2000/svg">
<path d="M22.3996 0.399979H1.60041C0.717984 0.399979 0 1.11801 0 2.00039V15.2C0 15.4208 0.179203 15.6 0.399984 15.6H23.6C23.8207 15.6 24 15.4208 24 15.2V2.00039C24 1.11801 23.282 0.399979 22.3996 0.399979ZM23.2 14.8H0.800016V2.00039C0.800016 1.55878 1.15922 1.2 1.60041 1.2H22.3996C22.8408 1.2 23.2 1.55878 23.2 2.00039V14.8Z" fill="black"/>
<path d="M23.6 14.8H0.399984C0.179203 14.8 0 14.9792 0 15.2V17.1996C0 18.082 0.717984 18.8 1.60041 18.8H22.3996C23.282 18.8 24 18.082 24 17.1996V15.2C24 14.9792 23.8208 14.8 23.6 14.8ZM23.2 17.1996C23.2 17.6412 22.8408 18 22.3996 18H1.60041C1.15922 18 0.800016 17.6412 0.800016 17.1996V15.6H23.2V17.1996H23.2Z" fill="black"/>
<path d="M13.2 16.4H10.8C10.5792 16.4 10.4 16.5792 10.4 16.8C10.4 17.0208 10.5792 17.2 10.8 17.2H13.2C13.4208 17.2 13.6 17.0208 13.6 16.8C13.6 16.5792 13.4208 16.4 13.2 16.4Z" fill="black"/>
<path d="M21.9999 2.00002H1.99996C1.77918 2.00002 1.59998 2.17922 1.59998 2.4V15.2C1.59998 15.4208 1.77918 15.6 1.99996 15.6H22C22.2208 15.6 22.4 15.4208 22.4 15.2V2.4C22.4 2.17922 22.2208 2.00002 21.9999 2.00002ZM21.5999 14.8H2.39994V2.79998H21.5999V14.8Z" fill="black"/>
<path d="M17.1999 21.2H6.79998C6.13838 21.2 5.59998 21.7384 5.59998 22.4C5.59998 23.0616 6.13838 23.6 6.79998 23.6H17.2C17.8616 23.6 18.4 23.0616 18.4 22.4C18.4 21.7384 17.8615 21.2 17.1999 21.2ZM17.1999 22.8H6.79998C6.57919 22.8 6.39999 22.6204 6.39999 22.4C6.39999 22.1796 6.57919 22 6.79998 22H17.2C17.4208 22 17.6 22.1796 17.6 22.4C17.6 22.6204 17.4208 22.8 17.1999 22.8Z" fill="black"/>
<path d="M16.4 21.2C15.0728 21.2 14.4 20.258 14.4 18.4C14.4 18.1792 14.2208 18 14 18H10.0001C9.77927 18 9.60007 18.1792 9.60007 18.4C9.60007 20.258 8.92727 21.2 7.60006 21.2C7.37928 21.2 7.20007 21.3792 7.20007 21.6C7.20007 21.8208 7.37928 22 7.60006 22H16.4C16.6208 22 16.8 21.8208 16.8 21.6C16.8 21.3792 16.6208 21.2 16.4 21.2ZM9.54841 21.2C10.0408 20.6544 10.3308 19.842 10.3892 18.8H13.6112C13.6692 19.842 13.9592 20.6544 14.452 21.2H9.54841Z" fill="black"/>
<path d="M19.1136 12.1856L18.148 11.22L18.6852 10.6828C18.7848 10.5832 18.8248 10.4384 18.7904 10.302C18.756 10.1656 18.6524 10.0576 18.5176 10.0168L14.5176 8.81681C14.3764 8.77439 14.2241 8.8132 14.12 8.91721C14.0157 9.02123 13.9773 9.174 14.0196 9.31481L15.2196 13.3148C15.26 13.45 15.3684 13.5536 15.5048 13.588C15.6408 13.6216 15.786 13.5824 15.8856 13.4828L16.4512 12.9168L17.4168 13.8828C17.4916 13.958 17.5936 14 17.6996 14C17.8056 14 17.9076 13.958 17.9824 13.8828L19.1136 12.7512C19.27 12.5948 19.27 12.342 19.1136 12.1856ZM17.6996 13.0344L16.8204 12.1548C16.7184 12.0528 16.5848 12.002 16.4512 12.002C16.3172 12.002 16.1836 12.0532 16.082 12.1544L15.7932 12.4432L14.9992 9.79636L17.646 10.5904L17.3364 10.9C17.2512 10.9856 17.2044 11.0992 17.2044 11.22C17.2044 11.3412 17.2516 11.4556 17.3372 11.5404L18.2652 12.4684L17.6996 13.0344Z" fill="black"/>
<path d="M16.8 3.6H5.60006C5.37928 3.6 5.20007 3.7792 5.20007 3.99998V6C5.20007 6.22078 5.37928 6.39998 5.60006 6.39998H16.8C17.0208 6.39998 17.2 6.22078 17.2 6V3.99998C17.2 3.7792 17.0208 3.6 16.8 3.6ZM16.4001 5.60001H6.00004V4.40001H16.4001V5.60001Z" fill="black"/>
<path d="M10.4 8.00002H7.20003C6.97925 8.00002 6.80005 8.17922 6.80005 8.4V9.99998C6.80005 10.2208 6.97925 10.4 7.20003 10.4H10.4C10.6208 10.4 10.8 10.2208 10.8 9.99998V8.4C10.8 8.17922 10.6208 8.00002 10.4 8.00002ZM10 9.6H7.60002V8.79998H10V9.6Z" fill="black"/>
<path d="M16.8 3.6H5.60006C5.37928 3.6 5.20007 3.7792 5.20007 3.99998V11.6C5.20007 11.8207 5.37928 12 5.60006 12H15.1225C15.2493 12 15.3681 11.9404 15.4433 11.8387C15.5189 11.7372 15.5421 11.606 15.5057 11.4847L14.9993 9.79636L16.6853 10.3024C16.8065 10.3388 16.9377 10.3156 17.0389 10.24C17.1404 10.1648 17.2001 10.0456 17.2001 9.91917V3.99998C17.2 3.7792 17.0208 3.6 16.8 3.6ZM16.4001 9.38161L14.5172 8.81681C14.376 8.77439 14.2237 8.8132 14.1196 8.91722C14.0152 9.02161 13.9769 9.174 14.0192 9.31523L14.5848 11.2H6.00004V4.40001H16.4001V9.38161Z" fill="black"/>
</svg>
