<svg width="778" height="317" viewBox="0 0 778 317" fill="none" xmlns="http://www.w3.org/2000/svg">
<path d="M0 5C0 2.23858 2.23858 0 5 0H773C775.761 0 778 2.23858 778 5V317H0V5Z" fill="#C4C4C4" fill-opacity="0.1"/>
<path d="M0.5 5C0.5 2.51472 2.51472 0.5 5 0.5H773C775.485 0.5 777.5 2.51472 777.5 5V316.5H0.5V5Z" stroke="black" stroke-opacity="0.25"/>
<path d="M29.916 33.848H32.94C33.948 33.848 34.452 33.326 34.452 32.282V26.144C34.452 25.1 33.948 24.578 32.94 24.578H29.916C29.796 24.578 29.736 24.632 29.736 24.74V33.686C29.736 33.794 29.796 33.848 29.916 33.848ZM28.422 34.748V23.678C28.422 23.51 28.506 23.426 28.674 23.426H33.102C33.93 23.426 34.578 23.666 35.046 24.146C35.526 24.614 35.766 25.262 35.766 26.09V32.336C35.766 33.164 35.526 33.818 35.046 34.298C34.578 34.766 33.93 35 33.102 35H28.674C28.506 35 28.422 34.916 28.422 34.748ZM44.544 35H40.728C39.9 35 39.246 34.766 38.766 34.298C38.298 33.83 38.064 33.176 38.064 32.336V28.484C38.064 27.644 38.298 26.99 38.766 26.522C39.246 26.054 39.9 25.82 40.728 25.82H42.24C43.068 25.82 43.716 26.054 44.184 26.522C44.652 26.99 44.886 27.644 44.886 28.484V30.77C44.886 30.95 44.802 31.04 44.634 31.04H39.54C39.42 31.04 39.36 31.094 39.36 31.202V32.3C39.36 33.344 39.864 33.866 40.872 33.866H44.544C44.712 33.866 44.796 33.95 44.796 34.118V34.766C44.796 34.922 44.712 35 44.544 35ZM39.54 30.086H43.428C43.548 30.086 43.608 30.026 43.608 29.906V28.52C43.608 27.488 43.104 26.972 42.096 26.972H40.872C39.864 26.972 39.36 27.488 39.36 28.52V29.906C39.36 30.026 39.42 30.086 39.54 30.086ZM48.2553 35H47.4453C47.2773 35 47.1933 34.916 47.1933 34.748V22.598C47.1933 22.43 47.2773 22.346 47.4453 22.346H48.2553C48.4233 22.346 48.5073 22.43 48.5073 22.598V34.748C48.5073 34.916 48.4233 35 48.2553 35ZM51.166 24.308V22.616C51.166 22.448 51.244 22.364 51.4 22.364H52.228C52.396 22.364 52.48 22.448 52.48 22.616V24.308C52.48 24.476 52.396 24.56 52.228 24.56H51.4C51.244 24.56 51.166 24.476 51.166 24.308ZM51.166 34.748V26.072C51.166 25.904 51.244 25.82 51.4 25.82H52.228C52.396 25.82 52.48 25.904 52.48 26.072V34.748C52.48 34.916 52.396 35 52.228 35H51.418C51.25 35 51.166 34.916 51.166 34.748ZM54.3466 25.82H55.1926C55.3486 25.82 55.4446 25.904 55.4806 26.072L57.6406 33.686H57.7306L59.8726 26.072C59.9206 25.904 60.0226 25.82 60.1786 25.82H61.0246C61.1926 25.82 61.2526 25.904 61.2046 26.072L58.6126 34.73C58.5766 34.91 58.4686 35 58.2886 35H57.0646C56.8966 35 56.7886 34.91 56.7406 34.73L54.1666 26.072C54.1186 25.904 54.1786 25.82 54.3466 25.82ZM69.1006 35H65.2846C64.4566 35 63.8026 34.766 63.3226 34.298C62.8546 33.83 62.6206 33.176 62.6206 32.336V28.484C62.6206 27.644 62.8546 26.99 63.3226 26.522C63.8026 26.054 64.4566 25.82 65.2846 25.82H66.7966C67.6246 25.82 68.2726 26.054 68.7406 26.522C69.2086 26.99 69.4426 27.644 69.4426 28.484V30.77C69.4426 30.95 69.3586 31.04 69.1906 31.04H64.0966C63.9766 31.04 63.9166 31.094 63.9166 31.202V32.3C63.9166 33.344 64.4206 33.866 65.4286 33.866H69.1006C69.2686 33.866 69.3526 33.95 69.3526 34.118V34.766C69.3526 34.922 69.2686 35 69.1006 35ZM64.0966 30.086H67.9846C68.1046 30.086 68.1646 30.026 68.1646 29.906V28.52C68.1646 27.488 67.6606 26.972 66.6526 26.972H65.4286C64.4206 26.972 63.9166 27.488 63.9166 28.52V29.906C63.9166 30.026 63.9766 30.086 64.0966 30.086ZM72.722 35H71.912C71.744 35 71.66 34.916 71.66 34.748V26.072C71.66 25.904 71.744 25.82 71.912 25.82H72.722C72.89 25.82 72.974 25.904 72.974 26.072V26.792H73.046C73.166 26.528 73.394 26.3 73.73 26.108C74.066 25.916 74.462 25.82 74.918 25.82H75.62C75.776 25.82 75.854 25.904 75.854 26.072V26.738C75.854 26.822 75.836 26.888 75.8 26.936C75.764 26.972 75.704 26.984 75.62 26.972H74.648C74.108 26.972 73.694 27.134 73.406 27.458C73.118 27.782 72.974 28.226 72.974 28.79V34.748C72.974 34.916 72.89 35 72.722 35ZM78.2163 37.826H77.4243C77.2563 37.826 77.1723 37.742 77.1723 37.574V36.908C77.1723 36.74 77.2563 36.656 77.4243 36.656H77.8743C78.6423 36.656 79.1823 36.44 79.4943 36.008C79.7463 35.66 79.9743 35.162 80.1783 34.514H79.6563C79.5123 34.514 79.4103 34.43 79.3503 34.262L76.7043 26.072C76.6563 25.904 76.7163 25.82 76.8843 25.82H77.7483C77.9043 25.82 78.0063 25.904 78.0543 26.072L80.3763 33.488H80.4483L82.7703 26.072C82.8063 25.904 82.9023 25.82 83.0583 25.82H83.8863C84.0903 25.82 84.1623 25.91 84.1023 26.09L81.4203 34.64C81.1203 35.66 80.7363 36.446 80.2683 36.998C79.8123 37.55 79.1283 37.826 78.2163 37.826ZM90.7227 26.972H89.7327C89.5647 26.972 89.4807 26.894 89.4807 26.738V26.072C89.4807 25.904 89.5647 25.82 89.7327 25.82H90.7227C90.8427 25.82 90.9027 25.766 90.9027 25.658V24.11C90.9027 23.942 90.9867 23.858 91.1547 23.858H91.9647C92.1207 23.858 92.1987 23.942 92.1987 24.11V25.658C92.1987 25.766 92.2647 25.82 92.3967 25.82H94.3047C94.4847 25.82 94.5747 25.904 94.5747 26.072V26.738C94.5747 26.894 94.4847 26.972 94.3047 26.972H92.3967C92.2647 26.972 92.1987 27.026 92.1987 27.134V32.318C92.1987 33.338 92.7267 33.848 93.7827 33.848H94.4847C94.6647 33.848 94.7547 33.932 94.7547 34.1V34.766C94.7547 34.922 94.6647 35 94.4847 35H93.6207C92.7927 35 92.1327 34.772 91.6407 34.316C91.1487 33.848 90.9027 33.2 90.9027 32.372V27.134C90.9027 27.026 90.8427 26.972 90.7227 26.972ZM100.688 35H99.1401C98.3121 35 97.6581 34.766 97.1781 34.298C96.7101 33.83 96.4761 33.176 96.4761 32.336V28.484C96.4761 27.644 96.7101 26.99 97.1781 26.522C97.6581 26.054 98.3121 25.82 99.1401 25.82H100.688C101.516 25.82 102.164 26.054 102.632 26.522C103.112 26.99 103.352 27.644 103.352 28.484V32.336C103.352 33.176 103.112 33.83 102.632 34.298C102.164 34.766 101.516 35 100.688 35ZM99.2841 33.848H100.544C101.552 33.848 102.056 33.332 102.056 32.3V28.52C102.056 27.488 101.552 26.972 100.544 26.972H99.2841C98.2761 26.972 97.7721 27.488 97.7721 28.52V32.3C97.7721 33.332 98.2761 33.848 99.2841 33.848Z" fill="black"/>
<path d="M122.484 35H121.674C121.506 35 121.422 34.916 121.422 34.748V23.678C121.422 23.51 121.506 23.426 121.674 23.426H122.484C122.652 23.426 122.736 23.51 122.736 23.678V29.888H122.79C122.874 29.636 123.006 29.39 123.186 29.15L127.218 23.678C127.326 23.51 127.482 23.426 127.686 23.426H128.658C128.862 23.426 128.892 23.516 128.748 23.696L125.184 28.52L129.252 34.712C129.384 34.904 129.33 35 129.09 35H128.352C128.1 35 127.926 34.916 127.83 34.748L124.374 29.474L122.736 31.436V34.748C122.736 34.916 122.652 35 122.484 35ZM131.018 24.308V22.616C131.018 22.448 131.096 22.364 131.252 22.364H132.08C132.248 22.364 132.332 22.448 132.332 22.616V24.308C132.332 24.476 132.248 24.56 132.08 24.56H131.252C131.096 24.56 131.018 24.476 131.018 24.308ZM131.018 34.748V26.072C131.018 25.904 131.096 25.82 131.252 25.82H132.08C132.248 25.82 132.332 25.904 132.332 26.072V34.748C132.332 34.916 132.248 35 132.08 35H131.27C131.102 35 131.018 34.916 131.018 34.748ZM141.2 35H137.384C136.556 35 135.902 34.766 135.422 34.298C134.954 33.83 134.72 33.176 134.72 32.336V28.484C134.72 27.644 134.954 26.99 135.422 26.522C135.902 26.054 136.556 25.82 137.384 25.82H138.896C139.724 25.82 140.372 26.054 140.84 26.522C141.308 26.99 141.542 27.644 141.542 28.484V30.77C141.542 30.95 141.458 31.04 141.29 31.04H136.196C136.076 31.04 136.016 31.094 136.016 31.202V32.3C136.016 33.344 136.52 33.866 137.528 33.866H141.2C141.368 33.866 141.452 33.95 141.452 34.118V34.766C141.452 34.922 141.368 35 141.2 35ZM136.196 30.086H140.084C140.204 30.086 140.264 30.026 140.264 29.906V28.52C140.264 27.488 139.76 26.972 138.752 26.972H137.528C136.52 26.972 136.016 27.488 136.016 28.52V29.906C136.016 30.026 136.076 30.086 136.196 30.086ZM143.058 25.82H143.904C144.06 25.82 144.156 25.904 144.192 26.072L146.352 33.686H146.442L148.584 26.072C148.632 25.904 148.734 25.82 148.89 25.82H149.736C149.904 25.82 149.964 25.904 149.916 26.072L147.324 34.73C147.288 34.91 147.18 35 147 35H145.776C145.608 35 145.5 34.91 145.452 34.73L142.878 26.072C142.83 25.904 142.89 25.82 143.058 25.82ZM152.718 32.57V33.992C152.718 34.256 152.628 34.604 152.448 35.036L151.728 36.728C151.668 36.824 151.596 36.872 151.512 36.872C151.392 36.872 151.332 36.794 151.332 36.638V32.57C151.332 32.414 151.41 32.336 151.566 32.336H152.484C152.64 32.336 152.718 32.414 152.718 32.57ZM165.916 23.426H166.726C166.894 23.426 166.978 23.504 166.978 23.66V32.336C166.978 33.176 166.744 33.83 166.276 34.298C165.808 34.766 165.16 35 164.332 35H162.334C161.506 35 160.852 34.766 160.372 34.298C159.904 33.83 159.67 33.176 159.67 32.336V23.678C159.67 23.51 159.754 23.426 159.922 23.426H160.732C160.9 23.426 160.984 23.51 160.984 23.678V32.282C160.984 33.326 161.482 33.848 162.478 33.848H164.17C165.178 33.848 165.682 33.326 165.682 32.282V23.678C165.682 23.51 165.76 23.426 165.916 23.426ZM174.749 25.82H175.649C175.745 25.82 175.805 25.85 175.829 25.91C175.865 25.958 175.853 26.024 175.793 26.108L173.147 30.212V30.284L176.063 34.712C176.111 34.796 176.117 34.868 176.081 34.928C176.045 34.976 175.979 35 175.883 35H175.037C174.809 35 174.641 34.916 174.533 34.748L171.761 30.464C171.689 30.344 171.689 30.218 171.761 30.086L174.317 26.054C174.389 25.898 174.533 25.82 174.749 25.82ZM170.609 35H169.799C169.631 35 169.547 34.916 169.547 34.748V22.598C169.547 22.43 169.631 22.346 169.799 22.346H170.609C170.777 22.346 170.861 22.43 170.861 22.598V34.748C170.861 34.916 170.777 35 170.609 35ZM178.589 35H177.779C177.611 35 177.527 34.916 177.527 34.748V26.072C177.527 25.904 177.611 25.82 177.779 25.82H178.589C178.757 25.82 178.841 25.904 178.841 26.072V26.792H178.913C179.033 26.528 179.261 26.3 179.597 26.108C179.933 25.916 180.329 25.82 180.785 25.82H181.487C181.643 25.82 181.721 25.904 181.721 26.072V26.738C181.721 26.822 181.703 26.888 181.667 26.936C181.631 26.972 181.571 26.984 181.487 26.972H180.515C179.975 26.972 179.561 27.134 179.273 27.458C178.985 27.782 178.841 28.226 178.841 28.79V34.748C178.841 34.916 178.757 35 178.589 35ZM186.766 35H185.83C185.002 35 184.348 34.766 183.868 34.298C183.4 33.83 183.166 33.176 183.166 32.336V28.484C183.166 27.644 183.4 26.99 183.868 26.522C184.348 26.054 185.002 25.82 185.83 25.82H189.736C189.904 25.82 189.988 25.904 189.988 26.072V34.748C189.988 34.916 189.904 35 189.736 35H188.926C188.758 35 188.674 34.916 188.674 34.748V34.046H188.602C188.302 34.682 187.69 35 186.766 35ZM188.674 32.192V27.134C188.674 27.026 188.614 26.972 188.494 26.972H185.974C184.978 26.972 184.48 27.494 184.48 28.538V32.282C184.48 33.326 184.978 33.848 185.974 33.848H187C187.54 33.848 187.954 33.704 188.242 33.416C188.53 33.128 188.674 32.72 188.674 32.192ZM192.559 24.308V22.616C192.559 22.448 192.637 22.364 192.793 22.364H193.621C193.789 22.364 193.873 22.448 193.873 22.616V24.308C193.873 24.476 193.789 24.56 193.621 24.56H192.793C192.637 24.56 192.559 24.476 192.559 24.308ZM192.559 34.748V26.072C192.559 25.904 192.637 25.82 192.793 25.82H193.621C193.789 25.82 193.873 25.904 193.873 26.072V34.748C193.873 34.916 193.789 35 193.621 35H192.811C192.643 35 192.559 34.916 192.559 34.748ZM197.503 35H196.693C196.525 35 196.441 34.916 196.441 34.748V26.072C196.441 25.904 196.525 25.82 196.693 25.82H197.503C197.671 25.82 197.755 25.904 197.755 26.072V26.774H197.827C198.127 26.138 198.739 25.82 199.663 25.82H200.671C201.487 25.82 202.123 26.054 202.579 26.522C203.035 26.99 203.263 27.644 203.263 28.484V34.748C203.263 34.916 203.179 35 203.011 35H202.201C202.033 35 201.949 34.916 201.949 34.748V28.538C201.949 27.494 201.445 26.972 200.437 26.972H199.429C198.889 26.972 198.475 27.116 198.187 27.404C197.899 27.692 197.755 28.1 197.755 28.628V34.748C197.755 34.916 197.671 35 197.503 35ZM211.952 35H208.136C207.308 35 206.654 34.766 206.174 34.298C205.706 33.83 205.472 33.176 205.472 32.336V28.484C205.472 27.644 205.706 26.99 206.174 26.522C206.654 26.054 207.308 25.82 208.136 25.82H209.648C210.476 25.82 211.124 26.054 211.592 26.522C212.06 26.99 212.294 27.644 212.294 28.484V30.77C212.294 30.95 212.21 31.04 212.042 31.04H206.948C206.828 31.04 206.768 31.094 206.768 31.202V32.3C206.768 33.344 207.272 33.866 208.28 33.866H211.952C212.12 33.866 212.204 33.95 212.204 34.118V34.766C212.204 34.922 212.12 35 211.952 35ZM206.948 30.086H210.836C210.956 30.086 211.016 30.026 211.016 29.906V28.52C211.016 27.488 210.512 26.972 209.504 26.972H208.28C207.272 26.972 206.768 27.488 206.768 28.52V29.906C206.768 30.026 206.828 30.086 206.948 30.086Z" fill="black"/>
<path d="M120 36.8H213.266V37.7H120V36.8Z" fill="black"/>
<path d="M220 18H239C241.761 18 244 20.2386 244 23V36C244 38.7614 241.761 41 239 41H220V18Z" fill="#999999"/>
<g clip-path="url(#clip0)">
<path d="M228.07 27.322L231.583 33.1779C231.772 33.4923 232.227 33.4923 232.416 33.1779L235.93 27.322C236.124 26.9982 235.891 26.5863 235.513 26.5863H228.486C228.108 26.5863 227.875 26.9982 228.07 27.322Z" fill="black"/>
</g>
<path d="M0 50.5H777" stroke="black" stroke-opacity="0.25"/>
<path d="M0 134.5H777" stroke="black" stroke-opacity="0.25"/>
<path d="M0 223.5H777" stroke="black" stroke-opacity="0.25"/>
<rect y="50" width="752" height="85" fill="#EBE9E9"/>
<rect x="0.5" y="50.5" width="751" height="84" stroke="black" stroke-opacity="0.25"/>
<g clip-path="url(#clip1)">
<path d="M73.0995 76.5906L51.3056 66.0694C51.1124 65.9762 50.8874 65.9762 50.6943 66.0694L28.9003 76.5906C28.6573 76.7079 28.5029 76.954 28.5029 77.2238V102.775C28.5029 103.045 28.6573 103.291 28.9003 103.408L50.6942 113.93C50.7908 113.976 50.8954 114 50.9999 114C51.1045 114 51.209 113.976 51.3056 113.93L73.0995 103.408C73.3425 103.291 73.4969 103.045 73.4969 102.775V77.2239C73.4969 76.9539 73.3424 76.708 73.0995 76.5906ZM50.9999 67.4834L71.1765 77.2238L65.3277 80.0473C65.2907 80.0191 65.2516 79.9931 65.2087 79.9723L45.1691 70.2983L50.9999 67.4834ZM43.5812 71.0933L63.7285 80.8195L59.6021 82.8116L39.4631 73.0893L43.5812 71.0933ZM64.1998 82.1533V89.517L60.3455 91.3778V84.0141L64.1998 82.1533ZM72.0907 102.334L51.7031 112.176V88.1862L56.5661 85.8385C56.9158 85.6697 57.0625 85.2494 56.8936 84.8996C56.7248 84.5501 56.3045 84.4032 55.9547 84.5722L50.9999 86.9642L49.0503 86.023C48.7005 85.8539 48.2802 86.0007 48.1114 86.3504C47.9426 86.7001 48.0892 87.1205 48.4389 87.2893L50.2968 88.1862V112.176L29.9092 102.334V78.344L45.4342 85.8388C45.5327 85.8865 45.6369 85.909 45.7393 85.909C46.0007 85.909 46.2518 85.7625 46.373 85.5114C46.5418 85.1617 46.3952 84.7413 46.0455 84.5725L30.8233 77.2238L37.8082 73.8518L58.9295 84.0483C58.9326 84.0526 58.9361 84.0565 58.9392 84.0607V92.4981C58.9392 92.74 59.0636 92.965 59.2686 93.0937C59.3824 93.1651 59.5122 93.2012 59.6425 93.2012C59.7467 93.2012 59.8512 93.178 59.9481 93.1313L65.2087 90.5917C65.4517 90.4744 65.6061 90.2284 65.6061 89.9585V81.4746L72.0907 78.3441V102.334Z" fill="black"/>
<path d="M35.7117 99.6074L32.5134 98.0634C32.1635 97.8944 31.7433 98.0412 31.5745 98.3909C31.4057 98.7406 31.5523 99.161 31.902 99.3298L35.1002 100.874C35.1988 100.921 35.3029 100.944 35.4054 100.944C35.6668 100.944 35.9178 100.797 36.0391 100.546C36.208 100.197 36.0614 99.7763 35.7117 99.6074Z" fill="black"/>
<path d="M38.6551 97.6915L32.5177 94.7286C32.168 94.5597 31.7477 94.7064 31.5788 95.0561C31.4101 95.4058 31.5567 95.8262 31.9064 95.995L38.0437 98.9579C38.1423 99.0055 38.2464 99.028 38.3489 99.028C38.6103 99.028 38.8613 98.8816 38.9826 98.6305C39.1514 98.2806 39.0048 97.8602 38.6551 97.6915Z" fill="black"/>
</g>
<path d="M115.574 98H113.954V92.006H107.366V98H105.746V85.148H107.366V90.584H113.954V85.148H115.574V98ZM127.26 93.158C127.26 94.754 126.852 95.99 126.036 96.866C125.232 97.742 124.14 98.18 122.76 98.18C121.908 98.18 121.146 97.988 120.474 97.604C119.814 97.208 119.292 96.638 118.908 95.894C118.524 95.138 118.332 94.226 118.332 93.158C118.332 91.562 118.734 90.332 119.538 89.468C120.342 88.604 121.434 88.172 122.814 88.172C123.69 88.172 124.458 88.37 125.118 88.766C125.79 89.15 126.312 89.714 126.684 90.458C127.068 91.19 127.26 92.09 127.26 93.158ZM119.97 93.158C119.97 94.298 120.192 95.204 120.636 95.876C121.092 96.536 121.812 96.866 122.796 96.866C123.768 96.866 124.482 96.536 124.938 95.876C125.394 95.204 125.622 94.298 125.622 93.158C125.622 92.018 125.394 91.124 124.938 90.476C124.482 89.828 123.762 89.504 122.778 89.504C121.794 89.504 121.08 89.828 120.636 90.476C120.192 91.124 119.97 92.018 119.97 93.158ZM137.528 90.782C137.528 91.382 137.348 91.85 136.988 92.186C136.628 92.522 136.166 92.75 135.602 92.87V92.942C136.202 93.026 136.724 93.242 137.168 93.59C137.612 93.926 137.834 94.454 137.834 95.174C137.834 95.99 137.528 96.668 136.916 97.208C136.316 97.736 135.32 98 133.928 98H129.77V88.352H133.91C134.594 88.352 135.206 88.43 135.746 88.586C136.298 88.73 136.73 88.982 137.042 89.342C137.366 89.69 137.528 90.17 137.528 90.782ZM135.926 90.98C135.926 90.524 135.758 90.194 135.422 89.99C135.098 89.774 134.564 89.666 133.82 89.666H131.354V92.312H133.532C135.128 92.312 135.926 91.868 135.926 90.98ZM136.196 95.174C136.196 94.622 135.986 94.226 135.566 93.986C135.146 93.746 134.528 93.626 133.712 93.626H131.354V96.722H133.748C134.54 96.722 135.146 96.608 135.566 96.38C135.986 96.14 136.196 95.738 136.196 95.174ZM143.795 88.19C144.971 88.19 145.841 88.448 146.405 88.964C146.969 89.48 147.251 90.302 147.251 91.43V98H146.099L145.793 96.632H145.721C145.301 97.16 144.857 97.55 144.389 97.802C143.933 98.054 143.297 98.18 142.481 98.18C141.605 98.18 140.879 97.952 140.303 97.496C139.727 97.028 139.439 96.302 139.439 95.318C139.439 94.358 139.817 93.62 140.573 93.104C141.329 92.576 142.493 92.288 144.065 92.24L145.703 92.186V91.61C145.703 90.806 145.529 90.248 145.181 89.936C144.833 89.624 144.341 89.468 143.705 89.468C143.201 89.468 142.721 89.546 142.265 89.702C141.809 89.846 141.383 90.014 140.987 90.206L140.501 89.018C140.921 88.79 141.419 88.598 141.995 88.442C142.571 88.274 143.171 88.19 143.795 88.19ZM145.685 93.284L144.263 93.338C143.063 93.386 142.229 93.578 141.761 93.914C141.305 94.25 141.077 94.724 141.077 95.336C141.077 95.876 141.239 96.272 141.563 96.524C141.899 96.776 142.325 96.902 142.841 96.902C143.657 96.902 144.335 96.68 144.875 96.236C145.415 95.78 145.685 95.084 145.685 94.148V93.284ZM150.825 98H148.989L151.743 93.95C151.371 93.854 151.011 93.704 150.663 93.5C150.315 93.284 150.033 92.99 149.817 92.618C149.601 92.234 149.493 91.76 149.493 91.196C149.493 90.272 149.805 89.57 150.429 89.09C151.053 88.598 151.881 88.352 152.913 88.352H157.233V98H155.649V94.166H153.309L150.825 98ZM151.023 91.214C151.023 91.766 151.227 92.18 151.635 92.456C152.055 92.72 152.637 92.852 153.381 92.852H155.649V89.666H153.075C152.343 89.666 151.815 89.81 151.491 90.098C151.179 90.386 151.023 90.758 151.023 91.214ZM165.072 98V85.148H174.72V98H173.118V86.57H166.692V98H165.072ZM186.41 93.158C186.41 94.754 186.002 95.99 185.186 96.866C184.382 97.742 183.29 98.18 181.91 98.18C181.058 98.18 180.296 97.988 179.624 97.604C178.964 97.208 178.442 96.638 178.058 95.894C177.674 95.138 177.482 94.226 177.482 93.158C177.482 91.562 177.884 90.332 178.688 89.468C179.492 88.604 180.584 88.172 181.964 88.172C182.84 88.172 183.608 88.37 184.268 88.766C184.94 89.15 185.462 89.714 185.834 90.458C186.218 91.19 186.41 92.09 186.41 93.158ZM179.12 93.158C179.12 94.298 179.342 95.204 179.786 95.876C180.242 96.536 180.962 96.866 181.946 96.866C182.918 96.866 183.632 96.536 184.088 95.876C184.544 95.204 184.772 94.298 184.772 93.158C184.772 92.018 184.544 91.124 184.088 90.476C183.632 89.828 182.912 89.504 181.928 89.504C180.944 89.504 180.23 89.828 179.786 90.476C179.342 91.124 179.12 92.018 179.12 93.158ZM190.131 88.352V91.862C190.131 92.966 190.749 93.518 191.985 93.518C192.585 93.518 193.131 93.428 193.623 93.248C194.115 93.056 194.619 92.804 195.135 92.492V88.352H196.719V98H195.135V93.698C194.595 94.046 194.061 94.322 193.533 94.526C193.017 94.718 192.393 94.814 191.661 94.814C190.677 94.814 189.909 94.556 189.357 94.04C188.817 93.524 188.547 92.834 188.547 91.97V88.352H190.131ZM206.444 89.684H203.294V98H201.728V89.684H198.614V88.352H206.444V89.684ZM211.998 88.19C213.174 88.19 214.044 88.448 214.608 88.964C215.172 89.48 215.454 90.302 215.454 91.43V98H214.302L213.996 96.632H213.924C213.504 97.16 213.06 97.55 212.592 97.802C212.136 98.054 211.5 98.18 210.684 98.18C209.808 98.18 209.082 97.952 208.506 97.496C207.93 97.028 207.642 96.302 207.642 95.318C207.642 94.358 208.02 93.62 208.776 93.104C209.532 92.576 210.696 92.288 212.268 92.24L213.906 92.186V91.61C213.906 90.806 213.732 90.248 213.384 89.936C213.036 89.624 212.544 89.468 211.908 89.468C211.404 89.468 210.924 89.546 210.468 89.702C210.012 89.846 209.586 90.014 209.19 90.206L208.704 89.018C209.124 88.79 209.622 88.598 210.198 88.442C210.774 88.274 211.374 88.19 211.998 88.19ZM213.888 93.284L212.466 93.338C211.266 93.386 210.432 93.578 209.964 93.914C209.508 94.25 209.28 94.724 209.28 95.336C209.28 95.876 209.442 96.272 209.766 96.524C210.102 96.776 210.528 96.902 211.044 96.902C211.86 96.902 212.538 96.68 213.078 96.236C213.618 95.78 213.888 95.084 213.888 94.148V93.284ZM223.185 98V85.148H225.003L230.853 95.732H230.925C230.913 95.42 230.895 95.06 230.871 94.652C230.847 94.244 230.829 93.836 230.817 93.428C230.805 93.008 230.799 92.648 230.799 92.348V85.148H232.221V98H230.457L224.535 87.38H224.463C224.487 87.692 224.505 88.064 224.517 88.496C224.541 88.916 224.559 89.336 224.571 89.756C224.595 90.176 224.607 90.548 224.607 90.872V98H223.185ZM236.235 95.588C235.467 95.588 234.831 95.324 234.327 94.796C233.823 94.268 233.571 93.512 233.571 92.528C233.571 91.544 233.811 90.794 234.291 90.278C234.783 89.75 235.449 89.486 236.289 89.486C237.057 89.486 237.693 89.744 238.197 90.26C238.713 90.776 238.971 91.532 238.971 92.528C238.971 93.512 238.725 94.268 238.233 94.796C237.741 95.324 237.075 95.588 236.235 95.588ZM236.271 94.544C236.799 94.544 237.177 94.376 237.405 94.04C237.633 93.692 237.747 93.188 237.747 92.528C237.747 91.856 237.633 91.364 237.405 91.052C237.177 90.728 236.799 90.566 236.271 90.566C235.755 90.566 235.377 90.728 235.137 91.052C234.897 91.364 234.777 91.856 234.777 92.528C234.777 93.188 234.891 93.692 235.119 94.04C235.359 94.376 235.743 94.544 236.271 94.544ZM233.931 98V96.758H238.557V98H233.931ZM240.42 88.91V88.19C240.42 88.01 240.492 87.878 240.636 87.794L242.724 86.588C242.916 86.48 243.072 86.426 243.192 86.426H243.948C244.116 86.426 244.2 86.51 244.2 86.678V97.748C244.2 97.916 244.116 98 243.948 98H243.138C242.97 98 242.886 97.916 242.886 97.748V87.83L240.744 89.054C240.528 89.174 240.42 89.126 240.42 88.91ZM248.075 95.57V96.992C248.075 97.256 247.985 97.604 247.805 98.036L247.085 99.728C247.025 99.824 246.953 99.872 246.869 99.872C246.749 99.872 246.689 99.794 246.689 99.638V95.57C246.689 95.414 246.767 95.336 246.923 95.336H247.841C247.997 95.336 248.075 95.414 248.075 95.57ZM253.713 88.352H255.405L257.493 93.842C257.673 94.322 257.835 94.784 257.979 95.228C258.123 95.66 258.231 96.074 258.303 96.47H258.375C258.447 96.17 258.561 95.78 258.717 95.3C258.873 94.808 259.035 94.316 259.203 93.824L261.165 88.352H262.875L258.717 99.332C258.381 100.244 257.943 100.97 257.403 101.51C256.875 102.05 256.143 102.32 255.207 102.32C254.919 102.32 254.667 102.302 254.451 102.266C254.235 102.242 254.049 102.212 253.893 102.176V100.916C254.025 100.94 254.181 100.964 254.361 100.988C254.553 101.012 254.751 101.024 254.955 101.024C255.507 101.024 255.951 100.868 256.287 100.556C256.635 100.244 256.905 99.83 257.097 99.314L257.601 98.036L253.713 88.352ZM271.394 98H269.792V89.666H266.948C266.792 91.694 266.576 93.332 266.3 94.58C266.024 95.816 265.658 96.716 265.202 97.28C264.746 97.844 264.17 98.126 263.474 98.126C263.318 98.126 263.162 98.114 263.006 98.09C262.862 98.078 262.742 98.048 262.646 98V96.812C262.718 96.836 262.796 96.854 262.88 96.866C262.964 96.878 263.048 96.884 263.132 96.884C263.78 96.884 264.296 96.194 264.68 94.814C265.076 93.434 265.376 91.28 265.58 88.352H271.394V98ZM275.374 95.57V97.748C275.374 97.916 275.296 98 275.14 98H274.222C274.066 98 273.988 97.916 273.988 97.748V95.57C273.988 95.414 274.066 95.336 274.222 95.336H275.14C275.296 95.336 275.374 95.414 275.374 95.57ZM282.74 98V85.148H292.388V98H290.786V86.57H284.36V98H282.74ZM297.184 88.352V94.238C297.184 94.382 297.178 94.598 297.166 94.886C297.154 95.174 297.136 95.462 297.112 95.75C297.1 96.038 297.088 96.266 297.076 96.434L302.242 88.352H304.186V98H302.71V92.312C302.71 92.12 302.71 91.868 302.71 91.556C302.722 91.244 302.734 90.938 302.746 90.638C302.758 90.326 302.77 90.092 302.782 89.936L297.652 98H295.69V88.352H297.184ZM311.847 88.172C313.035 88.172 313.989 88.586 314.709 89.414C315.441 90.242 315.807 91.49 315.807 93.158C315.807 94.802 315.441 96.05 314.709 96.902C313.989 97.754 313.029 98.18 311.829 98.18C311.085 98.18 310.467 98.042 309.975 97.766C309.495 97.478 309.117 97.148 308.841 96.776H308.733C308.757 96.98 308.781 97.238 308.805 97.55C308.829 97.862 308.841 98.132 308.841 98.36V102.32H307.257V88.352H308.553L308.769 89.666H308.841C309.129 89.246 309.507 88.892 309.975 88.604C310.443 88.316 311.067 88.172 311.847 88.172ZM311.559 89.504C310.575 89.504 309.879 89.78 309.471 90.332C309.075 90.884 308.865 91.724 308.841 92.852V93.158C308.841 94.346 309.033 95.264 309.417 95.912C309.813 96.548 310.539 96.866 311.595 96.866C312.183 96.866 312.663 96.704 313.035 96.38C313.419 96.056 313.701 95.618 313.881 95.066C314.073 94.502 314.169 93.86 314.169 93.14C314.169 92.036 313.953 91.154 313.521 90.494C313.101 89.834 312.447 89.504 311.559 89.504ZM326.719 93.158C326.719 94.754 326.311 95.99 325.495 96.866C324.691 97.742 323.599 98.18 322.219 98.18C321.367 98.18 320.605 97.988 319.933 97.604C319.273 97.208 318.751 96.638 318.367 95.894C317.983 95.138 317.791 94.226 317.791 93.158C317.791 91.562 318.193 90.332 318.997 89.468C319.801 88.604 320.893 88.172 322.273 88.172C323.149 88.172 323.917 88.37 324.577 88.766C325.249 89.15 325.771 89.714 326.143 90.458C326.527 91.19 326.719 92.09 326.719 93.158ZM319.429 93.158C319.429 94.298 319.651 95.204 320.095 95.876C320.551 96.536 321.271 96.866 322.255 96.866C323.227 96.866 323.941 96.536 324.397 95.876C324.853 95.204 325.081 94.298 325.081 93.158C325.081 92.018 324.853 91.124 324.397 90.476C323.941 89.828 323.221 89.504 322.237 89.504C321.253 89.504 320.539 89.828 320.095 90.476C319.651 91.124 319.429 92.018 319.429 93.158ZM335.115 88.352V89.684H330.813V98H329.229V88.352H335.115ZM345.229 93.158C345.229 94.754 344.821 95.99 344.005 96.866C343.201 97.742 342.109 98.18 340.729 98.18C339.877 98.18 339.115 97.988 338.443 97.604C337.783 97.208 337.261 96.638 336.877 95.894C336.493 95.138 336.301 94.226 336.301 93.158C336.301 91.562 336.703 90.332 337.507 89.468C338.311 88.604 339.403 88.172 340.783 88.172C341.659 88.172 342.427 88.37 343.087 88.766C343.759 89.15 344.281 89.714 344.653 90.458C345.037 91.19 345.229 92.09 345.229 93.158ZM337.939 93.158C337.939 94.298 338.161 95.204 338.605 95.876C339.061 96.536 339.781 96.866 340.765 96.866C341.737 96.866 342.451 96.536 342.907 95.876C343.363 95.204 343.591 94.298 343.591 93.158C343.591 92.018 343.363 91.124 342.907 90.476C342.451 89.828 341.731 89.504 340.747 89.504C339.763 89.504 339.049 89.828 338.605 90.476C338.161 91.124 337.939 92.018 337.939 93.158ZM355.497 90.782C355.497 91.382 355.317 91.85 354.957 92.186C354.597 92.522 354.135 92.75 353.571 92.87V92.942C354.171 93.026 354.693 93.242 355.137 93.59C355.581 93.926 355.803 94.454 355.803 95.174C355.803 95.99 355.497 96.668 354.885 97.208C354.285 97.736 353.289 98 351.897 98H347.739V88.352H351.879C352.563 88.352 353.175 88.43 353.715 88.586C354.267 88.73 354.699 88.982 355.011 89.342C355.335 89.69 355.497 90.17 355.497 90.782ZM353.895 90.98C353.895 90.524 353.727 90.194 353.391 89.99C353.067 89.774 352.533 89.666 351.789 89.666H349.323V92.312H351.501C353.097 92.312 353.895 91.868 353.895 90.98ZM354.165 95.174C354.165 94.622 353.955 94.226 353.535 93.986C353.115 93.746 352.497 93.626 351.681 93.626H349.323V96.722H351.717C352.509 96.722 353.115 96.608 353.535 96.38C353.955 96.14 354.165 95.738 354.165 95.174ZM361.764 88.19C362.94 88.19 363.81 88.448 364.374 88.964C364.938 89.48 365.22 90.302 365.22 91.43V98H364.068L363.762 96.632H363.69C363.27 97.16 362.826 97.55 362.358 97.802C361.902 98.054 361.266 98.18 360.45 98.18C359.574 98.18 358.848 97.952 358.272 97.496C357.696 97.028 357.408 96.302 357.408 95.318C357.408 94.358 357.786 93.62 358.542 93.104C359.298 92.576 360.462 92.288 362.034 92.24L363.672 92.186V91.61C363.672 90.806 363.498 90.248 363.15 89.936C362.802 89.624 362.31 89.468 361.674 89.468C361.17 89.468 360.69 89.546 360.234 89.702C359.778 89.846 359.352 90.014 358.956 90.206L358.47 89.018C358.89 88.79 359.388 88.598 359.964 88.442C360.54 88.274 361.14 88.19 361.764 88.19ZM363.654 93.284L362.232 93.338C361.032 93.386 360.198 93.578 359.73 93.914C359.274 94.25 359.046 94.724 359.046 95.336C359.046 95.876 359.208 96.272 359.532 96.524C359.868 96.776 360.294 96.902 360.81 96.902C361.626 96.902 362.304 96.68 362.844 96.236C363.384 95.78 363.654 95.084 363.654 94.148V93.284Z" fill="black"/>
<g clip-path="url(#clip2)">
<path d="M73.0995 166.591L51.3056 156.069C51.1124 155.976 50.8874 155.976 50.6943 156.069L28.9003 166.591C28.6573 166.708 28.5029 166.954 28.5029 167.224V192.775C28.5029 193.045 28.6573 193.291 28.9003 193.408L50.6942 203.93C50.7908 203.976 50.8954 204 50.9999 204C51.1045 204 51.209 203.976 51.3056 203.93L73.0995 193.408C73.3425 193.291 73.4969 193.045 73.4969 192.775V167.224C73.4969 166.954 73.3424 166.708 73.0995 166.591ZM50.9999 157.483L71.1765 167.224L65.3277 170.047C65.2907 170.019 65.2516 169.993 65.2087 169.972L45.1691 160.298L50.9999 157.483ZM43.5812 161.093L63.7285 170.819L59.6021 172.812L39.4631 163.089L43.5812 161.093ZM64.1998 172.153V179.517L60.3455 181.378V174.014L64.1998 172.153ZM72.0907 192.334L51.7031 202.176V178.186L56.5661 175.839C56.9158 175.67 57.0625 175.249 56.8936 174.9C56.7248 174.55 56.3045 174.403 55.9547 174.572L50.9999 176.964L49.0503 176.023C48.7005 175.854 48.2802 176.001 48.1114 176.35C47.9426 176.7 48.0892 177.12 48.4389 177.289L50.2968 178.186V202.176L29.9092 192.334V168.344L45.4342 175.839C45.5327 175.886 45.6369 175.909 45.7393 175.909C46.0007 175.909 46.2518 175.763 46.373 175.511C46.5418 175.162 46.3952 174.741 46.0455 174.572L30.8233 167.224L37.8082 163.852L58.9295 174.048C58.9326 174.053 58.9361 174.056 58.9392 174.061V182.498C58.9392 182.74 59.0636 182.965 59.2686 183.094C59.3824 183.165 59.5122 183.201 59.6425 183.201C59.7467 183.201 59.8512 183.178 59.9481 183.131L65.2087 180.592C65.4517 180.474 65.6061 180.228 65.6061 179.958V171.475L72.0907 168.344V192.334Z" fill="black"/>
<path d="M35.7117 189.607L32.5134 188.063C32.1635 187.894 31.7433 188.041 31.5745 188.391C31.4057 188.741 31.5523 189.161 31.902 189.33L35.1002 190.874C35.1988 190.921 35.3029 190.944 35.4054 190.944C35.6668 190.944 35.9178 190.797 36.0391 190.546C36.208 190.197 36.0614 189.776 35.7117 189.607Z" fill="black"/>
<path d="M38.6551 187.691L32.5177 184.729C32.168 184.56 31.7477 184.706 31.5788 185.056C31.4101 185.406 31.5567 185.826 31.9064 185.995L38.0437 188.958C38.1423 189.005 38.2464 189.028 38.3489 189.028C38.6103 189.028 38.8613 188.882 38.9826 188.63C39.1514 188.281 39.0048 187.86 38.6551 187.691Z" fill="black"/>
</g>
<path d="M115.232 175.148L111.128 184.346C110.744 185.198 110.354 185.912 109.958 186.488C109.574 187.052 109.118 187.478 108.59 187.766C108.062 188.042 107.39 188.18 106.574 188.18C106.238 188.18 105.92 188.156 105.62 188.108C105.332 188.06 105.068 187.994 104.828 187.91V186.308C105.068 186.416 105.326 186.506 105.602 186.578C105.878 186.638 106.166 186.668 106.466 186.668C107.138 186.668 107.666 186.524 108.05 186.236C108.446 185.948 108.812 185.438 109.148 184.706L104.198 175.148H105.98L109.562 182.222C109.622 182.342 109.694 182.498 109.778 182.69C109.862 182.87 109.934 183.044 109.994 183.212H110.066C110.114 183.08 110.174 182.924 110.246 182.744C110.318 182.552 110.378 182.396 110.426 182.276L113.522 175.148H115.232ZM122.468 178.352H124.196L120.074 182.996L124.538 188H122.702L118.346 183.104V188H116.762V178.352H118.346V183.032L122.468 178.352ZM130.88 178.172C132.068 178.172 133.022 178.586 133.742 179.414C134.474 180.242 134.84 181.49 134.84 183.158C134.84 184.802 134.474 186.05 133.742 186.902C133.022 187.754 132.062 188.18 130.862 188.18C130.118 188.18 129.5 188.042 129.008 187.766C128.528 187.478 128.15 187.148 127.874 186.776H127.766C127.79 186.98 127.814 187.238 127.838 187.55C127.862 187.862 127.874 188.132 127.874 188.36V192.32H126.29V178.352H127.586L127.802 179.666H127.874C128.162 179.246 128.54 178.892 129.008 178.604C129.476 178.316 130.1 178.172 130.88 178.172ZM130.592 179.504C129.608 179.504 128.912 179.78 128.504 180.332C128.108 180.884 127.898 181.724 127.874 182.852V183.158C127.874 184.346 128.066 185.264 128.45 185.912C128.846 186.548 129.572 186.866 130.628 186.866C131.216 186.866 131.696 186.704 132.068 186.38C132.452 186.056 132.734 185.618 132.914 185.066C133.106 184.502 133.202 183.86 133.202 183.14C133.202 182.036 132.986 181.154 132.554 180.494C132.134 179.834 131.48 179.504 130.592 179.504ZM137.58 188V175.148H147.228V188H145.626V176.57H139.2V188H137.58ZM158.918 183.158C158.918 184.754 158.51 185.99 157.694 186.866C156.89 187.742 155.798 188.18 154.418 188.18C153.566 188.18 152.804 187.988 152.132 187.604C151.472 187.208 150.95 186.638 150.566 185.894C150.182 185.138 149.99 184.226 149.99 183.158C149.99 181.562 150.392 180.332 151.196 179.468C152 178.604 153.092 178.172 154.472 178.172C155.348 178.172 156.116 178.37 156.776 178.766C157.448 179.15 157.97 179.714 158.342 180.458C158.726 181.19 158.918 182.09 158.918 183.158ZM151.628 183.158C151.628 184.298 151.85 185.204 152.294 185.876C152.75 186.536 153.47 186.866 154.454 186.866C155.426 186.866 156.14 186.536 156.596 185.876C157.052 185.204 157.28 184.298 157.28 183.158C157.28 182.018 157.052 181.124 156.596 180.476C156.14 179.828 155.42 179.504 154.436 179.504C153.452 179.504 152.738 179.828 152.294 180.476C151.85 181.124 151.628 182.018 151.628 183.158ZM162.639 178.352V181.862C162.639 182.966 163.257 183.518 164.493 183.518C165.093 183.518 165.639 183.428 166.131 183.248C166.623 183.056 167.127 182.804 167.643 182.492V178.352H169.227V188H167.643V183.698C167.103 184.046 166.569 184.322 166.041 184.526C165.525 184.718 164.901 184.814 164.169 184.814C163.185 184.814 162.417 184.556 161.865 184.04C161.325 183.524 161.055 182.834 161.055 181.97V178.352H162.639ZM178.952 179.684H175.802V188H174.236V179.684H171.122V178.352H178.952V179.684ZM184.506 178.19C185.682 178.19 186.552 178.448 187.116 178.964C187.68 179.48 187.962 180.302 187.962 181.43V188H186.81L186.504 186.632H186.432C186.012 187.16 185.568 187.55 185.1 187.802C184.644 188.054 184.008 188.18 183.192 188.18C182.316 188.18 181.59 187.952 181.014 187.496C180.438 187.028 180.15 186.302 180.15 185.318C180.15 184.358 180.528 183.62 181.284 183.104C182.04 182.576 183.204 182.288 184.776 182.24L186.414 182.186V181.61C186.414 180.806 186.24 180.248 185.892 179.936C185.544 179.624 185.052 179.468 184.416 179.468C183.912 179.468 183.432 179.546 182.976 179.702C182.52 179.846 182.094 180.014 181.698 180.206L181.212 179.018C181.632 178.79 182.13 178.598 182.706 178.442C183.282 178.274 183.882 178.19 184.506 178.19ZM186.396 183.284L184.974 183.338C183.774 183.386 182.94 183.578 182.472 183.914C182.016 184.25 181.788 184.724 181.788 185.336C181.788 185.876 181.95 186.272 182.274 186.524C182.61 186.776 183.036 186.902 183.552 186.902C184.368 186.902 185.046 186.68 185.586 186.236C186.126 185.78 186.396 185.084 186.396 184.148V183.284ZM195.692 188V175.148H197.51L203.36 185.732H203.432C203.42 185.42 203.402 185.06 203.378 184.652C203.354 184.244 203.336 183.836 203.324 183.428C203.312 183.008 203.306 182.648 203.306 182.348V175.148H204.728V188H202.964L197.042 177.38H196.97C196.994 177.692 197.012 178.064 197.024 178.496C197.048 178.916 197.066 179.336 197.078 179.756C197.102 180.176 197.114 180.548 197.114 180.872V188H195.692ZM208.742 185.588C207.974 185.588 207.338 185.324 206.834 184.796C206.33 184.268 206.078 183.512 206.078 182.528C206.078 181.544 206.318 180.794 206.798 180.278C207.29 179.75 207.956 179.486 208.796 179.486C209.564 179.486 210.2 179.744 210.704 180.26C211.22 180.776 211.478 181.532 211.478 182.528C211.478 183.512 211.232 184.268 210.74 184.796C210.248 185.324 209.582 185.588 208.742 185.588ZM208.778 184.544C209.306 184.544 209.684 184.376 209.912 184.04C210.14 183.692 210.254 183.188 210.254 182.528C210.254 181.856 210.14 181.364 209.912 181.052C209.684 180.728 209.306 180.566 208.778 180.566C208.262 180.566 207.884 180.728 207.644 181.052C207.404 181.364 207.284 181.856 207.284 182.528C207.284 183.188 207.398 183.692 207.626 184.04C207.866 184.376 208.25 184.544 208.778 184.544ZM206.438 188V186.758H211.064V188H206.438ZM216.276 186.848H217.752C218.76 186.848 219.264 186.326 219.264 185.282V179.144C219.264 178.1 218.76 177.578 217.752 177.578H216.276C215.28 177.578 214.782 178.1 214.782 179.144V185.282C214.782 186.326 215.28 186.848 216.276 186.848ZM217.914 188H216.114C215.298 188 214.65 187.766 214.17 187.298C213.702 186.83 213.468 186.176 213.468 185.336V179.09C213.468 178.262 213.702 177.614 214.17 177.146C214.65 176.666 215.298 176.426 216.114 176.426H217.914C218.73 176.426 219.372 176.666 219.84 177.146C220.32 177.614 220.56 178.262 220.56 179.09V185.336C220.56 186.176 220.32 186.83 219.84 187.298C219.372 187.766 218.73 188 217.914 188ZM222.28 178.91V178.19C222.28 178.01 222.352 177.878 222.496 177.794L224.584 176.588C224.776 176.48 224.932 176.426 225.052 176.426H225.808C225.976 176.426 226.06 176.51 226.06 176.678V187.748C226.06 187.916 225.976 188 225.808 188H224.998C224.83 188 224.746 187.916 224.746 187.748V177.83L222.604 179.054C222.388 179.174 222.28 179.126 222.28 178.91ZM231.428 186.848H232.904C233.912 186.848 234.416 186.326 234.416 185.282V179.144C234.416 178.1 233.912 177.578 232.904 177.578H231.428C230.432 177.578 229.934 178.1 229.934 179.144V185.282C229.934 186.326 230.432 186.848 231.428 186.848ZM233.066 188H231.266C230.45 188 229.802 187.766 229.322 187.298C228.854 186.83 228.62 186.176 228.62 185.336V179.09C228.62 178.262 228.854 177.614 229.322 177.146C229.802 176.666 230.45 176.426 231.266 176.426H233.066C233.882 176.426 234.524 176.666 234.992 177.146C235.472 177.614 235.712 178.262 235.712 179.09V185.336C235.712 186.176 235.472 186.83 234.992 187.298C234.524 187.766 233.882 188 233.066 188ZM240.78 186.848H242.256C243.264 186.848 243.768 186.326 243.768 185.282V179.144C243.768 178.1 243.264 177.578 242.256 177.578H240.78C239.784 177.578 239.286 178.1 239.286 179.144V185.282C239.286 186.326 239.784 186.848 240.78 186.848ZM242.418 188H240.618C239.802 188 239.154 187.766 238.674 187.298C238.206 186.83 237.972 186.176 237.972 185.336V179.09C237.972 178.262 238.206 177.614 238.674 177.146C239.154 176.666 239.802 176.426 240.618 176.426H242.418C243.234 176.426 243.876 176.666 244.344 177.146C244.824 177.614 245.064 178.262 245.064 179.09V185.336C245.064 186.176 244.824 186.83 244.344 187.298C243.876 187.766 243.234 188 242.418 188ZM246.783 178.91V178.19C246.783 178.01 246.855 177.878 246.999 177.794L249.087 176.588C249.279 176.48 249.435 176.426 249.555 176.426H250.311C250.479 176.426 250.563 176.51 250.563 176.678V187.748C250.563 187.916 250.479 188 250.311 188H249.501C249.333 188 249.249 187.916 249.249 187.748V177.83L247.107 179.054C246.891 179.174 246.783 179.126 246.783 178.91ZM254.438 185.57V186.992C254.438 187.256 254.348 187.604 254.168 188.036L253.448 189.728C253.388 189.824 253.316 189.872 253.232 189.872C253.112 189.872 253.052 189.794 253.052 189.638V185.57C253.052 185.414 253.13 185.336 253.286 185.336H254.204C254.36 185.336 254.438 185.414 254.438 185.57ZM260.077 178.352H261.769L263.857 183.842C264.037 184.322 264.199 184.784 264.343 185.228C264.487 185.66 264.595 186.074 264.667 186.47H264.739C264.811 186.17 264.925 185.78 265.081 185.3C265.237 184.808 265.399 184.316 265.567 183.824L267.529 178.352H269.239L265.081 189.332C264.745 190.244 264.307 190.97 263.767 191.51C263.239 192.05 262.507 192.32 261.571 192.32C261.283 192.32 261.031 192.302 260.815 192.266C260.599 192.242 260.413 192.212 260.257 192.176V190.916C260.389 190.94 260.545 190.964 260.725 190.988C260.917 191.012 261.115 191.024 261.319 191.024C261.871 191.024 262.315 190.868 262.651 190.556C262.999 190.244 263.269 189.83 263.461 189.314L263.965 188.036L260.077 178.352ZM277.757 188H276.155V179.666H273.311C273.155 181.694 272.939 183.332 272.663 184.58C272.387 185.816 272.021 186.716 271.565 187.28C271.109 187.844 270.533 188.126 269.837 188.126C269.681 188.126 269.525 188.114 269.369 188.09C269.225 188.078 269.105 188.048 269.009 188V186.812C269.081 186.836 269.159 186.854 269.243 186.866C269.327 186.878 269.411 186.884 269.495 186.884C270.143 186.884 270.659 186.194 271.043 184.814C271.439 183.434 271.739 181.28 271.943 178.352H277.757V188ZM281.737 185.57V187.748C281.737 187.916 281.659 188 281.503 188H280.585C280.429 188 280.351 187.916 280.351 187.748V185.57C280.351 185.414 280.429 185.336 280.585 185.336H281.503C281.659 185.336 281.737 185.414 281.737 185.57ZM297.833 188H295.997L292.595 182.42L289.139 188H287.429L291.695 181.304L287.699 175.148H289.499L292.649 180.188L295.817 175.148H297.527L293.549 181.268L297.833 188ZM304.024 178.172C305.212 178.172 306.166 178.586 306.886 179.414C307.618 180.242 307.984 181.49 307.984 183.158C307.984 184.802 307.618 186.05 306.886 186.902C306.166 187.754 305.206 188.18 304.006 188.18C303.262 188.18 302.644 188.042 302.152 187.766C301.672 187.478 301.294 187.148 301.018 186.776H300.91C300.934 186.98 300.958 187.238 300.982 187.55C301.006 187.862 301.018 188.132 301.018 188.36V192.32H299.434V178.352H300.73L300.946 179.666H301.018C301.306 179.246 301.684 178.892 302.152 178.604C302.62 178.316 303.244 178.172 304.024 178.172ZM303.736 179.504C302.752 179.504 302.056 179.78 301.648 180.332C301.252 180.884 301.042 181.724 301.018 182.852V183.158C301.018 184.346 301.21 185.264 301.594 185.912C301.99 186.548 302.716 186.866 303.772 186.866C304.36 186.866 304.84 186.704 305.212 186.38C305.596 186.056 305.878 185.618 306.058 185.066C306.25 184.502 306.346 183.86 306.346 183.14C306.346 182.036 306.13 181.154 305.698 180.494C305.278 179.834 304.624 179.504 303.736 179.504ZM314.235 178.172C315.063 178.172 315.771 178.352 316.359 178.712C316.959 179.072 317.415 179.582 317.727 180.242C318.051 180.89 318.213 181.652 318.213 182.528V183.482H311.607C311.631 184.574 311.907 185.408 312.435 185.984C312.975 186.548 313.725 186.83 314.685 186.83C315.297 186.83 315.837 186.776 316.305 186.668C316.785 186.548 317.277 186.38 317.781 186.164V187.55C317.289 187.766 316.803 187.922 316.323 188.018C315.843 188.126 315.273 188.18 314.613 188.18C313.701 188.18 312.891 187.994 312.183 187.622C311.487 187.25 310.941 186.698 310.545 185.966C310.161 185.222 309.969 184.316 309.969 183.248C309.969 182.192 310.143 181.286 310.491 180.53C310.851 179.774 311.349 179.192 311.985 178.784C312.633 178.376 313.383 178.172 314.235 178.172ZM314.217 179.468C313.461 179.468 312.861 179.714 312.417 180.206C311.985 180.686 311.727 181.358 311.643 182.222H316.557C316.545 181.406 316.353 180.746 315.981 180.242C315.609 179.726 315.021 179.468 314.217 179.468ZM333.737 178.352V186.686H335.141V191.33H333.557V188H320.669V178.352H322.253V186.668H326.411V178.352H327.995V186.668H332.171V178.352H333.737ZM340.635 178.19C341.811 178.19 342.681 178.448 343.245 178.964C343.809 179.48 344.091 180.302 344.091 181.43V188H342.939L342.633 186.632H342.561C342.141 187.16 341.697 187.55 341.229 187.802C340.773 188.054 340.137 188.18 339.321 188.18C338.445 188.18 337.719 187.952 337.143 187.496C336.567 187.028 336.279 186.302 336.279 185.318C336.279 184.358 336.657 183.62 337.413 183.104C338.169 182.576 339.333 182.288 340.905 182.24L342.543 182.186V181.61C342.543 180.806 342.369 180.248 342.021 179.936C341.673 179.624 341.181 179.468 340.545 179.468C340.041 179.468 339.561 179.546 339.105 179.702C338.649 179.846 338.223 180.014 337.827 180.206L337.341 179.018C337.761 178.79 338.259 178.598 338.835 178.442C339.411 178.274 340.011 178.19 340.635 178.19ZM342.525 183.284L341.103 183.338C339.903 183.386 339.069 183.578 338.601 183.914C338.145 184.25 337.917 184.724 337.917 185.336C337.917 185.876 338.079 186.272 338.403 186.524C338.739 186.776 339.165 186.902 339.681 186.902C340.497 186.902 341.175 186.68 341.715 186.236C342.255 185.78 342.525 185.084 342.525 184.148V183.284ZM353.731 179.684H350.581V188H349.015V179.684H345.901V178.352H353.731V179.684ZM357.126 178.352V184.238C357.126 184.382 357.12 184.598 357.108 184.886C357.096 185.174 357.078 185.462 357.054 185.75C357.042 186.038 357.03 186.266 357.018 186.434L362.184 178.352H364.128V188H362.652V182.312C362.652 182.12 362.652 181.868 362.652 181.556C362.664 181.244 362.676 180.938 362.688 180.638C362.7 180.326 362.712 180.092 362.724 179.936L357.594 188H355.632V178.352H357.126ZM372.904 178.352H374.632L370.51 182.996L374.974 188H373.138L368.782 183.104V188H367.198V178.352H368.782V183.032L372.904 178.352Z" fill="black"/>
<g clip-path="url(#clip3)">
<path d="M73.0995 256.591L51.3056 246.069C51.1124 245.976 50.8874 245.976 50.6943 246.069L28.9003 256.591C28.6573 256.708 28.5029 256.954 28.5029 257.224V282.775C28.5029 283.045 28.6573 283.291 28.9003 283.408L50.6942 293.93C50.7908 293.976 50.8954 294 50.9999 294C51.1045 294 51.209 293.976 51.3056 293.93L73.0995 283.408C73.3425 283.291 73.4969 283.045 73.4969 282.775V257.224C73.4969 256.954 73.3424 256.708 73.0995 256.591ZM50.9999 247.483L71.1765 257.224L65.3277 260.047C65.2907 260.019 65.2516 259.993 65.2087 259.972L45.1691 250.298L50.9999 247.483ZM43.5812 251.093L63.7285 260.819L59.6021 262.812L39.4631 253.089L43.5812 251.093ZM64.1998 262.153V269.517L60.3455 271.378V264.014L64.1998 262.153ZM72.0907 282.334L51.7031 292.176V268.186L56.5661 265.839C56.9158 265.67 57.0625 265.249 56.8936 264.9C56.7248 264.55 56.3045 264.403 55.9547 264.572L50.9999 266.964L49.0503 266.023C48.7005 265.854 48.2802 266.001 48.1114 266.35C47.9426 266.7 48.0892 267.12 48.4389 267.289L50.2968 268.186V292.176L29.9092 282.334V258.344L45.4342 265.839C45.5327 265.886 45.6369 265.909 45.7393 265.909C46.0007 265.909 46.2518 265.763 46.373 265.511C46.5418 265.162 46.3952 264.741 46.0455 264.572L30.8233 257.224L37.8082 253.852L58.9295 264.048C58.9326 264.053 58.9361 264.056 58.9392 264.061V272.498C58.9392 272.74 59.0636 272.965 59.2686 273.094C59.3824 273.165 59.5122 273.201 59.6425 273.201C59.7467 273.201 59.8512 273.178 59.9481 273.131L65.2087 270.592C65.4517 270.474 65.6061 270.228 65.6061 269.958V261.475L72.0907 258.344V282.334Z" fill="black"/>
<path d="M35.7117 279.607L32.5134 278.063C32.1635 277.894 31.7433 278.041 31.5745 278.391C31.4057 278.741 31.5523 279.161 31.902 279.33L35.1002 280.874C35.1988 280.921 35.3029 280.944 35.4054 280.944C35.6668 280.944 35.9178 280.797 36.0391 280.546C36.208 280.197 36.0614 279.776 35.7117 279.607Z" fill="black"/>
<path d="M38.6551 277.691L32.5177 274.729C32.168 274.56 31.7477 274.706 31.5788 275.056C31.4101 275.406 31.5567 275.826 31.9064 275.995L38.0437 278.958C38.1423 279.005 38.2464 279.028 38.3489 279.028C38.6103 279.028 38.8613 278.882 38.9826 278.63C39.1514 278.281 39.0048 277.86 38.6551 277.691Z" fill="black"/>
</g>
<path d="M109.814 278H108.194V266.57H104.18V265.148H113.81V266.57H109.814V278ZM122.654 273.158C122.654 274.754 122.246 275.99 121.43 276.866C120.626 277.742 119.534 278.18 118.154 278.18C117.302 278.18 116.54 277.988 115.868 277.604C115.208 277.208 114.686 276.638 114.302 275.894C113.918 275.138 113.726 274.226 113.726 273.158C113.726 271.562 114.128 270.332 114.932 269.468C115.736 268.604 116.828 268.172 118.208 268.172C119.084 268.172 119.852 268.37 120.512 268.766C121.184 269.15 121.706 269.714 122.078 270.458C122.462 271.19 122.654 272.09 122.654 273.158ZM115.364 273.158C115.364 274.298 115.586 275.204 116.03 275.876C116.486 276.536 117.206 276.866 118.19 276.866C119.162 276.866 119.876 276.536 120.332 275.876C120.788 275.204 121.016 274.298 121.016 273.158C121.016 272.018 120.788 271.124 120.332 270.476C119.876 269.828 119.156 269.504 118.172 269.504C117.188 269.504 116.474 269.828 116.03 270.476C115.586 271.124 115.364 272.018 115.364 273.158ZM126.375 268.352V271.862C126.375 272.966 126.993 273.518 128.229 273.518C128.829 273.518 129.375 273.428 129.867 273.248C130.359 273.056 130.863 272.804 131.379 272.492V268.352H132.963V278H131.379V273.698C130.839 274.046 130.305 274.322 129.777 274.526C129.261 274.718 128.637 274.814 127.905 274.814C126.921 274.814 126.153 274.556 125.601 274.04C125.061 273.524 124.791 272.834 124.791 271.97V268.352H126.375ZM141.734 268.352H143.462L139.34 272.996L143.804 278H141.968L137.612 273.104V278H136.028V268.352H137.612V273.032L141.734 268.352ZM149.209 268.19C150.385 268.19 151.255 268.448 151.819 268.964C152.383 269.48 152.665 270.302 152.665 271.43V278H151.513L151.207 276.632H151.135C150.715 277.16 150.271 277.55 149.803 277.802C149.347 278.054 148.711 278.18 147.895 278.18C147.019 278.18 146.293 277.952 145.717 277.496C145.141 277.028 144.853 276.302 144.853 275.318C144.853 274.358 145.231 273.62 145.987 273.104C146.743 272.576 147.907 272.288 149.479 272.24L151.117 272.186V271.61C151.117 270.806 150.943 270.248 150.595 269.936C150.247 269.624 149.755 269.468 149.119 269.468C148.615 269.468 148.135 269.546 147.679 269.702C147.223 269.846 146.797 270.014 146.401 270.206L145.915 269.018C146.335 268.79 146.833 268.598 147.409 268.442C147.985 268.274 148.585 268.19 149.209 268.19ZM151.099 273.284L149.677 273.338C148.477 273.386 147.643 273.578 147.175 273.914C146.719 274.25 146.491 274.724 146.491 275.336C146.491 275.876 146.653 276.272 146.977 276.524C147.313 276.776 147.739 276.902 148.255 276.902C149.071 276.902 149.749 276.68 150.289 276.236C150.829 275.78 151.099 275.084 151.099 274.148V273.284ZM167.974 270.782C167.974 271.382 167.794 271.85 167.434 272.186C167.074 272.522 166.612 272.75 166.048 272.87V272.942C166.648 273.026 167.17 273.242 167.614 273.59C168.058 273.926 168.28 274.454 168.28 275.174C168.28 275.99 167.974 276.668 167.362 277.208C166.762 277.736 165.766 278 164.374 278H160.216V268.352H164.356C165.04 268.352 165.652 268.43 166.192 268.586C166.744 268.73 167.176 268.982 167.488 269.342C167.812 269.69 167.974 270.17 167.974 270.782ZM166.372 270.98C166.372 270.524 166.204 270.194 165.868 269.99C165.544 269.774 165.01 269.666 164.266 269.666H161.8V272.312H163.978C165.574 272.312 166.372 271.868 166.372 270.98ZM166.642 275.174C166.642 274.622 166.432 274.226 166.012 273.986C165.592 273.746 164.974 273.626 164.158 273.626H161.8V276.722H164.194C164.986 276.722 165.592 276.608 166.012 276.38C166.432 276.14 166.642 275.738 166.642 275.174ZM170.587 278V268.352H172.171V272.312H174.673C175.921 272.312 176.845 272.54 177.445 272.996C178.045 273.452 178.345 274.136 178.345 275.048C178.345 275.948 178.051 276.668 177.463 277.208C176.875 277.736 175.921 278 174.601 278H170.587ZM179.947 278V268.352H181.531V278H179.947ZM172.171 276.722H174.457C175.141 276.722 175.699 276.608 176.131 276.38C176.563 276.14 176.779 275.726 176.779 275.138C176.779 274.55 176.581 274.154 176.185 273.95C175.789 273.734 175.219 273.626 174.475 273.626H172.171V276.722ZM191.76 268.352V276.668H193.164V281.348H191.634V278H184.92V281.348H183.408V276.668H184.182C185.01 275.528 185.628 274.232 186.036 272.78C186.456 271.316 186.672 269.84 186.684 268.352H191.76ZM190.23 269.594H188.088C188.04 270.41 187.914 271.256 187.71 272.132C187.506 272.996 187.242 273.824 186.918 274.616C186.606 275.408 186.24 276.092 185.82 276.668H190.23V269.594ZM198.709 268.19C199.885 268.19 200.755 268.448 201.319 268.964C201.883 269.48 202.165 270.302 202.165 271.43V278H201.013L200.707 276.632H200.635C200.215 277.16 199.771 277.55 199.303 277.802C198.847 278.054 198.211 278.18 197.395 278.18C196.519 278.18 195.793 277.952 195.217 277.496C194.641 277.028 194.353 276.302 194.353 275.318C194.353 274.358 194.731 273.62 195.487 273.104C196.243 272.576 197.407 272.288 198.979 272.24L200.617 272.186V271.61C200.617 270.806 200.443 270.248 200.095 269.936C199.747 269.624 199.255 269.468 198.619 269.468C198.115 269.468 197.635 269.546 197.179 269.702C196.723 269.846 196.297 270.014 195.901 270.206L195.415 269.018C195.835 268.79 196.333 268.598 196.909 268.442C197.485 268.274 198.085 268.19 198.709 268.19ZM200.599 273.284L199.177 273.338C197.977 273.386 197.143 273.578 196.675 273.914C196.219 274.25 195.991 274.724 195.991 275.336C195.991 275.876 196.153 276.272 196.477 276.524C196.813 276.776 197.239 276.902 197.755 276.902C198.571 276.902 199.249 276.68 199.789 276.236C200.329 275.78 200.599 275.084 200.599 274.148V273.284ZM206.531 268.352V271.862C206.531 272.966 207.149 273.518 208.385 273.518C208.985 273.518 209.531 273.428 210.023 273.248C210.515 273.056 211.019 272.804 211.535 272.492V268.352H213.119V278H211.535V273.698C210.995 274.046 210.461 274.322 209.933 274.526C209.417 274.718 208.793 274.814 208.061 274.814C207.077 274.814 206.309 274.556 205.757 274.04C205.217 273.524 204.947 272.834 204.947 271.97V268.352H206.531ZM217.678 268.352V274.238C217.678 274.382 217.672 274.598 217.66 274.886C217.648 275.174 217.63 275.462 217.606 275.75C217.594 276.038 217.582 276.266 217.57 276.434L222.736 268.352H224.68V278H223.204V272.312C223.204 272.12 223.204 271.868 223.204 271.556C223.216 271.244 223.228 270.938 223.24 270.638C223.252 270.326 223.264 270.092 223.276 269.936L218.146 278H216.184V268.352H217.678ZM232.501 278V265.148H234.319L240.169 275.732H240.241C240.229 275.42 240.211 275.06 240.187 274.652C240.163 274.244 240.145 273.836 240.133 273.428C240.121 273.008 240.115 272.648 240.115 272.348V265.148H241.537V278H239.773L233.851 267.38H233.779C233.803 267.692 233.821 268.064 233.833 268.496C233.857 268.916 233.875 269.336 233.887 269.756C233.911 270.176 233.923 270.548 233.923 270.872V278H232.501ZM245.551 275.588C244.783 275.588 244.147 275.324 243.643 274.796C243.139 274.268 242.887 273.512 242.887 272.528C242.887 271.544 243.127 270.794 243.607 270.278C244.099 269.75 244.765 269.486 245.605 269.486C246.373 269.486 247.009 269.744 247.513 270.26C248.029 270.776 248.287 271.532 248.287 272.528C248.287 273.512 248.041 274.268 247.549 274.796C247.057 275.324 246.391 275.588 245.551 275.588ZM245.587 274.544C246.115 274.544 246.493 274.376 246.721 274.04C246.949 273.692 247.063 273.188 247.063 272.528C247.063 271.856 246.949 271.364 246.721 271.052C246.493 270.728 246.115 270.566 245.587 270.566C245.071 270.566 244.693 270.728 244.453 271.052C244.213 271.364 244.093 271.856 244.093 272.528C244.093 273.188 244.207 273.692 244.435 274.04C244.675 274.376 245.059 274.544 245.587 274.544ZM243.247 278V276.758H247.873V278H243.247ZM253.157 271.628H254.201C255.221 271.628 255.731 271.118 255.731 270.098V269.072C255.731 268.052 255.221 267.542 254.201 267.542H252.959C251.951 267.542 251.447 268.052 251.447 269.072V269.648C251.447 269.828 251.363 269.918 251.195 269.918H250.385C250.217 269.918 250.133 269.828 250.133 269.648V269.054C250.133 268.226 250.367 267.584 250.835 267.128C251.315 266.66 251.969 266.426 252.797 266.426H254.363C255.191 266.426 255.839 266.66 256.307 267.128C256.787 267.584 257.027 268.226 257.027 269.054V270.116C257.027 271.184 256.535 271.874 255.551 272.186C256.535 272.438 257.027 273.122 257.027 274.238V275.372C257.027 276.2 256.787 276.848 256.307 277.316C255.839 277.772 255.191 278 254.363 278H252.797C251.969 278 251.315 277.772 250.835 277.316C250.367 276.848 250.133 276.2 250.133 275.372V274.652C250.133 274.472 250.217 274.382 250.385 274.382H251.195C251.363 274.382 251.447 274.472 251.447 274.652V275.354C251.447 276.374 251.951 276.884 252.959 276.884H254.201C255.221 276.884 255.731 276.374 255.731 275.354V274.256C255.731 273.236 255.221 272.726 254.201 272.726H253.157C252.989 272.726 252.905 272.642 252.905 272.474V271.88C252.905 271.712 252.989 271.628 253.157 271.628ZM260.591 275.57V276.992C260.591 277.256 260.501 277.604 260.321 278.036L259.601 279.728C259.541 279.824 259.469 279.872 259.385 279.872C259.265 279.872 259.205 279.794 259.205 279.638V275.57C259.205 275.414 259.283 275.336 259.439 275.336H260.357C260.513 275.336 260.591 275.414 260.591 275.57ZM275.895 268.352V278H274.311V269.702H269.325V278H267.741V268.352H275.895ZM283.563 268.172C284.751 268.172 285.705 268.586 286.425 269.414C287.157 270.242 287.523 271.49 287.523 273.158C287.523 274.802 287.157 276.05 286.425 276.902C285.705 277.754 284.745 278.18 283.545 278.18C282.801 278.18 282.183 278.042 281.691 277.766C281.211 277.478 280.833 277.148 280.557 276.776H280.449C280.473 276.98 280.497 277.238 280.521 277.55C280.545 277.862 280.557 278.132 280.557 278.36V282.32H278.973V268.352H280.269L280.485 269.666H280.557C280.845 269.246 281.223 268.892 281.691 268.604C282.159 268.316 282.783 268.172 283.563 268.172ZM283.275 269.504C282.291 269.504 281.595 269.78 281.187 270.332C280.791 270.884 280.581 271.724 280.557 272.852V273.158C280.557 274.346 280.749 275.264 281.133 275.912C281.529 276.548 282.255 276.866 283.311 276.866C283.899 276.866 284.379 276.704 284.751 276.38C285.135 276.056 285.417 275.618 285.597 275.066C285.789 274.502 285.885 273.86 285.885 273.14C285.885 272.036 285.669 271.154 285.237 270.494C284.817 269.834 284.163 269.504 283.275 269.504ZM293.162 272.798H289.49C289.322 272.798 289.238 272.714 289.238 272.546V271.952C289.238 271.784 289.322 271.7 289.49 271.7H293.162C293.33 271.7 293.414 271.784 293.414 271.952V272.546C293.414 272.714 293.33 272.798 293.162 272.798ZM302.315 269.684H299.165V278H297.599V269.684H294.485V268.352H302.315V269.684ZM305.134 275.57V277.748C305.134 277.916 305.056 278 304.9 278H303.982C303.826 278 303.748 277.916 303.748 277.748V275.57C303.748 275.414 303.826 275.336 303.982 275.336H304.9C305.056 275.336 305.134 275.414 305.134 275.57ZM312.5 278V265.148H320.132V266.57H314.12V270.584H316.028C317.312 270.584 318.308 270.746 319.016 271.07C319.724 271.382 320.216 271.814 320.492 272.366C320.768 272.906 320.906 273.53 320.906 274.238C320.906 275.414 320.552 276.338 319.844 277.01C319.136 277.67 317.942 278 316.262 278H312.5ZM314.12 276.614H316.1C317.252 276.614 318.062 276.422 318.53 276.038C318.998 275.642 319.232 275.042 319.232 274.238C319.232 273.41 318.974 272.828 318.458 272.492C317.942 272.156 317.066 271.988 315.83 271.988H314.12V276.614ZM327.948 268.172C329.136 268.172 330.09 268.586 330.81 269.414C331.542 270.242 331.908 271.49 331.908 273.158C331.908 274.802 331.542 276.05 330.81 276.902C330.09 277.754 329.13 278.18 327.93 278.18C327.186 278.18 326.568 278.042 326.076 277.766C325.596 277.478 325.218 277.148 324.942 276.776H324.834C324.858 276.98 324.882 277.238 324.906 277.55C324.93 277.862 324.942 278.132 324.942 278.36V282.32H323.358V268.352H324.654L324.87 269.666H324.942C325.23 269.246 325.608 268.892 326.076 268.604C326.544 268.316 327.168 268.172 327.948 268.172ZM327.66 269.504C326.676 269.504 325.98 269.78 325.572 270.332C325.176 270.884 324.966 271.724 324.942 272.852V273.158C324.942 274.346 325.134 275.264 325.518 275.912C325.914 276.548 326.64 276.866 327.696 276.866C328.284 276.866 328.764 276.704 329.136 276.38C329.52 276.056 329.802 275.618 329.982 275.066C330.174 274.502 330.27 273.86 330.27 273.14C330.27 272.036 330.054 271.154 329.622 270.494C329.202 269.834 328.548 269.504 327.66 269.504ZM342.82 273.158C342.82 274.754 342.412 275.99 341.596 276.866C340.792 277.742 339.7 278.18 338.32 278.18C337.468 278.18 336.706 277.988 336.034 277.604C335.374 277.208 334.852 276.638 334.468 275.894C334.084 275.138 333.892 274.226 333.892 273.158C333.892 271.562 334.294 270.332 335.098 269.468C335.902 268.604 336.994 268.172 338.374 268.172C339.25 268.172 340.018 268.37 340.678 268.766C341.35 269.15 341.872 269.714 342.244 270.458C342.628 271.19 342.82 272.09 342.82 273.158ZM335.53 273.158C335.53 274.298 335.752 275.204 336.196 275.876C336.652 276.536 337.372 276.866 338.356 276.866C339.328 276.866 340.042 276.536 340.498 275.876C340.954 275.204 341.182 274.298 341.182 273.158C341.182 272.018 340.954 271.124 340.498 270.476C340.042 269.828 339.322 269.504 338.338 269.504C337.354 269.504 336.64 269.828 336.196 270.476C335.752 271.124 335.53 272.018 335.53 273.158ZM353.089 270.782C353.089 271.382 352.909 271.85 352.549 272.186C352.189 272.522 351.727 272.75 351.163 272.87V272.942C351.763 273.026 352.285 273.242 352.729 273.59C353.173 273.926 353.395 274.454 353.395 275.174C353.395 275.99 353.089 276.668 352.477 277.208C351.877 277.736 350.881 278 349.489 278H345.331V268.352H349.471C350.155 268.352 350.767 268.43 351.307 268.586C351.859 268.73 352.291 268.982 352.603 269.342C352.927 269.69 353.089 270.17 353.089 270.782ZM351.487 270.98C351.487 270.524 351.319 270.194 350.983 269.99C350.659 269.774 350.125 269.666 349.381 269.666H346.915V272.312H349.093C350.689 272.312 351.487 271.868 351.487 270.98ZM351.757 275.174C351.757 274.622 351.547 274.226 351.127 273.986C350.707 273.746 350.089 273.626 349.273 273.626H346.915V276.722H349.309C350.101 276.722 350.707 276.608 351.127 276.38C351.547 276.14 351.757 275.738 351.757 275.174ZM359.356 268.19C360.532 268.19 361.402 268.448 361.966 268.964C362.53 269.48 362.812 270.302 362.812 271.43V278H361.66L361.354 276.632H361.282C360.862 277.16 360.418 277.55 359.95 277.802C359.494 278.054 358.858 278.18 358.042 278.18C357.166 278.18 356.44 277.952 355.864 277.496C355.288 277.028 355 276.302 355 275.318C355 274.358 355.378 273.62 356.134 273.104C356.89 272.576 358.054 272.288 359.626 272.24L361.264 272.186V271.61C361.264 270.806 361.09 270.248 360.742 269.936C360.394 269.624 359.902 269.468 359.266 269.468C358.762 269.468 358.282 269.546 357.826 269.702C357.37 269.846 356.944 270.014 356.548 270.206L356.062 269.018C356.482 268.79 356.98 268.598 357.556 268.442C358.132 268.274 358.732 268.19 359.356 268.19ZM361.246 273.284L359.824 273.338C358.624 273.386 357.79 273.578 357.322 273.914C356.866 274.25 356.638 274.724 356.638 275.336C356.638 275.876 356.8 276.272 357.124 276.524C357.46 276.776 357.886 276.902 358.402 276.902C359.218 276.902 359.896 276.68 360.436 276.236C360.976 275.78 361.246 275.084 361.246 274.148V273.284ZM370.382 268.172C371.57 268.172 372.524 268.586 373.244 269.414C373.976 270.242 374.342 271.49 374.342 273.158C374.342 274.802 373.976 276.05 373.244 276.902C372.524 277.754 371.564 278.18 370.364 278.18C369.62 278.18 369.002 278.042 368.51 277.766C368.03 277.478 367.652 277.148 367.376 276.776H367.268C367.292 276.98 367.316 277.238 367.34 277.55C367.364 277.862 367.376 278.132 367.376 278.36V282.32H365.792V268.352H367.088L367.304 269.666H367.376C367.664 269.246 368.042 268.892 368.51 268.604C368.978 268.316 369.602 268.172 370.382 268.172ZM370.094 269.504C369.11 269.504 368.414 269.78 368.006 270.332C367.61 270.884 367.4 271.724 367.376 272.852V273.158C367.376 274.346 367.568 275.264 367.952 275.912C368.348 276.548 369.074 276.866 370.13 276.866C370.718 276.866 371.198 276.704 371.57 276.38C371.954 276.056 372.236 275.618 372.416 275.066C372.608 274.502 372.704 273.86 372.704 273.14C372.704 272.036 372.488 271.154 372.056 270.494C371.636 269.834 370.982 269.504 370.094 269.504ZM380.736 278.18C379.884 278.18 379.122 278.006 378.45 277.658C377.79 277.31 377.268 276.77 376.884 276.038C376.512 275.306 376.326 274.37 376.326 273.23C376.326 272.042 376.524 271.076 376.92 270.332C377.316 269.588 377.85 269.042 378.522 268.694C379.206 268.346 379.98 268.172 380.844 268.172C381.336 268.172 381.81 268.226 382.266 268.334C382.722 268.43 383.094 268.55 383.382 268.694L382.896 270.008C382.608 269.9 382.272 269.798 381.888 269.702C381.504 269.606 381.144 269.558 380.808 269.558C378.912 269.558 377.964 270.776 377.964 273.212C377.964 274.376 378.192 275.27 378.648 275.894C379.116 276.506 379.806 276.812 380.718 276.812C381.246 276.812 381.708 276.758 382.104 276.65C382.512 276.542 382.884 276.41 383.22 276.254V277.658C382.896 277.826 382.536 277.952 382.14 278.036C381.756 278.132 381.288 278.18 380.736 278.18ZM391.22 268.352H392.948L388.826 272.996L393.29 278H391.454L387.098 273.104V278H385.514V268.352H387.098V273.032L391.22 268.352ZM403.078 273.158C403.078 274.754 402.67 275.99 401.854 276.866C401.05 277.742 399.958 278.18 398.578 278.18C397.726 278.18 396.964 277.988 396.292 277.604C395.632 277.208 395.11 276.638 394.726 275.894C394.342 275.138 394.15 274.226 394.15 273.158C394.15 271.562 394.552 270.332 395.356 269.468C396.16 268.604 397.252 268.172 398.632 268.172C399.508 268.172 400.276 268.37 400.936 268.766C401.608 269.15 402.13 269.714 402.502 270.458C402.886 271.19 403.078 272.09 403.078 273.158ZM395.788 273.158C395.788 274.298 396.01 275.204 396.454 275.876C396.91 276.536 397.63 276.866 398.614 276.866C399.586 276.866 400.3 276.536 400.756 275.876C401.212 275.204 401.44 274.298 401.44 273.158C401.44 272.018 401.212 271.124 400.756 270.476C400.3 269.828 399.58 269.504 398.596 269.504C397.612 269.504 396.898 269.828 396.454 270.476C396.01 271.124 395.788 272.018 395.788 273.158ZM407.083 268.352V274.238C407.083 274.382 407.077 274.598 407.065 274.886C407.053 275.174 407.035 275.462 407.011 275.75C406.999 276.038 406.987 276.266 406.975 276.434L412.141 268.352H414.085V278H412.609V272.312C412.609 272.12 412.609 271.868 412.609 271.556C412.621 271.244 412.633 270.938 412.645 270.638C412.657 270.326 412.669 270.092 412.681 269.936L407.551 278H405.589V268.352H407.083ZM413.401 264.356C413.317 265.256 413.011 265.94 412.483 266.408C411.967 266.864 411.139 267.092 409.999 267.092C408.823 267.092 407.989 266.864 407.497 266.408C407.017 265.952 406.747 265.268 406.687 264.356H408.163C408.223 265.004 408.391 265.442 408.667 265.67C408.955 265.886 409.411 265.994 410.035 265.994C410.587 265.994 411.019 265.88 411.331 265.652C411.655 265.412 411.847 264.98 411.907 264.356H413.401Z" fill="black"/>
<path d="M752 0H772C774.761 0 777 2.23858 777 5V317H752V0Z" fill="#F3F2F2"/>
<path d="M752.5 0.5H772C774.485 0.5 776.5 2.51472 776.5 5V316.5H752.5V0.5Z" stroke="black" stroke-opacity="0.25"/>
<path d="M752 0H772C774.761 0 777 2.23858 777 5V81H752V0Z" fill="#7D7979"/>
<defs>
<clipPath id="clip0">
<rect x="236" y="34" width="8" height="8" transform="rotate(-180 236 34)" fill="white"/>
</clipPath>
<clipPath id="clip1">
<rect x="27" y="66" width="48" height="48" fill="white"/>
</clipPath>
<clipPath id="clip2">
<rect x="27" y="156" width="48" height="48" fill="white"/>
</clipPath>
<clipPath id="clip3">
<rect x="27" y="246" width="48" height="48" fill="white"/>
</clipPath>
</defs>
</svg>
