<svg width="338" height="317" viewBox="0 0 338 317" fill="none" xmlns="http://www.w3.org/2000/svg">
<path d="M0 5C0 2.23858 2.23858 0 5 0H333C335.761 0 338 2.23858 338 5V317H0V5Z" fill="#C4C4C4" fill-opacity="0.1"/>
<path d="M0.5 5C0.5 2.51472 2.51472 0.5 5 0.5H333C335.485 0.5 337.5 2.51472 337.5 5V316.5H0.5V5Z" stroke="black" stroke-opacity="0.25"/>
<path d="M37.916 33.848H40.94C41.948 33.848 42.452 33.326 42.452 32.282V26.144C42.452 25.1 41.948 24.578 40.94 24.578H37.916C37.796 24.578 37.736 24.632 37.736 24.74V33.686C37.736 33.794 37.796 33.848 37.916 33.848ZM36.422 34.748V23.678C36.422 23.51 36.506 23.426 36.674 23.426H41.102C41.93 23.426 42.578 23.666 43.046 24.146C43.526 24.614 43.766 25.262 43.766 26.09V32.336C43.766 33.164 43.526 33.818 43.046 34.298C42.578 34.766 41.93 35 41.102 35H36.674C36.506 35 36.422 34.916 36.422 34.748ZM52.544 35H48.728C47.9 35 47.246 34.766 46.766 34.298C46.298 33.83 46.064 33.176 46.064 32.336V28.484C46.064 27.644 46.298 26.99 46.766 26.522C47.246 26.054 47.9 25.82 48.728 25.82H50.24C51.068 25.82 51.716 26.054 52.184 26.522C52.652 26.99 52.886 27.644 52.886 28.484V30.77C52.886 30.95 52.802 31.04 52.634 31.04H47.54C47.42 31.04 47.36 31.094 47.36 31.202V32.3C47.36 33.344 47.864 33.866 48.872 33.866H52.544C52.712 33.866 52.796 33.95 52.796 34.118V34.766C52.796 34.922 52.712 35 52.544 35ZM47.54 30.086H51.428C51.548 30.086 51.608 30.026 51.608 29.906V28.52C51.608 27.488 51.104 26.972 50.096 26.972H48.872C47.864 26.972 47.36 27.488 47.36 28.52V29.906C47.36 30.026 47.42 30.086 47.54 30.086ZM56.2553 35H55.4453C55.2773 35 55.1933 34.916 55.1933 34.748V22.598C55.1933 22.43 55.2773 22.346 55.4453 22.346H56.2553C56.4233 22.346 56.5073 22.43 56.5073 22.598V34.748C56.5073 34.916 56.4233 35 56.2553 35ZM59.166 24.308V22.616C59.166 22.448 59.244 22.364 59.4 22.364H60.228C60.396 22.364 60.48 22.448 60.48 22.616V24.308C60.48 24.476 60.396 24.56 60.228 24.56H59.4C59.244 24.56 59.166 24.476 59.166 24.308ZM59.166 34.748V26.072C59.166 25.904 59.244 25.82 59.4 25.82H60.228C60.396 25.82 60.48 25.904 60.48 26.072V34.748C60.48 34.916 60.396 35 60.228 35H59.418C59.25 35 59.166 34.916 59.166 34.748ZM62.3466 25.82H63.1926C63.3486 25.82 63.4446 25.904 63.4806 26.072L65.6406 33.686H65.7306L67.8726 26.072C67.9206 25.904 68.0226 25.82 68.1786 25.82H69.0246C69.1926 25.82 69.2526 25.904 69.2046 26.072L66.6126 34.73C66.5766 34.91 66.4686 35 66.2886 35H65.0646C64.8966 35 64.7886 34.91 64.7406 34.73L62.1666 26.072C62.1186 25.904 62.1786 25.82 62.3466 25.82ZM77.1006 35H73.2846C72.4566 35 71.8026 34.766 71.3226 34.298C70.8546 33.83 70.6206 33.176 70.6206 32.336V28.484C70.6206 27.644 70.8546 26.99 71.3226 26.522C71.8026 26.054 72.4566 25.82 73.2846 25.82H74.7966C75.6246 25.82 76.2726 26.054 76.7406 26.522C77.2086 26.99 77.4426 27.644 77.4426 28.484V30.77C77.4426 30.95 77.3586 31.04 77.1906 31.04H72.0966C71.9766 31.04 71.9166 31.094 71.9166 31.202V32.3C71.9166 33.344 72.4206 33.866 73.4286 33.866H77.1006C77.2686 33.866 77.3526 33.95 77.3526 34.118V34.766C77.3526 34.922 77.2686 35 77.1006 35ZM72.0966 30.086H75.9846C76.1046 30.086 76.1646 30.026 76.1646 29.906V28.52C76.1646 27.488 75.6606 26.972 74.6526 26.972H73.4286C72.4206 26.972 71.9166 27.488 71.9166 28.52V29.906C71.9166 30.026 71.9766 30.086 72.0966 30.086ZM80.722 35H79.912C79.744 35 79.66 34.916 79.66 34.748V26.072C79.66 25.904 79.744 25.82 79.912 25.82H80.722C80.89 25.82 80.974 25.904 80.974 26.072V26.792H81.046C81.166 26.528 81.394 26.3 81.73 26.108C82.066 25.916 82.462 25.82 82.918 25.82H83.62C83.776 25.82 83.854 25.904 83.854 26.072V26.738C83.854 26.822 83.836 26.888 83.8 26.936C83.764 26.972 83.704 26.984 83.62 26.972H82.648C82.108 26.972 81.694 27.134 81.406 27.458C81.118 27.782 80.974 28.226 80.974 28.79V34.748C80.974 34.916 80.89 35 80.722 35ZM86.2163 37.826H85.4243C85.2563 37.826 85.1723 37.742 85.1723 37.574V36.908C85.1723 36.74 85.2563 36.656 85.4243 36.656H85.8743C86.6423 36.656 87.1823 36.44 87.4943 36.008C87.7463 35.66 87.9743 35.162 88.1783 34.514H87.6563C87.5123 34.514 87.4103 34.43 87.3503 34.262L84.7043 26.072C84.6563 25.904 84.7163 25.82 84.8843 25.82H85.7483C85.9043 25.82 86.0063 25.904 86.0543 26.072L88.3763 33.488H88.4483L90.7703 26.072C90.8063 25.904 90.9023 25.82 91.0583 25.82H91.8863C92.0903 25.82 92.1623 25.91 92.1023 26.09L89.4203 34.64C89.1203 35.66 88.7363 36.446 88.2683 36.998C87.8123 37.55 87.1283 37.826 86.2163 37.826ZM98.7227 26.972H97.7327C97.5647 26.972 97.4807 26.894 97.4807 26.738V26.072C97.4807 25.904 97.5647 25.82 97.7327 25.82H98.7227C98.8427 25.82 98.9027 25.766 98.9027 25.658V24.11C98.9027 23.942 98.9867 23.858 99.1547 23.858H99.9647C100.121 23.858 100.199 23.942 100.199 24.11V25.658C100.199 25.766 100.265 25.82 100.397 25.82H102.305C102.485 25.82 102.575 25.904 102.575 26.072V26.738C102.575 26.894 102.485 26.972 102.305 26.972H100.397C100.265 26.972 100.199 27.026 100.199 27.134V32.318C100.199 33.338 100.727 33.848 101.783 33.848H102.485C102.665 33.848 102.755 33.932 102.755 34.1V34.766C102.755 34.922 102.665 35 102.485 35H101.621C100.793 35 100.133 34.772 99.6407 34.316C99.1487 33.848 98.9027 33.2 98.9027 32.372V27.134C98.9027 27.026 98.8427 26.972 98.7227 26.972ZM108.688 35H107.14C106.312 35 105.658 34.766 105.178 34.298C104.71 33.83 104.476 33.176 104.476 32.336V28.484C104.476 27.644 104.71 26.99 105.178 26.522C105.658 26.054 106.312 25.82 107.14 25.82H108.688C109.516 25.82 110.164 26.054 110.632 26.522C111.112 26.99 111.352 27.644 111.352 28.484V32.336C111.352 33.176 111.112 33.83 110.632 34.298C110.164 34.766 109.516 35 108.688 35ZM107.284 33.848H108.544C109.552 33.848 110.056 33.332 110.056 32.3V28.52C110.056 27.488 109.552 26.972 108.544 26.972H107.284C106.276 26.972 105.772 27.488 105.772 28.52V32.3C105.772 33.332 106.276 33.848 107.284 33.848Z" fill="black"/>
<path d="M130.484 35H129.674C129.506 35 129.422 34.916 129.422 34.748V23.678C129.422 23.51 129.506 23.426 129.674 23.426H130.484C130.652 23.426 130.736 23.51 130.736 23.678V29.888H130.79C130.874 29.636 131.006 29.39 131.186 29.15L135.218 23.678C135.326 23.51 135.482 23.426 135.686 23.426H136.658C136.862 23.426 136.892 23.516 136.748 23.696L133.184 28.52L137.252 34.712C137.384 34.904 137.33 35 137.09 35H136.352C136.1 35 135.926 34.916 135.83 34.748L132.374 29.474L130.736 31.436V34.748C130.736 34.916 130.652 35 130.484 35ZM139.018 24.308V22.616C139.018 22.448 139.096 22.364 139.252 22.364H140.08C140.248 22.364 140.332 22.448 140.332 22.616V24.308C140.332 24.476 140.248 24.56 140.08 24.56H139.252C139.096 24.56 139.018 24.476 139.018 24.308ZM139.018 34.748V26.072C139.018 25.904 139.096 25.82 139.252 25.82H140.08C140.248 25.82 140.332 25.904 140.332 26.072V34.748C140.332 34.916 140.248 35 140.08 35H139.27C139.102 35 139.018 34.916 139.018 34.748ZM149.2 35H145.384C144.556 35 143.902 34.766 143.422 34.298C142.954 33.83 142.72 33.176 142.72 32.336V28.484C142.72 27.644 142.954 26.99 143.422 26.522C143.902 26.054 144.556 25.82 145.384 25.82H146.896C147.724 25.82 148.372 26.054 148.84 26.522C149.308 26.99 149.542 27.644 149.542 28.484V30.77C149.542 30.95 149.458 31.04 149.29 31.04H144.196C144.076 31.04 144.016 31.094 144.016 31.202V32.3C144.016 33.344 144.52 33.866 145.528 33.866H149.2C149.368 33.866 149.452 33.95 149.452 34.118V34.766C149.452 34.922 149.368 35 149.2 35ZM144.196 30.086H148.084C148.204 30.086 148.264 30.026 148.264 29.906V28.52C148.264 27.488 147.76 26.972 146.752 26.972H145.528C144.52 26.972 144.016 27.488 144.016 28.52V29.906C144.016 30.026 144.076 30.086 144.196 30.086ZM151.058 25.82H151.904C152.06 25.82 152.156 25.904 152.192 26.072L154.352 33.686H154.442L156.584 26.072C156.632 25.904 156.734 25.82 156.89 25.82H157.736C157.904 25.82 157.964 25.904 157.916 26.072L155.324 34.73C155.288 34.91 155.18 35 155 35H153.776C153.608 35 153.5 34.91 153.452 34.73L150.878 26.072C150.83 25.904 150.89 25.82 151.058 25.82ZM160.718 32.57V33.992C160.718 34.256 160.628 34.604 160.448 35.036L159.728 36.728C159.668 36.824 159.596 36.872 159.512 36.872C159.392 36.872 159.332 36.794 159.332 36.638V32.57C159.332 32.414 159.41 32.336 159.566 32.336H160.484C160.64 32.336 160.718 32.414 160.718 32.57ZM173.916 23.426H174.726C174.894 23.426 174.978 23.504 174.978 23.66V32.336C174.978 33.176 174.744 33.83 174.276 34.298C173.808 34.766 173.16 35 172.332 35H170.334C169.506 35 168.852 34.766 168.372 34.298C167.904 33.83 167.67 33.176 167.67 32.336V23.678C167.67 23.51 167.754 23.426 167.922 23.426H168.732C168.9 23.426 168.984 23.51 168.984 23.678V32.282C168.984 33.326 169.482 33.848 170.478 33.848H172.17C173.178 33.848 173.682 33.326 173.682 32.282V23.678C173.682 23.51 173.76 23.426 173.916 23.426ZM182.749 25.82H183.649C183.745 25.82 183.805 25.85 183.829 25.91C183.865 25.958 183.853 26.024 183.793 26.108L181.147 30.212V30.284L184.063 34.712C184.111 34.796 184.117 34.868 184.081 34.928C184.045 34.976 183.979 35 183.883 35H183.037C182.809 35 182.641 34.916 182.533 34.748L179.761 30.464C179.689 30.344 179.689 30.218 179.761 30.086L182.317 26.054C182.389 25.898 182.533 25.82 182.749 25.82ZM178.609 35H177.799C177.631 35 177.547 34.916 177.547 34.748V22.598C177.547 22.43 177.631 22.346 177.799 22.346H178.609C178.777 22.346 178.861 22.43 178.861 22.598V34.748C178.861 34.916 178.777 35 178.609 35ZM186.589 35H185.779C185.611 35 185.527 34.916 185.527 34.748V26.072C185.527 25.904 185.611 25.82 185.779 25.82H186.589C186.757 25.82 186.841 25.904 186.841 26.072V26.792H186.913C187.033 26.528 187.261 26.3 187.597 26.108C187.933 25.916 188.329 25.82 188.785 25.82H189.487C189.643 25.82 189.721 25.904 189.721 26.072V26.738C189.721 26.822 189.703 26.888 189.667 26.936C189.631 26.972 189.571 26.984 189.487 26.972H188.515C187.975 26.972 187.561 27.134 187.273 27.458C186.985 27.782 186.841 28.226 186.841 28.79V34.748C186.841 34.916 186.757 35 186.589 35ZM194.766 35H193.83C193.002 35 192.348 34.766 191.868 34.298C191.4 33.83 191.166 33.176 191.166 32.336V28.484C191.166 27.644 191.4 26.99 191.868 26.522C192.348 26.054 193.002 25.82 193.83 25.82H197.736C197.904 25.82 197.988 25.904 197.988 26.072V34.748C197.988 34.916 197.904 35 197.736 35H196.926C196.758 35 196.674 34.916 196.674 34.748V34.046H196.602C196.302 34.682 195.69 35 194.766 35ZM196.674 32.192V27.134C196.674 27.026 196.614 26.972 196.494 26.972H193.974C192.978 26.972 192.48 27.494 192.48 28.538V32.282C192.48 33.326 192.978 33.848 193.974 33.848H195C195.54 33.848 195.954 33.704 196.242 33.416C196.53 33.128 196.674 32.72 196.674 32.192ZM200.559 24.308V22.616C200.559 22.448 200.637 22.364 200.793 22.364H201.621C201.789 22.364 201.873 22.448 201.873 22.616V24.308C201.873 24.476 201.789 24.56 201.621 24.56H200.793C200.637 24.56 200.559 24.476 200.559 24.308ZM200.559 34.748V26.072C200.559 25.904 200.637 25.82 200.793 25.82H201.621C201.789 25.82 201.873 25.904 201.873 26.072V34.748C201.873 34.916 201.789 35 201.621 35H200.811C200.643 35 200.559 34.916 200.559 34.748ZM205.503 35H204.693C204.525 35 204.441 34.916 204.441 34.748V26.072C204.441 25.904 204.525 25.82 204.693 25.82H205.503C205.671 25.82 205.755 25.904 205.755 26.072V26.774H205.827C206.127 26.138 206.739 25.82 207.663 25.82H208.671C209.487 25.82 210.123 26.054 210.579 26.522C211.035 26.99 211.263 27.644 211.263 28.484V34.748C211.263 34.916 211.179 35 211.011 35H210.201C210.033 35 209.949 34.916 209.949 34.748V28.538C209.949 27.494 209.445 26.972 208.437 26.972H207.429C206.889 26.972 206.475 27.116 206.187 27.404C205.899 27.692 205.755 28.1 205.755 28.628V34.748C205.755 34.916 205.671 35 205.503 35ZM219.952 35H216.136C215.308 35 214.654 34.766 214.174 34.298C213.706 33.83 213.472 33.176 213.472 32.336V28.484C213.472 27.644 213.706 26.99 214.174 26.522C214.654 26.054 215.308 25.82 216.136 25.82H217.648C218.476 25.82 219.124 26.054 219.592 26.522C220.06 26.99 220.294 27.644 220.294 28.484V30.77C220.294 30.95 220.21 31.04 220.042 31.04H214.948C214.828 31.04 214.768 31.094 214.768 31.202V32.3C214.768 33.344 215.272 33.866 216.28 33.866H219.952C220.12 33.866 220.204 33.95 220.204 34.118V34.766C220.204 34.922 220.12 35 219.952 35ZM214.948 30.086H218.836C218.956 30.086 219.016 30.026 219.016 29.906V28.52C219.016 27.488 218.512 26.972 217.504 26.972H216.28C215.272 26.972 214.768 27.488 214.768 28.52V29.906C214.768 30.026 214.828 30.086 214.948 30.086Z" fill="black"/>
<path d="M128 36.8H221.266V37.7H128V36.8Z" fill="black"/>
<path d="M228 18H247C249.761 18 252 20.2386 252 23V36C252 38.7614 249.761 41 247 41H228V18Z" fill="#999999"/>
<g clip-path="url(#clip0)">
<path d="M236.07 27.3219L239.583 33.1778C239.772 33.4922 240.227 33.4922 240.416 33.1778L243.93 27.3219C244.124 26.9981 243.891 26.5863 243.513 26.5863H236.486C236.108 26.5863 235.875 26.9981 236.07 27.3219Z" fill="black"/>
</g>
<path d="M0 51H338" stroke="black" stroke-opacity="0.25"/>
<path d="M0 135H338" stroke="black" stroke-opacity="0.25"/>
<path d="M0 224H338" stroke="black" stroke-opacity="0.25"/>
<rect y="50" width="327" height="85" fill="#EBE9E9"/>
<rect x="0.5" y="50.5" width="326" height="84" stroke="black" stroke-opacity="0.25"/>
<g clip-path="url(#clip1)">
<path d="M81.0996 76.5906L59.3058 66.0694C59.1125 65.9762 58.8876 65.9762 58.6944 66.0694L36.9005 76.5906C36.6575 76.7079 36.5031 76.954 36.5031 77.2238V102.775C36.5031 103.045 36.6575 103.291 36.9005 103.408L58.6943 113.93C58.7909 113.976 58.8955 114 59 114C59.1046 114 59.2091 113.976 59.3058 113.93L81.0996 103.408C81.3426 103.291 81.497 103.045 81.497 102.775V77.2239C81.497 76.9539 81.3425 76.708 81.0996 76.5906ZM59 67.4834L79.1766 77.2238L73.3279 80.0473C73.2908 80.0191 73.2517 79.9931 73.2088 79.9723L53.1693 70.2983L59 67.4834ZM51.5813 71.0933L71.7286 80.8195L67.6022 82.8116L47.4633 73.0893L51.5813 71.0933ZM72.2 82.1533V89.517L68.3456 91.3778V84.0141L72.2 82.1533ZM80.0908 102.334L59.7032 112.176V88.1862L64.5663 85.8385C64.916 85.6697 65.0626 85.2494 64.8937 84.8996C64.7249 84.5501 64.3046 84.4032 63.9548 84.5722L59 86.9642L57.0504 86.023C56.7006 85.8539 56.2804 86.0007 56.1115 86.3504C55.9427 86.7001 56.0893 87.1205 56.439 87.2893L58.2969 88.1862V112.176L37.9093 102.334V78.344L53.4343 85.8388C53.5328 85.8865 53.637 85.909 53.7395 85.909C54.0008 85.909 54.2519 85.7625 54.3731 85.5114C54.542 85.1617 54.3953 84.7413 54.0456 84.5725L38.8235 77.2238L45.8083 73.8518L66.9296 84.0483C66.9327 84.0526 66.9362 84.0565 66.9394 84.0607V92.4981C66.9394 92.74 67.0638 92.965 67.2687 93.0937C67.3825 93.1651 67.5124 93.2012 67.6426 93.2012C67.7468 93.2012 67.8514 93.178 67.9482 93.1313L73.2088 90.5917C73.4518 90.4744 73.6062 90.2284 73.6062 89.9585V81.4746L80.0908 78.3441V102.334Z" fill="black"/>
<path d="M43.7117 99.6073L40.5134 98.0633C40.1635 97.8943 39.7433 98.0411 39.5745 98.3908C39.4057 98.7405 39.5523 99.1609 39.902 99.3297L43.1002 100.874C43.1988 100.921 43.3029 100.944 43.4054 100.944C43.6668 100.944 43.9178 100.797 44.0391 100.546C44.208 100.196 44.0614 99.7763 43.7117 99.6073Z" fill="black"/>
<path d="M46.6552 97.6914L40.5179 94.7285C40.1681 94.5597 39.7478 94.7063 39.579 95.0561C39.4102 95.4058 39.5568 95.8262 39.9065 95.995L46.0439 98.9579C46.1424 99.0054 46.2465 99.028 46.349 99.028C46.6104 99.028 46.8615 98.8816 46.9827 98.6304C47.1515 98.2805 47.0049 97.8602 46.6552 97.6914Z" fill="black"/>
</g>
<path d="M123.574 98H121.954V92.006H115.366V98H113.746V85.148H115.366V90.584H121.954V85.148H123.574V98ZM135.26 93.158C135.26 94.754 134.852 95.99 134.036 96.866C133.232 97.742 132.14 98.18 130.76 98.18C129.908 98.18 129.146 97.988 128.474 97.604C127.814 97.208 127.292 96.638 126.908 95.894C126.524 95.138 126.332 94.226 126.332 93.158C126.332 91.562 126.734 90.332 127.538 89.468C128.342 88.604 129.434 88.172 130.814 88.172C131.69 88.172 132.458 88.37 133.118 88.766C133.79 89.15 134.312 89.714 134.684 90.458C135.068 91.19 135.26 92.09 135.26 93.158ZM127.97 93.158C127.97 94.298 128.192 95.204 128.636 95.876C129.092 96.536 129.812 96.866 130.796 96.866C131.768 96.866 132.482 96.536 132.938 95.876C133.394 95.204 133.622 94.298 133.622 93.158C133.622 92.018 133.394 91.124 132.938 90.476C132.482 89.828 131.762 89.504 130.778 89.504C129.794 89.504 129.08 89.828 128.636 90.476C128.192 91.124 127.97 92.018 127.97 93.158ZM145.528 90.782C145.528 91.382 145.348 91.85 144.988 92.186C144.628 92.522 144.166 92.75 143.602 92.87V92.942C144.202 93.026 144.724 93.242 145.168 93.59C145.612 93.926 145.834 94.454 145.834 95.174C145.834 95.99 145.528 96.668 144.916 97.208C144.316 97.736 143.32 98 141.928 98H137.77V88.352H141.91C142.594 88.352 143.206 88.43 143.746 88.586C144.298 88.73 144.73 88.982 145.042 89.342C145.366 89.69 145.528 90.17 145.528 90.782ZM143.926 90.98C143.926 90.524 143.758 90.194 143.422 89.99C143.098 89.774 142.564 89.666 141.82 89.666H139.354V92.312H141.532C143.128 92.312 143.926 91.868 143.926 90.98ZM144.196 95.174C144.196 94.622 143.986 94.226 143.566 93.986C143.146 93.746 142.528 93.626 141.712 93.626H139.354V96.722H141.748C142.54 96.722 143.146 96.608 143.566 96.38C143.986 96.14 144.196 95.738 144.196 95.174ZM151.795 88.19C152.971 88.19 153.841 88.448 154.405 88.964C154.969 89.48 155.251 90.302 155.251 91.43V98H154.099L153.793 96.632H153.721C153.301 97.16 152.857 97.55 152.389 97.802C151.933 98.054 151.297 98.18 150.481 98.18C149.605 98.18 148.879 97.952 148.303 97.496C147.727 97.028 147.439 96.302 147.439 95.318C147.439 94.358 147.817 93.62 148.573 93.104C149.329 92.576 150.493 92.288 152.065 92.24L153.703 92.186V91.61C153.703 90.806 153.529 90.248 153.181 89.936C152.833 89.624 152.341 89.468 151.705 89.468C151.201 89.468 150.721 89.546 150.265 89.702C149.809 89.846 149.383 90.014 148.987 90.206L148.501 89.018C148.921 88.79 149.419 88.598 149.995 88.442C150.571 88.274 151.171 88.19 151.795 88.19ZM153.685 93.284L152.263 93.338C151.063 93.386 150.229 93.578 149.761 93.914C149.305 94.25 149.077 94.724 149.077 95.336C149.077 95.876 149.239 96.272 149.563 96.524C149.899 96.776 150.325 96.902 150.841 96.902C151.657 96.902 152.335 96.68 152.875 96.236C153.415 95.78 153.685 95.084 153.685 94.148V93.284ZM158.825 98H156.989L159.743 93.95C159.371 93.854 159.011 93.704 158.663 93.5C158.315 93.284 158.033 92.99 157.817 92.618C157.601 92.234 157.493 91.76 157.493 91.196C157.493 90.272 157.805 89.57 158.429 89.09C159.053 88.598 159.881 88.352 160.913 88.352H165.233V98H163.649V94.166H161.309L158.825 98ZM159.023 91.214C159.023 91.766 159.227 92.18 159.635 92.456C160.055 92.72 160.637 92.852 161.381 92.852H163.649V89.666H161.075C160.343 89.666 159.815 89.81 159.491 90.098C159.179 90.386 159.023 90.758 159.023 91.214ZM173.072 98V85.148H182.72V98H181.118V86.57H174.692V98H173.072ZM194.41 93.158C194.41 94.754 194.002 95.99 193.186 96.866C192.382 97.742 191.29 98.18 189.91 98.18C189.058 98.18 188.296 97.988 187.624 97.604C186.964 97.208 186.442 96.638 186.058 95.894C185.674 95.138 185.482 94.226 185.482 93.158C185.482 91.562 185.884 90.332 186.688 89.468C187.492 88.604 188.584 88.172 189.964 88.172C190.84 88.172 191.608 88.37 192.268 88.766C192.94 89.15 193.462 89.714 193.834 90.458C194.218 91.19 194.41 92.09 194.41 93.158ZM187.12 93.158C187.12 94.298 187.342 95.204 187.786 95.876C188.242 96.536 188.962 96.866 189.946 96.866C190.918 96.866 191.632 96.536 192.088 95.876C192.544 95.204 192.772 94.298 192.772 93.158C192.772 92.018 192.544 91.124 192.088 90.476C191.632 89.828 190.912 89.504 189.928 89.504C188.944 89.504 188.23 89.828 187.786 90.476C187.342 91.124 187.12 92.018 187.12 93.158ZM198.131 88.352V91.862C198.131 92.966 198.749 93.518 199.985 93.518C200.585 93.518 201.131 93.428 201.623 93.248C202.115 93.056 202.619 92.804 203.135 92.492V88.352H204.719V98H203.135V93.698C202.595 94.046 202.061 94.322 201.533 94.526C201.017 94.718 200.393 94.814 199.661 94.814C198.677 94.814 197.909 94.556 197.357 94.04C196.817 93.524 196.547 92.834 196.547 91.97V88.352H198.131ZM214.444 89.684H211.294V98H209.728V89.684H206.614V88.352H214.444V89.684ZM219.998 88.19C221.174 88.19 222.044 88.448 222.608 88.964C223.172 89.48 223.454 90.302 223.454 91.43V98H222.302L221.996 96.632H221.924C221.504 97.16 221.06 97.55 220.592 97.802C220.136 98.054 219.5 98.18 218.684 98.18C217.808 98.18 217.082 97.952 216.506 97.496C215.93 97.028 215.642 96.302 215.642 95.318C215.642 94.358 216.02 93.62 216.776 93.104C217.532 92.576 218.696 92.288 220.268 92.24L221.906 92.186V91.61C221.906 90.806 221.732 90.248 221.384 89.936C221.036 89.624 220.544 89.468 219.908 89.468C219.404 89.468 218.924 89.546 218.468 89.702C218.012 89.846 217.586 90.014 217.19 90.206L216.704 89.018C217.124 88.79 217.622 88.598 218.198 88.442C218.774 88.274 219.374 88.19 219.998 88.19ZM221.888 93.284L220.466 93.338C219.266 93.386 218.432 93.578 217.964 93.914C217.508 94.25 217.28 94.724 217.28 95.336C217.28 95.876 217.442 96.272 217.766 96.524C218.102 96.776 218.528 96.902 219.044 96.902C219.86 96.902 220.538 96.68 221.078 96.236C221.618 95.78 221.888 95.084 221.888 94.148V93.284ZM231.185 98V85.148H233.003L238.853 95.732H238.925C238.913 95.42 238.895 95.06 238.871 94.652C238.847 94.244 238.829 93.836 238.817 93.428C238.805 93.008 238.799 92.648 238.799 92.348V85.148H240.221V98H238.457L232.535 87.38H232.463C232.487 87.692 232.505 88.064 232.517 88.496C232.541 88.916 232.559 89.336 232.571 89.756C232.595 90.176 232.607 90.548 232.607 90.872V98H231.185ZM244.235 95.588C243.467 95.588 242.831 95.324 242.327 94.796C241.823 94.268 241.571 93.512 241.571 92.528C241.571 91.544 241.811 90.794 242.291 90.278C242.783 89.75 243.449 89.486 244.289 89.486C245.057 89.486 245.693 89.744 246.197 90.26C246.713 90.776 246.971 91.532 246.971 92.528C246.971 93.512 246.725 94.268 246.233 94.796C245.741 95.324 245.075 95.588 244.235 95.588ZM244.271 94.544C244.799 94.544 245.177 94.376 245.405 94.04C245.633 93.692 245.747 93.188 245.747 92.528C245.747 91.856 245.633 91.364 245.405 91.052C245.177 90.728 244.799 90.566 244.271 90.566C243.755 90.566 243.377 90.728 243.137 91.052C242.897 91.364 242.777 91.856 242.777 92.528C242.777 93.188 242.891 93.692 243.119 94.04C243.359 94.376 243.743 94.544 244.271 94.544ZM241.931 98V96.758H246.557V98H241.931ZM248.42 88.91V88.19C248.42 88.01 248.492 87.878 248.636 87.794L250.724 86.588C250.916 86.48 251.072 86.426 251.192 86.426H251.948C252.116 86.426 252.2 86.51 252.2 86.678V97.748C252.2 97.916 252.116 98 251.948 98H251.138C250.97 98 250.886 97.916 250.886 97.748V87.83L248.744 89.054C248.528 89.174 248.42 89.126 248.42 88.91ZM256.075 95.57V96.992C256.075 97.256 255.985 97.604 255.805 98.036L255.085 99.728C255.025 99.824 254.953 99.872 254.869 99.872C254.749 99.872 254.689 99.794 254.689 99.638V95.57C254.689 95.414 254.767 95.336 254.923 95.336H255.841C255.997 95.336 256.075 95.414 256.075 95.57ZM261.713 88.352H263.405L265.493 93.842C265.673 94.322 265.835 94.784 265.979 95.228C266.123 95.66 266.231 96.074 266.303 96.47H266.375C266.447 96.17 266.561 95.78 266.717 95.3C266.873 94.808 267.035 94.316 267.203 93.824L269.165 88.352H270.875L266.717 99.332C266.381 100.244 265.943 100.97 265.403 101.51C264.875 102.05 264.143 102.32 263.207 102.32C262.919 102.32 262.667 102.302 262.451 102.266C262.235 102.242 262.049 102.212 261.893 102.176V100.916C262.025 100.94 262.181 100.964 262.361 100.988C262.553 101.012 262.751 101.024 262.955 101.024C263.507 101.024 263.951 100.868 264.287 100.556C264.635 100.244 264.905 99.83 265.097 99.314L265.601 98.036L261.713 88.352ZM279.394 98H277.792V89.666H274.948C274.792 91.694 274.576 93.332 274.3 94.58C274.024 95.816 273.658 96.716 273.202 97.28C272.746 97.844 272.17 98.126 271.474 98.126C271.318 98.126 271.162 98.114 271.006 98.09C270.862 98.078 270.742 98.048 270.646 98V96.812C270.718 96.836 270.796 96.854 270.88 96.866C270.964 96.878 271.048 96.884 271.132 96.884C271.78 96.884 272.296 96.194 272.68 94.814C273.076 93.434 273.376 91.28 273.58 88.352H279.394V98ZM283.374 95.57V97.748C283.374 97.916 283.296 98 283.14 98H282.222C282.066 98 281.988 97.916 281.988 97.748V95.57C281.988 95.414 282.066 95.336 282.222 95.336H283.14C283.296 95.336 283.374 95.414 283.374 95.57ZM290.74 98V85.148H300.388V98H298.786V86.57H292.36V98H290.74ZM305.184 88.352V94.238C305.184 94.382 305.178 94.598 305.166 94.886C305.154 95.174 305.136 95.462 305.112 95.75C305.1 96.038 305.088 96.266 305.076 96.434L310.242 88.352H312.186V98H310.71V92.312C310.71 92.12 310.71 91.868 310.71 91.556C310.722 91.244 310.734 90.938 310.746 90.638C310.758 90.326 310.77 90.092 310.782 89.936L305.652 98H303.69V88.352H305.184ZM319.847 88.172C321.035 88.172 321.989 88.586 322.709 89.414C323.441 90.242 323.807 91.49 323.807 93.158C323.807 94.802 323.441 96.05 322.709 96.902C321.989 97.754 321.029 98.18 319.829 98.18C319.085 98.18 318.467 98.042 317.975 97.766C317.495 97.478 317.117 97.148 316.841 96.776H316.733C316.757 96.98 316.781 97.238 316.805 97.55C316.829 97.862 316.841 98.132 316.841 98.36V102.32H315.257V88.352H316.553L316.769 89.666H316.841C317.129 89.246 317.507 88.892 317.975 88.604C318.443 88.316 319.067 88.172 319.847 88.172ZM319.559 89.504C318.575 89.504 317.879 89.78 317.471 90.332C317.075 90.884 316.865 91.724 316.841 92.852V93.158C316.841 94.346 317.033 95.264 317.417 95.912C317.813 96.548 318.539 96.866 319.595 96.866C320.183 96.866 320.663 96.704 321.035 96.38C321.419 96.056 321.701 95.618 321.881 95.066C322.073 94.502 322.169 93.86 322.169 93.14C322.169 92.036 321.953 91.154 321.521 90.494C321.101 89.834 320.447 89.504 319.559 89.504Z" fill="black"/>
<g clip-path="url(#clip2)">
<path d="M81.0996 166.591L59.3058 156.069C59.1125 155.976 58.8876 155.976 58.6944 156.069L36.9005 166.591C36.6575 166.708 36.5031 166.954 36.5031 167.224V192.775C36.5031 193.045 36.6575 193.291 36.9005 193.408L58.6943 203.93C58.7909 203.976 58.8955 204 59 204C59.1046 204 59.2091 203.976 59.3058 203.93L81.0996 193.408C81.3426 193.291 81.497 193.045 81.497 192.775V167.224C81.497 166.954 81.3425 166.708 81.0996 166.591ZM59 157.483L79.1766 167.224L73.3279 170.047C73.2908 170.019 73.2517 169.993 73.2088 169.972L53.1693 160.298L59 157.483ZM51.5813 161.093L71.7286 170.819L67.6022 172.812L47.4633 163.089L51.5813 161.093ZM72.2 172.153V179.517L68.3456 181.378V174.014L72.2 172.153ZM80.0908 192.334L59.7032 202.176V178.186L64.5663 175.839C64.916 175.67 65.0626 175.249 64.8937 174.9C64.7249 174.55 64.3046 174.403 63.9548 174.572L59 176.964L57.0504 176.023C56.7006 175.854 56.2804 176.001 56.1115 176.35C55.9427 176.7 56.0893 177.12 56.439 177.289L58.2969 178.186V202.176L37.9093 192.334V168.344L53.4343 175.839C53.5328 175.886 53.637 175.909 53.7395 175.909C54.0008 175.909 54.2519 175.763 54.3731 175.511C54.542 175.162 54.3953 174.741 54.0456 174.572L38.8235 167.224L45.8083 163.852L66.9296 174.048C66.9327 174.053 66.9362 174.056 66.9394 174.061V182.498C66.9394 182.74 67.0638 182.965 67.2687 183.094C67.3825 183.165 67.5124 183.201 67.6426 183.201C67.7468 183.201 67.8514 183.178 67.9482 183.131L73.2088 180.592C73.4518 180.474 73.6062 180.228 73.6062 179.958V171.475L80.0908 168.344V192.334Z" fill="black"/>
<path d="M43.7117 189.607L40.5134 188.063C40.1635 187.894 39.7433 188.041 39.5745 188.391C39.4057 188.741 39.5523 189.161 39.902 189.33L43.1002 190.874C43.1988 190.921 43.3029 190.944 43.4054 190.944C43.6668 190.944 43.9178 190.797 44.0391 190.546C44.208 190.196 44.0614 189.776 43.7117 189.607Z" fill="black"/>
<path d="M46.6552 187.691L40.5179 184.729C40.1681 184.56 39.7478 184.706 39.579 185.056C39.4102 185.406 39.5568 185.826 39.9065 185.995L46.0439 188.958C46.1424 189.005 46.2465 189.028 46.349 189.028C46.6104 189.028 46.8615 188.882 46.9827 188.63C47.1515 188.281 47.0049 187.86 46.6552 187.691Z" fill="black"/>
</g>
<path d="M123.232 175.148L119.128 184.346C118.744 185.198 118.354 185.912 117.958 186.488C117.574 187.052 117.118 187.478 116.59 187.766C116.062 188.042 115.39 188.18 114.574 188.18C114.238 188.18 113.92 188.156 113.62 188.108C113.332 188.06 113.068 187.994 112.828 187.91V186.308C113.068 186.416 113.326 186.506 113.602 186.578C113.878 186.638 114.166 186.668 114.466 186.668C115.138 186.668 115.666 186.524 116.05 186.236C116.446 185.948 116.812 185.438 117.148 184.706L112.198 175.148H113.98L117.562 182.222C117.622 182.342 117.694 182.498 117.778 182.69C117.862 182.87 117.934 183.044 117.994 183.212H118.066C118.114 183.08 118.174 182.924 118.246 182.744C118.318 182.552 118.378 182.396 118.426 182.276L121.522 175.148H123.232ZM130.468 178.352H132.196L128.074 182.996L132.538 188H130.702L126.346 183.104V188H124.762V178.352H126.346V183.032L130.468 178.352ZM138.88 178.172C140.068 178.172 141.022 178.586 141.742 179.414C142.474 180.242 142.84 181.49 142.84 183.158C142.84 184.802 142.474 186.05 141.742 186.902C141.022 187.754 140.062 188.18 138.862 188.18C138.118 188.18 137.5 188.042 137.008 187.766C136.528 187.478 136.15 187.148 135.874 186.776H135.766C135.79 186.98 135.814 187.238 135.838 187.55C135.862 187.862 135.874 188.132 135.874 188.36V192.32H134.29V178.352H135.586L135.802 179.666H135.874C136.162 179.246 136.54 178.892 137.008 178.604C137.476 178.316 138.1 178.172 138.88 178.172ZM138.592 179.504C137.608 179.504 136.912 179.78 136.504 180.332C136.108 180.884 135.898 181.724 135.874 182.852V183.158C135.874 184.346 136.066 185.264 136.45 185.912C136.846 186.548 137.572 186.866 138.628 186.866C139.216 186.866 139.696 186.704 140.068 186.38C140.452 186.056 140.734 185.618 140.914 185.066C141.106 184.502 141.202 183.86 141.202 183.14C141.202 182.036 140.986 181.154 140.554 180.494C140.134 179.834 139.48 179.504 138.592 179.504ZM145.58 188V175.148H155.228V188H153.626V176.57H147.2V188H145.58ZM166.918 183.158C166.918 184.754 166.51 185.99 165.694 186.866C164.89 187.742 163.798 188.18 162.418 188.18C161.566 188.18 160.804 187.988 160.132 187.604C159.472 187.208 158.95 186.638 158.566 185.894C158.182 185.138 157.99 184.226 157.99 183.158C157.99 181.562 158.392 180.332 159.196 179.468C160 178.604 161.092 178.172 162.472 178.172C163.348 178.172 164.116 178.37 164.776 178.766C165.448 179.15 165.97 179.714 166.342 180.458C166.726 181.19 166.918 182.09 166.918 183.158ZM159.628 183.158C159.628 184.298 159.85 185.204 160.294 185.876C160.75 186.536 161.47 186.866 162.454 186.866C163.426 186.866 164.14 186.536 164.596 185.876C165.052 185.204 165.28 184.298 165.28 183.158C165.28 182.018 165.052 181.124 164.596 180.476C164.14 179.828 163.42 179.504 162.436 179.504C161.452 179.504 160.738 179.828 160.294 180.476C159.85 181.124 159.628 182.018 159.628 183.158ZM170.639 178.352V181.862C170.639 182.966 171.257 183.518 172.493 183.518C173.093 183.518 173.639 183.428 174.131 183.248C174.623 183.056 175.127 182.804 175.643 182.492V178.352H177.227V188H175.643V183.698C175.103 184.046 174.569 184.322 174.041 184.526C173.525 184.718 172.901 184.814 172.169 184.814C171.185 184.814 170.417 184.556 169.865 184.04C169.325 183.524 169.055 182.834 169.055 181.97V178.352H170.639ZM186.952 179.684H183.802V188H182.236V179.684H179.122V178.352H186.952V179.684ZM192.506 178.19C193.682 178.19 194.552 178.448 195.116 178.964C195.68 179.48 195.962 180.302 195.962 181.43V188H194.81L194.504 186.632H194.432C194.012 187.16 193.568 187.55 193.1 187.802C192.644 188.054 192.008 188.18 191.192 188.18C190.316 188.18 189.59 187.952 189.014 187.496C188.438 187.028 188.15 186.302 188.15 185.318C188.15 184.358 188.528 183.62 189.284 183.104C190.04 182.576 191.204 182.288 192.776 182.24L194.414 182.186V181.61C194.414 180.806 194.24 180.248 193.892 179.936C193.544 179.624 193.052 179.468 192.416 179.468C191.912 179.468 191.432 179.546 190.976 179.702C190.52 179.846 190.094 180.014 189.698 180.206L189.212 179.018C189.632 178.79 190.13 178.598 190.706 178.442C191.282 178.274 191.882 178.19 192.506 178.19ZM194.396 183.284L192.974 183.338C191.774 183.386 190.94 183.578 190.472 183.914C190.016 184.25 189.788 184.724 189.788 185.336C189.788 185.876 189.95 186.272 190.274 186.524C190.61 186.776 191.036 186.902 191.552 186.902C192.368 186.902 193.046 186.68 193.586 186.236C194.126 185.78 194.396 185.084 194.396 184.148V183.284ZM203.692 188V175.148H205.51L211.36 185.732H211.432C211.42 185.42 211.402 185.06 211.378 184.652C211.354 184.244 211.336 183.836 211.324 183.428C211.312 183.008 211.306 182.648 211.306 182.348V175.148H212.728V188H210.964L205.042 177.38H204.97C204.994 177.692 205.012 178.064 205.024 178.496C205.048 178.916 205.066 179.336 205.078 179.756C205.102 180.176 205.114 180.548 205.114 180.872V188H203.692ZM216.742 185.588C215.974 185.588 215.338 185.324 214.834 184.796C214.33 184.268 214.078 183.512 214.078 182.528C214.078 181.544 214.318 180.794 214.798 180.278C215.29 179.75 215.956 179.486 216.796 179.486C217.564 179.486 218.2 179.744 218.704 180.26C219.22 180.776 219.478 181.532 219.478 182.528C219.478 183.512 219.232 184.268 218.74 184.796C218.248 185.324 217.582 185.588 216.742 185.588ZM216.778 184.544C217.306 184.544 217.684 184.376 217.912 184.04C218.14 183.692 218.254 183.188 218.254 182.528C218.254 181.856 218.14 181.364 217.912 181.052C217.684 180.728 217.306 180.566 216.778 180.566C216.262 180.566 215.884 180.728 215.644 181.052C215.404 181.364 215.284 181.856 215.284 182.528C215.284 183.188 215.398 183.692 215.626 184.04C215.866 184.376 216.25 184.544 216.778 184.544ZM214.438 188V186.758H219.064V188H214.438ZM224.276 186.848H225.752C226.76 186.848 227.264 186.326 227.264 185.282V179.144C227.264 178.1 226.76 177.578 225.752 177.578H224.276C223.28 177.578 222.782 178.1 222.782 179.144V185.282C222.782 186.326 223.28 186.848 224.276 186.848ZM225.914 188H224.114C223.298 188 222.65 187.766 222.17 187.298C221.702 186.83 221.468 186.176 221.468 185.336V179.09C221.468 178.262 221.702 177.614 222.17 177.146C222.65 176.666 223.298 176.426 224.114 176.426H225.914C226.73 176.426 227.372 176.666 227.84 177.146C228.32 177.614 228.56 178.262 228.56 179.09V185.336C228.56 186.176 228.32 186.83 227.84 187.298C227.372 187.766 226.73 188 225.914 188ZM230.28 178.91V178.19C230.28 178.01 230.352 177.878 230.496 177.794L232.584 176.588C232.776 176.48 232.932 176.426 233.052 176.426H233.808C233.976 176.426 234.06 176.51 234.06 176.678V187.748C234.06 187.916 233.976 188 233.808 188H232.998C232.83 188 232.746 187.916 232.746 187.748V177.83L230.604 179.054C230.388 179.174 230.28 179.126 230.28 178.91ZM239.428 186.848H240.904C241.912 186.848 242.416 186.326 242.416 185.282V179.144C242.416 178.1 241.912 177.578 240.904 177.578H239.428C238.432 177.578 237.934 178.1 237.934 179.144V185.282C237.934 186.326 238.432 186.848 239.428 186.848ZM241.066 188H239.266C238.45 188 237.802 187.766 237.322 187.298C236.854 186.83 236.62 186.176 236.62 185.336V179.09C236.62 178.262 236.854 177.614 237.322 177.146C237.802 176.666 238.45 176.426 239.266 176.426H241.066C241.882 176.426 242.524 176.666 242.992 177.146C243.472 177.614 243.712 178.262 243.712 179.09V185.336C243.712 186.176 243.472 186.83 242.992 187.298C242.524 187.766 241.882 188 241.066 188ZM248.78 186.848H250.256C251.264 186.848 251.768 186.326 251.768 185.282V179.144C251.768 178.1 251.264 177.578 250.256 177.578H248.78C247.784 177.578 247.286 178.1 247.286 179.144V185.282C247.286 186.326 247.784 186.848 248.78 186.848ZM250.418 188H248.618C247.802 188 247.154 187.766 246.674 187.298C246.206 186.83 245.972 186.176 245.972 185.336V179.09C245.972 178.262 246.206 177.614 246.674 177.146C247.154 176.666 247.802 176.426 248.618 176.426H250.418C251.234 176.426 251.876 176.666 252.344 177.146C252.824 177.614 253.064 178.262 253.064 179.09V185.336C253.064 186.176 252.824 186.83 252.344 187.298C251.876 187.766 251.234 188 250.418 188ZM254.783 178.91V178.19C254.783 178.01 254.855 177.878 254.999 177.794L257.087 176.588C257.279 176.48 257.435 176.426 257.555 176.426H258.311C258.479 176.426 258.563 176.51 258.563 176.678V187.748C258.563 187.916 258.479 188 258.311 188H257.501C257.333 188 257.249 187.916 257.249 187.748V177.83L255.107 179.054C254.891 179.174 254.783 179.126 254.783 178.91ZM262.438 185.57V186.992C262.438 187.256 262.348 187.604 262.168 188.036L261.448 189.728C261.388 189.824 261.316 189.872 261.232 189.872C261.112 189.872 261.052 189.794 261.052 189.638V185.57C261.052 185.414 261.13 185.336 261.286 185.336H262.204C262.36 185.336 262.438 185.414 262.438 185.57ZM268.077 178.352H269.769L271.857 183.842C272.037 184.322 272.199 184.784 272.343 185.228C272.487 185.66 272.595 186.074 272.667 186.47H272.739C272.811 186.17 272.925 185.78 273.081 185.3C273.237 184.808 273.399 184.316 273.567 183.824L275.529 178.352H277.239L273.081 189.332C272.745 190.244 272.307 190.97 271.767 191.51C271.239 192.05 270.507 192.32 269.571 192.32C269.283 192.32 269.031 192.302 268.815 192.266C268.599 192.242 268.413 192.212 268.257 192.176V190.916C268.389 190.94 268.545 190.964 268.725 190.988C268.917 191.012 269.115 191.024 269.319 191.024C269.871 191.024 270.315 190.868 270.651 190.556C270.999 190.244 271.269 189.83 271.461 189.314L271.965 188.036L268.077 178.352ZM285.757 188H284.155V179.666H281.311C281.155 181.694 280.939 183.332 280.663 184.58C280.387 185.816 280.021 186.716 279.565 187.28C279.109 187.844 278.533 188.126 277.837 188.126C277.681 188.126 277.525 188.114 277.369 188.09C277.225 188.078 277.105 188.048 277.009 188V186.812C277.081 186.836 277.159 186.854 277.243 186.866C277.327 186.878 277.411 186.884 277.495 186.884C278.143 186.884 278.659 186.194 279.043 184.814C279.439 183.434 279.739 181.28 279.943 178.352H285.757V188ZM289.737 185.57V187.748C289.737 187.916 289.659 188 289.503 188H288.585C288.429 188 288.351 187.916 288.351 187.748V185.57C288.351 185.414 288.429 185.336 288.585 185.336H289.503C289.659 185.336 289.737 185.414 289.737 185.57ZM305.833 188H303.997L300.595 182.42L297.139 188H295.429L299.695 181.304L295.699 175.148H297.499L300.649 180.188L303.817 175.148H305.527L301.549 181.268L305.833 188ZM312.024 178.172C313.212 178.172 314.166 178.586 314.886 179.414C315.618 180.242 315.984 181.49 315.984 183.158C315.984 184.802 315.618 186.05 314.886 186.902C314.166 187.754 313.206 188.18 312.006 188.18C311.262 188.18 310.644 188.042 310.152 187.766C309.672 187.478 309.294 187.148 309.018 186.776H308.91C308.934 186.98 308.958 187.238 308.982 187.55C309.006 187.862 309.018 188.132 309.018 188.36V192.32H307.434V178.352H308.73L308.946 179.666H309.018C309.306 179.246 309.684 178.892 310.152 178.604C310.62 178.316 311.244 178.172 312.024 178.172ZM311.736 179.504C310.752 179.504 310.056 179.78 309.648 180.332C309.252 180.884 309.042 181.724 309.018 182.852V183.158C309.018 184.346 309.21 185.264 309.594 185.912C309.99 186.548 310.716 186.866 311.772 186.866C312.36 186.866 312.84 186.704 313.212 186.38C313.596 186.056 313.878 185.618 314.058 185.066C314.25 184.502 314.346 183.86 314.346 183.14C314.346 182.036 314.13 181.154 313.698 180.494C313.278 179.834 312.624 179.504 311.736 179.504Z" fill="black"/>
<g clip-path="url(#clip3)">
<path d="M81.0996 256.591L59.3058 246.069C59.1125 245.976 58.8876 245.976 58.6944 246.069L36.9005 256.591C36.6575 256.708 36.5031 256.954 36.5031 257.224V282.775C36.5031 283.045 36.6575 283.291 36.9005 283.408L58.6943 293.93C58.7909 293.976 58.8955 294 59 294C59.1046 294 59.2091 293.976 59.3058 293.93L81.0996 283.408C81.3426 283.291 81.497 283.045 81.497 282.775V257.224C81.497 256.954 81.3425 256.708 81.0996 256.591ZM59 247.483L79.1766 257.224L73.3279 260.047C73.2908 260.019 73.2517 259.993 73.2088 259.972L53.1693 250.298L59 247.483ZM51.5813 251.093L71.7286 260.819L67.6022 262.812L47.4633 253.089L51.5813 251.093ZM72.2 262.153V269.517L68.3456 271.378V264.014L72.2 262.153ZM80.0908 282.334L59.7032 292.176V268.186L64.5663 265.839C64.916 265.67 65.0626 265.249 64.8937 264.9C64.7249 264.55 64.3046 264.403 63.9548 264.572L59 266.964L57.0504 266.023C56.7006 265.854 56.2804 266.001 56.1115 266.35C55.9427 266.7 56.0893 267.12 56.439 267.289L58.2969 268.186V292.176L37.9093 282.334V258.344L53.4343 265.839C53.5328 265.886 53.637 265.909 53.7395 265.909C54.0008 265.909 54.2519 265.763 54.3731 265.511C54.542 265.162 54.3953 264.741 54.0456 264.572L38.8235 257.224L45.8083 253.852L66.9296 264.048C66.9327 264.053 66.9362 264.056 66.9394 264.061V272.498C66.9394 272.74 67.0638 272.965 67.2687 273.094C67.3825 273.165 67.5124 273.201 67.6426 273.201C67.7468 273.201 67.8514 273.178 67.9482 273.131L73.2088 270.592C73.4518 270.474 73.6062 270.228 73.6062 269.958V261.475L80.0908 258.344V282.334Z" fill="black"/>
<path d="M43.7117 279.607L40.5134 278.063C40.1635 277.894 39.7433 278.041 39.5745 278.391C39.4057 278.741 39.5523 279.161 39.902 279.33L43.1002 280.874C43.1988 280.921 43.3029 280.944 43.4054 280.944C43.6668 280.944 43.9178 280.797 44.0391 280.546C44.208 280.196 44.0614 279.776 43.7117 279.607Z" fill="black"/>
<path d="M46.6552 277.691L40.5179 274.729C40.1681 274.56 39.7478 274.706 39.579 275.056C39.4102 275.406 39.5568 275.826 39.9065 275.995L46.0439 278.958C46.1424 279.005 46.2465 279.028 46.349 279.028C46.6104 279.028 46.8615 278.882 46.9827 278.63C47.1515 278.281 47.0049 277.86 46.6552 277.691Z" fill="black"/>
</g>
<path d="M117.814 278H116.194V266.57H112.18V265.148H121.81V266.57H117.814V278ZM130.654 273.158C130.654 274.754 130.246 275.99 129.43 276.866C128.626 277.742 127.534 278.18 126.154 278.18C125.302 278.18 124.54 277.988 123.868 277.604C123.208 277.208 122.686 276.638 122.302 275.894C121.918 275.138 121.726 274.226 121.726 273.158C121.726 271.562 122.128 270.332 122.932 269.468C123.736 268.604 124.828 268.172 126.208 268.172C127.084 268.172 127.852 268.37 128.512 268.766C129.184 269.15 129.706 269.714 130.078 270.458C130.462 271.19 130.654 272.09 130.654 273.158ZM123.364 273.158C123.364 274.298 123.586 275.204 124.03 275.876C124.486 276.536 125.206 276.866 126.19 276.866C127.162 276.866 127.876 276.536 128.332 275.876C128.788 275.204 129.016 274.298 129.016 273.158C129.016 272.018 128.788 271.124 128.332 270.476C127.876 269.828 127.156 269.504 126.172 269.504C125.188 269.504 124.474 269.828 124.03 270.476C123.586 271.124 123.364 272.018 123.364 273.158ZM134.375 268.352V271.862C134.375 272.966 134.993 273.518 136.229 273.518C136.829 273.518 137.375 273.428 137.867 273.248C138.359 273.056 138.863 272.804 139.379 272.492V268.352H140.963V278H139.379V273.698C138.839 274.046 138.305 274.322 137.777 274.526C137.261 274.718 136.637 274.814 135.905 274.814C134.921 274.814 134.153 274.556 133.601 274.04C133.061 273.524 132.791 272.834 132.791 271.97V268.352H134.375ZM149.734 268.352H151.462L147.34 272.996L151.804 278H149.968L145.612 273.104V278H144.028V268.352H145.612V273.032L149.734 268.352ZM157.209 268.19C158.385 268.19 159.255 268.448 159.819 268.964C160.383 269.48 160.665 270.302 160.665 271.43V278H159.513L159.207 276.632H159.135C158.715 277.16 158.271 277.55 157.803 277.802C157.347 278.054 156.711 278.18 155.895 278.18C155.019 278.18 154.293 277.952 153.717 277.496C153.141 277.028 152.853 276.302 152.853 275.318C152.853 274.358 153.231 273.62 153.987 273.104C154.743 272.576 155.907 272.288 157.479 272.24L159.117 272.186V271.61C159.117 270.806 158.943 270.248 158.595 269.936C158.247 269.624 157.755 269.468 157.119 269.468C156.615 269.468 156.135 269.546 155.679 269.702C155.223 269.846 154.797 270.014 154.401 270.206L153.915 269.018C154.335 268.79 154.833 268.598 155.409 268.442C155.985 268.274 156.585 268.19 157.209 268.19ZM159.099 273.284L157.677 273.338C156.477 273.386 155.643 273.578 155.175 273.914C154.719 274.25 154.491 274.724 154.491 275.336C154.491 275.876 154.653 276.272 154.977 276.524C155.313 276.776 155.739 276.902 156.255 276.902C157.071 276.902 157.749 276.68 158.289 276.236C158.829 275.78 159.099 275.084 159.099 274.148V273.284ZM175.974 270.782C175.974 271.382 175.794 271.85 175.434 272.186C175.074 272.522 174.612 272.75 174.048 272.87V272.942C174.648 273.026 175.17 273.242 175.614 273.59C176.058 273.926 176.28 274.454 176.28 275.174C176.28 275.99 175.974 276.668 175.362 277.208C174.762 277.736 173.766 278 172.374 278H168.216V268.352H172.356C173.04 268.352 173.652 268.43 174.192 268.586C174.744 268.73 175.176 268.982 175.488 269.342C175.812 269.69 175.974 270.17 175.974 270.782ZM174.372 270.98C174.372 270.524 174.204 270.194 173.868 269.99C173.544 269.774 173.01 269.666 172.266 269.666H169.8V272.312H171.978C173.574 272.312 174.372 271.868 174.372 270.98ZM174.642 275.174C174.642 274.622 174.432 274.226 174.012 273.986C173.592 273.746 172.974 273.626 172.158 273.626H169.8V276.722H172.194C172.986 276.722 173.592 276.608 174.012 276.38C174.432 276.14 174.642 275.738 174.642 275.174ZM178.587 278V268.352H180.171V272.312H182.673C183.921 272.312 184.845 272.54 185.445 272.996C186.045 273.452 186.345 274.136 186.345 275.048C186.345 275.948 186.051 276.668 185.463 277.208C184.875 277.736 183.921 278 182.601 278H178.587ZM187.947 278V268.352H189.531V278H187.947ZM180.171 276.722H182.457C183.141 276.722 183.699 276.608 184.131 276.38C184.563 276.14 184.779 275.726 184.779 275.138C184.779 274.55 184.581 274.154 184.185 273.95C183.789 273.734 183.219 273.626 182.475 273.626H180.171V276.722ZM199.76 268.352V276.668H201.164V281.348H199.634V278H192.92V281.348H191.408V276.668H192.182C193.01 275.528 193.628 274.232 194.036 272.78C194.456 271.316 194.672 269.84 194.684 268.352H199.76ZM198.23 269.594H196.088C196.04 270.41 195.914 271.256 195.71 272.132C195.506 272.996 195.242 273.824 194.918 274.616C194.606 275.408 194.24 276.092 193.82 276.668H198.23V269.594ZM206.709 268.19C207.885 268.19 208.755 268.448 209.319 268.964C209.883 269.48 210.165 270.302 210.165 271.43V278H209.013L208.707 276.632H208.635C208.215 277.16 207.771 277.55 207.303 277.802C206.847 278.054 206.211 278.18 205.395 278.18C204.519 278.18 203.793 277.952 203.217 277.496C202.641 277.028 202.353 276.302 202.353 275.318C202.353 274.358 202.731 273.62 203.487 273.104C204.243 272.576 205.407 272.288 206.979 272.24L208.617 272.186V271.61C208.617 270.806 208.443 270.248 208.095 269.936C207.747 269.624 207.255 269.468 206.619 269.468C206.115 269.468 205.635 269.546 205.179 269.702C204.723 269.846 204.297 270.014 203.901 270.206L203.415 269.018C203.835 268.79 204.333 268.598 204.909 268.442C205.485 268.274 206.085 268.19 206.709 268.19ZM208.599 273.284L207.177 273.338C205.977 273.386 205.143 273.578 204.675 273.914C204.219 274.25 203.991 274.724 203.991 275.336C203.991 275.876 204.153 276.272 204.477 276.524C204.813 276.776 205.239 276.902 205.755 276.902C206.571 276.902 207.249 276.68 207.789 276.236C208.329 275.78 208.599 275.084 208.599 274.148V273.284ZM214.531 268.352V271.862C214.531 272.966 215.149 273.518 216.385 273.518C216.985 273.518 217.531 273.428 218.023 273.248C218.515 273.056 219.019 272.804 219.535 272.492V268.352H221.119V278H219.535V273.698C218.995 274.046 218.461 274.322 217.933 274.526C217.417 274.718 216.793 274.814 216.061 274.814C215.077 274.814 214.309 274.556 213.757 274.04C213.217 273.524 212.947 272.834 212.947 271.97V268.352H214.531ZM225.678 268.352V274.238C225.678 274.382 225.672 274.598 225.66 274.886C225.648 275.174 225.63 275.462 225.606 275.75C225.594 276.038 225.582 276.266 225.57 276.434L230.736 268.352H232.68V278H231.204V272.312C231.204 272.12 231.204 271.868 231.204 271.556C231.216 271.244 231.228 270.938 231.24 270.638C231.252 270.326 231.264 270.092 231.276 269.936L226.146 278H224.184V268.352H225.678ZM240.501 278V265.148H242.319L248.169 275.732H248.241C248.229 275.42 248.211 275.06 248.187 274.652C248.163 274.244 248.145 273.836 248.133 273.428C248.121 273.008 248.115 272.648 248.115 272.348V265.148H249.537V278H247.773L241.851 267.38H241.779C241.803 267.692 241.821 268.064 241.833 268.496C241.857 268.916 241.875 269.336 241.887 269.756C241.911 270.176 241.923 270.548 241.923 270.872V278H240.501ZM253.551 275.588C252.783 275.588 252.147 275.324 251.643 274.796C251.139 274.268 250.887 273.512 250.887 272.528C250.887 271.544 251.127 270.794 251.607 270.278C252.099 269.75 252.765 269.486 253.605 269.486C254.373 269.486 255.009 269.744 255.513 270.26C256.029 270.776 256.287 271.532 256.287 272.528C256.287 273.512 256.041 274.268 255.549 274.796C255.057 275.324 254.391 275.588 253.551 275.588ZM253.587 274.544C254.115 274.544 254.493 274.376 254.721 274.04C254.949 273.692 255.063 273.188 255.063 272.528C255.063 271.856 254.949 271.364 254.721 271.052C254.493 270.728 254.115 270.566 253.587 270.566C253.071 270.566 252.693 270.728 252.453 271.052C252.213 271.364 252.093 271.856 252.093 272.528C252.093 273.188 252.207 273.692 252.435 274.04C252.675 274.376 253.059 274.544 253.587 274.544ZM251.247 278V276.758H255.873V278H251.247ZM261.157 271.628H262.201C263.221 271.628 263.731 271.118 263.731 270.098V269.072C263.731 268.052 263.221 267.542 262.201 267.542H260.959C259.951 267.542 259.447 268.052 259.447 269.072V269.648C259.447 269.828 259.363 269.918 259.195 269.918H258.385C258.217 269.918 258.133 269.828 258.133 269.648V269.054C258.133 268.226 258.367 267.584 258.835 267.128C259.315 266.66 259.969 266.426 260.797 266.426H262.363C263.191 266.426 263.839 266.66 264.307 267.128C264.787 267.584 265.027 268.226 265.027 269.054V270.116C265.027 271.184 264.535 271.874 263.551 272.186C264.535 272.438 265.027 273.122 265.027 274.238V275.372C265.027 276.2 264.787 276.848 264.307 277.316C263.839 277.772 263.191 278 262.363 278H260.797C259.969 278 259.315 277.772 258.835 277.316C258.367 276.848 258.133 276.2 258.133 275.372V274.652C258.133 274.472 258.217 274.382 258.385 274.382H259.195C259.363 274.382 259.447 274.472 259.447 274.652V275.354C259.447 276.374 259.951 276.884 260.959 276.884H262.201C263.221 276.884 263.731 276.374 263.731 275.354V274.256C263.731 273.236 263.221 272.726 262.201 272.726H261.157C260.989 272.726 260.905 272.642 260.905 272.474V271.88C260.905 271.712 260.989 271.628 261.157 271.628ZM268.591 275.57V276.992C268.591 277.256 268.501 277.604 268.321 278.036L267.601 279.728C267.541 279.824 267.469 279.872 267.385 279.872C267.265 279.872 267.205 279.794 267.205 279.638V275.57C267.205 275.414 267.283 275.336 267.439 275.336H268.357C268.513 275.336 268.591 275.414 268.591 275.57ZM283.895 268.352V278H282.311V269.702H277.325V278H275.741V268.352H283.895ZM291.563 268.172C292.751 268.172 293.705 268.586 294.425 269.414C295.157 270.242 295.523 271.49 295.523 273.158C295.523 274.802 295.157 276.05 294.425 276.902C293.705 277.754 292.745 278.18 291.545 278.18C290.801 278.18 290.183 278.042 289.691 277.766C289.211 277.478 288.833 277.148 288.557 276.776H288.449C288.473 276.98 288.497 277.238 288.521 277.55C288.545 277.862 288.557 278.132 288.557 278.36V282.32H286.973V268.352H288.269L288.485 269.666H288.557C288.845 269.246 289.223 268.892 289.691 268.604C290.159 268.316 290.783 268.172 291.563 268.172ZM291.275 269.504C290.291 269.504 289.595 269.78 289.187 270.332C288.791 270.884 288.581 271.724 288.557 272.852V273.158C288.557 274.346 288.749 275.264 289.133 275.912C289.529 276.548 290.255 276.866 291.311 276.866C291.899 276.866 292.379 276.704 292.751 276.38C293.135 276.056 293.417 275.618 293.597 275.066C293.789 274.502 293.885 273.86 293.885 273.14C293.885 272.036 293.669 271.154 293.237 270.494C292.817 269.834 292.163 269.504 291.275 269.504ZM301.162 272.798H297.49C297.322 272.798 297.238 272.714 297.238 272.546V271.952C297.238 271.784 297.322 271.7 297.49 271.7H301.162C301.33 271.7 301.414 271.784 301.414 271.952V272.546C301.414 272.714 301.33 272.798 301.162 272.798ZM310.315 269.684H307.165V278H305.599V269.684H302.485V268.352H310.315V269.684ZM313.134 275.57V277.748C313.134 277.916 313.056 278 312.9 278H311.982C311.826 278 311.748 277.916 311.748 277.748V275.57C311.748 275.414 311.826 275.336 311.982 275.336H312.9C313.056 275.336 313.134 275.414 313.134 275.57Z" fill="black"/>
<path d="M327 0H333C335.761 0 338 2.23858 338 5V317H327V0Z" fill="#F3F2F2"/>
<path d="M327.5 0.5H333C335.485 0.5 337.5 2.51472 337.5 5V316.5H327.5V0.5Z" stroke="black" stroke-opacity="0.25"/>
<path d="M327 0H333C335.761 0 338 2.23858 338 5V81H327V0Z" fill="#7D7979"/>
<defs>
<clipPath id="clip0">
<rect x="244" y="34" width="8" height="8" transform="rotate(-180 244 34)" fill="white"/>
</clipPath>
<clipPath id="clip1">
<rect x="35" y="66" width="48" height="48" fill="white"/>
</clipPath>
<clipPath id="clip2">
<rect x="35" y="156" width="48" height="48" fill="white"/>
</clipPath>
<clipPath id="clip3">
<rect x="35" y="246" width="48" height="48" fill="white"/>
</clipPath>
</defs>
</svg>
