<svg width="24" height="24" viewBox="0 0 24 24" fill="none" xmlns="http://www.w3.org/2000/svg">
<path d="M0 9.74995C0 10.3509 0.239016 10.911 0.651001 11.324C0.183985 11.835 -0.0540009 12.52 0.0110149 13.233C0.128016 14.504 1.27303 15.5 2.619 15.5L8.796 15.5C8.49 16.429 8.00002 18.132 8.00002 19.5C8.00002 21.669 9.843 23.4999 11 23.4999C12.038 23.4999 12.781 22.9149 12.812 22.8909C12.931 22.7959 13 22.6519 13 22.5V19.109L15.881 12.87L16 12.809V13C16 13.276 16.224 13.5 16.5 13.5L21.5 13.5C22.879 13.5 24 12.3789 24 11L24 2.99995C24 1.62094 22.879 0.499969 21.5 0.499969H18.5C17.419 0.499969 16.495 1.18997 16.147 2.15297C15.315 1.72495 14.195 1.49995 13.5 1.49995L4.32098 1.49995C3.23199 1.49995 2.27897 2.23397 2.055 3.24595C1.94002 3.76795 2.007 4.29296 2.235 4.74895C1.497 5.11997 0.999985 5.88295 0.999985 6.74995C0.999985 7.10395 1.08098 7.44296 1.23399 7.74895C0.495985 8.12095 0 8.88295 0 9.74995ZM2.109 8.51597C2.30198 8.49295 2.46502 8.36199 2.52699 8.17697C2.58797 7.99195 2.53697 7.78899 2.39498 7.65497C2.14097 7.41595 1.99997 7.09397 1.99997 6.74995C1.99997 6.11897 2.47697 5.58895 3.10795 5.51597C3.30094 5.49295 3.46397 5.36198 3.52594 5.17697C3.58692 4.99195 3.53592 4.78899 3.39394 4.65497C3.06492 4.34499 2.93292 3.90998 3.03192 3.46195C3.15492 2.90395 3.69694 2.49994 4.32094 2.49994L13.5 2.49994C14.312 2.49994 15.674 2.88094 16.146 3.35395C16.289 3.49594 16.505 3.53794 16.691 3.46195C16.878 3.38494 17 3.20194 17 2.99995C17 2.17294 17.673 1.49995 18.5 1.49995H21.5C22.327 1.49995 23 2.17294 23 2.99995L23 11C23 11.827 22.327 12.5 21.5 12.5H17V12C17 11.8269 16.91 11.666 16.762 11.574C16.616 11.486 16.432 11.477 16.276 11.553L15.276 12.053C15.175 12.103 15.094 12.187 15.046 12.29L12.046 18.79C12.016 18.856 12 18.928 12 19V22.229C11.792 22.344 11.431 22.5 11 22.5C10.452 22.5 9 21.138 9 19.5C9 17.7399 9.95798 15.203 9.96698 15.1779C10.025 15.0249 10.005 14.8519 9.912 14.7159C9.81802 14.5809 9.66398 14.4999 9.50002 14.4999H2.619C1.785 14.4999 1.077 13.9029 1.00702 13.1409C0.954 12.5709 1.22803 12.0289 1.719 11.7259C1.872 11.6319 1.96298 11.4619 1.956 11.2809C1.94901 11.1 1.845 10.938 1.68501 10.8549C1.26201 10.6399 1.00003 10.2159 1.00003 9.74995C0.999985 9.11897 1.47698 8.58895 2.109 8.51597Z" fill="black"/>
<path d="M16.5 12.5001C16.776 12.5001 17 12.276 17 12V3.00002C17 2.72402 16.776 2.50001 16.5 2.50001C16.224 2.50001 16 2.72402 16 3.00002L16 12C16 12.276 16.224 12.5001 16.5 12.5001Z" fill="black"/>
</svg>
