<svg width="24" height="24" viewBox="0 0 24 24" fill="none" xmlns="http://www.w3.org/2000/svg">
<path d="M24 14.25C24 13.6491 23.761 13.089 23.349 12.676C23.816 12.165 24.054 11.48 23.989 10.767C23.872 9.49603 22.727 8.50003 21.381 8.50003H15.204C15.51 7.57101 16 5.86805 16 4.50005C16 2.33105 14.157 0.500061 13 0.500061C11.962 0.500061 11.219 1.08506 11.188 1.10906C11.069 1.20408 11 1.34808 11 1.50005V4.89103L8.11898 11.13L7.99997 11.191V11C7.99997 10.724 7.77595 10.5 7.49995 10.5H2.49998C1.12102 10.5 0 11.6211 0 13V21C0 22.3791 1.12102 23.5 2.49998 23.5H5.49998C6.58097 23.5 7.50497 22.81 7.85297 21.847C8.685 22.275 9.80498 22.5 10.5 22.5H19.679C20.768 22.5 21.721 21.766 21.945 20.754C22.06 20.232 21.993 19.707 21.765 19.251C22.503 18.88 23 18.117 23 17.25C23 16.896 22.919 16.557 22.766 16.251C23.504 15.879 24 15.117 24 14.25ZM21.891 15.484C21.698 15.507 21.535 15.638 21.473 15.823C21.412 16.008 21.463 16.211 21.605 16.345C21.859 16.584 22 16.906 22 17.25C22 17.881 21.523 18.411 20.892 18.484C20.6991 18.507 20.536 18.638 20.4741 18.823C20.4131 19.008 20.4641 19.211 20.6061 19.345C20.9351 19.655 21.0671 20.09 20.9681 20.538C20.8451 21.096 20.3031 21.5001 19.6791 21.5001H10.5C9.68798 21.5001 8.32598 21.1191 7.854 20.646C7.71098 20.5041 7.49498 20.4621 7.30898 20.538C7.122 20.6151 6.99998 20.7981 6.99998 21C6.99998 21.8271 6.327 22.5 5.49998 22.5H2.49998C1.67297 22.5 0.999984 21.8271 0.999984 21V13C0.999984 12.173 1.67297 11.5 2.49998 11.5H6.99998V12C6.99998 12.1731 7.08998 12.334 7.23797 12.426C7.38398 12.514 7.56797 12.523 7.72397 12.447L8.72395 11.947C8.82497 11.897 8.90597 11.813 8.95397 11.71L11.954 5.21001C11.984 5.14401 12 5.07201 12 5.00001V1.77103C12.208 1.65605 12.569 1.50005 13 1.50005C13.548 1.50005 15 2.86205 15 4.50005C15 6.26006 14.042 8.79703 14.033 8.82206C13.975 8.97506 13.995 9.14808 14.088 9.28406C14.182 9.41906 14.336 9.50006 14.5 9.50006H21.381C22.215 9.50006 22.923 10.0971 22.993 10.8591C23.046 11.4291 22.772 11.9711 22.281 12.2741C22.128 12.3681 22.037 12.5381 22.044 12.7191C22.051 12.9 22.155 13.062 22.315 13.1451C22.738 13.3601 23 13.7841 23 14.25C23 14.881 22.523 15.411 21.891 15.484Z" fill="black"/>
<path d="M7.50002 11.4999C7.22402 11.4999 7 11.724 7 12V21C7 21.276 7.22402 21.5 7.50002 21.5C7.77602 21.5 8.00003 21.276 8.00003 21V12C8.00003 11.724 7.77602 11.4999 7.50002 11.4999Z" fill="black"/>
</svg>
