<svg width="32" height="32" viewBox="0 0 32 32" fill="none" xmlns="http://www.w3.org/2000/svg">
<rect width="32" height="32" rx="16" fill="#EAEAEA"/>
<g clip-path="url(#clip0)">
<path d="M26.4262 13.8553C26.2914 13.4406 25.9235 13.147 25.4901 13.1078L19.5781 12.571L17.2417 7.10096C17.0692 6.69908 16.6767 6.4397 16.2398 6.4397C15.8029 6.4397 15.4102 6.69908 15.2388 7.10096L12.9024 12.571L6.98947 13.1078C6.55603 13.1478 6.18899 13.4414 6.05336 13.8553C5.91852 14.27 6.04305 14.7248 6.37087 15.0123L10.8398 18.931L9.52217 24.7345C9.42576 25.1613 9.59139 25.6025 9.94546 25.8585C10.1358 25.9967 10.3594 26.0658 10.5838 26.0658C10.7766 26.0658 10.9695 26.0146 11.1419 25.9114L16.2398 22.8633L21.3367 25.9114C21.7107 26.1349 22.1808 26.1144 22.5341 25.8585C22.8882 25.6025 23.0538 25.1613 22.9574 24.7345L21.6397 18.931L26.1087 15.0123C26.4364 14.7248 26.561 14.2709 26.4262 13.8553Z" fill="black"/>
</g>
<defs>
<clipPath id="clip0">
<rect x="6" y="6" width="20.48" height="20.48" fill="white"/>
</clipPath>
</defs>
</svg>
