<svg width="32" height="32" viewBox="0 0 32 32" fill="none" xmlns="http://www.w3.org/2000/svg">
<path d="M17.2486 24.8894L31.4888 10.649C31.8184 10.3196 32 9.87997 32 9.41116C32 8.94235 31.8184 8.50268 31.4888 8.17332L30.4403 7.12461C29.7572 6.44221 28.6468 6.44221 27.9647 7.12461L16.0066 19.0826L4.03535 7.11134C3.70573 6.78198 3.26632 6.60013 2.79777 6.60013C2.3287 6.60013 1.88929 6.78198 1.5594 7.11134L0.511215 8.16005C0.181593 8.48967 1.90735e-06 8.92909 1.90735e-06 9.39789C1.90735e-06 9.8667 0.181593 10.3064 0.511215 10.6357L14.7644 24.8894C15.095 25.2196 15.5365 25.4009 16.0059 25.3998C16.477 25.4009 16.9182 25.2196 17.2486 24.8894Z" fill="#6A6969"/>
</svg>
