<svg width="109" height="20" viewBox="0 0 109 20" fill="none" xmlns="http://www.w3.org/2000/svg">
<path d="M3.015 9.455H5.715V6.515C5.715 6.035 5.59 5.67 5.34 5.42C5.1 5.16 4.75 5.03 4.29 5.03H3.015C2.555 5.03 2.205 5.16 1.965 5.42C1.725 5.67 1.605 6.035 1.605 6.515V7.97C1.605 8.45 1.725 8.82 1.965 9.08C2.205 9.33 2.555 9.455 3.015 9.455ZM4.35 14H1.485C1.365 14 1.305 13.945 1.305 13.835V13.475C1.305 13.375 1.365 13.325 1.485 13.325H4.29C4.75 13.325 5.1 13.2 5.34 12.95C5.58 12.69 5.7 12.32 5.7 11.84V10.13H2.955C2.305 10.13 1.79 9.94 1.41 9.56C1.03 9.18 0.84 8.66 0.84 8V6.485C0.84 5.825 1.03 5.305 1.41 4.925C1.79 4.545 2.305 4.355 2.955 4.355H4.35C5 4.355 5.515 4.545 5.895 4.925C6.275 5.305 6.465 5.825 6.465 6.485V11.87C6.465 12.53 6.275 13.05 5.895 13.43C5.515 13.81 5 14 4.35 14ZM9.30105 12.035V13.82C9.30105 13.94 9.25105 14 9.15105 14H8.62605C8.51605 14 8.46105 13.94 8.46105 13.82V12.035C8.46105 11.925 8.51605 11.87 8.62605 11.87H9.15105C9.25105 11.87 9.30105 11.925 9.30105 12.035ZM13.3421 9.455H16.0421V6.515C16.0421 6.035 15.9171 5.67 15.6671 5.42C15.4271 5.16 15.0771 5.03 14.6171 5.03H13.3421C12.8821 5.03 12.5321 5.16 12.2921 5.42C12.0521 5.67 11.9321 6.035 11.9321 6.515V7.97C11.9321 8.45 12.0521 8.82 12.2921 9.08C12.5321 9.33 12.8821 9.455 13.3421 9.455ZM14.6771 14H11.8121C11.6921 14 11.6321 13.945 11.6321 13.835V13.475C11.6321 13.375 11.6921 13.325 11.8121 13.325H14.6171C15.0771 13.325 15.4271 13.2 15.6671 12.95C15.9071 12.69 16.0271 12.32 16.0271 11.84V10.13H13.2821C12.6321 10.13 12.1171 9.94 11.7371 9.56C11.3571 9.18 11.1671 8.66 11.1671 8V6.485C11.1671 5.825 11.3571 5.305 11.7371 4.925C12.1171 4.545 12.6321 4.355 13.2821 4.355H14.6771C15.3271 4.355 15.8421 4.545 16.2221 4.925C16.6021 5.305 16.7921 5.825 16.7921 6.485V11.87C16.7921 12.53 16.6021 13.05 16.2221 13.43C15.8421 13.81 15.3271 14 14.6771 14ZM20.7982 9.455H23.4982V6.515C23.4982 6.035 23.3732 5.67 23.1232 5.42C22.8832 5.16 22.5332 5.03 22.0732 5.03H20.7982C20.3382 5.03 19.9882 5.16 19.7482 5.42C19.5082 5.67 19.3882 6.035 19.3882 6.515V7.97C19.3882 8.45 19.5082 8.82 19.7482 9.08C19.9882 9.33 20.3382 9.455 20.7982 9.455ZM22.1332 14H19.2682C19.1482 14 19.0882 13.945 19.0882 13.835V13.475C19.0882 13.375 19.1482 13.325 19.2682 13.325H22.0732C22.5332 13.325 22.8832 13.2 23.1232 12.95C23.3632 12.69 23.4832 12.32 23.4832 11.84V10.13H20.7382C20.0882 10.13 19.5732 9.94 19.1932 9.56C18.8132 9.18 18.6232 8.66 18.6232 8V6.485C18.6232 5.825 18.8132 5.305 19.1932 4.925C19.5732 4.545 20.0882 4.355 20.7382 4.355H22.1332C22.7832 4.355 23.2982 4.545 23.6782 4.925C24.0582 5.305 24.2482 5.825 24.2482 6.485V11.87C24.2482 12.53 24.0582 13.05 23.6782 13.43C23.2982 13.81 22.7832 14 22.1332 14ZM29.3643 15.47H29.0193C28.9093 15.47 28.8543 15.41 28.8543 15.29V14H28.3743C27.7343 14 27.2243 13.81 26.8443 13.43C26.4643 13.04 26.2743 12.52 26.2743 11.87V11.405C26.2743 11.295 26.3293 11.24 26.4393 11.24H26.8743C26.9743 11.24 27.0243 11.295 27.0243 11.405V11.825C27.0243 12.825 27.5093 13.325 28.4793 13.325H29.5593C30.5293 13.325 31.0143 12.82 31.0143 11.81V10.925C31.0143 10.395 30.8793 10.025 30.6093 9.815C30.3493 9.605 29.9543 9.495 29.4243 9.485L28.4793 9.47C27.7793 9.45 27.2343 9.29 26.8443 8.99C26.4643 8.69 26.2743 8.16 26.2743 7.4V6.455C26.2743 5.805 26.4643 5.29 26.8443 4.91C27.2243 4.52 27.7343 4.325 28.3743 4.325H28.8543V3.035C28.8543 2.915 28.9093 2.855 29.0193 2.855H29.3643C29.4743 2.855 29.5293 2.915 29.5293 3.035V4.325H29.6643C30.2943 4.325 30.7943 4.52 31.1643 4.91C31.5443 5.29 31.7343 5.805 31.7343 6.455V6.875C31.7343 6.995 31.6843 7.055 31.5843 7.055H31.1493C31.0393 7.055 30.9843 6.995 30.9843 6.875V6.515C30.9843 5.515 30.4993 5.015 29.5293 5.015H28.4793C27.5093 5.015 27.0243 5.525 27.0243 6.545V7.415C27.0243 7.915 27.1493 8.27 27.3993 8.48C27.6593 8.68 28.0543 8.785 28.5843 8.795H29.6643C30.3143 8.815 30.8243 8.98 31.1943 9.29C31.5743 9.6 31.7643 10.13 31.7643 10.88V11.87C31.7643 12.53 31.5743 13.05 31.1943 13.43C30.8143 13.81 30.3043 14 29.6643 14H29.5293V15.29C29.5293 15.41 29.4743 15.47 29.3643 15.47Z" fill="#222222"/>
<rect x="38" width="71" height="20" rx="5" fill="#FFB800"/>
<path d="M51.782 13.318H53.586C54.2167 13.318 54.532 13.0063 54.532 12.383V11.668C54.532 11.0447 54.1947 10.733 53.52 10.733H51.782C51.7087 10.733 51.672 10.766 51.672 10.832V13.208C51.672 13.2813 51.7087 13.318 51.782 13.318ZM51.782 10.062H53.476C54.1213 10.062 54.444 9.75033 54.444 9.127V8.544C54.444 7.92067 54.1323 7.609 53.509 7.609H51.782C51.7087 7.609 51.672 7.64567 51.672 7.719V9.963C51.672 10.029 51.7087 10.062 51.782 10.062ZM50.869 13.846V7.081C50.869 6.97833 50.9203 6.927 51.023 6.927H53.608C54.114 6.927 54.51 7.07 54.796 7.356C55.082 7.63467 55.225 8.027 55.225 8.533V9.138C55.225 9.79067 54.917 10.2123 54.301 10.403C54.5797 10.425 54.818 10.5497 55.016 10.777C55.214 10.997 55.313 11.2903 55.313 11.657V12.394C55.313 12.9 55.1663 13.296 54.873 13.582C54.587 13.8607 54.191 14 53.685 14H51.023C50.9203 14 50.869 13.9487 50.869 13.846ZM60.6461 14H58.3141C57.8081 14 57.4084 13.857 57.1151 13.571C56.8291 13.285 56.6861 12.8853 56.6861 12.372V10.018C56.6861 9.50467 56.8291 9.105 57.1151 8.819C57.4084 8.533 57.8081 8.39 58.3141 8.39H59.2381C59.7441 8.39 60.1401 8.533 60.4261 8.819C60.7121 9.105 60.8551 9.50467 60.8551 10.018V11.415C60.8551 11.525 60.8038 11.58 60.7011 11.58H57.5881C57.5148 11.58 57.4781 11.613 57.4781 11.679V12.35C57.4781 12.988 57.7861 13.307 58.4021 13.307H60.6461C60.7488 13.307 60.8001 13.3583 60.8001 13.461V13.857C60.8001 13.9523 60.7488 14 60.6461 14ZM57.5881 10.997H59.9641C60.0374 10.997 60.0741 10.9603 60.0741 10.887V10.04C60.0741 9.40933 59.7661 9.094 59.1501 9.094H58.4021C57.7861 9.094 57.4781 9.40933 57.4781 10.04V10.887C57.4781 10.9603 57.5148 10.997 57.5881 10.997ZM64.1132 14H62.1552C62.0525 14 62.0012 13.9487 62.0012 13.846V13.461C62.0012 13.3657 62.0525 13.318 62.1552 13.318H64.0032C64.5752 13.318 64.8612 13.1053 64.8612 12.68V12.471C64.8612 12.0823 64.6742 11.8147 64.3002 11.668L63.0022 11.118C62.6282 10.964 62.3605 10.7843 62.1992 10.579C62.0378 10.3663 61.9572 10.0877 61.9572 9.743C61.9572 8.841 62.4522 8.39 63.4422 8.39H65.2462C65.3488 8.39 65.4002 8.44133 65.4002 8.544V8.929C65.4002 9.02433 65.3488 9.072 65.2462 9.072H63.5852C63.3212 9.072 63.1195 9.127 62.9802 9.237C62.8482 9.347 62.7822 9.47533 62.7822 9.622V9.809C62.7822 10.117 62.9912 10.3517 63.4092 10.513L64.7072 11.096C65.0885 11.2427 65.3452 11.437 65.4772 11.679C65.6165 11.921 65.6862 12.2547 65.6862 12.68C65.6862 13.56 65.1618 14 64.1132 14ZM67.178 9.094H66.573C66.4703 9.094 66.419 9.04633 66.419 8.951V8.544C66.419 8.44133 66.4703 8.39 66.573 8.39H67.178C67.2513 8.39 67.288 8.357 67.288 8.291V7.345C67.288 7.24233 67.3393 7.191 67.442 7.191H67.937C68.0323 7.191 68.08 7.24233 68.08 7.345V8.291C68.08 8.357 68.1203 8.39 68.201 8.39H69.367C69.477 8.39 69.532 8.44133 69.532 8.544V8.951C69.532 9.04633 69.477 9.094 69.367 9.094H68.201C68.1203 9.094 68.08 9.127 68.08 9.193V12.361C68.08 12.9843 68.4026 13.296 69.048 13.296H69.477C69.587 13.296 69.642 13.3473 69.642 13.45V13.857C69.642 13.9523 69.587 14 69.477 14H68.949C68.443 14 68.0396 13.8607 67.739 13.582C67.4383 13.296 67.288 12.9 67.288 12.394V9.193C67.288 9.127 67.2513 9.094 67.178 9.094ZM74.2459 15.606H73.7509C73.6482 15.606 73.5969 15.5547 73.5969 15.452V8.544C73.5969 8.44133 73.6482 8.39 73.7509 8.39H74.2459C74.3486 8.39 74.3999 8.44133 74.3999 8.544V8.973H74.4439C74.6272 8.58433 75.0012 8.39 75.5659 8.39H76.2259C76.7246 8.39 77.1096 8.533 77.3809 8.819C77.6596 9.105 77.7989 9.50467 77.7989 10.018V12.372C77.7989 12.8853 77.6596 13.285 77.3809 13.571C77.1096 13.857 76.7246 14 76.2259 14H75.5659C75.0012 14 74.6272 13.8057 74.4439 13.417H74.3999V15.452C74.3999 15.5547 74.3486 15.606 74.2459 15.606ZM75.4229 13.296H76.0719C76.6952 13.296 77.0069 12.977 77.0069 12.339V10.051C77.0069 9.413 76.6952 9.094 76.0719 9.094H75.4229C75.0929 9.094 74.8399 9.182 74.6639 9.358C74.4879 9.534 74.3999 9.78333 74.3999 10.106V12.284C74.3999 12.6067 74.4879 12.856 74.6639 13.032C74.8399 13.208 75.0929 13.296 75.4229 13.296ZM79.8533 14H79.3583C79.2556 14 79.2043 13.9487 79.2043 13.846V8.544C79.2043 8.44133 79.2556 8.39 79.3583 8.39H79.8533C79.956 8.39 80.0073 8.44133 80.0073 8.544V8.984H80.0513C80.1246 8.82267 80.264 8.68333 80.4693 8.566C80.6746 8.44867 80.9166 8.39 81.1953 8.39H81.6243C81.7196 8.39 81.7673 8.44133 81.7673 8.544V8.951C81.7673 9.00233 81.7563 9.04267 81.7343 9.072C81.7123 9.094 81.6756 9.10133 81.6243 9.094H81.0303C80.7003 9.094 80.4473 9.193 80.2713 9.391C80.0953 9.589 80.0073 9.86033 80.0073 10.205V13.846C80.0073 13.9487 79.956 14 79.8533 14ZM82.815 7.466V6.432C82.815 6.32933 82.8626 6.278 82.958 6.278H83.464C83.5666 6.278 83.618 6.32933 83.618 6.432V7.466C83.618 7.56867 83.5666 7.62 83.464 7.62H82.958C82.8626 7.62 82.815 7.56867 82.815 7.466ZM82.815 13.846V8.544C82.815 8.44133 82.8626 8.39 82.958 8.39H83.464C83.5666 8.39 83.618 8.44133 83.618 8.544V13.846C83.618 13.9487 83.5666 14 83.464 14H82.969C82.8663 14 82.815 13.9487 82.815 13.846ZM88.4547 13.45V13.857C88.4547 13.9523 88.4034 14 88.3007 14H86.7057C86.1997 14 85.8 13.857 85.5067 13.571C85.2207 13.285 85.0777 12.8853 85.0777 12.372V10.018C85.0777 9.50467 85.2207 9.105 85.5067 8.819C85.8 8.533 86.1997 8.39 86.7057 8.39H88.3007C88.4034 8.39 88.4547 8.44133 88.4547 8.544V8.951C88.4547 9.04633 88.4034 9.094 88.3007 9.094H86.7937C86.185 9.094 85.8807 9.413 85.8807 10.051V12.339C85.8807 12.977 86.185 13.296 86.7937 13.296H88.3007C88.4034 13.296 88.4547 13.3473 88.4547 13.45ZM93.4313 14H91.0993C90.5933 14 90.1936 13.857 89.9003 13.571C89.6143 13.285 89.4713 12.8853 89.4713 12.372V10.018C89.4713 9.50467 89.6143 9.105 89.9003 8.819C90.1936 8.533 90.5933 8.39 91.0993 8.39H92.0233C92.5293 8.39 92.9253 8.533 93.2113 8.819C93.4973 9.105 93.6403 9.50467 93.6403 10.018V11.415C93.6403 11.525 93.5889 11.58 93.4863 11.58H90.3733C90.2999 11.58 90.2633 11.613 90.2633 11.679V12.35C90.2633 12.988 90.5713 13.307 91.1873 13.307H93.4313C93.5339 13.307 93.5853 13.3583 93.5853 13.461V13.857C93.5853 13.9523 93.5339 14 93.4313 14ZM90.3733 10.997H92.7493C92.8226 10.997 92.8593 10.9603 92.8593 10.887V10.04C92.8593 9.40933 92.5513 9.094 91.9353 9.094H91.1873C90.5713 9.094 90.2633 9.40933 90.2633 10.04V10.887C90.2633 10.9603 90.2999 10.997 90.3733 10.997Z" fill="black"/>
</svg>
