<svg width="32" height="32" viewBox="0 0 32 32" fill="none" xmlns="http://www.w3.org/2000/svg">
<rect width="32" height="32" rx="16" fill="#EAEAEA"/>
<g clip-path="url(#clip0)">
<path d="M12.3741 26.0195C13.745 26.0195 14.8563 24.9082 14.8563 23.5373C14.8563 22.1664 13.745 21.055 12.3741 21.055C11.0032 21.055 9.89185 22.1664 9.89185 23.5373C9.89185 24.9082 11.0032 26.0195 12.3741 26.0195Z" fill="black"/>
<path d="M20.3267 21.0309C18.9491 20.8954 17.7225 21.9022 17.5869 23.2798C17.4514 24.6573 18.4582 25.884 19.8358 26.0195C19.999 26.0356 20.1635 26.0356 20.3267 26.0195C21.7043 25.884 22.7111 24.6573 22.5755 23.2798C22.4584 22.0896 21.5168 21.148 20.3267 21.0309Z" fill="black"/>
<path d="M25.4359 11.584C25.3126 11.3993 25.1037 11.2903 24.8817 11.2948H22.1343V11.2466C22.1345 8.33171 19.7717 5.9686 16.8569 5.96841C13.9421 5.96823 11.579 8.33101 11.5788 11.2459C11.5788 11.2461 11.5788 11.2463 11.5788 11.2466V11.2948H9.53031L8.83143 8.11364C8.75381 7.79004 8.46533 7.56124 8.13255 7.55935H5.12012V9.00532H7.55416L9.79541 19.2958C9.85457 19.6341 10.1509 19.8793 10.4943 19.8742H23.0983C23.4311 19.8722 23.7195 19.6435 23.7972 19.3199L25.5805 12.1864C25.6328 11.974 25.5789 11.7495 25.4359 11.584ZM16.8565 15.0784C14.7403 15.0784 13.0247 13.3628 13.0247 11.2466C13.0247 9.13034 14.7403 7.41476 16.8565 7.41476C18.9728 7.41476 20.6884 9.13034 20.6884 11.2466C20.6752 13.3573 18.9673 15.0652 16.8565 15.0784Z" fill="black"/>
<path d="M16.2782 11.3189L14.9528 9.96929L13.9165 10.9815L15.7481 12.8371C15.8815 12.9733 16.0634 13.0513 16.2541 13.054C16.4424 13.0632 16.6259 12.9933 16.7602 12.8612L19.7968 9.99339L18.8087 8.93301L16.2782 11.3189Z" fill="black"/>
</g>
<defs>
<clipPath id="clip0">
<rect x="5.12012" y="5.76001" width="20.48" height="20.48" fill="white"/>
</clipPath>
</defs>
</svg>
