<svg width="32" height="32" viewBox="0 0 32 32" fill="none" xmlns="http://www.w3.org/2000/svg">
<g clip-path="url(#clip0)">
<path d="M31.5248 18.8075L27.8747 10.9894L29.4504 11.4414C29.7964 11.5407 30.1575 11.3408 30.2565 10.9945C30.3558 10.6485 30.156 10.2876 29.8099 10.1883L18.8543 7.04444C18.8565 6.99759 18.8578 6.95073 18.8578 6.90363C18.8581 5.60273 17.9799 4.46581 16.721 4.1381C15.4621 3.81014 14.1408 4.37414 13.5065 5.50979L2.54985 2.36614C2.20381 2.26683 1.84275 2.46697 1.74344 2.81301C1.64439 3.15905 1.84428 3.51986 2.19032 3.61917L4.35263 4.2397L0.436689 12.6272C0.17544 12.7186 0.000254972 12.9651 3.42945e-07 13.2421C-0.000763547 15.3583 1.27467 17.266 3.23048 18.0739C5.18628 18.8821 7.43644 18.4309 8.92958 16.9314C9.92442 15.9615 10.4864 14.6316 10.4889 13.2421C10.4889 12.9503 10.2946 12.6941 10.0138 12.615L6.37438 4.82L13.146 6.76282C13.1437 6.80967 13.1424 6.85652 13.1424 6.90388C13.1445 8.23025 14.0573 9.38142 15.3483 9.68545V22.5974H13.5491C12.1114 22.5974 10.9157 23.7512 10.9157 25.189V25.5674C9.70595 25.8221 8.83741 26.8859 8.82977 28.1224V29.035C8.84072 29.4029 9.1394 29.6973 9.50759 29.7026H22.4926C22.8608 29.6973 23.1595 29.4029 23.1705 29.035V28.1224C23.1628 26.8859 22.2943 25.8221 21.0845 25.5674V25.189C21.0845 23.7512 19.8886 22.5974 18.4512 22.5974H16.652V9.68545C17.4332 9.50084 18.1011 8.99719 18.4937 8.29721L25.8718 10.4145L21.9477 18.8198C21.6862 18.9112 21.5111 19.1577 21.5108 19.4344C21.5103 21.5507 22.7857 23.4583 24.7415 24.2663C26.6973 25.0745 28.9472 24.6235 30.4404 23.124C31.4352 22.1539 31.9974 20.8239 32 19.4344C31.9997 19.1426 31.8057 18.8867 31.5248 18.8075ZM5.22804 5.41481L8.56343 12.5589H1.89291L5.22804 5.41481ZM5.22804 17.1349C3.30814 17.1461 1.66604 15.7578 1.35794 13.8626H9.12794C8.79616 15.7563 7.15074 17.1372 5.22804 17.1349ZM21.8668 28.1224V28.3989H10.1335V28.1224C10.1335 27.4036 10.7446 26.8345 11.4631 26.8345H20.5371C21.2557 26.8345 21.8668 27.4036 21.8668 28.1224ZM19.7808 25.189V25.5308H12.2194V25.189C12.2194 24.4702 12.8305 23.9011 13.5491 23.9011H18.4512C19.1697 23.9011 19.7808 24.4702 19.7808 25.189ZM16.0001 8.45763C15.3373 8.45814 14.7471 8.03851 14.5299 7.41238C14.3127 6.78624 14.5161 6.09136 15.0366 5.68115C15.5573 5.27095 16.2807 5.23581 16.8386 5.59382C17.3965 5.95157 17.6662 6.62354 17.5106 7.26775C17.494 7.309 17.4818 7.35152 17.4739 7.39506C17.2618 8.02909 16.6685 8.45687 16.0001 8.45763ZM30.0745 18.7515H23.404L26.7391 11.6074L30.0745 18.7515ZM26.7391 23.3275C24.8192 23.3387 23.1771 21.9504 22.869 20.0552H30.639C30.3072 21.9489 28.6618 23.3297 26.7391 23.3275Z" fill="black"/>
</g>
<defs>
<clipPath id="clip0">
<rect width="32" height="32" fill="white"/>
</clipPath>
</defs>
</svg>
