<svg width="64" height="18" viewBox="0 0 64 18" fill="none" xmlns="http://www.w3.org/2000/svg">
<rect width="64" height="18" rx="5" fill="#C4C4C4"/>
<path d="M17.656 14H17.116C17.004 14 16.948 13.944 16.948 13.832V6.452C16.948 6.34 17.004 6.284 17.116 6.284H19.876C20.428 6.284 20.864 6.444 21.184 6.764C21.504 7.076 21.664 7.508 21.664 8.06V9.152C21.664 9.6 21.556 9.972 21.34 10.268C21.124 10.556 20.824 10.748 20.44 10.844V10.892L21.832 13.808C21.904 13.936 21.864 14 21.712 14H21.172C21.036 14 20.936 13.944 20.872 13.832L19.528 10.928H17.944C17.864 10.928 17.824 10.964 17.824 11.036V13.832C17.824 13.944 17.768 14 17.656 14ZM17.944 10.196H19.756C20.444 10.196 20.788 9.852 20.788 9.164V8.096C20.788 7.4 20.444 7.052 19.756 7.052H17.944C17.864 7.052 17.824 7.088 17.824 7.16V10.088C17.824 10.16 17.864 10.196 17.944 10.196ZM25.5533 14H24.9293C24.3773 14 23.9413 13.844 23.6213 13.532C23.3093 13.22 23.1533 12.784 23.1533 12.224V9.656C23.1533 9.096 23.3093 8.66 23.6213 8.348C23.9413 8.036 24.3773 7.88 24.9293 7.88H27.5333C27.6453 7.88 27.7013 7.936 27.7013 8.048V13.832C27.7013 13.944 27.6453 14 27.5333 14H26.9933C26.8813 14 26.8253 13.944 26.8253 13.832V13.364H26.7773C26.5773 13.788 26.1693 14 25.5533 14ZM26.8253 12.128V8.756C26.8253 8.684 26.7853 8.648 26.7053 8.648H25.0253C24.3613 8.648 24.0293 8.996 24.0293 9.692V12.188C24.0293 12.884 24.3613 13.232 25.0253 13.232H25.7093C26.0693 13.232 26.3453 13.136 26.5373 12.944C26.7293 12.752 26.8253 12.48 26.8253 12.128ZM29.5833 8.648H28.9233C28.8113 8.648 28.7553 8.596 28.7553 8.492V8.048C28.7553 7.936 28.8113 7.88 28.9233 7.88H29.5833C29.6633 7.88 29.7033 7.844 29.7033 7.772V6.74C29.7033 6.628 29.7593 6.572 29.8713 6.572H30.4113C30.5153 6.572 30.5673 6.628 30.5673 6.74V7.772C30.5673 7.844 30.6113 7.88 30.6993 7.88H31.9713C32.0913 7.88 32.1513 7.936 32.1513 8.048V8.492C32.1513 8.596 32.0913 8.648 31.9713 8.648H30.6993C30.6113 8.648 30.5673 8.684 30.5673 8.756V12.212C30.5673 12.892 30.9193 13.232 31.6233 13.232H32.0913C32.2113 13.232 32.2713 13.288 32.2713 13.4V13.844C32.2713 13.948 32.2113 14 32.0913 14H31.5153C30.9633 14 30.5233 13.848 30.1953 13.544C29.8673 13.232 29.7033 12.8 29.7033 12.248V8.756C29.7033 8.684 29.6633 8.648 29.5833 8.648ZM33.5989 6.872V5.744C33.5989 5.632 33.6509 5.576 33.7549 5.576H34.3069C34.4189 5.576 34.4749 5.632 34.4749 5.744V6.872C34.4749 6.984 34.4189 7.04 34.3069 7.04H33.7549C33.6509 7.04 33.5989 6.984 33.5989 6.872ZM33.5989 13.832V8.048C33.5989 7.936 33.6509 7.88 33.7549 7.88H34.3069C34.4189 7.88 34.4749 7.936 34.4749 8.048V13.832C34.4749 13.944 34.4189 14 34.3069 14H33.7669C33.6549 14 33.5989 13.944 33.5989 13.832ZM36.8954 14H36.3554C36.2434 14 36.1874 13.944 36.1874 13.832V8.048C36.1874 7.936 36.2434 7.88 36.3554 7.88H36.8954C37.0074 7.88 37.0634 7.936 37.0634 8.048V8.516H37.1114C37.3114 8.092 37.7194 7.88 38.3354 7.88H39.0074C39.5514 7.88 39.9754 8.036 40.2794 8.348C40.5834 8.66 40.7354 9.096 40.7354 9.656V13.832C40.7354 13.944 40.6794 14 40.5674 14H40.0274C39.9154 14 39.8594 13.944 39.8594 13.832V9.692C39.8594 8.996 39.5234 8.648 38.8514 8.648H38.1794C37.8194 8.648 37.5434 8.744 37.3514 8.936C37.1594 9.128 37.0634 9.4 37.0634 9.752V13.832C37.0634 13.944 37.0074 14 36.8954 14ZM44.644 13.676H43.972C43.428 13.676 43.004 13.52 42.7 13.208C42.396 12.896 42.244 12.46 42.244 11.9V9.656C42.244 9.096 42.4 8.66 42.712 8.348C43.032 8.036 43.468 7.88 44.02 7.88H46.624C46.736 7.88 46.792 7.936 46.792 8.048V14C46.792 14.552 46.632 14.984 46.312 15.296C46 15.616 45.568 15.776 45.016 15.776H42.808C42.688 15.776 42.628 15.72 42.628 15.608V15.164C42.628 15.052 42.688 14.996 42.808 14.996H44.908C45.58 14.996 45.916 14.652 45.916 13.964V13.04H45.868C45.66 13.464 45.252 13.676 44.644 13.676ZM45.916 11.804V8.756C45.916 8.684 45.876 8.648 45.796 8.648H44.128C43.456 8.648 43.12 8.996 43.12 9.692V11.864C43.12 12.56 43.456 12.908 44.128 12.908H44.8C45.16 12.908 45.436 12.812 45.628 12.62C45.82 12.428 45.916 12.156 45.916 11.804Z" fill="black"/>
</svg>
