<svg width="9" height="9" viewBox="0 0 9 9" fill="none" xmlns="http://www.w3.org/2000/svg">
<g clip-path="url(#clip0)">
<path d="M8.97598 3.45203C8.91672 3.26979 8.75508 3.14076 8.5646 3.12353L5.96657 2.88766L4.93981 0.483815C4.864 0.307207 4.69151 0.193222 4.49952 0.193222C4.30753 0.193222 4.13498 0.307207 4.05965 0.483815L3.03289 2.88766L0.434446 3.12353C0.243967 3.14111 0.0826713 3.27013 0.0230695 3.45203C-0.036189 3.63426 0.0185375 3.83415 0.162598 3.96049L2.12651 5.68256L1.54745 8.23294C1.50508 8.42047 1.57787 8.61438 1.73346 8.72685C1.8171 8.78762 1.91536 8.81797 2.01396 8.81797C2.0987 8.81797 2.1835 8.79545 2.25924 8.75013L4.49952 7.4106L6.7394 8.75013C6.90372 8.84832 7.11033 8.83933 7.26558 8.72685C7.42118 8.61438 7.49397 8.42047 7.4516 8.23294L6.87254 5.68256L8.83645 3.96049C8.98044 3.83415 9.03524 3.63468 8.97598 3.45203Z" fill="#FFE500"/>
</g>
<defs>
<clipPath id="clip0">
<rect width="9" height="9" fill="white"/>
</clipPath>
</defs>
</svg>
