<svg width="24" height="24" viewBox="0 0 24 24" fill="none" xmlns="http://www.w3.org/2000/svg">
<g clip-path="url(#clip0)">
<path d="M16.3134 7.27258C16.0542 7.27258 15.8438 7.48206 15.8438 7.74115C15.8438 8.00006 16.0542 8.2099 16.3134 8.2099C16.5732 8.2099 16.7831 8.00006 16.7831 7.74115C16.7831 7.48206 16.5732 7.27258 16.3134 7.27258Z" fill="black"/>
<path d="M7.77973 15.7894C7.51994 15.7894 7.31006 15.9994 7.31006 16.2581C7.31006 16.5174 7.51994 16.7269 7.77973 16.7269C8.03896 16.7269 8.24939 16.5174 8.24939 16.2581C8.24939 15.9994 8.03896 15.7894 7.77973 15.7894Z" fill="black"/>
<path d="M23.4861 2.88283C23.3276 2.84602 23.161 2.89381 23.0465 3.00917L21.0994 4.96785H20.1659L19.1383 3.90529V2.96065L21.0576 1.01662C21.1711 0.901626 21.2174 0.736281 21.1798 0.578994C21.1423 0.421889 21.0264 0.29518 20.873 0.243544C20.3909 0.0813128 19.8863 -0.000901574 19.3732 -0.000901574C17.8435 -0.000901574 16.4537 0.711013 15.5603 1.95229C14.724 3.11427 14.4663 4.53829 14.8356 5.90114L11.376 9.35396L5.6123 3.58833V2.45674C5.6123 2.29213 5.5257 2.13942 5.38425 2.05482L2.06337 0.0659319C1.87844 -0.0448469 1.64196 -0.0157331 1.48968 0.136428L0.161402 1.46193C0.0091273 1.61409 -0.0200434 1.85011 0.0907687 2.03468L2.08319 5.34908C2.16795 5.49025 2.32077 5.57649 2.48571 5.57668L3.61914 5.57704L9.38339 11.3427L5.93703 14.7823C4.57151 14.4139 3.14397 14.6715 1.97916 15.5067C0.736194 16.3979 0.0234375 17.7845 0.0234375 19.3112C0.0234375 19.8232 0.105813 20.3269 0.268362 20.8079C0.320282 20.9619 0.448523 21.0782 0.607036 21.1148C0.765732 21.1516 0.932134 21.1038 1.0468 20.9885L2.99372 19.03H3.93232L5.00173 20.0973V21.0341L3.0394 22.9772C2.92382 23.0916 2.87593 23.2577 2.91281 23.4161C2.9495 23.5743 3.066 23.7023 3.22029 23.7541C3.70225 23.9163 4.20696 23.9986 4.71993 23.9986C6.24965 23.9986 7.63884 23.287 8.53194 22.0465C9.36872 20.8839 9.62685 19.4594 9.25772 18.0965L12.0256 15.334L12.6597 16.0214L12.3687 16.3116C12.1853 16.4947 12.1853 16.7915 12.3687 16.9746C12.5522 17.1576 12.8494 17.1576 13.033 16.9746L13.2965 16.7117L19.2455 23.161C19.2499 23.1658 19.2545 23.1704 19.2591 23.175C20.3598 24.2736 22.1433 24.274 23.2446 23.1748C24.3428 22.0782 24.3428 20.2938 23.2446 19.1972C23.2399 19.1924 23.2349 19.1878 23.23 19.1833L16.7579 13.2572L17.0184 12.9972C17.2019 12.8143 17.2019 12.5175 17.0184 12.3344C16.835 12.1513 16.5377 12.1513 16.3541 12.3344L16.0651 12.6229L15.3751 11.9909L18.1565 9.21498C18.5518 9.32045 18.9598 9.37392 19.3732 9.37392C21.963 9.37392 24.0697 7.27114 24.0697 4.6866C24.0697 4.17445 23.9873 3.67091 23.8247 3.18971C23.7728 3.03572 23.6446 2.91945 23.4861 2.88283ZM4.14642 4.77724C4.05836 4.68916 3.93892 4.6443 3.81417 4.6443L2.75191 4.64394L1.08496 1.86623L1.89458 1.05818L4.67296 2.72224V3.78243C4.67296 3.90657 4.72231 4.02559 4.81019 4.11348L10.7119 10.017L10.0475 10.6798L4.14642 4.77724ZM16.093 13.9208L22.5871 19.8668C23.3125 20.5985 23.3103 21.7832 22.5803 22.5121C21.8487 23.2423 20.6642 23.2445 19.9296 22.5185L13.9612 16.0481L16.093 13.9208ZM15.4003 13.2863L13.3244 15.3578L12.6903 14.6704L14.7103 12.6543L15.4003 13.2863ZM19.3732 8.43642C18.9624 8.43642 18.5584 8.37068 18.1728 8.24105C18.0038 8.18447 17.817 8.22805 17.6908 8.35384C15.3362 10.7038 10.2627 15.7672 8.39452 17.632C8.2683 17.758 8.22445 17.9444 8.28151 18.1132C8.67192 19.2702 8.48516 20.5044 7.76891 21.4995C7.05469 22.4918 5.94326 23.0611 4.71993 23.0611C4.58251 23.0611 4.44583 23.0536 4.31044 23.0391L5.80218 21.5618C5.89098 21.4739 5.94106 21.3542 5.94106 21.2291V19.903C5.94106 19.7787 5.89153 19.6595 5.80346 19.5716L4.45886 18.2296C4.3708 18.1417 4.25136 18.0923 4.12679 18.0923H2.79814C2.67284 18.0923 2.55285 18.1423 2.46461 18.2309L0.984604 19.7198C0.969927 19.5846 0.962589 19.4482 0.962589 19.3111C0.962589 18.0899 1.53279 16.9809 2.52717 16.268C3.52411 15.5532 4.76084 15.3666 5.92033 15.7564C6.0893 15.8134 6.27607 15.7696 6.40229 15.6436C6.42816 15.618 15.692 6.37209 15.6986 6.3655C15.8248 6.23952 15.8685 6.0533 15.8116 5.88448C15.421 4.72743 15.6074 3.49367 16.3231 2.49922C17.0379 1.50606 18.1495 0.936599 19.373 0.936599C19.5146 0.936599 19.6553 0.944472 19.7948 0.959853L18.334 2.43953C18.2474 2.52724 18.199 2.64534 18.199 2.76839V4.09444C18.199 4.21602 18.2462 4.33266 18.3307 4.42L19.6284 5.76198C19.7168 5.85353 19.8388 5.90517 19.9663 5.90517H21.295C21.4201 5.90517 21.5401 5.85536 21.6283 5.76656L23.1083 4.27791C23.123 4.41304 23.1303 4.54945 23.1303 4.6866C23.1303 6.75423 21.4449 8.43642 19.3732 8.43642Z" fill="black"/>
<path d="M14.653 8.73541L8.77577 14.6012C8.59249 14.7841 8.59249 15.0809 8.77577 15.264C8.95923 15.4471 9.25662 15.4471 9.44009 15.264L15.3174 9.39825C15.5008 9.21533 15.5008 8.91852 15.3174 8.73541C15.1339 8.55231 14.8365 8.55231 14.653 8.73541Z" fill="black"/>
<path d="M20.5882 21.1875C20.7716 21.3701 21.069 21.3701 21.2525 21.1864C21.4356 21.0031 21.435 20.7063 21.2514 20.5236L17.018 16.312C16.8343 16.1292 16.5367 16.1298 16.3538 16.3131C16.1705 16.4965 16.1711 16.7932 16.3547 16.9759L20.5882 21.1875Z" fill="black"/>
</g>
<defs>
<clipPath id="clip0">
<rect width="24" height="24" fill="white"/>
</clipPath>
</defs>
</svg>
